<?xml version="1.0" standalone="no"?>
<!DOCTYPE svg PUBLIC "-//W3C//DTD SVG 1.1//EN" "http://www.w3.org/Graphics/SVG/1.1/DTD/svg11.dtd" >
<svg>
<metadata>
Created by FontForge 20110222 at Sat Dec  7 17:01:20 2013
 By deploy user
(c)EaDesignWorks 2013
</metadata>
<defs>
<font id="EaDesigner" horiz-adv-x="313" >
  <font-face 
    font-family="EaDesigner"
    font-weight="400"
    font-stretch="normal"
    units-per-em="1000"
    panose-1="0 0 0 0 0 0 0 0 0 0"
    ascent="805"
    descent="-195"
    x-height="491"
    cap-height="696"
    bbox="-95 -213 1281 904"
    underline-thickness="20"
    underline-position="-113"
    unicode-range="U+000D-FB04"
  />
<missing-glyph horiz-adv-x="500" 
 />
    <glyph glyph-name="onequarter" unicode="&#x31;&#x2044;&#x34;" horiz-adv-x="735" 
d="M68 300v304h-48v63h142v-367h-94zM639 76v-76h-91v76h-252v57l211 234h132v-224h46v-67h-46zM548 302l-141 -159h141v159zM162 0h-64l291 667h66z" />
    <glyph glyph-name="onehalf" unicode="&#x31;&#x2044;&#x32;" horiz-adv-x="785" 
d="M68 300v304h-48v63h142v-367h-94zM162 0h-64l291 667h66zM374 0v86q0 57 61 76l183 57q21 7 21 30v3q0 32 -11 42q-17 15 -74 15t-74 -15q-11 -11 -11 -42v-16h-95v33q0 51 25 71q38 31 156 31q117 0 156 -31q24 -20 24 -71v-30q0 -63 -64 -82l-183 -56q-15 -5 -15 -21
v-7h262v-73h-361z" />
    <glyph glyph-name="threequarters" unicode="&#x33;&#x2044;&#x34;" horiz-adv-x="956" 
d="M412 397q0 -51 -25 -71q-39 -31 -157 -31q-117 0 -156 31q-24 20 -24 71v21h94v-3q0 -31 12 -42q17 -15 73 -15q59 0 75 12q12 9 12 38q0 25 -13 33q-17 11 -72 11h-91v63h91q55 0 71 11q11 8 11 33q0 30 -11 38q-15 11 -73 11q-57 0 -74 -15q-11 -11 -11 -42h-94v18
q0 51 24 71q38 31 156 31q117 0 155 -31q24 -20 24 -71v-17q0 -64 -72 -68q75 -7 75 -69v-18zM860 76v-76h-91v76h-252v57l211 234h132v-224h46v-67h-46zM769 302l-141 -159h141v159zM383 0h-64l291 667h66z" />
    <glyph glyph-name="uniFB01" unicode="fi" horiz-adv-x="650" 
d="M232 696h36q28 0 89 -5v-5q0 -49 -162 -58q-37 -26 -37 -52v-79h199q-24 -57 -99 -57h-73l-27 -6v-434h-78v534q0 100 42 136q54 26 110 26zM525 680h5q47 -6 47 -47q-7 -47 -47 -47h-5q-47 8 -47 47q10 47 47 47zM567 497v-492h-74v319q0 101 74 173z" />
    <glyph glyph-name="uniFB02" unicode="fl" horiz-adv-x="661" 
d="M242 696h36q28 0 89 -5v-5q0 -49 -162 -58q-37 -26 -37 -52v-79h199q-24 -57 -99 -57h-73l-27 -6v-434h-78v534q0 100 42 136q54 26 110 26zM503 686h6q49 0 68 -142v-544h-74v686z" />
    <glyph glyph-name="uniFB00" unicode="ff" horiz-adv-x="843" 
d="M232 699h37q28 0 89 -6v-5q0 -49 -162 -58q-37 -26 -37 -52v-79h199q-24 -58 -99 -58h-74l-26 -5v-436h-79v536q0 100 42 136q54 27 110 27zM652 699h11q34 0 105 -6q-20 -52 -68 -52q-137 0 -137 -79v-63h200v-5q0 -58 -200 -58v-436h-73v572q0 127 162 127z" />
    <glyph glyph-name="uniFB03" unicode="ffi" horiz-adv-x="1165" 
d="M964 547v120h143v-120h-143zM226 387v-387h-143v387h-69v95h69v33q0 84 51 121q52 37 172 37q77 0 131 -13v-87q-45 5 -95 5q-64 0 -89 -16q-26 -16 -26 -57v-23h291v33q0 84 51 121q52 37 172 37q77 0 131 -13v-87q-45 5 -95 5q-64 0 -89 -16q-26 -16 -26 -57v-23h445
v-482h-143v387h-303v-387h-143v387h-292z" />
    <glyph glyph-name="uniFB04" unicode="ffl" horiz-adv-x="1168" 
d="M963 0v667h143v-667h-143zM226 0h-143v387h-69v95h69v33q0 84 51 121q52 37 172 37q77 0 131 -13v-87q-45 5 -95 5q-64 0 -89 -16q-26 -16 -26 -57v-23h291v33q0 84 51 121q52 37 172 37q77 0 131 -13v-87q-45 5 -95 5q-64 0 -89 -16q-26 -16 -26 -57v-23h205v-95h-206
v-387h-143v387h-292v-387z" />
    <glyph glyph-name=".notdef" horiz-adv-x="500" 
 />
    <glyph glyph-name=".notdef" horiz-adv-x="500" 
 />
    <glyph glyph-name="uni000D" unicode="&#xd;" horiz-adv-x="310" 
 />
    <glyph glyph-name="space" unicode=" " horiz-adv-x="310" 
 />
    <glyph glyph-name="exclam" unicode="!" horiz-adv-x="324" 
d="M223 200h-122l-23 467h168zM88 0v140h148v-140h-148z" />
    <glyph glyph-name="quotedbl" unicode="&#x22;" horiz-adv-x="348" 
d="M215 393v274h102v-274h-102zM33 393v274h102v-274h-102z" />
    <glyph glyph-name="numbersign" unicode="#" horiz-adv-x="619" 
d="M575 388h-100l-15 -105h100l-13 -94h-100l-16 -108h-100l16 108h-115l-16 -108h-100l16 108h-99l13 93h99l14 104h-99l14 96h99l15 108h100l-15 -108h115l15 108h100l-15 -108h100zM260 388l-15 -106h115l15 106h-115z" />
    <glyph glyph-name="dollar" unicode="$" horiz-adv-x="555" 
d="M328 578q105 -5 148 -39q38 -29 38 -90v-25h-136v11q0 32 -17 44q-21 16 -84 16q-60 0 -82 -16q-16 -12 -16 -40q0 -43 42 -48l153 -17q140 -16 140 -133q0 -78 -40 -111q-42 -34 -146 -39v-91h-99v91q-116 6 -156 46q-30 29 -30 96v12h136v-9q0 -34 16 -47
q21 -17 83 -17t84 16q16 12 16 42q0 45 -47 51l-148 16q-140 16 -140 133q0 73 40 106q42 35 146 42v89h99v-89z" />
    <glyph glyph-name="percent" unicode="%" horiz-adv-x="901" 
d="M867 87q0 -44 -28 -64q-39 -29 -139 -29q-99 0 -138 29q-29 21 -29 64v157q0 44 29 65q38 29 138 29t139 -29q28 -21 28 -65v-157zM345 0h-91l303 668h90zM368 424q0 -44 -29 -65q-38 -29 -138 -29t-139 29q-28 21 -28 65v157q0 44 28 65q39 28 139 28q99 0 138 -28
q29 -22 29 -65v-157zM766 223q0 31 -9 40q-13 13 -57 13t-57 -13q-9 -9 -9 -40v-115q0 -30 9 -39q13 -13 57 -13t57 13q9 9 9 39v115zM267 560q0 30 -9 39q-13 13 -57 13t-57 -13q-9 -9 -9 -39v-115q0 -31 9 -40q13 -13 57 -13t57 13q9 9 9 40v115z" />
    <glyph glyph-name="ampersand" unicode="&#x26;" horiz-adv-x="721" 
d="M502 366h196v-99h-56v-91q0 -91 -41 -128q-64 -56 -258 -56q-195 0 -259 56q-41 37 -41 128v42q0 102 98 131q-68 54 -68 134v7q0 87 43 128q59 57 215 57t215 -57q43 -41 43 -128v-22h-149v5q0 55 -18 74q-23 24 -91 24t-91 -23q-18 -19 -18 -72q0 -44 37 -74l243 -193
v157zM219 290q-27 -25 -27 -96q0 -59 21 -76q29 -23 130 -23q80 0 116 12z" />
    <glyph glyph-name="quotesingle" unicode="'" horiz-adv-x="166" 
d="M33 393v274h102v-274h-102z" />
    <glyph glyph-name="parenleft" unicode="(" horiz-adv-x="350" 
d="M258 748q-88 -248 -88 -408q0 -155 88 -400h-60q-108 227 -108 404q0 185 112 404h56z" />
    <glyph glyph-name="parenright" unicode=")" horiz-adv-x="350" 
d="M92 750h56q108 -221 108 -392v-28q0 -176 -108 -388h-56q84 246 84 380v44q0 130 -84 384z" />
    <glyph glyph-name="asterisk" unicode="*" horiz-adv-x="365" 
d="M222 667h-80l9 -108l-100 43l-23 -76l104 -25l-71 -82l65 -46l56 92l56 -93l64 47l-70 82l105 24l-25 76l-99 -42z" />
    <glyph glyph-name="plus" unicode="+" horiz-adv-x="362" 
d="M231 244v-125h-98v125h-125v99h125v125h98v-125h125v-99h-125z" />
    <glyph glyph-name="comma" unicode="," horiz-adv-x="206" 
d="M175 -31q0 -72 -85 -72h-57v44h26q34 0 34 30v29h-60v134h142v-165z" />
    <glyph glyph-name="hyphen" unicode="-" horiz-adv-x="414" 
d="M38 244v99h340v-99h-340z" />
    <glyph glyph-name="hyphen" unicode="&#xad;" horiz-adv-x="414" 
d="M38 244v99h340v-99h-340z" />
    <glyph glyph-name="period" unicode="." horiz-adv-x="206" 
d="M43 0v97h91v-97h-91z" />
    <glyph glyph-name="slash" unicode="/" horiz-adv-x="409" 
d="M270 736h73q-9 -41 -210 -776h-73q202 730 210 776z" />
    <glyph glyph-name="zero" unicode="0" horiz-adv-x="706" 
d="M358 696q187 0 239 -71q24 -41 24 -99v-351q0 -114 -76 -145q-61 -30 -184 -30h-10q-208 0 -246 89q-15 38 -15 105v303q0 133 61 160q61 39 207 39zM171 512v-328q0 -77 42 -98q42 -22 116 -22h54q118 0 147 54q10 26 10 49v362q0 69 -64 91q-50 12 -108 12h-20
q-143 0 -167 -57q-10 -28 -10 -63z" />
    <glyph glyph-name="one" unicode="1" horiz-adv-x="368" 
d="M75 696h214v-696h-82v625h-3q-131 0 -131 37q-3 18 -3 29q1 5 5 5z" />
    <glyph glyph-name="two" unicode="2" horiz-adv-x="703" 
d="M346 696q207 0 248 -83q18 -36 18 -89v-29q0 -116 -120 -159q-276 -117 -305 -135q-26 -22 -26 -81v-52q30 2 44 2h102q273 0 273 -28q29 -33 29 -42h-529v130q0 129 136 167q243 104 286 128q29 27 29 65v18q0 83 -47 105q-51 18 -109 18q-42 0 -248 -5q-14 -3 -21 -3
q45 73 240 73z" />
    <glyph glyph-name="three" unicode="3" horiz-adv-x="709" 
d="M338 692q201 0 239 -79q18 -39 18 -75q5 -297 5 -382q0 -153 -218 -153q0 -3 -46 -3q-195 0 -231 56l-5 8h269q104 0 139 46q12 28 12 80v10q0 81 -43 102q-39 23 -146 23h-123v62h100q175 0 192 38q15 20 15 72v16q0 78 -33 94q-45 21 -110 21q-119 0 -267 -5
q44 69 233 69z" />
    <glyph glyph-name="four" unicode="4" horiz-adv-x="705" 
d="M467 693h108v-449q50 0 60 -18q9 -26 13 -50h-73v-176h-82v176l-10 3l-399 7q-24 5 -24 16q1 67 189 268q90 99 218 223zM149 247v-3h344v378q-25 -25 -344 -375z" />
    <glyph glyph-name="five" unicode="5" horiz-adv-x="724" 
d="M93 692h505q0 -67 -49 -67q-22 -3 -65 -3h-311v-153q329 0 358 -26q52 -17 77 -65q13 -36 13 -85v-109q0 -128 -80 -155q-66 -29 -184 -29q-206 0 -267 67q120 -2 187 -2h96q133 0 158 54q10 29 10 75v73q0 91 -36 109q-37 26 -132 26h-42q-80 0 -238 -3v293z" />
    <glyph glyph-name="six" unicode="6" horiz-adv-x="709" 
d="M353 696q184 0 232 -67h-222q-6 0 -10 3q-5 -3 -10 -3h-18q-101 0 -134 -39q-21 -17 -21 -118v-29h175q211 0 250 -77q21 -36 21 -93v-103q0 -111 -83 -144q-66 -26 -180 -26q-206 0 -248 85q-15 41 -15 111v304q0 130 62 157q58 39 201 39zM170 219q0 -102 23 -118
q35 -37 134 -37h57q104 0 139 47q13 28 13 80v67q0 89 -57 105q-39 16 -113 16h-23q-171 0 -171 -90q-2 -36 -2 -70z" />
    <glyph glyph-name="seven" unicode="7" horiz-adv-x="576" 
d="M30 692h506q0 -71 -100 -320q-73 -168 -167 -372h-87l267 621h-128q-278 0 -278 24q-13 26 -13 47z" />
    <glyph glyph-name="eight" unicode="8" horiz-adv-x="709" 
d="M351 691q200 0 238 -79q20 -14 20 -220q3 -162 3 -233q0 -156 -217 -156q0 -3 -44 -3q-202 0 -241 79q-20 37 -20 90q5 266 5 348q0 106 62 138q62 36 194 36zM174 504q0 -81 34 -100q40 -23 135 -23h18q125 0 154 41q13 31 13 67v28q0 81 -52 97q-47 13 -99 13h-52
q-112 0 -140 -46q-11 -38 -11 -77zM169 192q0 -77 34 -100q39 -28 120 -28h54q122 0 145 56q11 21 11 72v10q0 93 -62 115q-60 16 -120 16q-145 0 -169 -62q-13 -28 -13 -79z" />
    <glyph glyph-name="nine" unicode="9" horiz-adv-x="709" 
d="M353 696q211 0 248 -87q15 -33 15 -83v-356q0 -110 -83 -144q-67 -26 -183 -26q-186 0 -239 67v3q30 -3 43 -3h124q38 0 88 -3q115 0 155 44q15 32 15 78v64h-165q-217 0 -255 72q-26 30 -26 124v54q0 127 57 155q60 41 206 41zM170 474q0 -131 44 -136q34 -23 136 -23h8
q123 0 157 38q21 26 21 83v69q0 81 -33 101q-41 26 -132 26h-41q-128 0 -152 -60q-8 -35 -8 -98z" />
    <glyph glyph-name="colon" unicode=":" horiz-adv-x="210" 
d="M34 260v134h142v-134h-142zM34 0v134h142v-134h-142z" />
    <glyph glyph-name="semicolon" unicode=";" horiz-adv-x="210" 
d="M176 -31q0 -72 -85 -72h-57v44h26q34 0 34 30v29h-60v134h142v-165zM34 260v134h142v-134h-142z" />
    <glyph glyph-name="semicolon" unicode="&#x37e;" horiz-adv-x="210" 
d="M176 -31q0 -72 -85 -72h-57v44h26q34 0 34 30v29h-60v134h142v-165zM34 260v134h142v-134h-142z" />
    <glyph glyph-name="less" unicode="&#x3c;" horiz-adv-x="526" 
d="M24 330l454 180v-112l-296 -104l296 -103v-112l-454 179v72z" />
    <glyph glyph-name="equal" unicode="=" horiz-adv-x="410" 
d="M39 330v98h333v-98h-333zM39 159v98h333v-98h-333z" />
    <glyph glyph-name="greater" unicode="&#x3e;" horiz-adv-x="526" 
d="M49 79v112l296 103l-296 104v112l454 -180v-72z" />
    <glyph glyph-name="question" unicode="?" horiz-adv-x="653" 
d="M332 556q229 0 229 -139v-60q0 -72 -121 -121q-96 -51 -96 -91v-72h-67v96q0 55 133 115q85 41 85 85v18q0 115 -139 115h-30q-164 0 -164 -97v-85h-72v49q0 127 54 151q61 36 188 36zM271 25h79v-85h-79v85z" />
    <glyph glyph-name="at" unicode="@" horiz-adv-x="871" 
d="M815 247q0 -112 -131 -112q-96 0 -126 58q-44 -53 -159 -53q-174 0 -174 128q0 116 160 116h143v2q0 40 -12 54q-18 20 -76 20q-50 0 -67 -9q-18 -9 -18 -38l-115 3q0 59 40 84q45 28 160 28q126 0 172 -41q32 -29 32 -95v-144q0 -33 36 -33q35 0 35 33v149q0 96 -54 142
q-65 56 -225 56t-225 -56q-54 -46 -54 -142v-127q0 -96 54 -141q65 -56 225 -56q109 0 170 24l39 -74q-82 -29 -209 -29q-203 0 -296 75q-83 67 -83 201v127q0 134 83 201q92 75 296 75t296 -75q83 -67 83 -201v-150zM528 314h-118q-68 0 -68 -50q0 -28 16 -40
q17 -14 61 -14q109 0 109 65v39z" />
    <glyph glyph-name="A" unicode="A" horiz-adv-x="661" 
d="M338 696q176 0 236 -70q26 -47 26 -102v-524h-77v313h-370v-313h-83v492q0 135 64 166q76 38 204 38zM153 536v-159h370v83q0 153 -57 153q0 15 -115 19h-32q-166 0 -166 -96z" />
    <glyph glyph-name="B" unicode="B" horiz-adv-x="653" 
d="M60 696h273q254 0 254 -189q0 -61 13 -344q0 -110 -130 -156l-78 -7h-332v696zM145 631v-247h156q201 0 201 71v65q0 111 -136 111h-221zM145 319v-260h182q110 0 162 32q33 52 33 104q0 124 -124 124h-253z" />
    <glyph glyph-name="C" unicode="C" horiz-adv-x="677" 
d="M364 692q201 0 264 -86h-114q-72 0 -179 8q-178 0 -178 -122v-299q0 -115 171 -115h300q-62 -78 -228 -78h-79q-226 0 -264 143q-7 60 -7 100v199q0 236 185 236q0 12 129 14z" />
    <glyph glyph-name="D" unicode="D" horiz-adv-x="661" 
d="M60 692h291q246 0 246 -181v-330q0 -131 -123 -175l-65 -6h-349v692zM144 627v-569h194q175 0 175 110q6 20 6 78v207q0 168 -97 168q0 6 -39 6h-239z" />
    <glyph glyph-name="E" unicode="E" horiz-adv-x="568" 
d="M70 696h449v-7q0 -65 -202 -65h-162v-234h351v-71h-351v-254h208q156 0 156 -65h-449v696z" />
    <glyph glyph-name="F" unicode="F" horiz-adv-x="557" 
d="M60 696h449v-7q0 -65 -247 -65h-117v-253h344q-33 -65 -97 -65h-98q-31 0 -65 -7q-24 7 -58 7h-26v-306h-85v696z" />
    <glyph glyph-name="G" unicode="G" horiz-adv-x="619" 
d="M314 692q183 0 227 -69q-63 6 -95 6h-151q-163 0 -163 -94v-378q0 -94 163 -94h32q163 0 163 94q7 20 7 76v63h-82q-88 12 -88 63h245v-189q0 -130 -113 -151q-63 -19 -151 -19q-192 0 -245 88q-13 63 -13 113v290q0 133 63 163q75 38 201 38z" />
    <glyph glyph-name="H" unicode="H" horiz-adv-x="634" 
d="M60 692q84 0 84 -181v-123h349q-6 13 -6 19q0 279 58 279q15 0 26 6v-692h-78v317h-349v-317h-84v692z" />
    <glyph glyph-name="I" unicode="I" horiz-adv-x="232" 
d="M155 696h7v-696h-85q-7 280 -7 328q0 307 46 342z" />
    <glyph glyph-name="J" unicode="J" horiz-adv-x="576" 
d="M447 692h84v-474q0 -180 -65 -180q0 -24 -140 -38h-103q-124 0 -173 64h64q83 0 173 -6q160 0 160 102v532z" />
    <glyph glyph-name="K" unicode="K" horiz-adv-x="626" 
d="M50 692q78 -18 78 -123q6 -44 6 -136v-77h129q5 17 214 330h6q13 -43 13 -59v-6q0 -75 -142 -259v-6h39q168 0 168 -117v-239h-78v207q0 84 -136 84h-213v-291h-84v692z" />
    <glyph glyph-name="L" unicode="L" horiz-adv-x="561" 
d="M50 696h7q68 0 78 -217v-413h381v-66h-466v696z" />
    <glyph glyph-name="M" unicode="M" horiz-adv-x="824" 
d="M60 692q128 0 168 -116q98 -251 175 -505h13q102 377 207 550q55 71 142 71v-692h-78v601h-13l-213 -601h-91q-19 11 -142 382q-83 226 -90 226v-608h-78v692z" />
    <glyph glyph-name="N" unicode="N" horiz-adv-x="665" 
d="M50 696q89 -16 163 -91q183 -268 305 -501h13l-6 65v293q0 183 58 221l13 6h7v-689h-91q-20 13 -371 592l-13 6v-598h-78v696z" />
    <glyph glyph-name="O" unicode="O" horiz-adv-x="630" 
d="M322 696q202 0 247 -95q12 -51 12 -107v-292q0 -150 -88 -177q-85 -25 -177 -25q-212 0 -247 89q-19 29 -19 113v304q0 138 101 171q95 19 171 19zM132 544v-392q0 -89 152 -89h63q152 0 152 89v386q0 95 -152 95h-63q-152 0 -152 -89z" />
    <glyph glyph-name="P" unicode="P" horiz-adv-x="657" 
d="M60 700h294q249 0 249 -183v-131q0 -133 -124 -177l-66 -6h-268v-203h-85v700zM145 635v-373h203q170 0 170 111q6 20 6 78v7q0 170 -98 170q0 7 -39 7h-242z" />
    <glyph glyph-name="Q" unicode="Q" horiz-adv-x="634" 
d="M323 696q202 0 248 -95q12 -51 12 -108v-292q0 -151 -89 -178l-25 -6q25 -38 83 -102h-7q-93 27 -146 89q-56 -6 -70 -6q-230 0 -266 95q-13 51 -13 108v305q0 138 102 171q95 19 171 19zM133 544v-394q0 -89 152 -89h63l-76 95v7q63 0 153 -89q66 0 76 82v381
q0 96 -153 96h-63q-152 0 -152 -89z" />
    <glyph glyph-name="R" unicode="R" horiz-adv-x="657" 
d="M60 696h293q174 0 227 -85q20 -60 20 -110v-65q0 -111 -91 -150h-13v-6q104 0 104 -156v-124h-78v59q0 182 -65 182q-25 6 -52 6h-260v-247h-85v696zM145 631v-319h234q143 0 143 156v7q0 156 -137 156h-240z" />
    <glyph glyph-name="S" unicode="S" horiz-adv-x="630" 
d="M316 696q171 0 228 -63v-7q-218 7 -266 7q-146 0 -146 -95v-70q0 -75 234 -88q209 -25 209 -152v-57q0 -110 -88 -146q-81 -25 -171 -25q-204 8 -228 63h240q159 0 159 64q7 0 12 69q0 120 -209 120q-234 28 -234 133q-6 8 -6 45q0 135 63 164q70 38 203 38z" />
    <glyph glyph-name="T" unicode="T" horiz-adv-x="568" 
d="M10 696h540v-7q0 -57 -156 -65h-72v-624h-84v624h-52q-169 0 -169 65q-7 0 -7 7z" />
    <glyph glyph-name="U" unicode="U" horiz-adv-x="638" 
d="M50 694h6q60 0 78 -312v-233q0 -91 188 -91t188 117v240q0 285 78 285v-519q0 -128 -91 -162q-67 -19 -136 -19h-84q-227 0 -227 175v519z" />
    <glyph glyph-name="V" unicode="V" horiz-adv-x="626" 
d="M20 696q106 0 163 -208q65 -161 130 -371h6q164 566 247 566q0 13 46 13v-7q-215 -569 -254 -689h-84q-33 109 -254 696z" />
    <glyph glyph-name="W" unicode="W" horiz-adv-x="905" 
d="M50 692q77 -20 77 -147q6 -89 6 -225v-166q0 -96 141 -96t141 121v513h77v-461q0 -161 71 -161q0 -9 76 -12q141 0 141 121v161q0 258 45 326l26 20h6v-526q0 -160 -185 -160h-436q-142 0 -180 103q-6 63 -6 96v493z" />
    <glyph glyph-name="X" unicode="X" horiz-adv-x="650" 
d="M60 696h7q71 -26 71 -104q0 -195 91 -195q0 -13 98 -13h6q189 0 189 136q9 176 78 176v-195q0 -100 -124 -143v-13q124 -42 124 -137v-208h-78v163q0 156 -143 156h-98q-136 0 -136 -111v-208h-85v182q0 122 117 163h7v13q-124 38 -124 162v176z" />
    <glyph glyph-name="Y" unicode="Y" horiz-adv-x="615" 
d="M20 692h6q100 0 272 -356h13q180 350 278 350v-7q-229 -386 -246 -440v-239h-77v246q0 13 -246 446z" />
    <glyph glyph-name="Z" unicode="Z" horiz-adv-x="557" 
d="M47 696h474v-65l-383 -559v-7q33 0 130 7q206 0 247 -59v-13h-475v59l390 565h-117q-247 0 -247 46q-10 0 -19 26z" />
    <glyph glyph-name="bracketleft" unicode="[" horiz-adv-x="366" 
d="M260 -106q-121 0 -162 43q-24 25 -24 84v625q0 59 24 85q41 42 162 42h78v-87h-68q-32 0 -32 -26v-653q0 -26 32 -26h68v-87h-78z" />
    <glyph glyph-name="backslash" unicode="\" horiz-adv-x="412" 
d="M258 -50l-229 767h128l227 -767h-126z" />
    <glyph glyph-name="bracketright" unicode="]" horiz-adv-x="366" 
d="M293 21q0 -59 -25 -84q-41 -43 -161 -43h-78v87h68q32 0 32 26v653q0 26 -32 26h-68v87h78q120 0 161 -42q25 -26 25 -85v-625z" />
    <glyph glyph-name="asciicircum" unicode="^" horiz-adv-x="475" 
d="M344 312l-107 233l-105 -233h-113l171 355h96l171 -355h-113z" />
    <glyph glyph-name="underscore" unicode="_" horiz-adv-x="710" 
d="M0 -152v94h710v-94h-710z" />
    <glyph glyph-name="grave" unicode="`" horiz-adv-x="371" 
d="M196 675l105 -118h-95l-136 118h126z" />
    <glyph glyph-name="a" unicode="a" horiz-adv-x="561" 
d="M271 499q232 0 232 -144v-206q0 -149 -180 -149h-72q-169 0 -196 108q-5 44 -5 72v57q0 51 41 51h340v57q0 97 -175 97h-185q22 57 190 57h10zM127 231v-87q0 -87 129 -87h46q118 7 118 56q11 0 11 62v51h-5q-69 0 -299 5z" />
    <glyph glyph-name="b" unicode="b" horiz-adv-x="568" 
d="M70 692q73 -27 73 -109v-78h198q176 0 176 -162v-177q0 -166 -187 -166l-260 10v682zM148 151q0 -89 146 -89q140 8 140 63q11 0 11 62v120q0 135 -94 135h-88q-101 0 -115 -73v-218z" />
    <glyph glyph-name="c" unicode="c" horiz-adv-x="549" 
d="M285 495q143 0 188 -61h-81q-52 0 -128 5q-127 0 -127 -87v-214q0 -82 122 -82h214q-44 -56 -163 -56h-56q-161 0 -189 102q-5 43 -5 72v142q0 169 133 169q0 8 92 10z" />
    <glyph glyph-name="d" unicode="d" horiz-adv-x="561" 
d="M505 688v-678q-171 -5 -248 -10q-134 0 -181 83q-16 45 -16 103v124q0 153 88 176q48 16 88 16h196v36q0 125 63 145zM138 357v-207q0 -88 144 -88q119 0 145 62q5 52 5 78v103q0 109 -51 124q-39 11 -73 11h-57q-113 0 -113 -83z" />
    <glyph glyph-name="e" unicode="e" horiz-adv-x="553" 
d="M281 499q222 0 222 -134v-134q-12 -25 -52 -25h-118q-76 0 -206 5v-67q0 -87 134 -87h226q0 -43 -139 -57h-97q-170 0 -196 108q-5 35 -5 57v113q0 163 62 190q74 31 169 31zM127 350v-82h304v66q-6 93 -62 93q0 8 -93 15q-149 0 -149 -92z" />
    <glyph glyph-name="f" unicode="f" horiz-adv-x="429" 
d="M232 696h36q28 0 89 -5v-5q0 -49 -162 -58q-37 -26 -37 -52v-79h199q-24 -57 -99 -57h-73l-27 -6v-434h-78v534q0 100 42 136q54 26 110 26z" />
    <glyph glyph-name="g" unicode="g" horiz-adv-x="561" 
d="M237 498q95 -5 169 -5h93v-559q0 -143 -195 -143h-36q-142 0 -179 61h5q196 -5 215 -5q118 0 118 98v25l-5 26q-286 0 -313 41q-51 31 -51 143v134q0 128 77 164q87 20 102 20zM135 349v-199q0 -87 123 -87h51q118 0 118 112v139q0 117 -103 117l-46 6q-143 0 -143 -88z
" />
    <glyph glyph-name="h" unicode="h" horiz-adv-x="557" 
d="M60 684q73 0 73 -109v-67l5 -11q-5 0 -5 -5l62 5h134q142 0 166 -103q11 -23 11 -83v-311h-78v347q0 83 -150 83q-140 0 -140 -93v-337h-78v684z" />
    <glyph glyph-name="i" unicode="i" horiz-adv-x="251" 
d="M132 673q47 -16 47 -52q0 -38 -52 -47q-34 0 -47 52q16 47 52 47zM169 490v-490h-79v240q0 183 79 250z" />
    <glyph glyph-name="j" unicode="j" horiz-adv-x="271" 
d="M139 681q32 0 52 -47q-12 -52 -52 -52q-47 9 -47 47v16q20 36 47 36zM186 494h5v-504q0 -163 -57 -182q-32 -16 -94 -16q-99 0 -130 42l-5 10v5h114q94 10 94 78v374q0 146 52 182q8 0 21 11z" />
    <glyph glyph-name="k" unicode="k" horiz-adv-x="545" 
d="M60 653q74 0 74 -168q0 -39 -5 -69q5 -36 5 -89v-55h104l158 223h5q10 -32 10 -45q0 -59 -84 -168q0 -10 5 -10q123 0 153 -84q5 -19 5 -40v-148h-69v124q0 89 -89 89h-198v-213h-74v653z" />
    <glyph glyph-name="l" unicode="l" horiz-adv-x="224" 
d="M80 696q79 -29 79 -158v-538h-79v696z" />
    <glyph glyph-name="m" unicode="m" horiz-adv-x="855" 
d="M642 499q167 0 167 -187v-312h-78v348q0 89 -130 89t-130 -130v-307h-73v317q0 98 -68 114q-23 0 -67 6q-125 -14 -125 -104v-333h-78v494h244q128 0 338 5z" />
    <glyph glyph-name="n" unicode="n" horiz-adv-x="565" 
d="M325 499q177 -18 177 -130q5 -25 5 -68v-301h-78v333q0 67 -83 98q-22 0 -57 6q-146 -16 -146 -89q-5 0 -5 -21v-327h-78v494h94q75 0 171 5z" />
    <glyph glyph-name="o" unicode="o" horiz-adv-x="557" 
d="M281 499q156 0 206 -72q16 -48 16 -87v-186q0 -154 -196 -154h-56q-146 0 -191 82q-10 52 -10 93v144q0 98 41 134q59 46 190 46zM127 355v-221q0 -77 129 -77h46q118 7 118 56q11 0 11 62v144q0 118 -103 118q-7 0 -52 5q-149 0 -149 -87z" />
    <glyph glyph-name="p" unicode="p" horiz-adv-x="565" 
d="M329 497q134 0 176 -103l5 -62v-174q0 -160 -191 -160h-181v-51q0 -98 -41 -134l-31 -10v689h93q74 0 170 5zM143 348v-201q0 -87 124 -87h52q119 0 119 113v139q0 118 -104 118l-46 5q-145 0 -145 -87z" />
    <glyph glyph-name="q" unicode="q" horiz-adv-x="565" 
d="M243 501q96 -5 171 -5h93v-694h-5q-62 28 -62 99q-5 25 -5 67v31h-182q-123 0 -170 67q-21 47 -21 125v124q0 130 78 165q88 21 103 21zM140 351v-207q0 -83 124 -83h41q130 0 130 109v145q0 119 -114 119q-21 5 -36 5q-145 0 -145 -88z" />
    <glyph glyph-name="r" unicode="r" horiz-adv-x="414" 
d="M361 495q-20 -56 -82 -56q-138 0 -138 -97v-342h-71v490q241 5 291 5z" />
    <glyph glyph-name="s" unicode="s" horiz-adv-x="553" 
d="M275 495q140 0 188 -66l-35 5h-82q-44 0 -92 5q-127 -11 -127 -72v-25q0 -44 97 -56q229 -30 229 -56q23 0 41 -82q0 -148 -199 -148h-61q-113 0 -164 66h6q166 -10 229 -10q112 13 112 66v26q0 53 -107 61q-250 29 -250 102q-10 0 -10 41q0 143 225 143z" />
    <glyph glyph-name="t" unicode="t" horiz-adv-x="410" 
d="M80 688q72 -17 72 -72q0 -83 6 -119h196v-57h-196v-316q0 -62 155 -62h36v-5q-26 -57 -129 -57q-140 0 -140 150v538z" />
    <glyph glyph-name="u" unicode="u" horiz-adv-x="565" 
d="M60 495q72 -27 72 -155q5 0 5 -67v-118q0 -78 124 -93h16q149 14 149 98v335h77v-490h-5q-52 0 -268 -5q-118 0 -160 93q-10 41 -10 98v304z" />
    <glyph glyph-name="v" unicode="v" horiz-adv-x="541" 
d="M30 491q101 0 202 -310q9 -7 41 -98q6 0 145 336q43 67 103 67l-207 -486h-82z" />
    <glyph glyph-name="w" unicode="w" horiz-adv-x="812" 
d="M60 491h5q72 0 72 -169v-179q0 -87 122 -87q113 0 113 123v312h72v-348q0 -87 122 -87q113 0 113 123v215q0 77 66 97h5v-317q0 -169 -133 -169q0 -5 -35 -5h-353q-111 0 -154 77q-15 44 -15 102v312z" />
    <glyph glyph-name="x" unicode="x" horiz-adv-x="561" 
d="M60 495q72 0 83 -167q30 -47 99 -47h79q109 0 109 110q0 74 73 104v-130q0 -76 -99 -110h-5v-10q104 -26 104 -110v-135h-73v115q0 104 -109 104h-79q-104 -10 -104 -68v-151h-78v130q0 80 99 115h10v10q-109 28 -109 110v130z" />
    <glyph glyph-name="y" unicode="y" horiz-adv-x="561" 
d="M62 498q72 0 72 -170q5 -33 5 -176v-5q0 -82 124 -82h36q124 0 124 82v351h78v-532q0 -130 -83 -160q-65 -15 -113 -15h-31q-138 0 -186 62v5h5q23 0 222 -10q108 10 108 108v47h-170q-160 0 -186 108q-5 44 -5 72v315z" />
    <glyph glyph-name="z" unicode="z" horiz-adv-x="534" 
d="M65 499h405v-53q0 -5 -310 -383v-5l37 5h36q197 0 231 -52l6 -11h-410v53l310 383q-294 0 -294 42q-11 0 -11 21z" />
    <glyph glyph-name="braceleft" unicode="{" horiz-adv-x="412" 
d="M305 -106q-121 0 -162 43q-24 25 -24 84v191q0 39 -15 58q-16 20 -59 27v88q43 8 59 28q15 19 15 58v175q0 59 24 85q41 42 162 42h78v-87h-69q-31 0 -31 -26v-205q0 -48 -17 -72q-16 -22 -60 -42q45 -20 60 -42q17 -23 17 -72v-220q0 -26 31 -26h69v-87h-78z" />
    <glyph glyph-name="bar" unicode="|" horiz-adv-x="287" 
d="M84 -50v767h120v-767h-120z" />
    <glyph glyph-name="braceright" unicode="}" horiz-adv-x="412" 
d="M367 297q-43 -7 -59 -27q-15 -19 -15 -58v-191q0 -59 -25 -84q-41 -43 -161 -43h-78v87h68q32 0 32 26v220q0 49 17 72q15 22 60 42q-45 20 -60 42q-17 24 -17 72v205q0 26 -32 26h-68v87h78q120 0 161 -42q25 -26 25 -85v-175q0 -39 15 -58q16 -20 59 -28v-88z" />
    <glyph glyph-name="asciitilde" unicode="~" horiz-adv-x="440" 
d="M422 635q-1 -64 -31 -101q-30 -36 -79 -36q-54 2 -108 43q-49 36 -79 36q-32 0 -32 -40v-3h-74v3q1 64 31 101q30 36 78 36q54 0 109 -42q48 -37 80 -37q31 0 31 41v2h74v-3z" />
    <glyph glyph-name="Euro" unicode="&#x20ac;" horiz-adv-x="761" 
d="M705 176q0 -92 -40 -128q-63 -56 -258 -56t-258 56q-40 36 -40 128v62h-75v71h75v53h-75v71h75v57q0 92 40 128q64 57 258 57t258 -57q40 -36 40 -128v-45h-149v23q0 60 -20 78q-29 25 -129 25t-128 -25q-21 -18 -21 -78v-35h224v-71h-224v-53h224v-71h-224v-39
q0 -60 21 -79q28 -25 128 -25q101 0 129 25q20 18 20 79v48h149v-71z" />
    <glyph glyph-name="quotesinglbase" unicode="&#x201a;" horiz-adv-x="209" 
d="M51 102h93v-150q-8 -55 -75 -55h-18v33h14q25 0 25 26v44h-39v102z" />
    <glyph glyph-name="florin" unicode="&#x192;" horiz-adv-x="516" 
d="M461 571h-60q-56 0 -77 -16q-17 -14 -23 -52l-4 -35h150l-14 -104h-150l-48 -364h-149l48 364h-75l14 104h74l6 39q11 88 45 120q52 48 199 48q37 0 76 -8z" />
    <glyph glyph-name="quotedblbase" unicode="&#x201e;" horiz-adv-x="424" 
d="M391 -31q0 -72 -85 -72h-57v44h26q34 0 34 30v29h-60v134h142v-165zM176 -31q0 -72 -85 -72h-57v44h26q34 0 34 30v29h-60v134h142v-165z" />
    <glyph glyph-name="ellipsis" unicode="&#x2026;" horiz-adv-x="709" 
d="M34 0v134h142v-134h-142zM284 0v134h142v-134h-142zM534 0v134h142v-134h-142z" />
    <glyph glyph-name="dagger" unicode="&#x2020;" horiz-adv-x="327" 
d="M121 254v248h-92v78h92v87h86v-87h92v-78h-92v-248h-86z" />
    <glyph glyph-name="daggerdbl" unicode="&#x2021;" horiz-adv-x="327" 
d="M207 342v-88h-86v88h-92v77h92v83h-92v78h92v87h86v-87h92v-78h-92v-83h92v-77h-92z" />
    <glyph glyph-name="circumflex" unicode="&#x2c6;" horiz-adv-x="497" 
d="M317 555l-68 70l-68 -70h-111l125 116h107l125 -116h-110z" />
    <glyph glyph-name="perthousand" unicode="&#x2030;" horiz-adv-x="1315" 
d="M867 87q0 -44 -28 -64q-39 -29 -139 -29q-99 0 -138 29q-29 21 -29 64v157q0 44 29 65q38 29 138 29t139 -29q28 -21 28 -65v-157zM345 0h-91l303 668h90zM368 424q0 -44 -29 -65q-38 -29 -138 -29t-139 29q-28 21 -28 65v157q0 44 28 65q39 28 139 28q99 0 138 -28
q29 -22 29 -65v-157zM766 223q0 31 -9 40q-13 13 -57 13t-57 -13q-9 -9 -9 -40v-115q0 -30 9 -39q13 -13 57 -13t57 13q9 9 9 39v115zM267 560q0 30 -9 39q-13 13 -57 13t-57 -13q-9 -9 -9 -39v-115q0 -31 9 -40q13 -13 57 -13t57 13q9 9 9 40v115zM1281 87q0 -44 -28 -64
q-39 -29 -139 -29q-99 0 -138 29q-29 21 -29 64v157q0 44 29 65q38 29 138 29t139 -29q28 -21 28 -65v-157zM1180 223q0 31 -9 40q-13 13 -57 13t-57 -13q-9 -9 -9 -40v-115q0 -30 9 -39q13 -13 57 -13t57 13q9 9 9 39v115z" />
    <glyph glyph-name="Scaron" unicode="&#x160;" horiz-adv-x="709" 
d="M323 696q171 0 228 -63v-7q-218 7 -266 7q-146 0 -146 -95v-70q0 -75 234 -88q209 -25 209 -152v-57q0 -110 -88 -146q-81 -25 -171 -25q-204 8 -228 63h240q159 0 159 64q7 0 12 69q0 120 -209 120q-234 28 -234 133q-6 8 -6 45q0 135 63 164q70 38 203 38zM293 861
l68 -70l68 70h111l-125 -116h-107l-125 116h110z" />
    <glyph glyph-name="guilsinglleft" unicode="&#x2039;" horiz-adv-x="254" 
d="M142 278l84 -205h-122l-85 205l91 204h116z" />
    <glyph glyph-name="OE" unicode="&#x152;" horiz-adv-x="1062" 
d="M355 0q-195 0 -258 56q-40 36 -40 128v298q0 92 40 128q64 57 258 57h644v-115h-346v-162h323v-111h-323v-164h346v-115h-644zM206 207q0 -60 21 -79q28 -25 128 -25h149v460h-149q-100 0 -128 -25q-21 -18 -21 -78v-253z" />
    <glyph glyph-name="Zcaron" unicode="&#x17d;" horiz-adv-x="620" 
d="M51 696h474v-65l-383 -559v-7q33 0 130 7q206 0 247 -59v-13h-475v59l390 565h-117q-247 0 -247 46q-10 0 -19 26zM246 861l68 -70l68 70h111l-125 -116h-107l-125 116h110z" />
    <glyph glyph-name="quoteleft" unicode="&#x2018;" horiz-adv-x="209" 
d="M34 595q0 72 85 72h57v-44h-26q-34 0 -34 -30v-29h60v-134h-142v165z" />
    <glyph glyph-name="quoteright" unicode="&#x2019;" horiz-adv-x="209" 
d="M176 502q0 -72 -85 -72h-57v44h26q34 0 34 30v29h-60v134h142v-165z" />
    <glyph glyph-name="quotedblleft" unicode="&#x201c;" horiz-adv-x="424" 
d="M34 595q0 72 85 72h57v-44h-26q-34 0 -34 -30v-29h60v-134h-142v165zM249 595q0 72 85 72h57v-44h-26q-34 0 -34 -30v-29h60v-134h-142v165z" />
    <glyph glyph-name="quotedblright" unicode="&#x201d;" horiz-adv-x="424" 
d="M391 502q0 -72 -85 -72h-57v44h26q34 0 34 30v29h-60v134h142v-165zM176 502q0 -72 -85 -72h-57v44h26q34 0 34 30v29h-60v134h142v-165z" />
    <glyph glyph-name="bullet" unicode="&#x2022;" 
d="M248 203q-38 -37 -91 -37t-91 37q-37 38 -37 91t37 90q38 37 91 37t91 -37q37 -37 37 -90t-37 -91z" />
    <glyph glyph-name="endash" unicode="&#x2013;" horiz-adv-x="537" 
d="M39 244v99h460v-99h-460z" />
    <glyph glyph-name="emdash" unicode="&#x2014;" horiz-adv-x="707" 
d="M39 244v99h630v-99h-630z" />
    <glyph glyph-name="tilde" unicode="&#x2dc;" horiz-adv-x="496" 
d="M378 671l48 -29q-10 -30 -41 -58q-36 -32 -76 -32q-37 0 -75 26q-38 25 -60 25q-33 0 -56 -41l-48 29q10 30 41 58q36 32 76 32q37 0 75 -25q38 -26 60 -26q33 0 56 41z" />
    <glyph glyph-name="trademark" unicode="&#x2122;" horiz-adv-x="653" 
d="M536 396v203h-1l-55 -203h-66l-55 203h-1v-203h-62v271h100l51 -200l48 200h103v-271h-62zM186 613v-217h-68v217h-83v54h234v-54h-83z" />
    <glyph glyph-name="scaron" unicode="&#x161;" horiz-adv-x="625" 
d="M272 495q140 0 188 -66l-35 5h-82q-44 0 -92 5q-127 -11 -127 -72v-25q0 -44 97 -56q229 -30 229 -56q23 0 41 -82q0 -148 -199 -148h-61q-113 0 -164 66h6q166 -10 229 -10q112 13 112 66v26q0 53 -107 61q-250 29 -250 102q-10 0 -10 41q0 143 225 143zM241 671l68 -70
l68 70h111l-125 -116h-107l-125 116h110z" />
    <glyph glyph-name="guilsinglright" unicode="&#x203a;" horiz-adv-x="254" 
d="M151 73h-122l84 205l-84 204h116l91 -204z" />
    <glyph glyph-name="oe" unicode="&#x153;" horiz-adv-x="1026" 
d="M440 298q0 53 -20 74q-26 27 -105 27t-106 -27q-20 -21 -20 -74v-114q0 -53 20 -74q27 -27 106 -27t105 27q20 21 20 74v114zM840 301q0 53 -21 74q-28 27 -107 27t-107 -27q-22 -21 -22 -74v-18h257v18zM583 178q0 -49 25 -70q31 -26 108 -26q124 0 124 66h140v-7
q0 -75 -53 -109q-61 -38 -211 -38q-145 0 -201 56q-56 -56 -200 -56q-164 0 -224 52q-44 37 -44 122v146q0 85 44 123q60 51 224 51q142 0 198 -56q56 56 199 56q164 0 224 -51q44 -38 44 -123v-111h-397v-25z" />
    <glyph glyph-name="zcaron" unicode="&#x17e;" horiz-adv-x="549" 
d="M36 499h405v-53q0 -5 -310 -383v-5l37 5h36q197 0 231 -52l6 -11h-410v53l310 383q-294 0 -294 42q-11 0 -11 21zM177 671l68 -70l68 70h111l-125 -116h-107l-125 116h110z" />
    <glyph glyph-name="Ydieresis" unicode="&#x178;" horiz-adv-x="649" 
d="M9 692h6q100 0 272 -356h13q180 350 278 350v-7q-229 -386 -246 -440v-239h-77v246q0 13 -246 446zM356 755v90h113v-90h-113zM157 755v90h113v-90h-113z" />
    <glyph glyph-name="uni00A0" unicode="&#xa0;" horiz-adv-x="310" 
 />
    <glyph glyph-name="exclamdown" unicode="&#xa1;" horiz-adv-x="324" 
d="M101 282h122l23 -467h-168zM236 482v-140h-148v140h148z" />
    <glyph glyph-name="cent" unicode="&#xa2;" horiz-adv-x="558" 
d="M515 224q0 -59 -30 -87q-42 -40 -157 -46v-91h-97v91q-115 6 -157 46q-30 28 -30 87v219q0 59 30 88q42 39 157 46v90h97v-90q115 -7 157 -46q30 -29 30 -88v-65h-136v44q0 40 -16 54q-20 19 -83 19t-84 -19q-16 -14 -16 -54v-177q0 -39 16 -54q21 -19 84 -19q62 0 83 19
q16 15 16 54v62h136v-83z" />
    <glyph glyph-name="sterling" unicode="&#xa3;" horiz-adv-x="763" 
d="M720 442h-149v26q0 60 -20 78q-29 25 -129 25t-128 -25q-21 -18 -21 -78v-94h194v-107h-194v-160h447v-107h-666v107h70v160h-70v107h70v116q0 92 40 128q64 57 258 57t258 -57q40 -36 40 -128v-48z" />
    <glyph glyph-name="yen" unicode="&#xa5;" horiz-adv-x="650" 
d="M431 314h118v-68h-150v-60h150v-67h-150v-119h-147v119h-150v67h150v60h-150v68h118l-211 353h159l157 -281l157 281h160z" />
    <glyph glyph-name="section" unicode="&#xa7;" horiz-adv-x="709" 
d="M472 154q32 24 32 54q0 38 -37 47l-229 53q-32 -24 -32 -54q0 -38 37 -47zM57 477v13q0 92 40 129q63 56 258 56q194 0 258 -57q40 -36 40 -128v-26h-149v4q0 60 -20 78q-29 26 -129 26q-97 0 -128 -24q-21 -16 -21 -60q0 -47 50 -59l285 -66q112 -25 112 -127
q0 -75 -74 -115q74 -39 74 -136v-13q0 -92 -40 -128q-63 -57 -258 -57q-194 0 -258 57q-40 36 -40 128v36h149v-14q0 -60 20 -78q29 -26 129 -26q97 0 129 24q20 16 20 60q0 47 -50 59l-285 66q-112 25 -112 127q0 75 74 115q-74 39 -74 136z" />
    <glyph glyph-name="dieresis" unicode="&#xa8;" horiz-adv-x="452" 
d="M269 565v90h113v-90h-113zM70 565v90h113v-90h-113z" />
    <glyph glyph-name="copyright" unicode="&#xa9;" horiz-adv-x="741" 
d="M685 218q0 -109 -63 -162q-75 -64 -251 -64t-251 64q-63 53 -63 162v231q0 108 63 162q75 64 251 64t251 -64q63 -54 63 -162v-231zM629 449q0 84 -43 122q-59 51 -215 51t-214 -51q-44 -38 -44 -122v-231q0 -84 44 -122q58 -51 214 -51t215 51q43 38 43 122v231z
M564 235q0 -57 -26 -80q-40 -35 -161 -35t-161 35q-27 23 -27 80v197q0 57 27 80q40 35 161 35t161 -35q26 -23 26 -80v-42h-97v27q0 37 -14 49q-18 16 -76 16t-76 -16q-14 -12 -14 -49v-167q0 -36 14 -48q18 -16 76 -16t76 16q14 12 14 48v38h97v-53z" />
    <glyph glyph-name="ordfeminine" unicode="&#xaa;" horiz-adv-x="471" 
d="M336 332l-13 41q-37 -46 -139 -46q-144 0 -144 115q0 99 142 99h138v7q0 35 -11 48q-16 18 -65 18q-77 0 -77 -40l-112 4q0 46 35 68q43 27 148 27q119 0 162 -36q31 -26 31 -86v-219h-95zM320 484h-105q-65 0 -65 -47q0 -48 61 -48q109 0 109 69v26z" />
    <glyph glyph-name="guillemotleft" unicode="&#xab;" horiz-adv-x="462" 
d="M318 482h116l-84 -204l84 -205h-122l-85 205zM111 482h115l-84 -204l84 -205h-121l-86 205z" />
    <glyph glyph-name="logicalnot" unicode="&#xac;" 
d="M248 203q-38 -37 -91 -37t-91 37q-37 38 -37 91t37 90q38 37 91 37t91 -37q37 -37 37 -90t-37 -91z" />
    <glyph glyph-name="registered" unicode="&#xae;" horiz-adv-x="453" 
d="M425 399q0 -150 -198 -150t-198 150v125q0 150 198 150t198 -150v-125zM376 521q0 52 -26 75q-34 30 -123 30q-88 0 -122 -30q-27 -24 -27 -75v-119q0 -52 27 -76q34 -30 122 -30q89 0 123 30q26 24 26 76v119zM272 354v44q0 27 -36 27h-44v-71h-53v219h89q64 0 85 -19
q13 -12 13 -41v-26q0 -36 -40 -42q40 -3 40 -40v-51h-54zM272 505q0 19 -8 25q-9 7 -41 7h-31v-73h31q31 0 41 9q8 7 8 26v6z" />
    <glyph glyph-name="macron" unicode="&#xaf;" horiz-adv-x="437" 
d="M70 572v76h297v-76h-297z" />
    <glyph glyph-name="macron" unicode="&#x2c9;" horiz-adv-x="437" 
d="M70 572v76h297v-76h-297z" />
    <glyph glyph-name="degree" unicode="&#xb0;" horiz-adv-x="312" 
d="M250 447q-38 -39 -93 -39t-94 39t-39 94t39 94q39 38 94 38q56 0 94 -38t38 -94q0 -55 -39 -94zM202 588q-18 18 -46 18q-27 0 -45 -18q-19 -18 -19 -46q0 -26 19 -45q18 -19 45 -19t46 19q18 18 18 45q0 28 -18 46z" />
    <glyph glyph-name="uni00B2" unicode="&#xb2;" horiz-adv-x="461" 
d="M50 300v86q0 57 61 76l183 57q21 7 21 30v3q0 32 -11 42q-17 15 -74 15t-74 -15q-11 -11 -11 -42v-16h-95v33q0 51 25 71q38 31 156 31q117 0 156 -31q24 -20 24 -71v-30q0 -63 -64 -82l-183 -56q-15 -5 -15 -21v-7h262v-73h-361z" />
    <glyph glyph-name="uni00B3" unicode="&#xb3;" horiz-adv-x="462" 
d="M412 397q0 -51 -25 -71q-39 -31 -157 -31q-117 0 -156 31q-24 20 -24 71v21h94v-3q0 -31 12 -42q17 -15 73 -15q59 0 75 12q12 9 12 38q0 25 -13 33q-17 11 -72 11h-91v63h91q55 0 71 11q11 8 11 33q0 30 -11 38q-15 11 -73 11q-57 0 -74 -15q-11 -11 -11 -42h-94v18
q0 51 24 71q38 31 156 31q117 0 155 -31q24 -20 24 -71v-17q0 -64 -72 -68q75 -7 75 -69v-18z" />
    <glyph glyph-name="acute" unicode="&#xb4;" horiz-adv-x="371" 
d="M165 557h-95l105 118h126z" />
    <glyph glyph-name="uni00B5" unicode="&#xb5;" 
d="M248 203q-38 -37 -91 -37t-91 37q-37 38 -37 91t37 90q38 37 91 37t91 -37q37 -37 37 -90t-37 -91z" />
    <glyph glyph-name="uni00B5" unicode="&#x3bc;" 
d="M248 203q-38 -37 -91 -37t-91 37q-37 38 -37 91t37 90q38 37 91 37t91 -37q37 -37 37 -90t-37 -91z" />
    <glyph glyph-name="paragraph" unicode="&#xb6;" horiz-adv-x="739" 
d="M518 0v572h-83v-572h-148v298q-166 0 -217 45q-41 36 -41 140t41 139q51 45 217 45h379v-667h-148zM287 572q-72 0 -92 -20q-17 -16 -17 -69t17 -69q20 -20 92 -20v178z" />
    <glyph glyph-name="periodcentered" unicode="&#xb7;" horiz-adv-x="209" 
d="M34 260v134h142v-134h-142z" />
    <glyph glyph-name="periodcentered" unicode="&#x2219;" horiz-adv-x="209" 
d="M34 260v134h142v-134h-142z" />
    <glyph glyph-name="cedilla" unicode="&#xb8;" horiz-adv-x="210" 
d="M202 -128q0 -41 -97 -41q-96 0 -96 41v26h81v-23q0 -10 15 -10t15 10v51q0 10 -15 10q-12 0 -14 -8l-3 -7h-79l30 79h70l-13 -35q17 3 35 3q71 0 71 -37v-59z" />
    <glyph glyph-name="uni00B9" unicode="&#xb9;" horiz-adv-x="212" 
d="M68 300v304h-48v63h142v-367h-94z" />
    <glyph glyph-name="ordmasculine" unicode="&#xba;" horiz-adv-x="473" 
d="M433 449q0 -59 -32 -86q-44 -36 -164 -36q-121 0 -165 36q-32 27 -32 86v102q0 60 32 86q44 36 165 36q120 0 164 -36q32 -26 32 -86v-102zM322 540q0 37 -13 52q-18 19 -72 19q-55 0 -73 -19q-14 -15 -14 -52v-80q0 -37 14 -52q18 -19 73 -19q54 0 72 19q13 15 13 52v80
z" />
    <glyph glyph-name="guillemotright" unicode="&#xbb;" horiz-adv-x="462" 
d="M358 73h-121l84 205l-84 204h115l92 -204zM151 73h-122l84 205l-84 204h116l91 -204z" />
    <glyph glyph-name="questiondown" unicode="&#xbf;" horiz-adv-x="661" 
d="M317 541h84v-96h-84v96zM317 394h77v-96q0 -66 -217 -167q-13 -21 -13 -38v-51q0 -96 141 -96h70q112 0 135 64q6 43 6 70v51h70v-109q0 -134 -211 -134h-90q-148 0 -192 96q-6 64 -6 96q0 93 147 154q83 41 83 77v83z" />
    <glyph glyph-name="Agrave" unicode="&#xc0;" horiz-adv-x="727" 
d="M334 696q176 0 236 -70q26 -47 26 -102v-524h-77v313h-370v-313h-83v492q0 135 64 166q76 38 204 38zM149 536v-159h370v83q0 153 -57 153q0 15 -115 19h-32q-166 0 -166 -96zM304 865l105 -118h-95l-136 118h126z" />
    <glyph glyph-name="Aacute" unicode="&#xc1;" horiz-adv-x="727" 
d="M334 696q176 0 236 -70q26 -47 26 -102v-524h-77v313h-370v-313h-83v492q0 135 64 166q76 38 204 38zM149 536v-159h370v83q0 153 -57 153q0 15 -115 19h-32q-166 0 -166 -96zM387 747h-95l105 118h126z" />
    <glyph glyph-name="Acircumflex" unicode="&#xc2;" horiz-adv-x="727" 
d="M334 696q176 0 236 -70q26 -47 26 -102v-524h-77v313h-370v-313h-83v492q0 135 64 166q76 38 204 38zM149 536v-159h370v83q0 153 -57 153q0 15 -115 19h-32q-166 0 -166 -96zM428 745l-68 70l-68 -70h-111l125 116h107l125 -116h-110z" />
    <glyph glyph-name="Atilde" unicode="&#xc3;" horiz-adv-x="727" 
d="M334 696q176 0 236 -70q26 -47 26 -102v-524h-77v313h-370v-313h-83v492q0 135 64 166q76 38 204 38zM149 536v-159h370v83q0 153 -57 153q0 15 -115 19h-32q-166 0 -166 -96zM489 861l48 -29q-10 -30 -41 -58q-36 -32 -76 -32q-37 0 -75 26q-38 25 -60 25q-33 0 -56 -41
l-48 29q10 30 41 58q36 32 76 32q37 0 75 -25q38 -26 60 -26q33 0 56 41z" />
    <glyph glyph-name="Adieresis" unicode="&#xc4;" horiz-adv-x="727" 
d="M334 696q176 0 236 -70q26 -47 26 -102v-524h-77v313h-370v-313h-83v492q0 135 64 166q76 38 204 38zM149 536v-159h370v83q0 153 -57 153q0 15 -115 19h-32q-166 0 -166 -96zM402 755v90h113v-90h-113zM203 755v90h113v-90h-113z" />
    <glyph glyph-name="Aring" unicode="&#xc5;" horiz-adv-x="727" 
d="M334 696q176 0 236 -70q26 -47 26 -102v-524h-77v313h-370v-313h-83v492q0 135 64 166q76 38 204 38zM149 536v-159h370v83q0 153 -57 153q0 15 -115 19h-32q-166 0 -166 -96zM421 754q-26 -26 -62 -26t-62 26t-26 62t26 62t62 26t62 -26t26 -62t-26 -62zM387 844
q-11 12 -28 12q-16 0 -28 -12q-12 -11 -12 -28q0 -16 12 -28t28 -12q17 0 28 12q12 12 12 28q0 17 -12 28z" />
    <glyph glyph-name="AE" unicode="&#xc6;" horiz-adv-x="1071" 
d="M513 563h-149q-100 0 -128 -25q-21 -18 -21 -78v-133h298v236zM1008 552h-346v-162h323v-111h-323v-164h346v-115h-495v215h-298v-215h-149v482q0 92 40 128q64 57 258 57h644v-115z" />
    <glyph glyph-name="Ccedilla" unicode="&#xc7;" horiz-adv-x="709" 
d="M371 692q201 0 264 -86h-114q-72 0 -179 8q-178 0 -178 -122v-299q0 -115 171 -115h300q-62 -78 -228 -78h-79q-226 0 -264 143q-7 60 -7 100v199q0 236 185 236q0 12 129 14zM458 -128q0 -41 -97 -41q-96 0 -96 41v26h81v-23q0 -10 15 -10t15 10v51q0 10 -15 10
q-12 0 -14 -8l-3 -7h-79l30 79h70l-13 -35q17 3 35 3q71 0 71 -37v-59z" />
    <glyph glyph-name="Egrave" unicode="&#xc8;" horiz-adv-x="632" 
d="M74 696h449v-7q0 -65 -202 -65h-162v-234h351v-71h-351v-254h208q156 0 156 -65h-449v696zM291 865l105 -118h-95l-136 118h126z" />
    <glyph glyph-name="Eacute" unicode="&#xc9;" horiz-adv-x="632" 
d="M74 696h449v-7q0 -65 -202 -65h-162v-234h351v-71h-351v-254h208q156 0 156 -65h-449v696zM364 747h-95l105 118h126z" />
    <glyph glyph-name="Ecircumflex" unicode="&#xca;" horiz-adv-x="632" 
d="M74 696h449v-7q0 -65 -202 -65h-162v-234h351v-71h-351v-254h208q156 0 156 -65h-449v696zM389 745l-68 70l-68 -70h-111l125 116h107l125 -116h-110z" />
    <glyph glyph-name="Edieresis" unicode="&#xcb;" horiz-adv-x="632" 
d="M74 696h449v-7q0 -65 -202 -65h-162v-234h351v-71h-351v-254h208q156 0 156 -65h-449v696zM363 755v90h113v-90h-113zM164 755v90h113v-90h-113z" />
    <glyph glyph-name="Igrave" unicode="&#xcc;" horiz-adv-x="307" 
d="M155 696h7v-696h-85q-7 280 -7 328q0 307 46 342zM104 865l105 -118h-95l-136 118h126z" />
    <glyph glyph-name="Iacute" unicode="&#xcd;" horiz-adv-x="307" 
d="M164 696h7v-696h-85q-7 280 -7 328q0 307 46 342zM204 747h-95l105 118h126z" />
    <glyph glyph-name="Icircumflex" unicode="&#xce;" horiz-adv-x="307" 
d="M155 696h7v-696h-85q-7 280 -7 328q0 307 46 342zM222 745l-68 70l-68 -70h-111l125 116h107l125 -116h-110z" />
    <glyph glyph-name="Idieresis" unicode="&#xcf;" horiz-adv-x="307" 
d="M155 696h7v-696h-85q-7 280 -7 328q0 307 46 342zM196 755v90h113v-90h-113zM-3 755v90h113v-90h-113z" />
    <glyph glyph-name="Eth" unicode="&#xd0;" horiz-adv-x="733" 
d="M679 185q0 -185 -224 -185h-372v286h-60v95h60v286h372q224 0 224 -184v-298zM530 460q0 57 -23 80q-25 24 -89 24h-186v-183h60v-95h-60v-183h186q64 0 89 24q23 23 23 80v253z" />
    <glyph glyph-name="Ntilde" unicode="&#xd1;" horiz-adv-x="741" 
d="M74 696q89 -16 163 -91q183 -268 305 -501h13l-6 65v293q0 183 58 221l13 6h7v-689h-91q-20 13 -371 592l-13 6v-598h-78v696zM524 861l48 -29q-10 -30 -41 -58q-36 -32 -76 -32q-37 0 -75 26q-38 25 -60 25q-33 0 -56 -41l-48 29q10 30 41 58q36 32 76 32q37 0 75 -25
q38 -26 60 -26q33 0 56 41z" />
    <glyph glyph-name="Ograve" unicode="&#xd2;" horiz-adv-x="709" 
d="M329 696q202 0 247 -95q12 -51 12 -107v-292q0 -150 -88 -177q-85 -25 -177 -25q-212 0 -247 89q-19 29 -19 113v304q0 138 101 171q95 19 171 19zM139 544v-392q0 -89 152 -89h63q152 0 152 89v386q0 95 -152 95h-63q-152 0 -152 -89zM324 865l105 -118h-95l-136 118
h126z" />
    <glyph glyph-name="Oacute" unicode="&#xd3;" horiz-adv-x="709" 
d="M329 696q202 0 247 -95q12 -51 12 -107v-292q0 -150 -88 -177q-85 -25 -177 -25q-212 0 -247 89q-19 29 -19 113v304q0 138 101 171q95 19 171 19zM139 544v-392q0 -89 152 -89h63q152 0 152 89v386q0 95 -152 95h-63q-152 0 -152 -89zM403 747h-95l105 118h126z" />
    <glyph glyph-name="Ocircumflex" unicode="&#xd4;" horiz-adv-x="709" 
d="M329 696q202 0 247 -95q12 -51 12 -107v-292q0 -150 -88 -177q-85 -25 -177 -25q-212 0 -247 89q-19 29 -19 113v304q0 138 101 171q95 19 171 19zM139 544v-392q0 -89 152 -89h63q152 0 152 89v386q0 95 -152 95h-63q-152 0 -152 -89zM430 745l-68 70l-68 -70h-111
l125 116h107l125 -116h-110z" />
    <glyph glyph-name="Otilde" unicode="&#xd5;" horiz-adv-x="709" 
d="M329 696q202 0 247 -95q12 -51 12 -107v-292q0 -150 -88 -177q-85 -25 -177 -25q-212 0 -247 89q-19 29 -19 113v304q0 138 101 171q95 19 171 19zM139 544v-392q0 -89 152 -89h63q152 0 152 89v386q0 95 -152 95h-63q-152 0 -152 -89zM491 861l48 -29q-10 -30 -41 -58
q-36 -32 -76 -32q-37 0 -75 26q-38 25 -60 25q-33 0 -56 -41l-48 29q10 30 41 58q36 32 76 32q37 0 75 -25q38 -26 60 -26q33 0 56 41z" />
    <glyph glyph-name="Odieresis" unicode="&#xd6;" horiz-adv-x="709" 
d="M329 696q202 0 247 -95q12 -51 12 -107v-292q0 -150 -88 -177q-85 -25 -177 -25q-212 0 -247 89q-19 29 -19 113v304q0 138 101 171q95 19 171 19zM139 544v-392q0 -89 152 -89h63q152 0 152 89v386q0 95 -152 95h-63q-152 0 -152 -89zM404 755v90h113v-90h-113zM205 755
v90h113v-90h-113z" />
    <glyph glyph-name="Oslash" unicode="&#xd8;" horiz-adv-x="709" 
d="M653 176q0 -92 -40 -128q-63 -56 -258 -56t-258 56q-40 36 -40 128v314q0 92 40 128q64 57 258 57t258 -57q40 -36 40 -128v-314zM498 526q-17 45 -143 45q-100 0 -128 -25q-21 -18 -21 -78v-212zM504 413l-291 -270q19 -48 142 -48q101 0 129 25q20 18 20 79v214z" />
    <glyph glyph-name="Ugrave" unicode="&#xd9;" horiz-adv-x="727" 
d="M66 694h6q60 0 78 -312v-233q0 -91 188 -91t188 117v240q0 285 78 285v-519q0 -128 -91 -162q-67 -19 -136 -19h-84q-227 0 -227 175v519zM332 865l105 -118h-95l-136 118h126z" />
    <glyph glyph-name="Uacute" unicode="&#xda;" horiz-adv-x="727" 
d="M66 694h6q60 0 78 -312v-233q0 -91 188 -91t188 117v240q0 285 78 285v-519q0 -128 -91 -162q-67 -19 -136 -19h-84q-227 0 -227 175v519zM409 747h-95l105 118h126z" />
    <glyph glyph-name="Ucircumflex" unicode="&#xdb;" horiz-adv-x="727" 
d="M66 694h6q60 0 78 -312v-233q0 -91 188 -91t188 117v240q0 285 78 285v-519q0 -128 -91 -162q-67 -19 -136 -19h-84q-227 0 -227 175v519zM448 745l-68 70l-68 -70h-111l125 116h107l125 -116h-110z" />
    <glyph glyph-name="Udieresis" unicode="&#xdc;" horiz-adv-x="727" 
d="M66 694h6q60 0 78 -312v-233q0 -91 188 -91t188 117v240q0 285 78 285v-519q0 -128 -91 -162q-67 -19 -136 -19h-84q-227 0 -227 175v519zM422 755v90h113v-90h-113zM223 755v90h113v-90h-113z" />
    <glyph glyph-name="Yacute" unicode="&#xdd;" horiz-adv-x="649" 
d="M9 692h6q100 0 272 -356h13q180 350 278 350v-7q-229 -386 -246 -440v-239h-77v246q0 13 -246 446zM367 747h-95l105 118h126z" />
    <glyph glyph-name="Thorn" unicode="&#xde;" horiz-adv-x="715" 
d="M669 331q0 -185 -224 -185h-223v-146h-149v667h149v-70h223q224 0 224 -185v-81zM520 390q0 57 -23 80q-25 24 -89 24h-186v-245h186q64 0 89 24q23 23 23 80v37z" />
    <glyph glyph-name="germandbls" unicode="&#xdf;" horiz-adv-x="660" 
d="M612 177q0 -92 -46 -132q-51 -45 -175 -45h-139v87h112q61 0 85 26q21 24 21 79q0 52 -21 76q-26 28 -87 28h-110v89h97q63 0 88 21q23 20 23 68v10q0 52 -22 74q-29 27 -109 27q-79 0 -106 -27q-21 -21 -21 -74v-484h-143v500q0 84 45 122q61 52 225 52q165 0 226 -52
q45 -38 45 -122v-34q0 -111 -104 -126q116 -11 116 -125v-38z" />
    <glyph glyph-name="agrave" unicode="&#xe0;" horiz-adv-x="629" 
d="M266 499q232 0 232 -144v-206q0 -149 -180 -149h-72q-169 0 -196 108q-5 44 -5 72v57q0 51 41 51h340v57q0 97 -175 97h-185q22 57 190 57h10zM122 231v-87q0 -87 129 -87h46q118 7 118 56q11 0 11 62v51h-5q-69 0 -299 5zM284 675l105 -118h-95l-136 118h126z" />
    <glyph glyph-name="aacute" unicode="&#xe1;" horiz-adv-x="629" 
d="M266 499q232 0 232 -144v-206q0 -149 -180 -149h-72q-169 0 -196 108q-5 44 -5 72v57q0 51 41 51h340v57q0 97 -175 97h-185q22 57 190 57h10zM122 231v-87q0 -87 129 -87h46q118 7 118 56q11 0 11 62v51h-5q-69 0 -299 5zM343 557h-95l105 118h126z" />
    <glyph glyph-name="acircumflex" unicode="&#xe2;" horiz-adv-x="629" 
d="M266 499q232 0 232 -144v-206q0 -149 -180 -149h-72q-169 0 -196 108q-5 44 -5 72v57q0 51 41 51h340v57q0 97 -175 97h-185q22 57 190 57h10zM122 231v-87q0 -87 129 -87h46q118 7 118 56q11 0 11 62v51h-5q-69 0 -299 5zM378 555l-68 70l-68 -70h-111l125 116h107
l125 -116h-110z" />
    <glyph glyph-name="atilde" unicode="&#xe3;" horiz-adv-x="629" 
d="M266 499q232 0 232 -144v-206q0 -149 -180 -149h-72q-169 0 -196 108q-5 44 -5 72v57q0 51 41 51h340v57q0 97 -175 97h-185q22 57 190 57h10zM122 231v-87q0 -87 129 -87h46q118 7 118 56q11 0 11 62v51h-5q-69 0 -299 5zM439 671l48 -29q-10 -30 -41 -58
q-36 -32 -76 -32q-37 0 -75 26q-38 25 -60 25q-33 0 -56 -41l-48 29q10 30 41 58q36 32 76 32q37 0 75 -25q38 -26 60 -26q33 0 56 41z" />
    <glyph glyph-name="adieresis" unicode="&#xe4;" horiz-adv-x="629" 
d="M266 499q232 0 232 -144v-206q0 -149 -180 -149h-72q-169 0 -196 108q-5 44 -5 72v57q0 51 41 51h340v57q0 97 -175 97h-185q22 57 190 57h10zM122 231v-87q0 -87 129 -87h46q118 7 118 56q11 0 11 62v51h-5q-69 0 -299 5zM352 565v90h113v-90h-113zM153 565v90h113v-90
h-113z" />
    <glyph glyph-name="aring" unicode="&#xe5;" horiz-adv-x="629" 
d="M266 499q232 0 232 -144v-206q0 -149 -180 -149h-72q-169 0 -196 108q-5 44 -5 72v57q0 51 41 51h340v57q0 97 -175 97h-185q22 57 190 57h10zM122 231v-87q0 -87 129 -87h46q118 7 118 56q11 0 11 62v51h-5q-69 0 -299 5zM371 564q-26 -26 -62 -26t-62 26t-26 62t26 62
t62 26t62 -26t26 -62t-26 -62zM337 654q-11 12 -28 12q-16 0 -28 -12q-12 -11 -12 -28q0 -16 12 -28t28 -12q17 0 28 12q12 12 12 28q0 17 -12 28z" />
    <glyph glyph-name="ae" unicode="&#xe6;" horiz-adv-x="1020" 
d="M435 218h-159q-53 0 -71 -14t-18 -53q0 -69 83 -69q165 0 165 99v37zM834 301q0 53 -21 74q-28 27 -107 27t-107 -27q-22 -21 -22 -74v-18h257v18zM242 -6q-107 0 -154 43q-43 39 -43 121q0 141 193 141h197v10q0 50 -20 69q-26 26 -100 26q-105 0 -105 -58l-144 6
q0 66 48 98q59 38 201 38q135 0 189 -69q57 69 202 69q164 0 224 -51q44 -38 44 -123v-111h-397v-25q0 -49 25 -70q31 -26 108 -26q124 0 124 66h140v-7q0 -75 -53 -109q-61 -38 -211 -38q-145 0 -230 72q-87 -72 -238 -72z" />
    <glyph glyph-name="ccedilla" unicode="&#xe7;" horiz-adv-x="629" 
d="M272 495q143 0 188 -61h-81q-52 0 -128 5q-127 0 -127 -87v-214q0 -82 122 -82h214q-44 -56 -163 -56h-56q-161 0 -189 102q-5 43 -5 72v142q0 169 133 169q0 8 92 10zM398 -128q0 -41 -97 -41q-96 0 -96 41v26h81v-23q0 -10 15 -10t15 10v51q0 10 -15 10q-12 0 -14 -8
l-3 -7h-79l30 79h70l-13 -35q17 3 35 3q71 0 71 -37v-59z" />
    <glyph glyph-name="egrave" unicode="&#xe8;" horiz-adv-x="629" 
d="M278 499q222 0 222 -134v-134q-12 -25 -52 -25h-118q-76 0 -206 5v-67q0 -87 134 -87h226q0 -43 -139 -57h-97q-170 0 -196 108q-5 35 -5 57v113q0 163 62 190q74 31 169 31zM124 350v-82h304v66q-6 93 -62 93q0 8 -93 15q-149 0 -149 -92zM288 675l105 -118h-95
l-136 118h126z" />
    <glyph glyph-name="eacute" unicode="&#xe9;" horiz-adv-x="629" 
d="M278 499q222 0 222 -134v-134q-12 -25 -52 -25h-118q-76 0 -206 5v-67q0 -87 134 -87h226q0 -43 -139 -57h-97q-170 0 -196 108q-5 35 -5 57v113q0 163 62 190q74 31 169 31zM124 350v-82h304v66q-6 93 -62 93q0 8 -93 15q-149 0 -149 -92zM331 557h-95l105 118h126z" />
    <glyph glyph-name="ecircumflex" unicode="&#xea;" horiz-adv-x="629" 
d="M278 499q222 0 222 -134v-134q-12 -25 -52 -25h-118q-76 0 -206 5v-67q0 -87 134 -87h226q0 -43 -139 -57h-97q-170 0 -196 108q-5 35 -5 57v113q0 163 62 190q74 31 169 31zM124 350v-82h304v66q-6 93 -62 93q0 8 -93 15q-149 0 -149 -92zM380 555l-68 70l-68 -70h-111
l125 116h107l125 -116h-110z" />
    <glyph glyph-name="edieresis" unicode="&#xeb;" horiz-adv-x="629" 
d="M278 499q222 0 222 -134v-134q-12 -25 -52 -25h-118q-76 0 -206 5v-67q0 -87 134 -87h226q0 -43 -139 -57h-97q-170 0 -196 108q-5 35 -5 57v113q0 163 62 190q74 31 169 31zM124 350v-82h304v66q-6 93 -62 93q0 8 -93 15q-149 0 -149 -92zM354 565v90h113v-90h-113z
M155 565v90h113v-90h-113z" />
    <glyph glyph-name="igrave" unicode="&#xec;" horiz-adv-x="260" 
d="M59 0v482h143v-482h-143zM77 675l105 -118h-95l-136 118h126z" />
    <glyph glyph-name="iacute" unicode="&#xed;" horiz-adv-x="260" 
d="M124 669h102q-86 -106 -92 -109h-64v3zM174 501v-501h-77v309q0 114 77 192z" />
    <glyph glyph-name="icircumflex" unicode="&#xee;" horiz-adv-x="260" 
d="M59 0v482h143v-482h-143zM199 555l-68 70l-68 -70h-111l125 116h107l125 -116h-110z" />
    <glyph glyph-name="idieresis" unicode="&#xef;" horiz-adv-x="260" 
d="M59 0v482h143v-482h-143zM173 565v90h113v-90h-113zM-26 565v90h113v-90h-113z" />
    <glyph glyph-name="eth" unicode="&#xf0;" horiz-adv-x="626" 
d="M582 167q0 -85 -44 -122q-60 -52 -224 -52t-224 52q-44 37 -44 122v146q0 84 43 122q58 52 211 52q71 0 116 -39q-27 64 -41 85l-78 -22v75l38 11q-35 48 -65 78h158q15 -16 35 -43l85 23v-75l-41 -12q67 -117 74 -230q1 -8 1 -25v-146zM439 297q0 53 -20 74
q-26 27 -105 27t-105 -27q-20 -21 -20 -74v-114q0 -53 20 -74q26 -27 105 -27t105 27q20 21 20 74v114z" />
    <glyph glyph-name="ntilde" unicode="&#xf1;" horiz-adv-x="647" 
d="M324 499q177 -18 177 -130q5 -25 5 -68v-301h-78v333q0 67 -83 98q-22 0 -57 6q-146 -16 -146 -89q-5 0 -5 -21v-327h-78v494h94q75 0 171 5zM452 671l48 -29q-10 -30 -41 -58q-36 -32 -76 -32q-37 0 -75 26q-38 25 -60 25q-33 0 -56 -41l-48 29q10 30 41 58q36 32 76 32
q37 0 75 -25q38 -26 60 -26q33 0 56 41z" />
    <glyph glyph-name="ograve" unicode="&#xf2;" horiz-adv-x="626" 
d="M278 499q156 0 206 -72q16 -48 16 -87v-186q0 -154 -196 -154h-56q-146 0 -191 82q-10 52 -10 93v144q0 98 41 134q59 46 190 46zM124 355v-221q0 -77 129 -77h46q118 7 118 56q11 0 11 62v144q0 118 -103 118q-7 0 -52 5q-149 0 -149 -87zM267 675l105 -118h-95
l-136 118h126z" />
    <glyph glyph-name="oacute" unicode="&#xf3;" horiz-adv-x="626" 
d="M278 499q156 0 206 -72q16 -48 16 -87v-186q0 -154 -196 -154h-56q-146 0 -191 82q-10 52 -10 93v144q0 98 41 134q59 46 190 46zM124 355v-221q0 -77 129 -77h46q118 7 118 56q11 0 11 62v144q0 118 -103 118q-7 0 -52 5q-149 0 -149 -87zM352 557h-95l105 118h126z" />
    <glyph glyph-name="ocircumflex" unicode="&#xf4;" horiz-adv-x="626" 
d="M278 499q156 0 206 -72q16 -48 16 -87v-186q0 -154 -196 -154h-56q-146 0 -191 82q-10 52 -10 93v144q0 98 41 134q59 46 190 46zM124 355v-221q0 -77 129 -77h46q118 7 118 56q11 0 11 62v144q0 118 -103 118q-7 0 -52 5q-149 0 -149 -87zM379 555l-68 70l-68 -70h-111
l125 116h107l125 -116h-110z" />
    <glyph glyph-name="otilde" unicode="&#xf5;" horiz-adv-x="626" 
d="M278 499q156 0 206 -72q16 -48 16 -87v-186q0 -154 -196 -154h-56q-146 0 -191 82q-10 52 -10 93v144q0 98 41 134q59 46 190 46zM124 355v-221q0 -77 129 -77h46q118 7 118 56q11 0 11 62v144q0 118 -103 118q-7 0 -52 5q-149 0 -149 -87zM440 671l48 -29
q-10 -30 -41 -58q-36 -32 -76 -32q-37 0 -75 26q-38 25 -60 25q-33 0 -56 -41l-48 29q10 30 41 58q36 32 76 32q37 0 75 -25q38 -26 60 -26q33 0 56 41z" />
    <glyph glyph-name="odieresis" unicode="&#xf6;" horiz-adv-x="626" 
d="M278 499q156 0 206 -72q16 -48 16 -87v-186q0 -154 -196 -154h-56q-146 0 -191 82q-10 52 -10 93v144q0 98 41 134q59 46 190 46zM124 355v-221q0 -77 129 -77h46q118 7 118 56q11 0 11 62v144q0 118 -103 118q-7 0 -52 5q-149 0 -149 -87zM353 565v90h113v-90h-113z
M154 565v90h113v-90h-113z" />
    <glyph glyph-name="divide" unicode="&#xf7;" 
d="M248 203q-38 -37 -91 -37t-91 37q-37 38 -37 91t37 90q38 37 91 37t91 -37q37 -37 37 -90t-37 -91z" />
    <glyph glyph-name="oslash" unicode="&#xf8;" horiz-adv-x="629" 
d="M583 167q0 -85 -44 -122q-60 -52 -224 -52t-224 52q-44 37 -44 122v146q0 85 44 122q60 52 224 52t224 -52q44 -37 44 -122v-146zM408 381q-29 17 -93 17q-79 0 -105 -27q-20 -21 -20 -74v-119zM440 302l-218 -203q28 -17 93 -17q79 0 105 27q20 21 20 74v119z" />
    <glyph glyph-name="ugrave" unicode="&#xf9;" horiz-adv-x="647" 
d="M53 495q72 -27 72 -155q5 0 5 -67v-118q0 -78 124 -93h16q149 14 149 98v335h77v-490h-5q-52 0 -268 -5q-118 0 -160 93q-10 41 -10 98v304zM269 675l105 -118h-95l-136 118h126z" />
    <glyph glyph-name="uacute" unicode="&#xfa;" horiz-adv-x="647" 
d="M53 495q72 -27 72 -155q5 0 5 -67v-118q0 -78 124 -93h16q149 14 149 98v335h77v-490h-5q-52 0 -268 -5q-118 0 -160 93q-10 41 -10 98v304zM346 557h-95l105 118h126z" />
    <glyph glyph-name="ucircumflex" unicode="&#xfb;" horiz-adv-x="647" 
d="M53 495q72 -27 72 -155q5 0 5 -67v-118q0 -78 124 -93h16q149 14 149 98v335h77v-490h-5q-52 0 -268 -5q-118 0 -160 93q-10 41 -10 98v304zM385 555l-68 70l-68 -70h-111l125 116h107l125 -116h-110z" />
    <glyph glyph-name="udieresis" unicode="&#xfc;" horiz-adv-x="647" 
d="M53 495q72 -27 72 -155q5 0 5 -67v-118q0 -78 124 -93h16q149 14 149 98v335h77v-490h-5q-52 0 -268 -5q-118 0 -160 93q-10 41 -10 98v304zM359 565v90h113v-90h-113zM160 565v90h113v-90h-113z" />
    <glyph glyph-name="yacute" unicode="&#xfd;" horiz-adv-x="647" 
d="M53 498q72 0 72 -170q5 -33 5 -176v-5q0 -82 124 -82h36q124 0 124 82v351h78v-532q0 -130 -83 -160q-65 -15 -113 -15h-31q-138 0 -186 62v5h5q23 0 222 -10q108 10 108 108v47h-170q-160 0 -186 108q-5 44 -5 72v315zM356 557h-95l105 118h126z" />
    <glyph glyph-name="thorn" unicode="&#xfe;" horiz-adv-x="638" 
d="M594 167q0 -84 -44 -124q-54 -49 -187 -49q-114 0 -162 50v-218h-143v841h143v-228q49 49 162 49q133 0 187 -49q44 -40 44 -124v-148zM451 299q0 52 -21 72q-27 24 -104 24t-104 -24q-21 -20 -21 -72v-116q0 -52 21 -71q27 -25 104 -25t104 25q21 19 21 71v116z" />
    <glyph glyph-name="ydieresis" unicode="&#xff;" horiz-adv-x="647" 
d="M53 498q72 0 72 -170q5 -33 5 -176v-5q0 -82 124 -82h36q124 0 124 82v351h78v-532q0 -130 -83 -160q-65 -15 -113 -15h-31q-138 0 -186 62v5h5q23 0 222 -10q108 10 108 108v47h-170q-160 0 -186 108q-5 44 -5 72v315zM357 565v90h113v-90h-113zM158 565v90h113v-90
h-113z" />
    <glyph glyph-name="fraction" unicode="&#x2044;" horiz-adv-x="785" 
d="M162 0h-64l291 667h66z" />
    <glyph glyph-name="fraction" unicode="&#x2215;" horiz-adv-x="785" 
d="M162 0h-64l291 667h66z" />
    <glyph glyph-name="breve" unicode="&#x2d8;" horiz-adv-x="443" 
d="M373 655q0 -111 -140 -111h-21q-142 0 -142 111h66q0 -44 86 -44q85 0 85 44h66z" />
    <glyph glyph-name="dotaccent" unicode="&#x2d9;" horiz-adv-x="284" 
d="M70 537v116h144v-116h-144z" />
    <glyph glyph-name="ring" unicode="&#x2da;" horiz-adv-x="316" 
d="M220 564q-26 -26 -62 -26t-62 26t-26 62t26 62t62 26t62 -26t26 -62t-26 -62zM186 654q-11 12 -28 12q-16 0 -28 -12q-12 -11 -12 -28q0 -16 12 -28t28 -12q17 0 28 12q12 12 12 28q0 17 -12 28z" />
    <glyph glyph-name="hungarumlaut" unicode="&#x2dd;" horiz-adv-x="575" 
d="M165 557h-95l105 118h126zM369 557h-95l105 118h126z" />
    <glyph glyph-name="ogonek" unicode="&#x2db;" horiz-adv-x="212" 
d="M204 -128q0 -41 -98 -41q-97 0 -97 41v44q0 18 15 30l65 54h69l-63 -78q-4 -8 -4 -11v-36q0 -10 15 -10t15 10v23h83v-26z" />
    <glyph glyph-name="caron" unicode="&#x2c7;" horiz-adv-x="497" 
d="M180 671l68 -70l68 70h111l-125 -116h-107l-125 116h110z" />
    <glyph glyph-name="Lslash" unicode="&#x141;" horiz-adv-x="607" 
d="M73 0v286l-50 -13v96l50 14v284h147v-245l76 20v-96l-76 -21v-210h346v-115h-493z" />
    <glyph glyph-name="dotlessi" unicode="&#x131;" horiz-adv-x="260" 
d="M59 0v482h143v-482h-143z" />
    <glyph glyph-name="lslash" unicode="&#x142;" horiz-adv-x="317" 
d="M231 306v-306h-143v268l-50 -13v93l50 13v306h142v-268l51 14v-93z" />
    <glyph glyph-name="glyph230" horiz-adv-x="0" 
 />
    <glyph glyph-name="lessequal" unicode="&#x2264;" 
d="M248 203q-38 -37 -91 -37t-91 37q-37 38 -37 91t37 90q38 37 91 37t91 -37q37 -37 37 -90t-37 -91z" />
    <glyph glyph-name="greaterequal" unicode="&#x2265;" 
d="M248 203q-38 -37 -91 -37t-91 37q-37 38 -37 91t37 90q38 37 91 37t91 -37q37 -37 37 -90t-37 -91z" />
    <glyph glyph-name="partialdiff" unicode="&#x2202;" 
d="M248 203q-38 -37 -91 -37t-91 37q-37 38 -37 91t37 90q38 37 91 37t91 -37q37 -37 37 -90t-37 -91z" />
    <glyph glyph-name="summation" unicode="&#x2211;" 
d="M248 203q-38 -37 -91 -37t-91 37q-37 38 -37 91t37 90q38 37 91 37t91 -37q37 -37 37 -90t-37 -91z" />
    <glyph glyph-name="product" unicode="&#x220f;" 
d="M248 203q-38 -37 -91 -37t-91 37q-37 38 -37 91t37 90q38 37 91 37t91 -37q37 -37 37 -90t-37 -91z" />
    <glyph glyph-name="pi" unicode="&#x3c0;" 
d="M248 203q-38 -37 -91 -37t-91 37q-37 38 -37 91t37 90q38 37 91 37t91 -37q37 -37 37 -90t-37 -91z" />
    <glyph glyph-name="integral" unicode="&#x222b;" 
d="M248 203q-38 -37 -91 -37t-91 37q-37 38 -37 91t37 90q38 37 91 37t91 -37q37 -37 37 -90t-37 -91z" />
    <glyph glyph-name="Omega" unicode="&#x3a9;" 
d="M248 203q-38 -37 -91 -37t-91 37q-37 38 -37 91t37 90q38 37 91 37t91 -37q37 -37 37 -90t-37 -91z" />
    <glyph glyph-name="Omega" unicode="&#x2126;" 
d="M248 203q-38 -37 -91 -37t-91 37q-37 38 -37 91t37 90q38 37 91 37t91 -37q37 -37 37 -90t-37 -91z" />
    <glyph glyph-name="radical" unicode="&#x221a;" 
d="M248 203q-38 -37 -91 -37t-91 37q-37 38 -37 91t37 90q38 37 91 37t91 -37q37 -37 37 -90t-37 -91z" />
    <glyph glyph-name="approxequal" unicode="&#x2248;" 
d="M248 203q-38 -37 -91 -37t-91 37q-37 38 -37 91t37 90q38 37 91 37t91 -37q37 -37 37 -90t-37 -91z" />
    <glyph glyph-name="Delta" unicode="&#x394;" 
d="M248 203q-38 -37 -91 -37t-91 37q-37 38 -37 91t37 90q38 37 91 37t91 -37q37 -37 37 -90t-37 -91z" />
    <glyph glyph-name="Delta" unicode="&#x2206;" 
d="M248 203q-38 -37 -91 -37t-91 37q-37 38 -37 91t37 90q38 37 91 37t91 -37q37 -37 37 -90t-37 -91z" />
    <glyph glyph-name="lozenge" unicode="&#x25ca;" 
d="M248 203q-38 -37 -91 -37t-91 37q-37 38 -37 91t37 90q38 37 91 37t91 -37q37 -37 37 -90t-37 -91z" />
    <glyph glyph-name="glyph243" 
d="M248 203q-38 -37 -91 -37t-91 37q-37 38 -37 91t37 90q38 37 91 37t91 -37q37 -37 37 -90t-37 -91z" />
    <glyph glyph-name="glyph244" 
d="M248 203q-38 -37 -91 -37t-91 37q-37 38 -37 91t37 90q38 37 91 37t91 -37q37 -37 37 -90t-37 -91z" />
    </font>
</defs>
</svg>
