<?xml version="1.0" standalone="no"?>
<!DOCTYPE svg PUBLIC "-//W3C//DTD SVG 1.1//EN" "http://www.w3.org/Graphics/SVG/1.1/DTD/svg11.dtd" >
<svg>
<metadata>
Created by FontForge 20110222 at Sat Dec  7 16:51:42 2013
 By deploy user
(c)1999 ZETAfonts
</metadata>
<defs>
<font id="ReservoirGrunge" horiz-adv-x="308" >
  <font-face 
    font-family="ReservoirGrunge"
    font-weight="400"
    font-stretch="normal"
    units-per-em="1000"
    panose-1="0 0 0 0 0 0 0 0 0 0"
    ascent="800"
    descent="-200"
    x-height="625"
    cap-height="818"
    bbox="8 -163 1516 932"
    underline-thickness="50"
    underline-position="-75"
    unicode-range="U+0020-E00D"
  />
<missing-glyph horiz-adv-x="500" 
d="M63 0v849h375v-849h-375zM125 63h250v724h-250v-724z" />
    <glyph glyph-name=".notdef" horiz-adv-x="500" 
d="M63 0v849h375v-849h-375zM125 63h250v724h-250v-724z" />
    <glyph glyph-name=".null" horiz-adv-x="0" 
 />
    <glyph glyph-name="glyph2" horiz-adv-x="523" 
 />
    <glyph glyph-name="space" unicode=" " horiz-adv-x="523" 
 />
    <glyph glyph-name="exclam" unicode="!" horiz-adv-x="320" 
d="M16 120q0 -24 6 -96l13 -12h262v237q-3 5 -18 13h-225q-29 0 -32 -13q-6 -25 -6 -71v-58zM106 309q105 0 148 9q14 9 18 56l32 381q6 7 6 22q0 34 -13 34h-275q-3 -1 -6 -6q-6 -48 -6 -47v-3l6 -12v-75l31 -325q3 -34 59 -34z" />
    <glyph glyph-name="quotedbl" unicode="&#x22;" horiz-adv-x="499" 
d="M45 463q0 -17 18 -17q8 0 24 4q131 32 131 190v47q0 18 -7 115l-12 12q-43 2 -66 1q-37 -2 -66.5 -2t-34.5 -20l-2 -56q-3 -56 -3 -75q0 -20 2 -52q4 -41 4 -51h69q13 0 13 -22q0 -21 -35 -39t-35 -35zM283 463q0 -17 18 -17q9 0 25 4q130 32 130 190v47q0 18 -7 115
l-12 12q-43 2 -66 1q-37 -2 -66.5 -2t-34.5 -20l-2 -56q-3 -56 -3 -75q0 -20 3 -52q3 -41 3 -51h69q13 0 13 -22q0 -21 -35 -39t-35 -35z" />
    <glyph glyph-name="dollar" unicode="$" horiz-adv-x="1008" 
d="M10 238q0 -28 23 -67q20 -35 45 -57q55 -50 140 -74q77 -16 155 -33q12 -3 18.5 -7.5t15.5 -30t16 -25.5h118q20 0 27 22q10 29 17 34q22 5 106 7q66 1 142 32t119.5 76t45.5 85q1 17 1 50q0 104 -70 166q-55 49 -161 76q-40 10 -183 33l-6 7v68q1 3 12 13h3
q15 0 38.5 -25t52.5 -25h256q20 0 20 22q0 12 -13 40q-61 132 -256 170q-45 5 -107 18q-6 2 -11.5 23t-19.5 21h-125q-8 0 -19.5 -20.5t-24.5 -23.5q-82 -19 -163 -38q-98 -27 -148 -70q-65 -56 -65 -149q0 -98 100 -149q65 -32 188 -48q34 -3 101 -15q3 -2 6 -6
q6 -44 6 -34q0 -14 -3 -42.5t-3 -42.5l-5 -6q-4 -1 -7 -1q-24 0 -63 51q-22 0 -67 3t-67 3q-120 0 -166 -6q-19 -2 -19 -25zM591 320q22 0 39.5 -20.5t17.5 -42.5q0 -23 -18.5 -40t-41.5 -17q-5 0 -10 7t-5 12v88q0 13 18 13zM347 568q0 18 11.5 32t29.5 14q16 0 16 -7v-63
q0 -13 -18 -13q-15 0 -27 11t-12 26z" />
    <glyph glyph-name="ampersand" unicode="&#x26;" horiz-adv-x="1058" 
d="M10 247q0 -129 116 -197q95 -57 234 -57q77 0 150 18q12 2 84 26q66 21 72 21q13 0 30 -18.5t27 -20.5q15 0 43 -1q157 -5 193 -5q35 0 76 6l13 13l-138 143q-7 7 -7 23q0 21 69 66t69 68q0 6 -100 112q-3 1 -5 1q-32 0 -86.5 -53.5t-83.5 -53.5q-18 0 -46.5 33.5
t-28.5 53.5q95 45 125 68q63 49 63 120q0 111 -113 160q-80 34 -209 34q-128 0 -212 -31q-123 -45 -123 -150q0 -21 16 -60t16 -59q0 -10 -63 -38q-86 -38 -128 -83q-53 -57 -53 -139zM303 269q0 32 22 57t54 25q15 0 80 -66.5t70 -84.5q-9 -31 -97 -31q-51 0 -87 24
q-42 28 -42 76zM522 600q0 24 16.5 37.5t41.5 13.5q56 0 56 -45q0 -24 -22.5 -40t-47.5 -16q-19 0 -31.5 15t-12.5 35z" />
    <glyph glyph-name="quotesingle" unicode="'" 
d="M28 463q0 -19 9 -36q11 -21 28 -21q103 0 168 61t65 164v48q0 17 -7 115l-12 12q-171 7 -229 7q-30 0 -35 -20l-2 -56q-3 -56 -3 -75q0 -20 2 -52q4 -41 4 -51h69q13 0 13 -22q0 -21 -35 -39t-35 -35z" />
    <glyph glyph-name="parenleft" unicode="(" horiz-adv-x="545" 
d="M9 425q0 -230 130.5 -358.5t361.5 -128.5q19 0 24 10t10 21v150q0 14 -37 25q-26 6 -51 13q-45 16 -73 47q-71 77 -71 237q0 147 101 234q7 6 73 26q58 18 58 30v169l-13 13q-39 2 -50 2q-221 0 -345 -136q-118 -130 -118 -354z" />
    <glyph glyph-name="parenright" unicode=")" horiz-adv-x="545" 
d="M16 79q0 -78 6 -116q9 0 27 -1h27q219 0 341 131q118 127 118 348q0 227 -117 356q-121 135 -346 135h-18q-13 -1 -19 -1q-9 -3 -19 -12l-6 -169q12 -18 50 -27q54 -13 71 -22q44 -21 73 -69q35 -60 37 -107q1 -27 1 -75q0 -142 -58 -212q-25 -30 -62 -50l-60 -20
q-46 -16 -46 -30v-59z" />
    <glyph glyph-name="plus" unicode="+" horiz-adv-x="1000" 
 />
    <glyph glyph-name="comma" unicode="," 
d="M28 -86q0 -18 9 -36q11 -21 28 -21q103 0 168 61.5t65 164.5v47q0 17 -7 115l-12 12q-171 8 -229 8q-30 0 -35 -21q-1 -28 -2 -55q-3 -57 -3 -76q0 -20 2 -52q4 -41 4 -51h69q13 0 13 -22q0 -21 -35 -39t-35 -35z" />
    <glyph glyph-name="hyphen" unicode="-" horiz-adv-x="541" 
d="M86 318q45 -6 135 -6q-3 0 251 6q4 0 13 19v169q0 13 -6 49l-7 6q-58 7 -66 7h-101q-129 0 -213 -7l-6 -12v-231z" />
    <glyph glyph-name="hyphen" unicode="&#x2010;" horiz-adv-x="541" 
d="M86 318q45 -6 135 -6q-3 0 251 6q4 0 13 19v169q0 13 -6 49l-7 6q-58 7 -66 7h-101q-129 0 -213 -7l-6 -12v-231z" />
    <glyph glyph-name="period" unicode="." horiz-adv-x="301" 
d="M10 12h268q4 0 13 19v169q0 13 -6 49l-7 6q-58 7 -66 7h-101q-11 0 -95 -7l-6 -12v-231z" />
    <glyph glyph-name="slash" unicode="/" horiz-adv-x="662" 
d="M338 18q-84 -7 -188 -7h-64q-8 0 -22 1h-22l-8 12q43 128 133 384l140 385q11 13 20 18q257 7 237 7h59q5 -6 6 -19q-41 -120 -126 -361l-146 -401q-5 -7 -19 -19z" />
    <glyph glyph-name="zero" unicode="0" horiz-adv-x="1039" 
d="M10 394q0 -215 163 -317q133 -83 362 -83q222 0 348 88q147 103 147 315q0 398 -514 398q-227 0 -354 -85q-152 -100 -152 -316zM335 404q0 83 51 140t133 57q89 0 139 -60q46 -56 46 -147q0 -85 -50.5 -139.5t-134.5 -54.5q-88 0 -138 59q-46 55 -46 145z" />
    <glyph glyph-name="one" unicode="1" horiz-adv-x="483" 
d="M141 37q2 -7 10 -21q18 -10 47 -10h237l25 25q-4 4 -6 13q1 7 6 12v200q13 20 13 34q0 19 -13 35q-3 106 -5 216q-1 28 -4 109q-3 68 -3 108q0 18 -36 18q-39 0 -189 -7q-13 -6 -69 -42q-51 -34 -138 -71l-6 -18v-125q0 -32 38 -32q12 0 37 8q32 10 38 11l18 -9v-454z
" />
    <glyph glyph-name="two" unicode="2" horiz-adv-x="1020" 
d="M9 52q0 -5 1 -27l12 -13q284 -6 416 -6h262q91 0 285 6l12 13v156q0 7 -6 19.5t-12 14.5h-538q-14 5 -31 10l-1 2q4 11 32 16l388 75q66 13 113 58q17 16 40 50q28 39 28 55v47q0 180 -209 237q-71 18 -116 22q-42 1 -125 3q-113 3 -129 3q-114 0 -221 -41
q-128 -48 -173 -134q-21 -38 -21 -106q2 -5 6 -6h319q23 0 50 31q34 38 44 44q21 12 53 13q-10 0 56 0q104 0 104 -48q0 -15 -19 -29q-15 -13 -32 -17l-143 -38q-8 1 -15 1q-15 0 -116 -35q-21 -7 -63 -22q-116 -45 -183.5 -138t-67.5 -216z" />
    <glyph glyph-name="three" unicode="3" horiz-adv-x="1039" 
d="M529 -7q189 0 312 40q189 61 189 208q0 107 -114 178v19q44 32 62 54q26 34 26 77q0 226 -474 226q-176 0 -248 -14q-140 -27 -209 -118q-32 -42 -32 -76q0 -11 13 -18q36 0 110 -3.5t111 -3.5q69 0 115 17q27 12 83 27q20 1 46 1q123 0 123 -47q0 -13 -12 -23.5
t-26 -11.5l-319 -12q-11 0 -25 -19v-100q0 -21 6 -62l13 -10h325q22 0 43 -19t21 -40q0 -69 -155 -69q-51 0 -91 21q-24 13 -52 39q-22 21 -29 21h-118q-7 0 -22 3.5t-22 3.5q-127 0 -156 -7q-13 -3 -13 -23q0 -68 35 -114q30 -39 96 -72q26 -16 75 -41q86 -32 313 -32z" />
    <glyph glyph-name="four" unicode="4" horiz-adv-x="1033" 
d="M573 31l12 -13q133 -7 235 -7q8 0 23 1h23l22 19v81l10 13q115 0 125 18v194l-13 13l-112 12q-4 2 -7 6q-5 20 -6 45q-1 17 0 45q1 37 1 46q0 128 -7 258q-6 10 -19 13q-26 6 -160 6h-211q-34 0 -73 -38l-406 -393v-188q0 -10 7.5 -20.5t17.5 -10.5h506q10 0 21 -7.5
t11 -17.5v-75zM378 371q3 12 7 16l156 150q8 8 25 8v-170q-12 -13 -37 -13h-138q-5 0 -12 6q-1 1 -1 3z" />
    <glyph glyph-name="five" unicode="5" horiz-adv-x="1039" 
d="M9 232q0 -40 26 -81q69 -109 235 -144q93 -20 287 -20q186 0 304 48q168 68 168 226q0 150 -153 219q-114 52 -285 52q-40 0 -119 -6.5t-119 -6.5q-25 0 -25 12q0 32 26 32h282q109 0 324 6l13 13q1 8 4 35q2 23 2 36q0 97 -9 108q-9 8 -29 8h-767q-48 0 -60.5 -13.5
t-33.5 -193.5q-21 -169 -21 -213q0 -5 1 -17l13 -6h256q-6 0 36 11q30 8 90 8q91 0 130 -9q83 -18 83 -78q0 -77 -176 -77q-59 0 -113 26q-8 4 -31 29q-19 21 -32 21h-281q-26 0 -26 -25z" />
    <glyph glyph-name="six" unicode="6" horiz-adv-x="1039" 
d="M541 -7q192 0 311 44q177 66 177 223q0 148 -165 210q-112 43 -290 43q-34 0 -101.5 -10t-101.5 -10q-11 0 -11 7q0 27 40.5 63.5t72.5 36.5h106q30 0 87 -50h325q7 0 7 15q0 18 -7 35q-44 107 -166 152q-84 31 -231 38q-86 4 -84 4q-144 0 -285 -57q-120 -49 -171 -145
q-45 -85 -45 -223q0 -39 1 -62q1 -28 18 -70q16 -38 35 -64q74 -102 220 -146q44 -14 70 -20q46 -12 70 -13q34 -1 118 -1zM372 259q0 73 144 73q145 0 145 -72q0 -73 -148 -73q-51 0 -88 13q-53 19 -53 59z" />
    <glyph glyph-name="seven" unicode="7" horiz-adv-x="995" 
d="M126 50q0 -18 3 -32l6 -6h375q7 0 19 12q26 84 73 151q30 44 114 124q78 65 156 131q113 99 113 144v200q-106 7 -260 7h-169q-87 0 -263 -3.5t-264 -3.5q-19 -11 -19 -25v-156l19 -19h581q5 0 12 -6l1 -3l-1 -3q-33 -39 -95 -79q-52 -32 -105 -65q-134 -91 -194 -153
q-102 -107 -102 -215z" />
    <glyph glyph-name="eight" unicode="8" horiz-adv-x="1033" 
d="M10 256q0 -58 28 -101q55 -85 175 -121q69 -21 217 -34q65 -6 126 -6q179 0 300 50q168 70 168 222q0 48 -24 88q-17 30 -59 71v7q35 38 49 61q21 35 21 74q0 234 -469 234h-105q-244 0 -346 -88q-16 -14 -40 -38v-100q-2 1 -6 1q-15 0 -19 -3.5t-4 -16.5q0 -57 69 -118
v-13q-81 -67 -81 -169zM360 260q0 40 55 59q38 13 90 13q168 0 168 -77q0 -61 -142 -61q-57 0 -101 11q-70 16 -70 55zM378 567q0 25 48 38q33 8 71 8h45q112 0 112 -47q0 -49 -99 -49q-10 0 -28 1h-22q-127 0 -127 49z" />
    <glyph glyph-name="nine" unicode="9" horiz-adv-x="1045" 
d="M53 213q0 -113 170 -174q125 -45 265 -45q547 0 547 428q0 195 -171 296q-141 83 -351 83q-186 0 -314 -45q-189 -65 -189 -215q0 -146 154 -209q109 -45 280 -45q38 0 113 8.5t113 8.5q0 -54 -55 -85q-46 -25 -105 -25q-68 0 -125 37q-77 7 -160 7h-140q-32 0 -32 -25z
M377 534q0 73 146 73q139 0 139 -73q0 -72 -140 -72q-145 0 -145 72z" />
    <glyph glyph-name="colon" unicode=":" 
d="M16 25l13 -13l260 2q2 4 9 23l1 149q0 58 -14 70h-269v-231zM16 475l13 -13h250l12 13v231q-12 4 -25 7h-110q-105 0 -133 -7q-14 -3 -14 -38q0 -83 7 -193z" />
    <glyph glyph-name="semicolon" unicode=";" 
d="M35 -83q0 -61 39 -61q65 0 140 46q84 51 84 111v238q-1 2 -9 7.5t-10 5.5h-225q-14 0 -29 -9l-2 -4v-241h81q7 0 7 -19q0 -23 -38 -39t-38 -35zM10 548q0 -15 3 -39q3 -29 3 -39l13 -6h237q25 0 25 19q0 27 1 80.5t1 80.5q0 55 -10 68l-4 2h-250l-13 -6q-6 -83 -6 -114
v-46z" />
    <glyph glyph-name="question" unicode="?" horiz-adv-x="933" 
d="M323 25l12 -13h250l13 13q6 36 6 49v55q0 33 -6 114l-13 13q-48 6 -68 6h-42q-38 0 -140 -6l-12 -6v-225zM328 322q0 -10 7 -10h244q4 0 35.5 23.5t39.5 26.5q59 20 119 39q71 25 105 56q45 43 45 114q0 254 -450 254q-281 0 -369 -82q-17 -16 -35 -34q-61 -61 -61 -137
q0 -16 8 -16q18 0 53 -3t53 -3q32 0 97 3t97 3q14 9 30.5 40.5t37.5 45.5q34 21 98 21q40 0 68 -15q36 -18 36 -54q0 -37 -48 -66q-51 -25 -101 -50q-65 -33 -90 -72q-19 -29 -19 -84z" />
    <glyph glyph-name="A" unicode="A" horiz-adv-x="1095" 
d="M22 12q218 -8 259 -8q38 0 54 14q19 53 37 63q39 0 117.5 3.5t117.5 3.5q93 0 105 -13q1 -2 23 -36q15 -24 31 -27q25 -1 70 -1q216 -6 218 -6q31 0 31 20l-194 462q-23 46 -67 157q-42 102 -70 156q-9 18 -32 18l-125 1q-123 0 -225 -7q-9 -9 -18 -19l-332 -725
q-12 -26 -12 -40v-3q3 -4 12 -13zM459 314q0 23 27 96q30 78 46 78q12 0 45 -77t33 -96q0 -15 -55 -16q47 1 -66 1q-4 0 -10.5 -1t-9.5 -1q-10 0 -10 16z" />
    <glyph glyph-name="B" unicode="B" horiz-adv-x="1083" 
d="M10 37q0 -31 54 -31h715q117 0 201 62q93 69 93 182q0 98 -113 206q3 10 8 14q9 8 11 11q44 56 44 119q0 82 -55.5 139.5t-138.5 66.5q-117 13 -260 14h-335q-153 0 -199 -8q-6 -5 -14 -20q-5 -33 -5 -148q0 -30 -3 -91t-3 -91v-425zM335 231v69l13 12h283q98 0 98 -50
t-85 -50h-40q-61 0 -256 7zM335 559q0 27 6 38q8 15 32 15h256q17 0 37 -16.5t20 -33.5q0 -14 -15 -25.5t-30 -11.5h-271q-19 0 -27 5.5t-8 28.5z" />
    <glyph glyph-name="C" unicode="C" horiz-adv-x="1120" 
d="M9 399q15 -406 567 -406q195 0 338 58q197 79 197 244q0 -1 -1 18l-13 6h-325l-12 -6q-54 -58 -83 -77q-45 -30 -108 -30q-143 0 -189 128q-14 39 -14 135q6 17 19 50q50 101 186 101q87 0 133 -39q4 -4 25 -36q17 -26 31 -26l341 2l3 4v19q0 43 -32 102q-35 63 -68 85
q-81 53 -212 83q-107 24 -228 24q-409 0 -517 -257q-25 -60 -37 -137z" />
    <glyph glyph-name="D" unicode="D" horiz-adv-x="1083" 
d="M16 425v-394q0 -6 25 -19h343q88 0 205 4q161 5 213 17q111 24 183 104q22 25 42 70q27 64 33 74q13 131 13 191q0 202 -238 315q-14 7 -54 13q-35 6 -52 18q-54 7 -105 7h-256q-42 0 -108 -2q-92 -2 -108 -2q-31 0 -92 -3q-22 -2 -31 -18q-7 -59 -7 -169
q-1 -116 -6 -169q-6 -6 -6 -19q0 -12 6 -18zM341 256v200q0 111 10 145q3 11 15 11h207q57 0 106.5 -53.5t49.5 -111.5q0 -97 -32 -147q-38 -58 -129 -69q-70 -9 -168 -9q-59 0 -59 34z" />
    <glyph glyph-name="E" unicode="E" horiz-adv-x="989" 
d="M23 12h937q6 0 12.5 12t6.5 19v144q0 18 -13 25q-53 0 -159 3t-159 3q-237 0 -251 1q-62 2 -62 39q0 54 25 54h450q17 0 19 19q6 48 6 151v18l-12 12q-133 6 -413 6q-37 0 -57 9q-12 5 -12 51q0 22 7 30q3 3 111 3h210q124 0 260 7l6 7q7 42 7 111q0 51 -7 70
q-4 11 -25 12q-25 1 -303 5q-142 2 -248 2h-141q-164 0 -186 -11q-4 -2 -9 -8q-6 -48 -10 -189t-4 -355v-143q0 -16 1 -47v-47z" />
    <glyph glyph-name="F" unicode="F" horiz-adv-x="970" 
d="M16 24q9 -12 19 -12l291 2q9 10 9 29v219q0 28 8.5 40.5t35.5 12.5h425q37 0 37 22q0 11 2 29q3 22 4 30q1 26 1 58q0 67 -19 67h-469l-13 10v68q6 13 25 13l575 12q4 0 13 19q0 18 1.5 55t1.5 55q0 71 -34 71h-25q-16 0 -48 1h-49q-108 0 -386 -4q-245 -4 -386 -3
l-19 -19q-6 -236 -6 -351v-311q0 -46 6 -113z" />
    <glyph glyph-name="G" unicode="G" horiz-adv-x="1139" 
d="M10 427q0 -242 165 -348q135 -86 391 -86q162 0 272 41q7 3 48 22.5t43 19.5q15 0 27.5 -31.5t28.5 -31.5h113q25 0 25 19l6 400q0 12 -9.5 21.5t-21.5 9.5h-438q-3 -2 -19 -25v-131q0 -3 5 -15t8 -14h100q13 0 13 -15q0 -34 -70 -51q-49 -12 -100 -12q-101 0 -164 50
q-67 55 -67 154q0 95 57.5 158.5t150.5 63.5q59 0 98 -22q32 -17 76 -66q48 -8 138 -8q25 0 74 1h75q63 0 69 1q19 3 19 18q0 36 -33 90q-68 107 -222 160q-125 44 -276 44q-289 0 -450 -127q-73 -58 -107 -166q-25 -77 -25 -124z" />
    <glyph glyph-name="H" unicode="H" horiz-adv-x="1026" 
d="M10 33q0 -21 21 -21q147 0 285 6l16 13v262q0 20 38 24q8 1 52 1q42 0 125 -3t125 -3q7 -4 13 -19q-1 -34 -1 -67q0 -101 7 -202q8 -12 19 -12h253q24 0 34.5 6.5t12.5 30.5q0 37 2 109q0 21 2 124q2 76 2 124v374q0 9 -5.5 23.5t-13.5 14.5h-287q-10 0 -16 -10.5
t-6 -20.5v-244q-13 -9 -22 -13q-34 0 -103 -3t-103 -3q-23 0 -57 5q-43 7 -56 8l-9 12v256q-1 2 -10.5 7.5t-11.5 5.5h-262q-28 0 -32 -13q-5 -16 -7 -83q-1 -48 0 -124q1 -98 1 -86q0 -17 -3 -50t-3 -50v-62q-1 -41 -1 -62z" />
    <glyph glyph-name="I" unicode="I" horiz-adv-x="345" 
d="M22 18q82 -7 186 -7h64q7 0 22 1h22l13 12q6 264 6 384v385q-5 13 -13 18q-254 7 -234 7h-59q-8 -6 -13 -19q0 -60 -3 -180.5t-3 -180.5v-401q3 -7 12 -19z" />
    <glyph glyph-name="J" unicode="J" horiz-adv-x="920" 
d="M9 297q0 -197 195 -264q113 -39 359 -39q130 0 226 69q105 75 115 200q6 72 6 221v304q-2 10 -13 25h-287q-16 0 -19 -19v-43l-3 -142q-1 -103 -9 -309q-1 -20 -18 -45.5t-35 -38.5q-12 -8 -35 -11q-16 -2 -43 -1q-37 2 -38 2t-30 14.5t-39 51.5q-2 6 -10 64
q-5 35 -21 45q-5 1 -22 1q-21 0 -136 -13t-126 -17t-16 -14q0 -6 -1 -21v-20z" />
    <glyph glyph-name="K" unicode="K" horiz-adv-x="1083" 
d="M10 162q0 -77 6 -131l13 -13h275q20 0 25 14q12 32 12 186q5 7 31 32q23 22 45 45q33 30 53 30q11 0 22.5 -12t25.5 -36q21 -36 23 -40q64 -97 150 -213l13 -6h362q8 0 8 17q0 3 -1 8l-244 356q-5 11 -18 32q-51 66 -51 106q43 43 211 189q28 23 82 72q7 7 7 14l-2 4
l-4 2h-388q-15 0 -43 -25l-257 -231q-4 -4 -15 -7q-2 0 -3 1l-13 250l-12 12h-282q-26 0 -26 -89q0 -17 1 -41t1 -27q0 -83 -3.5 -249.5t-3.5 -249.5z" />
    <glyph glyph-name="L" unicode="L" horiz-adv-x="926" 
d="M47 12h850q19 0 19 37v138q0 18 -13 25q-15 0 -46 3t-47 3q-76 0 -228.5 3t-227.5 3l-13 13v537q0 31 -12 38h-294l-13 -13q-6 -174 -6 -393q0 -50 -3 -150t-3 -150q0 -62 6 -75q9 -19 31 -19z" />
    <glyph glyph-name="M" unicode="M" horiz-adv-x="1308" 
d="M10 25l13 -13h57q38 -1 57 -1q110 0 173 7l6 7q1 26 7 225v118q0 41 12 125h6q9 -12 14.5 -31.5t10.5 -36.5l132 -357q15 -42 34 -49q4 -1 66 -4q56 -3 82 -3q41 0 86 6q14 10 25 38l125 331q5 9 13 27q12 40 16 48q13 30 28 38q0 -13 3 -41t3 -42q0 -17 -6 -24v-58
q-1 -38 -1 -57q0 -139 7 -247l12 -13h269q18 0 25 13q0 63 3 190.5t3 190.5q0 5 3.5 15.5t3.5 15.5v332q0 50 -38 50h-182q-57 0 -274 -7l-13 -6q-17 -29 -25 -50l-54 -152q-46 -123 -64 -123q-7 13 -19 38l-94 262q-11 31 -25 31q-20 0 -59.5 3.5t-59.5 3.5q-72 0 -243 -5
q-34 1 -100 -2q-21 -2 -25 -12q-7 -17 -7 -81v-319l-6 -13v-368z" />
    <glyph glyph-name="N" unicode="N" horiz-adv-x="1039" 
d="M29 18q48 -6 92 -6q30 0 189 6q3 3 16 19v369q0 7 16 7q2 0 6 -1l281 -337q38 -46 62 -57q136 -7 283 -7q45 0 49 32q1 38 2 109q0 21 2 124q2 76 2 124v388q0 30 -19 30q-24 0 -73.5 3.5t-73.5 3.5h-128q-22 -22 -22 -32v-346q-9 0 -21 -3l-4 2q-2 2 -41 47
q-4 6 -13 20.5t-129 151.5q-123 142 -139 153q-51 0 -153 3.5t-153 3.5q-38 0 -44 -25q-1 -45 -2 -114q-1 -29 -3 -229l-1 -31v-383q0 -11 19 -25z" />
    <glyph glyph-name="O" unicode="O" horiz-adv-x="1126" 
d="M10 389q0 -91 50 -183q77 -142 249 -186q100 -26 322 -26q322 0 436 225q49 98 49 205q0 420 -580 420q-240 0 -376 -105q-150 -116 -150 -350zM360 394q0 98 48 164q54 74 149 74h17q12 -1 17 -1q12 -8 34 -14q32 -9 37 -10q52 -20 80 -81q24 -52 24 -114
q0 -77 -53 -140q-55 -66 -131 -66q-92 0 -154 47q-68 52 -68 141z" />
    <glyph glyph-name="P" unicode="P" horiz-adv-x="1051" 
d="M10 241q0 -61 6 -210l13 -13q147 -6 246 -6h35q7 4 22 12v263q19 28 34 28h400q114 0 192 66q83 69 83 181t-78.5 187t-190.5 75h-705q-51 0 -51 -44v-39q1 -24 1 -39q0 -61 -3.5 -184.5t-3.5 -185.5v-91zM340 577q0 5 1 22l25 13h281q17 0 28 -12t11 -29t-11 -29
t-28 -12h-300q-7 6 -7 47z" />
    <glyph glyph-name="Q" unicode="Q" horiz-adv-x="1145" 
d="M708 0q24 0 41 -12q30 -22 146 -93q20 -12 46 -26q3 -1 13 -1q11 0 15 2t80 61t85 67q1 5 1 11q0 12 -6 16q-51 31 -71 44q-49 33 -61 50q7 15 23 35q26 33 27 34q27 38 49 111q20 69 20 119q0 224 -173 334q-145 92 -382 92q-259 0 -387 -91q-146 -105 -164 -353
q5 -6 6 -14t1 -19q-1 -16 -1 -17q0 -9 13 -62q39 -158 189 -233q122 -61 303 -61q31 0 93.5 3t93.5 3zM360 391q0 235 219 235q30 0 43 -1q23 -2 59 -27q86 -62 86 -167q0 -99 -56 -162t-154 -63q-85 0 -141 50.5t-56 134.5z" />
    <glyph glyph-name="R" unicode="R" horiz-adv-x="1058" 
d="M35 12h153q32 0 135 6l9 7v262q3 4 9 13q4 4 13 12h144q9 0 18.5 -10t19.5 -31q14 -28 18 -34l70 -114q47 -72 80 -105h337v32l-156 250q-9 14 -12 25q5 10 18 18q97 59 116 80q41 44 41 133q0 120 -85 196q-81 73 -203 73h-421q-40 0 -103 -2q-86 -2 -102 -2
q-34 0 -102 -5q-15 -3 -16 -10q0 -26 -1 -77l-3 -182q-2 -124 -2 -213v-121q0 -5 3 -85l2 -55q1 -18 1 -37q4 -24 19 -24zM341 531q-6 24 -6 41q0 46 19 46h275q63 0 63 -48q0 -21 -15 -33t-36 -12q-42 0 -125 -3.5t-125 -3.5q-31 0 -50 13z" />
    <glyph glyph-name="S" unicode="S" horiz-adv-x="1058" 
d="M9 227q0 -24 26 -64q72 -113 215 -148q86 -22 269 -22q67 0 154 10q173 20 252 62q123 66 123 211q0 152 -147 212q-52 21 -199 38q-86 8 -248 31q-64 12 -64 43q0 45 98 45q51 0 83 -21q41 -26 58 -30q18 0 51 -1q191 -5 200 -5h124q19 9 19 15q0 25 -31 74
q-106 161 -450 161q-407 0 -501 -172q-26 -47 -26 -123q0 -28 1 -43q2 -28 32 -64q46 -58 154 -90q81 -24 208 -37q94 -7 188 -15q70 -7 70 -44q0 -26 -31 -40q-24 -10 -54 -10q-69 0 -98 13q-6 3 -27 22q-17 15 -29 15h-400q-20 -8 -20 -23z" />
    <glyph glyph-name="T" unicode="T" horiz-adv-x="951" 
d="M10 799v-175q0 -16 37 -18q31 -3 80 -3q30 0 89 1t81 1q19 0 19 -37v-537q0 -19 19 -19h287l6 12q2 115 7 344q6 241 6 225q11 12 19 16h281v190l-13 13q-163 6 -221 6h-561q-16 0 -124 -6z" />
    <glyph glyph-name="U" unicode="U" horiz-adv-x="1008" 
d="M506 -12q416 0 473 250q1 5 5 66q3 47 14 59v313q0 113 -13 137q-76 7 -140 7q-53 0 -154 -7l-12 -12l-3 -220v-143q-1 -94 -14 -136q-10 -34 -30 -58q-43 -50 -125 -50q-68 0 -117 34q-55 39 -55 104v462q0 25 -25 25h-269q-7 0 -25 -18q0 -73 -3 -219t-3 -219
q0 -160 74 -247.5t232 -108.5q146 -19 190 -19z" />
    <glyph glyph-name="V" unicode="V" horiz-adv-x="1083" 
d="M204 344l144 -319q9 -19 31 -19h300q36 0 50 31l131 288q3 6 13 19v6l143 312l7 7l50 118v9q0 14 -7 16q-27 7 -122 7h-169q-35 0 -46 -25l-181 -407q-3 -3 -7 -6h-6q-23 39 -86 185l-101 234q-8 19 -46 19h-286q-6 0 -6 -16q0 -14 6 -28z" />
    <glyph glyph-name="W" unicode="W" horiz-adv-x="1526" 
d="M10 780l269 -737q11 -31 52 -31q2 0 266 6l25 13l119 318q7 20 18 20t22.5 -15t11.5 -28q0 -5 -2 -8l100 -262q15 -38 25 -38h300q20 0 31 31l94 257q9 19 25 56l150 437v6v8q-7 12 -100 12h-116q-97 0 -103 -7q-3 -3 -6 -13l-113 -331l-12 -25h-3q-7 0 -16 15
q-7 11 -44 104q-30 81 -95 238q-6 12 -17 12q-42 0 -125 3t-125 3q-27 0 -31 -12l-131 -350q-7 -20 -20 -20q-3 0 -5 1l-125 362q-10 13 -19 13h-300v-38z" />
    <glyph glyph-name="X" unicode="X" horiz-adv-x="1095" 
d="M535 200q5 0 10 -2q66 -83 134 -161q22 -25 68 -25q55 0 166 3t166 3l6 6v7l-6 12l-300 363q-19 23 -19 34q0 26 35 63q26 26 52 53l200 250q1 1 1 3q-1 6 -7 9h-362q-6 -3 -51 -61q-49 -63 -56 -70t-22 -7q-24 0 -58 49l-48 72q-18 22 -40.5 23t-131.5 1q-165 0 -237 -7
q-4 -3 -6 -6l-1 -3q2 -14 150 -180q145 -165 145 -186q0 -25 -28 -53q-20 -21 -41 -41l-238 -300q-6 -8 -6 -18q0 -13 6 -13h338q29 0 61 47q28 44 55 88q33 47 65 47z" />
    <glyph glyph-name="Y" unicode="Y" horiz-adv-x="1076" 
d="M369 224v-187q0 -12 19 -19q14 -6 28 -6h272v204l90 140q6 4 13 12l262 412q4 9 13 25v7q-15 6 -19 6h-325q-5 0 -16.5 -10t-14.5 -15l-125 -219q-11 -19 -25 -19q-22 0 -92 131.5t-83 131.5h-337q-12 0 -19 -13q2 -6 6 -12l175 -275q6 -13 19 -37q21 -35 77 -122
q22 -34 44 -67q31 -48 38 -68z" />
    <glyph glyph-name="Z" unicode="Z" horiz-adv-x="995" 
d="M196 6q104 0 382 4q241 3 382 2l12 13v180l-68 10h-375q-5 2 -7 10q2 7 7 12q24 24 75 69q7 4 18 12q123 110 244 213q35 25 101 83q18 20 18 29v113q0 -5 -6 50l-7 6q-19 2 -56 6q-4 2 -12 7h-104q-104 0 -377 -4q-238 -4 -376 -3l-12 -6v-181q0 -5 19 -13q20 0 62 -3
t64 -3q50 0 150 2t149 2v-23l-432 -375q-37 -32 -37 -50v-137q0 -15 24 -18q52 -7 162 -7z" />
    <glyph glyph-name="bracketleft" unicode="[" horiz-adv-x="1000" 
 />
    <glyph glyph-name="backslash" unicode="\" horiz-adv-x="662" 
d="M324 18q84 -7 188 -7h64q8 0 22 1h22l9 12q-44 128 -134 384l-140 385q-11 13 -20 18q-257 7 -237 7h-58q-6 -6 -6 -19q40 -120 125 -361l146 -401q5 -7 19 -19z" />
    <glyph glyph-name="a" unicode="a" horiz-adv-x="970" 
d="M10 207q0 -117 113 -172q85 -41 217 -41q103 0 245 56q18 7 26 7q12 0 29.5 -19t31.5 -19h263q25 0 25 101q0 39 -15 47q-26 13 -35 27q0 36 -3.5 112t-3.5 114q0 146 -155 199q-94 32 -277 32q-68 0 -130 -5q-50 -4 -143 -24q-119 -26 -119 -47q0 -10 6 -19
q39 -61 88 -125q3 -1 18 -1q22 0 59 10l60 16q54 13 173 13q121 0 121 -31q0 -4 -1 -8l-6 -5q-108 -2 -216 -11q-144 -12 -215 -26q-64 -13 -110 -65.5t-46 -115.5zM322 229q0 53 192 53h38q27 0 58 -7l6 -12v-4q0 -44 -79 -68q-55 -16 -115 -16q-100 0 -100 54z" />
    <glyph glyph-name="b" unicode="b" horiz-adv-x="939" 
d="M541 -6q154 0 265 80q123 89 123 237q0 153 -121 250q-112 90 -269 90q-56 0 -106 -15q-101 -30 -116 -30q-23 0 -23 7v194q0 12 -15 25h-244q-17 0 -20 -30q0 -22 1 -43q-1 -26 -4 -201q-2 -122 -2 -201v-319q0 -9 11 -17t20 -8h219q12 0 26 16t24 16q1 0 53 -18t63 -20
q55 -13 115 -13zM297 322q0 62 52 98q45 31 110 31q64 0 109 -33q49 -37 49 -99q0 -58 -54 -94q-48 -31 -109 -31q-62 0 -107 32q-50 36 -50 96z" />
    <glyph glyph-name="c" unicode="c" horiz-adv-x="945" 
d="M9 313q0 -171 133 -255q111 -70 293 -70q152 0 235 19q130 28 202 112q63 73 63 132q0 18 -6 18h-300q-3 -2 -7 -6q-50 -59 -65 -70q-34 -24 -94 -24q-38 0 -56.5 7t-44.5 33q-10 9 -25.5 29t-15.5 81q0 72 40 114.5t111 42.5q44 0 77 -21q7 -5 46 -40q24 -21 46 -21h269
q19 0 19 22q0 24 -32 78q-97 163 -429 163q-198 0 -315 -71q-144 -88 -144 -273z" />
    <glyph glyph-name="d" unicode="d" horiz-adv-x="933" 
d="M421 -1q25 0 58 1q15 0 67.5 22t82.5 22q15 -10 25 -25h244q10 0 18 12q8 67 8 196v183q0 170 -2 243q1 57 -6 166l-12 12h-231q-7 0 -20 -6.5t-15 -11.5v-200q0 -14 -18 -14q-7 0 -28 8q-26 9 -76 24q-29 3 -81 19q-6 0 -19 1h-18q-173 0 -276 -81q-113 -89 -113 -257
q0 -34 1 -50q2 -26 19 -68q17 -38 35 -62q58 -80 160 -111q76 -23 197 -23zM316 319q0 58 44.5 97.5t102.5 39.5q48 0 105 -27q67 -31 67 -73v-75q0 -39 -64 -66q-52 -22 -98 -22q-60 0 -106 32q-51 36 -51 94z" />
    <glyph glyph-name="e" unicode="e" horiz-adv-x="939" 
d="M10 318q0 -44 13 -86q45 -145 179 -202q101 -43 277 -43q180 0 288 35q45 15 99 63q51 46 51 100q0 9 -7 9h-294q-15 0 -63 -19t-78 -19q-50 0 -88 15q-52 20 -52 61l75 9h481q24 0 38 22q0 7 1 22v22q0 150 -112 243q-102 84 -258 94q-16 1 -88 1q-208 0 -317 -59
q-145 -78 -145 -268zM328 416q0 26 59 48q50 18 82 18q42 0 88 -15q60 -19 60 -51q0 -6 -7 -9q-68 -7 -132 -7h-99q-51 0 -51 16z" />
    <glyph glyph-name="f" unicode="f" horiz-adv-x="445" 
d="M169 18h172q19 0 24 51q1 35 2 71q5 137 5 309q7 10 28.5 14.5t28.5 16.5q0 12 3 37t3 38q0 12 -3 33t-3 30q-5 11 -31 15.5t-26 21.5q0 21 28.5 30.5t28.5 13.5v137l-7 7q-39 6 -54 6h-48q-145 0 -184 -28q-49 -34 -64 -172q-6 -5 -30 -10q-20 -5 -26 -15
q-6 -48 -6 -100q0 3 -1 -18q-1 -13 1 -21q2 -11 10 -14l30 -4q22 -4 22 -12v-412q0 -25 97 -25z" />
    <glyph glyph-name="g" unicode="g" horiz-adv-x="939" 
d="M22 -78q0 -27 106 -54q90 -24 132 -24q14 0 87 -5q29 -2 133 -2q185 0 276 33q143 51 167 199l6 7q0 23 1 69v69q0 285 -7 393q-2 25 -19 25h-244q-10 0 -14.5 -19t-22.5 -19q4 0 -64 25.5t-164 25.5q-164 0 -268 -72q-118 -83 -118 -241q0 -153 129 -225
q102 -57 268 -57q73 0 129 13l50 14q29 8 50 8v-9q-3 -6 -26 -28q-36 -33 -100 -43q-32 -5 -111 -5q-116 0 -219 32q-7 2 -42 19q-25 12 -43 12q-21 0 -48 -60q-24 -55 -24 -81zM322 344q0 59 55 90q45 24 109 24q62 0 105 -26q51 -30 51 -88q0 -47 -45 -82.5t-93 -35.5
q-72 0 -120 23q-62 31 -62 95z" />
    <glyph glyph-name="h" unicode="h" horiz-adv-x="870" 
d="M10 814v-771q0 -7 9 -16t16 -9h212l38 6q8 15 12 31q-1 6 -6 13v6q0 12 6 19v237q0 58 50 88q42 25 104 25q77 0 106 -49q22 -37 22 -120v-244q8 -12 18 -12h232q31 0 31 53v332q0 122 -100 186q-84 54 -213 54q-59 0 -156 -25q-10 -3 -39 -16q-20 -9 -42 -9q-9 0 -16 6
v213q0 20 -21 24q-4 1 -35 1q-67 0 -203 -7z" />
    <glyph glyph-name="i" unicode="i" horiz-adv-x="314" 
d="M256 11q31 0 35 14q13 45 13 209q0 41 -6 378l-13 13q-74 6 -103 6h-147q-17 0 -20 -35q0 -24 1 -47l-6 -481q0 -32 4 -41t21 -9q37 0 110.5 -3.5t110.5 -3.5zM29 687q178 -7 227 -7q6 0 29 1l13 12v119q0 15 -19 19q-32 6 -100 6q-28 0 -72 -2q-66 -3 -68 -4
q-24 -8 -24 -54q0 -12 1 -35v-36q6 -15 13 -19z" />
    <glyph glyph-name="j" unicode="j" horiz-adv-x="351" 
d="M60 44q-6 -13 -19 -37q-13 -6 -31 -25v-132q1 -4 6 -6q23 -7 88 -7q132 0 178 31q59 41 59 166v572q0 18 -13 25h-212q-40 0 -50 -7l-6 -12v-499q-7 -7 -7 -35t7 -34zM60 699l12 -12h263v143h-256q-19 0 -19 -24v-107z" />
    <glyph glyph-name="k" unicode="k" horiz-adv-x="883" 
d="M23 24q40 0 121 -3t122 -3q18 0 23.5 7.5t10.5 68.5q4 48 4 68q19 20 38 41q30 28 46 28t22 -7q28 -32 65 -91q46 -74 61 -94.5t30 -20.5h157q84 0 150 6v19q-36 52 -75 119l-144 212l-19 38q4 15 65 69q39 34 79 68l69 69v6q-3 5 -7 7h-343q-50 -47 -99 -94
q-84 -79 -95 -81l-4 2l-2 4q-6 92 -6 178q0 131 -7 178q-2 15 -57 15q-81 0 -193 -9q-12 -1 -19 -12q0 -124 -3 -374.5t-3 -375.5q0 -33 13 -38z" />
    <glyph glyph-name="l" unicode="l" 
d="M9 172q0 -22 1 -67v-68l13 -13q78 -6 110 -6h146q19 14 19 69v536q0 174 -13 202q-119 6 -167 6h-48q-36 0 -54 -19q-7 -171 -7 -417v-223z" />
    <glyph glyph-name="m" unicode="m" horiz-adv-x="1426" 
d="M186 16q96 0 104 17q4 8 3 20q-2 24 -2 21q0 13 5 211q0 17 1 52q4 54 52 86q42 27 99 27q86 0 112 -82q13 -41 13 -153q0 -25 -3.5 -75.5t-3.5 -75.5q0 -28 25 -46h78q146 0 167 6.5t21 55.5v257l10 23q38 90 148 90q75 0 102 -58q18 -39 18 -124q0 -35 -3.5 -106.5
t-3.5 -106.5q0 -12 19 -31q37 0 112 -3t113 -3q44 0 44 25v337q0 144 -89 209q-77 55 -227 55q-136 0 -284 -76h-13q-116 75 -288 75q-73 0 -155 -31q-14 -6 -29 -13t-28 -7q-9 0 -13.5 16t-10.5 16h-250q-4 0 -13 -19q0 -87 -3 -262t-3 -263q0 -35 7.5 -48t23.5 -14
q49 -2 145 -2z" />
    <glyph glyph-name="n" unicode="n" horiz-adv-x="870" 
d="M10 63q0 -45 25 -45h219q18 0 26 8q19 20 19 182q0 37 -1 81t-1 41q0 52 50 87q45 32 100 32q52 0 86 -24q39 -27 39 -76v-306q0 -12 13 -19q82 -6 122 -6h122q32 12 32 123q0 63 -4 196q0 34 -3 100q-12 104 -110 159q-82 47 -195 47q-64 0 -119 -13q-9 -3 -63.5 -20.5
t-56.5 -17.5q-11 0 -15.5 16t-15.5 16h-244q-17 0 -19 -32q1 13 1 -45v-78q0 -67 -3.5 -202.5t-3.5 -203.5z" />
    <glyph glyph-name="o" unicode="o" horiz-adv-x="970" 
d="M10 334q0 -204 178 -279q117 -50 354 -50q58 0 93 1q56 2 135 37q190 84 190 308q0 39 -16 77q-46 109 -99 146t-131 57q-28 7 -142 25q-9 3 -25 6q-30 1 -68 1q-469 0 -469 -329zM322 334q0 73 48 111q44 36 118 36h47q17 0 45 -20q62 -45 62 -127q0 -66 -43.5 -109.5
t-110.5 -43.5q-74 0 -120 40.5t-46 112.5z" />
    <glyph glyph-name="p" unicode="p" horiz-adv-x="933" 
d="M10 600v-737q7 -13 19 -13h244l12 6q0 126 9 174q3 14 29 14l75 -25q57 -19 147 -19q154 0 260 79q118 88 118 237q0 160 -116 249q-104 79 -270 79q-59 0 -109 -14q-108 -31 -118 -31q-11 0 -18 11.5t-13 14.5q-16 8 -54 8q-102 0 -202 -8zM297 322q0 63 38.5 96
t102.5 33q76 0 122 -29q57 -35 57 -106q0 -57 -56 -92q-48 -31 -108 -31q-62 0 -107 33q-49 36 -49 96z" />
    <glyph glyph-name="q" unicode="q" horiz-adv-x="933" 
d="M638 40v-177q3 -4 22 -13q26 0 77.5 -1t77.5 -1q64 0 95 8l4 3l2 4q8 155 8 335v212q0 123 -8 215h-262q-5 0 -11 -12.5t-27 -12.5q-114 44 -222 44q-155 0 -264 -80q-121 -89 -121 -239q0 -152 118 -243q108 -82 265 -82q42 0 123 20t123 20zM322 322q0 64 55 99
q47 30 115 30q61 0 103 -30q47 -34 47 -93q0 -62 -51 -100q-46 -35 -110 -35q-63 0 -108 32q-51 36 -51 97z" />
    <glyph glyph-name="r" unicode="r" horiz-adv-x="751" 
d="M10 49q8 -12 15 -24q7 -7 29 -7h212q5 0 16.5 9.5t14.5 15.5v312q0 36 23 62t58 26q44 0 67 -33q15 -21 27 -73q12 -7 37 -7q26 0 108 9q87 9 108 15q10 3 16 14q0 7 1 21v21q0 120 -52 176q-55 57 -174 57q-71 0 -159 -31l-57 -20q-7 0 -13.5 16t-14.5 16h-250l-12 -13
v-562z" />
    <glyph glyph-name="s" unicode="s" horiz-adv-x="876" 
d="M9 191q0 -116 169 -163q105 -29 264 -29q323 0 403 132q16 26 19 60q2 14 2 65q-43 97 -163 134q-58 18 -218 32q-55 3 -132 15q-19 7 -19 22q0 18 24 22q5 1 39 1q53 0 106 -20h161q151 0 162 8q4 2 4 9q0 85 -101 128q-57 24 -174 40q-68 9 -100 9q-178 0 -278 -29
q-168 -50 -168 -184q0 -92 82 -141q61 -36 178 -51q87 -7 174 -15q80 -9 80 -33q0 -35 -82 -35q-32 0 -75 22t-56 22h-288q-13 0 -13 -21z" />
    <glyph glyph-name="t" unicode="t" horiz-adv-x="420" 
d="M270 6q37 0 79 9q61 12 61 35v93q0 19 -22 27q-25 9 -28 17q-8 19 -8 97q0 145 2 153q4 18 50 37v138q0 10 -22 17q-25 8 -28 14q0 123 -11 160q-3 9 -33 9q-9 0 -116 -26q-114 -29 -126 -39q-5 -4 -6 -27q-1 -17 0 -44q1 -34 1 -33q0 -10 -26.5 -16t-26.5 -15v-144
q0 -7 24 -12.5t26 -18.5q0 -17 1 -50l4 -155q0 -17 1 -51q3 -97 56 -138q48 -37 148 -37z" />
    <glyph glyph-name="u" unicode="u" horiz-adv-x="864" 
d="M10 612v-400q0 -35 31 -87q46 -76 139 -102q60 -17 177 -17q37 0 106.5 21t105.5 21q0 -29 22 -29h232q9 0 20 8t11 17v246q0 107 -6 322l-13 13h-250l-16 -13v-281q0 -60 -51 -98q-46 -34 -108 -34q-67 0 -100 50q-16 24 -17 173q-1 166 -8 197q-3 14 -32 14
q-43 0 -115 -4q-87 -3 -115 -4z" />
    <glyph glyph-name="v" unicode="v" horiz-adv-x="864" 
d="M279 24q118 -8 239 -8q37 0 60 12q20 10 50 75l38 90l182 400q6 13 6 22v3q-3 4 -6 6q-224 7 -214 7q-44 0 -58 -14q-9 -8 -72 -165l-26 -66q-7 -19 -14 -37q-11 -26 -24 -26q-2 0 -5 1l-131 275q-2 11 -13 25q-31 9 -218 9q-64 0 -64 -25q0 -11 129 -291t141 -293z" />
    <glyph glyph-name="w" unicode="w" horiz-adv-x="1420" 
d="M285 30l25 -12h219q27 0 41.5 15.5t72.5 156.5q55 132 70 135l3 -1q31 -51 66 -133q55 -127 59 -136q-2 -5 -2 -9q0 -28 106 -28q31 0 184 6q25 10 37 38l238 531q3 7 6 25l-2 4l-4 2h-257l-125 -269l-12 -12l-19 19l-56 125q-17 42 -34 83q-29 60 -54 60h-243
q-21 0 -32 -18q-24 -40 -83 -183q-9 -25 -30 -71q-8 -15 -18 -15q-6 5 -12 12l-113 238q-11 23 -25 25q-21 1 -63 2q-116 4 -171 4q-36 0 -47 -6v-6q4 -11 12 -32z" />
    <glyph glyph-name="x" unicode="x" horiz-adv-x="958" 
d="M10 31q42 0 127.5 -3t128.5 -3h75l13 6q32 40 99 113q6 1 14 1q33 0 78 -59.5t78 -60.5q27 -1 84 -1h150q43 0 91 7v13l-275 294v25l200 231q13 15 13 25q0 3 -1.5 6.5t-5.5 5.5h-20q-13 1 -19 1h-125q-29 0 -149 -7l-93 -94h-19l-50 52q-41 41 -50 42q-92 7 -153 7h-126
q-6 0 -20 -1h-20q-4 -2 -5.5 -6t-1.5 -7q0 -2 1 -5q64 -65 127 -130q104 -108 111 -129v-4q0 -10 -13 -25l-238 -275q-1 -1 -6 -12v-7z" />
    <glyph glyph-name="y" unicode="y" horiz-adv-x="864" 
d="M260 -143q186 0 274 73q72 61 145 246q34 86 84 207q91 218 91 234q0 13 -6 15q-16 0 -49 1h-48q-178 0 -185 -20l-100 -268q-4 -8 -12 -25l-3 -1q-18 4 -76 137q-64 148 -77 164q-37 0 -112 3t-113 3q-46 0 -35 1q-23 -2 -28 -14q9 -34 35 -82q37 -70 41 -78.5t18 -51.5
l69 -140q24 -48 48 -95q29 -59 39 -96q-9 -26 -66 -26q-21 0 -58.5 13.5t-58.5 13.5q-17 0 -32 -37l-16 -52q-19 -55 -19 -66v-3q16 -21 118 -40q86 -16 132 -16z" />
    <glyph glyph-name="z" unicode="z" horiz-adv-x="845" 
d="M239 6q10 0 40 6q3 1 53 2q151 4 403 4q55 0 75 7l12 12v156q0 17 -45 19q16 -1 -58 -1q-117 0 -234 7l-1 4q2 7 13 15l338 238v137q-3 5 -25 13h-446q-61 0 -292 -7l-12 -12q-6 -45 -6 -72q0 -34 6 -91l6 -9h279q0 -7 3 -13l-1 -4q-3 -3 -6 -5l-294 -219
q-30 -23 -31 -37l-6 -113q-1 -12 14.5 -18.5t103.5 -13.5q75 -5 111 -5z" />
    <glyph glyph-name="quoteleft" unicode="&#x2018;" 
d="M280 463q0 -19 -9 -36q-11 -21 -28 -21q-103 0 -168 61t-65 164v48q0 17 7 115l12 12q171 7 229 7q30 0 35 -20l2 -56q3 -56 3 -75q0 -20 -2 -52q-4 -41 -4 -51h-69q-13 0 -13 -22q0 -21 35 -39t35 -35z" />
    <glyph glyph-name="quoteright" unicode="&#x2019;" 
d="M28 463q0 -19 9 -36q11 -21 28 -21q103 0 168 61t65 164v48q0 17 -7 115l-12 12q-171 7 -229 7q-30 0 -35 -20l-2 -56q-3 -56 -3 -75q0 -20 2 -52q4 -41 4 -51h69q13 0 13 -22q0 -21 -35 -39t-35 -35z" />
    <glyph glyph-name="quotedblleft" unicode="&#x201c;" horiz-adv-x="499" 
d="M438 463q0 -17 -18 -17q-8 0 -24 4q-131 32 -131 190v47q0 18 7 115l12 12q43 2 66 1q37 -2 67 -2t34 -20l2 -56q3 -56 3 -75q0 -20 -2 -52q-3 -41 -4 -51h-69q-13 0 -13 -22q0 -21 35 -39t35 -35zM200 463q0 -17 -18 -17q-8 0 -24 4q-131 32 -131 190v47q0 18 7 115
l12 12q43 2 66 1q37 -2 66.5 -2t34.5 -20l2 -56q3 -56 3 -75q0 -20 -2 -52q-4 -41 -4 -51h-69q-13 0 -13 -22q0 -21 35 -39t35 -35z" />
    <glyph glyph-name="quotedblright" unicode="&#x201d;" horiz-adv-x="499" 
d="M45 463q0 -17 18 -17q8 0 24 4q131 32 131 190v47q0 18 -7 115l-12 12q-43 2 -66 1q-37 -2 -66.5 -2t-34.5 -20l-2 -56q-3 -56 -3 -75q0 -20 2 -52q4 -41 4 -51h69q13 0 13 -22q0 -21 -35 -39t-35 -35zM283 463q0 -17 18 -17q9 0 25 4q130 32 130 190v47q0 18 -7 115
l-12 12q-43 2 -66 1q-37 -2 -66.5 -2t-34.5 -20l-2 -56q-3 -56 -3 -75q0 -20 3 -52q3 -41 3 -51h69q13 0 13 -22q0 -21 -35 -39t-35 -35z" />
    <glyph glyph-name="u.nul" unicode="&#xe00c;" horiz-adv-x="0" 
 />
    <glyph glyph-name="nonmarkingreturn" unicode="&#xe00d;" horiz-adv-x="500" 
 />
  </font>
</defs>
</svg>
