<svg xmlns="http://www.w3.org/2000/svg">
<defs>
<font id="LUCKYTYPEWRITER" horiz-adv-x="1333" >
  <font-face 
    font-family="LUCKY TYPEWRITER"
    font-weight="400"
    font-stretch="normal"
    units-per-em="2048"
    panose-1="2 0 5 0 0 0 0 0 0 0"
    ascent="1638"
    descent="-410"
    x-height="1008"
    cap-height="1407"
    bbox="-148 -431 1824 1848"
    underline-thickness="150"
    underline-position="-142"
    unicode-range="U+0020-263A"
  />
<missing-glyph horiz-adv-x="1741" 
d="M800 1568q84 0 212 -66q68 -63 68 -150q0 -59 -113 -177q-79 -60 -152 -96q-122 -61 -165 -88v-5q190 110 366 110q137 0 231 -69q52 -23 96 -83q22 -35 22 -91v-34q0 -63 -46 -185l-50 -88q-57 -79 -147 -79h-61q-103 0 -224 108q-48 43 -81 108q-44 78 -103 214h-3v-2
q2 -86 204 -413q136 -184 244 -226q96 -37 194 -84q68 -31 174 -108q81 -63 86 -101q0 -87 -57 -113l-14 -2q-96 13 -96 42q0 71 -32 115q-50 87 -160 153l-152 76q-55 37 -96 71q-106 97 -147 165l-79 132h-2v-7q-4 -267 -162 -337q-52 -19 -72 -19h-29q-121 0 -258 110
q-71 64 -71 153v36q0 95 86 217q109 103 339 172v7q-151 -56 -241 -56h-66q-141 0 -226 127q-20 34 -20 64q0 116 96 295q51 64 128 64q90 0 191 -76q74 -74 101 -150l27 -81h5l-10 123v49q0 117 115 226q69 49 150 49zM179 1303l-15 2h-20q-4 0 -7 -12q0 -20 47 -20
q44 -6 44 -27l-5 -17l2 -44l-2 -15l2 -22l-2 -27l12 -27l-5 -13l3 -46q-23 -25 -30 -27l-44 2q-22 -5 -22 -12v-7q13 -18 47 -18h12l103 8l44 -5q77 0 77 37v22l2 61l-10 30h-12l-10 -32l3 -27v-22q-8 -17 -32 -25q-16 -1 -27 -10l-3 3h-27l-2 -3q-42 10 -42 22v20l-12 39
q4 0 9 18l-12 39l10 29l-5 67q13 34 49 34q37 3 37 15v7q0 9 -74 12zM960 988l-2 3h-3q-47 -14 -47 -47v-20q1 -29 5 -29q-10 -25 -10 -49v-8l3 -12h10q10 0 12 66q14 52 22 52l42 10q20 0 29 -20v-12l8 -47l-8 -32l5 -24l-7 -27l5 -32l-5 -25l2 -34q-6 -47 -34 -47
q-64 -11 -64 -25q0 -13 25 -14h39q29 -1 39 -8l13 3l93 -3l15 5v12q0 12 -79 30q-13 0 -22 54l5 25l-3 56v27l15 39l-5 27l8 40l-3 15q7 17 22 17h3l32 -15q34 -8 34 -25l-5 -22l10 -44l-3 -12q5 -27 18 -27q11 5 12 10q-3 83 -7 83l5 37q-15 52 -52 52l-17 2l-32 -5l-49 5z
" />
    <glyph glyph-name=".notdef" horiz-adv-x="1741" 
d="M800 1568q84 0 212 -66q68 -63 68 -150q0 -59 -113 -177q-79 -60 -152 -96q-122 -61 -165 -88v-5q190 110 366 110q137 0 231 -69q52 -23 96 -83q22 -35 22 -91v-34q0 -63 -46 -185l-50 -88q-57 -79 -147 -79h-61q-103 0 -224 108q-48 43 -81 108q-44 78 -103 214h-3v-2
q2 -86 204 -413q136 -184 244 -226q96 -37 194 -84q68 -31 174 -108q81 -63 86 -101q0 -87 -57 -113l-14 -2q-96 13 -96 42q0 71 -32 115q-50 87 -160 153l-152 76q-55 37 -96 71q-106 97 -147 165l-79 132h-2v-7q-4 -267 -162 -337q-52 -19 -72 -19h-29q-121 0 -258 110
q-71 64 -71 153v36q0 95 86 217q109 103 339 172v7q-151 -56 -241 -56h-66q-141 0 -226 127q-20 34 -20 64q0 116 96 295q51 64 128 64q90 0 191 -76q74 -74 101 -150l27 -81h5l-10 123v49q0 117 115 226q69 49 150 49zM179 1303l-15 2h-20q-4 0 -7 -12q0 -20 47 -20
q44 -6 44 -27l-5 -17l2 -44l-2 -15l2 -22l-2 -27l12 -27l-5 -13l3 -46q-23 -25 -30 -27l-44 2q-22 -5 -22 -12v-7q13 -18 47 -18h12l103 8l44 -5q77 0 77 37v22l2 61l-10 30h-12l-10 -32l3 -27v-22q-8 -17 -32 -25q-16 -1 -27 -10l-3 3h-27l-2 -3q-42 10 -42 22v20l-12 39
q4 0 9 18l-12 39l10 29l-5 67q13 34 49 34q37 3 37 15v7q0 9 -74 12zM960 988l-2 3h-3q-47 -14 -47 -47v-20q1 -29 5 -29q-10 -25 -10 -49v-8l3 -12h10q10 0 12 66q14 52 22 52l42 10q20 0 29 -20v-12l8 -47l-8 -32l5 -24l-7 -27l5 -32l-5 -25l2 -34q-6 -47 -34 -47
q-64 -11 -64 -25q0 -13 25 -14h39q29 -1 39 -8l13 3l93 -3l15 5v12q0 12 -79 30q-13 0 -22 54l5 25l-3 56v27l15 39l-5 27l8 40l-3 15q7 17 22 17h3l32 -15q34 -8 34 -25l-5 -22l10 -44l-3 -12q5 -27 18 -27q11 5 12 10q-3 83 -7 83l5 37q-15 52 -52 52l-17 2l-32 -5l-49 5z
" />
    <glyph glyph-name="NULL" horiz-adv-x="1001" 
 />
    <glyph glyph-name="nonmarkingreturn" horiz-adv-x="1001" 
 />
    <glyph glyph-name="space" unicode=" " horiz-adv-x="1001" 
 />
    <glyph glyph-name="space" unicode="&#xa0;" horiz-adv-x="1001" 
 />
    <glyph glyph-name="exclam" unicode="!" horiz-adv-x="632" 
d="M210 1499l61 6l57 -28q84 -59 84 -114l8 -104l-16 -170l-40 -152l4 -65l-9 -199q-4 -233 -65.5 -268t-97.5 177v5l-17 143q-3 128 -35 194q-4 93 -24 194l4 65l-24 128v43q0 83 110 145zM272 -13q-105 8 -138 114l-5 29v5q0 118 148 145l18 5q106 -15 138 -116l1 -75
q-14 -77 -129 -107h-33z" />
    <glyph glyph-name="quotedbl" unicode="&#x22;" horiz-adv-x="714" 
d="M118 1563q54 -20 95 -121q14 -13 14 -41l-21 -85l24 -101v-8l-28 -69l-29 -105q-12 -13 -31 -93q-11 -20 -28 -20h-6q-36 0 -66 77l-14 129q-17 18 -20 170q-16 62 -16 97v12q9 72 71 136q29 22 55 22zM410 1556h3q62 0 121 -144l7 -48l-33 -152q0 -137 -52 -264
q-27 -24 -49 -24h-4q-49 0 -49 100l-19 96v8l6 64v16q0 18 -29 100l-7 88q0 47 82 148q12 12 23 12z" />
    <glyph glyph-name="numbersign" unicode="#" horiz-adv-x="1403" 
d="M662 473h-28l-116 6h-50q-61 9 -72 -48q-57 -70 -57 -121l-51 -176q0 -27 -38 -111q-6 -37 -56 -70l-35 -17q-30 -10 -50 38l-6 17q-16 39 43 195q29 44 28 119q-3 14 55 107q8 29 11.5 46.5t-67.5 18.5h-14q-151 -4 -165 28q-37 54 26 81l51 9l167 11q42 -1 47.5 15
t7.5 54q60 73 54 106q6 20 19 44t-28 28l-64 -2l-58 4l-50 3q-28 8 -46 29l-5 10q-8 56 52 74l32 5h6l62 -8l15 -1l68 8q58 -6 57 23q7 33 61 98q23 44 27 107q13 78 38 150q17 21 56 114q27 24 40 28l6 2q30 10 59 -27l7 -16q14 -34 -28 -135l-40 -127q-4 -40 -50 -87
q-19 -22 -23 -88q-9 -18 -14 -30.5t31 -14.5q60 6 137 6l17 1q82 0 111.5 -3t46 37t28.5 97l10 75q-14 35 51 189q37 91 62 100l17 6q58 19 72 -19q16 -89 -28 -212q-39 -56 -32 -89q0 -14 -63 -123q-1 -21 -9 -42.5t33.5 -24t133.5 -5.5q67 -10 67 -52q6 -51 -54 -55
l-88 -7l-91 -3q-38 2 -45 -67q-14 -32 -44 -62q-17 -18 -10 -96q-9 -22 27 -22q155 -7 155 -20q13 0 20 -13t-5.5 -50.5t-75.5 -37.5l-38 2l-67 -3q-79 -3 -79 -26.5t-4 -45.5q-61 -51 -42 -102q15 -40 -35 -152q-12 -27 -26 -102q-48 -97 -91 -112l-11 -4q-59 -8 -71 22
l-5 17q-9 31 34 145q-5 52 57 141q23 95 29 96q47 83 49.5 101.5t-58.5 15.5zM460 606q20 0 96 -13h3q24 0 96 13h13q92 -20 100 30q24 86 46 148.5t-75 60.5l-167 -3q-76 5 -90 -23t-11 -72q-36 -142 -11 -141z" />
    <glyph glyph-name="dollar" unicode="$" horiz-adv-x="1256" 
d="M627 625l5 -143q-30 -96 -4 -308q-7 -5 -2 -24t56 -16q86 8 110 67v1q56 94 66 140q0 44 14 140v16q0 62 -84 128q-120 77 -137 63.5t-24 -64.5zM212 1306l-88 -112l-12 -92v-16q0 -44 88 -104q76 -72 116 -90t43 15l5 30l-9 119q-3 72 -2 189q-7 52 -9.5 74t-67 14
t-64.5 -27zM696 822q139 -47 196 -108q130 -147 140 -252l-3 -104q-50 -190 -135 -244q-16 -12 -30 -22l-42 -37q-42 -21 -69 -28q-48 -25 -69 -28q-13 -3 -19.5 -6t-8.5 -9.5t0 -20.5q-5 -124 -26 -129l-22 -5q-70 21 -89 105l-5 25q2 20 -2.5 27.5t-13.5 6.5t-19 1.5
t-15.5 -38t-24 -82.5t-60.5 -30.5t-55 66.5q-13 52 -5 103t-75 97q-19 25 -60 60l-33 6q-63 11 -122 -23l-19 4q-41 7 -45 89v4l60 111l-3 5l2 11l-13 79l-3 50v8l20 20h28q69 0 104 -72q3 -11 7 -22q53 -60 48 -84q42 -77 78 -134l18 -22q14 -7 20.5 -3.5t10 25.5t14.5 93
l12 202l-6 52q8 128 -5.5 161.5t-48 40.5t-76.5 47q-146 54 -168 112q-52 57 -52 172q-12 29 -12 60v4q0 31 56 76q22 20 40 96q41 55 156 96q76 19 70.5 74.5t43.5 87.5q70 14 85 -54q7 -31 9 -51t24.5 -33.5t21 12.5t-3.5 54.5t29 76.5q60 7 89 -25l16 -48q6 -28 6 -69
t25.5 -50t96.5 -43l36 -4l88 56l32 4q41 0 56 -60l4 -24q-8 -55 -36 -132l-4 -28l20 -116q-15 -52 -52 -52h-4q-81 0 -200 204q-32 42 -55 53t-17 -191l2 -10q-4 -80 1 -154l6 -50q-2 -26 55 -40zM510 896l3 62q10 68 6 194.5t-30 153.5q-21 8 -21 -14t-1 -73v-97
q-2 -71 2 -128l2 -48q1 -38 2.5 -51t8 -22t17 -3.5t11.5 26.5zM482 650q-5 -67 -9 -128l5 -91q-17 -83 -14.5 -186t34.5 -111q22 -12 22 75.5t-4 166.5q2 85 6 150q9 91 7 122.5t-19 35t-28 -33.5z" />
    <glyph glyph-name="percent" unicode="%" horiz-adv-x="1486" 
d="M1165 1607q75 -6 75 -53v-20q-46 -159 -92 -220q-68 -63 -100 -152q-37 -73 -104 -156q-10 -40 -112 -156q-28 -51 -48 -128q-123 -196 -168 -248q-19 -17 -44 -112q-84 -113 -84 -184q-12 -24 -80 -96q-83 -171 -130 -203l-96 -49h-12q-30 0 -36 40v4q45 143 130 248
q0 10 80 100q36 145 72 192q59 65 92 156q84 83 84 128v40l-4 24q0 23 76 68q36 34 64 96q64 65 64 148q9 28 76 88l84 144q15 64 -43 39h-56q-160 -111 -253 -159q-20 -29 0 -144l-40 -96q-64 -54 -64 -108q0 -41 -64 -100q-35 -44 -116 -44q-75 -28 -104 -28
q-120 0 -196 108q-16 57 -16 84l8 68l-4 108q0 72 108 157l120 87q35 28 64 28h16l60 -24q29 0 80 64q51 40 156 40q106 52 132 52q48 0 148 76q39 23 168 58q70 35 109 35zM126 941v-6q0 -101 100 -123h24q95 0 196 123q14 43 14 91v6q0 149 -86 149q-57 0 -172 -94
q-76 -73 -76 -146zM1120 790l108 -20q92 -24 92 -92l4 -114v-28l-4 -4l4 -4v-4l-16 -86q0 -47 -120 -232q-45 -44 -80 -44h-12l-56 8l-104 -4q-88 36 -128 116l-12 48q7 233 56 260q96 50 96 96q18 53 96 84l64 20h12zM937 372q0 -59 92 -81h24q87 0 122 83l5 37l13 32v10
l15 106q0 21 -44 51h-43q-143 0 -179 -203z" />
    <glyph glyph-name="ampersand" unicode="&#x26;" horiz-adv-x="1532" 
d="M638 1395h8q17 0 74 -11l42 -21q57 0 80 -44l8 -36l36 -61l-4 -75l4 -12q0 -73 -84 -188q-14 -12 -96 -44q-41 -40 -72 -40h-12q-21 0 -49 34l3 22q71 39 162 116q40 76 68 148q-17 63 -92 128q-100 43 -100 68q4 16 24 16zM714 147l-28 -16l-58 -68q-102 -52 -210 -52
q-71 0 -100 36q-16 17 -16 32q0 7 48 32q109 50 174 50q122 100 122 170q0 49 -88 116q-36 56 -80 204q-34 44 -72 44h-24q-14 0 -88 -32h-4q-68 10 -68 44q0 33 92 68l128 108h12q39 0 84 -84q41 -240 96 -270q14 -12 29 -28l33 -18l18 -6q26 -4 51 -4q75 0 100 116
q12 28 82 130q14 49 54 70q69 40 124 40q71 0 112 -104v-8q-10 -40 -44 -40h-24l-76 24h-16q-84 0 -84 -68q0 -67 -60 -120q-19 0 -36 -152q32 -168 168 -168l72 -8q53 0 72 92q27 24 52 24h24q51 0 68 -72v-8q-12 -148 -36 -148q-84 -88 -156 -88q-187 0 -204 44
q-11 0 -160 112l-64 16q-7 -2 -19 -10zM428 1286l-3 2q-20 22 -1 52l1 2q47 71 118 63l5 -3q32 -21 21 -38q-8 -11 -58 -24q-21 -6 -61 -44q-14 -11 -22 -10zM118 619q37 0 44 -56q0 -17 -60 -92l-4 -28v-4q0 -12 8 -150q34 -59 90 -101q61 -8 70 -81v-8q0 -16 -52 -20
q-65 0 -136 56q-21 12 -41 29q-36 51 -42 123.5t35 167.5q0 131 88 164zM386 1251h14q22 0 24 -68v-12l-4 -20q4 -92 20 -164q-15 -28 -26 -28q-36 15 -36 52l-25 102l-3 90v12q5 36 36 36z" />
    <glyph glyph-name="quotesingle" unicode="'" horiz-adv-x="398" 
d="M118 1563q54 -20 95 -121q14 -13 14 -41l-21 -85l24 -101v-8l-28 -69l-29 -105q-12 -13 -31 -93q-11 -20 -28 -20h-6q-36 0 -66 77l-14 129q-17 18 -20 170q-16 62 -16 97v12q9 72 71 136q29 22 55 22z" />
    <glyph glyph-name="parenleft" unicode="(" horiz-adv-x="499" 
d="M273 -143q-88 0 -225 389q-29 95 -43 533q0 457 228 851q35 24 55.5 27.5t38.5 -16.5t18 -40t-108 -242q-102 -424 -102 -548v-40q0 -210 138 -668q58 -130 58 -174v-16q0 -56 -58 -56z" />
    <glyph glyph-name="parenright" unicode=")" horiz-adv-x="484" 
d="M73 1662q88 0 225 -389q29 -95 43 -533q0 -457 -228 -851q-35 -24 -55.5 -27.5t-38.5 16.5t-18 40t108 242q102 424 102 548v40q0 210 -138 668q-58 130 -58 174v16q0 56 58 56z" />
    <glyph glyph-name="asterisk" unicode="*" horiz-adv-x="1159" 
d="M277 1384q45 0 183 -217h10q33 0 102 148q61 69 101 69h10q21 -5 41 -57q0 -45 -102 -183v-69q42 -68 102 -68l142 11q61 0 102 -57q-18 -80 -91 -80l-173 11q-48 0 -71 -68l132 -263v-23q-26 -57 -82 -57q-78 20 -142 194l-61 35q-61 0 -91 -195q-36 -34 -122 -34h-11
q-81 0 -81 91l92 252q-14 46 -92 46h-91q-92 0 -92 91q0 75 264 80l41 69l-81 183v45q20 46 61 46z" />
    <glyph glyph-name="plus" unicode="+" horiz-adv-x="1235" 
d="M502 1231q45 0 76 -72l4 -20l-4 -96q0 -33 32 -92l4 -32v-44q28 -88 172 -88h48l92 20q182 14 164 -72v-8q0 -46 -112 -64q-108 0 -176 -40q-116 -16 -116 -44q-44 -25 -44 -84l4 -16q-32 -54 -32 -108q5 -37 44 -88v-12q0 -51 -104 -84h-8q-72 0 -104 116q0 230 -36 272
q-96 56 -156 56l-172 -20q-85 0 -96 56q25 84 56 84q26 12 296 56q100 34 100 156l4 32l-8 88q12 148 72 148z" />
    <glyph glyph-name="comma" unicode="," horiz-adv-x="596" 
d="M176 350h11q104 0 190 -152q10 -36 21 -130q0 -18 -46 -110q-11 -119 -24 -134q-24 -79 -99 -137q-72 -114 -137 -114l-4 -4h-3q-67 18 -67 72v8q23 74 63 114q53 42 53 73v23q0 71 -102 171q-32 46 -32 99q37 175 81 175q69 46 95 46z" />
    <glyph glyph-name="hyphen" unicode="-" horiz-adv-x="1249" 
d="M815 826q87 -11 188 -16q65 -17 65 -55q6 -86 -52 -93l-84 -11l-87 -5l-44 3l-204 -9l-160 -5l-117 14l-9 2l-51 -5l-47 7l-62 -2l-55 7l-47 4q-27 14 -45 49l-5 18q-7 60 51 90l30 10h5l60 -14l14 -2l65 13l85 -14h16l73 13h9l35 -4q57 10 131 10l16 3q81 0 139 -11h19
l62 3h6z" />
    <glyph glyph-name="hyphen" unicode="&#xad;" horiz-adv-x="1249" 
d="M815 826q87 -11 188 -16q65 -17 65 -55q6 -86 -52 -93l-84 -11l-87 -5l-44 3l-204 -9l-160 -5l-117 14l-9 2l-51 -5l-47 7l-62 -2l-55 7l-47 4q-27 14 -45 49l-5 18q-7 60 51 90l30 10h5l60 -14l14 -2l65 13l85 -14h16l73 13h9l35 -4q57 10 131 10l16 3q81 0 139 -11h19
l62 3h6z" />
    <glyph glyph-name="period" unicode="." horiz-adv-x="660" 
d="M256 428h8q100 0 160 -136q32 -37 32 -68v-20q-11 -70 -64 -124q-115 -80 -136 -80h-20q-115 27 -152 56q-80 93 -80 160v4q0 88 92 156q17 37 160 52z" />
    <glyph glyph-name="slash" unicode="/" horiz-adv-x="1611" 
d="M1353 1632h8q40 0 56 -60v-24q0 -50 -116 -172l-108 -148q-23 -51 -100 -92q-31 -22 -76 -132q-44 -43 -108 -132q-92 -81 -116 -156l-128 -200q-41 -45 -100 -156q-108 -93 -132 -160l-144 -208q-13 -35 -96 -128q-25 -47 -100 -68l-48 -8q-40 0 -40 72v24q1 57 144 236
q54 45 88 144q4 20 116 116q86 165 124 200q45 46 76 116q103 71 112 116q19 27 88 92q50 52 76 140q25 40 128 128q45 47 80 128q52 96 116 180q29 21 140 132q42 20 60 20z" />
    <glyph glyph-name="zero" unicode="0" horiz-adv-x="1317" 
d="M444 1506l104 -20l52 4l108 -32q103 0 204 -148q92 -86 92 -124q29 -86 80 -152q8 -77 28 -160q9 0 12 -64q0 -217 -40 -292q0 -124 -60 -180q-39 -48 -112 -188q-25 -27 -108 -60q-58 -72 -124 -72q-78 -28 -96 -28q-69 32 -232 56q-32 7 -132 96q-115 123 -188 328
q-16 44 -16 76l20 156l-28 84l-8 32q0 134 72 172l16 16l4 -4h4l4 4h4q20 -65 32 -156v-20q0 -17 -36 -80v-4q0 -23 72 -112q11 -16 16 -60l-4 -4v-12q0 -66 52 -108q10 -82 52 -144l116 -116l28 -4h44l128 -12h24q104 0 192 92q66 48 104 168q28 183 60 272l4 40l-12 92
l4 12q0 153 -56 248q-45 153 -116 220q-180 76 -260 76q-54 0 -256 -60q-24 0 -28 -120q-3 -14 -88 -96q-41 -84 -72 -88q-23 31 -28 76l4 4v8q0 175 148 248q52 84 128 112q53 28 88 28z" />
    <glyph glyph-name="one" unicode="1" horiz-adv-x="1270" 
d="M188 1468l140 -24h20l4 4v-4l4 4h4l100 4q70 0 124 -80q12 -30 12 -88v-16q0 -61 -2 -100l-8 -24v-20q0 -11 10 -32q20 -29 20 -52l-4 -60l4 -60l-12 -76q16 -87 16 -168q0 -30 -22 -112l-1 -38q15 -33 15 -82v-20l-16 -84v-20q0 -45 52 -108q69 -64 120 -64l116 28h4
q188 -19 188 -84v-12q0 -60 -188 -68l-116 -20l-112 4l-48 -4l-80 8l-176 -16l-124 24l-136 -28h-12q-71 0 -84 52v4q30 120 116 120h28l100 -32h12q78 0 168 64l34 112q24 32 24 44q-20 49 -20 76v16q6 55 13 91l-1 25l6 43q-10 22 -18 61l-4 28l4 76v48q12 74 12 152
q-28 139 -28 196l6 56v36q-15 49 -68 68q-310 0 -324 40q-13 0 -24 40q0 43 132 72h20z" />
    <glyph glyph-name="two" unicode="2" horiz-adv-x="1073" 
d="M420 1451q61 3 197 -16q47 3 83 -35q41 -15 84 -113q24 -96 72 -211l6 -39q5 -93 -72 -232q-75 -121 -146 -152l-224 -103q-112 -25 -201 -200l-10 -37l13 -4q97 21 173 18q60 -13 155 -103q30 -24 127 -19q64 3 93 96q42 87 108 90q37 -5 40 -50l1 -19q6 -113 -74 -206
q-29 -2 -162 -113l-18 -8q-105 21 -236 131l-83 37q-153 -10 -240 -132l-50 -29q-52 20 -55 69l-1 26q26 255 103 352l174 159q99 67 167 120q48 2 232 116q83 117 76 246q-10 192 -347 210l-89 2q-26 -2 -107 -97l-16 -24l-2 -16q6 -17 8 -39v-13q20 -133 -76 -212l-37 -22
h-9q-91 39 -95 125l-1 13q13 61 87 174l10 22q13 18 21 30l5 9l11 18l9 14q22 46 108 98l146 67z" />
    <glyph glyph-name="three" unicode="3" horiz-adv-x="1156" 
d="M185 1441l120 -15l97 15l210 -15l68 15l22 -7l98 7q142 -13 142 -72v-30l-125 -105q-19 -48 -160 -188l-15 -45v-30q0 -22 105 -45q121 -99 165 -232q28 -71 45 -180q-33 -160 -157 -307l-90 -90q-217 -155 -263 -155l-155 -72q-208 -40 -238.5 -22t-36 43.5t66 52
t206.5 71.5l60 30h30q140 82 172 135q51 0 128 120q76 62 112 232v30q0 191 -277 262l-83 -7q-105 -8 -105 45q34 95 98 134q54 40 87 80t58 40t110 165l-45 15l-150 -30l-135 23q-28 0 -83 -30l-30 7q-89 -42 -105 -105l-30 -22h-15q-61 0 -82 105l-15 15v7q36 119 60 125z
" />
    <glyph glyph-name="four" unicode="4" horiz-adv-x="1145" 
d="M656 1426h12q68 0 76 -172l8 -52v-40l-4 -80l4 -80v-12l-8 -64l20 -136q-5 -136 -44 -136l-8 -8h-16q-68 26 -68 68q0 28 48 164l4 28q0 12 -40 68l-8 32l4 60q0 40 -48 44q-45 0 -84 -116q-88 -75 -88 -148q-21 -57 -92 -112l-56 -116q-52 -76 -52 -124v-8q0 -56 88 -76
l80 20h20l140 -20q72 0 96 80q17 76 60 76q35 0 88 -88q25 -25 164 -92q32 -32 32 -52q0 -49 -128 -100q-72 -45 -72 -116v-16l8 -96v-16q0 -71 -76 -100q-69 0 -88 188q0 24 24 92v28q0 76 -172 76q-85 12 -212 16q-100 -20 -140 -20q-128 11 -128 88q0 115 76 192l96 144
q21 16 88 44q20 24 20 100q24 49 40 144q21 51 80 100q28 0 52 120q38 64 92 116q78 104 96 104z" />
    <glyph glyph-name="five" unicode="5" horiz-adv-x="1095" 
d="M488 1418h20q86 -24 164 -36q39 -32 88 -56l12 -24q0 -28 -64 -44l-84 4l-92 -8l-216 24q-172 -19 -172 -80q-7 0 -12 -208q14 -56 136 -56h60l32 4l88 -8l80 4q64 -4 156 -56q9 -26 128 -136q22 -65 72 -148q16 -33 16 -60q0 -190 -60 -256q-45 -49 -88 -148
q-66 -83 -152 -116q-84 -85 -184 -112l-56 -16h-16q-148 0 -148 60q0 42 132 48q58 0 136 72q114 54 168 192l60 108l20 112v16q0 71 -56 156q-116 128 -148 136q-83 44 -176 44l-92 -32l-136 -36h-8q-72 20 -72 136l4 92l-28 164v4l24 124q0 81 36 108q38 20 92 20h48
l212 -8z" />
    <glyph glyph-name="six" unicode="6" horiz-adv-x="1166" 
d="M776 1512q65 -16 128 -20q16 -18 16 -36q-11 -72 -68 -72q-192 -21 -240 -60q-132 -18 -231 -110q-110 -94 -121 -154q-32 -43 -32 -72v-12q-10 -78 30 -92q110 44 133.5 36t48.5 -8h4l156 24q37 0 116 -64q64 -14 144 -80q56 -63 96 -140l-4 -44q0 -35 32 -124l4 -40
l-24 -108l4 -76q0 -103 -96 -224q-125 -108 -168 -108q-132 -36 -154 -36t-114 8q-168 24 -168 44l-136 104q-100 138 -100 228v24l12 100v12q0 23 -44 104v8q28 104 28 128l-24 156q0 30 64 160l20 148l124 128q0 14 124 128q105 72 120 72l156 52zM160 436
q19 -172 48 -192q0 -25 113 -131q145 -81 191 -81q76 40 176 80q100 62 100 144q52 84 52 108v8q-21 160 -36 200q-67 121 -176 176l-52 8h-48l-172 -36q-113 -50 -140 -92q-35 -34 -52 -156z" />
    <glyph glyph-name="seven" unicode="7" horiz-adv-x="1199" 
d="M565 1360l96 -12h4l108 8h44q39 0 180 -48q20 -25 20 -40q-12 -69 -84 -172l-44 -124q-124 -143 -124 -216q0 -32 -60 -144q-24 -107 -60 -192l-8 -32l4 -80v-4q-12 -119 -36 -224v-104q-10 -74 -76 -172q-15 -12 -28 -12h-20q-40 23 -40 64v12q0 39 12 92l-16 96l20 100
v44q0 41 40 220q22 97 76 196q23 164 44 164q44 64 44 168l72 100q28 65 28 92q0 64 -120 64l-112 20h-20l-164 -32q-24 -16 -48 -16h-4l-96 12q-81 0 -112 -116q-26 -24 -52 -24q-40 0 -40 68v48q0 129 112 172q108 4 200 20h20l132 -16z" />
    <glyph glyph-name="eight" unicode="8" horiz-adv-x="1260" 
d="M477 1580h28q171 -16 200 -48q19 -12 36 -48h20l28 8q40 0 92 -84q108 -61 108 -172l-16 -112l4 -24q0 -93 -84 -176q-36 -45 -36 -64v-24q0 -49 96 -116q30 -33 104 -184l12 -176q0 -40 -68 -244q-128 -131 -188 -152q-93 -64 -212 -64l-32 -4q-138 8 -220 28h-52
q-44 0 -116 92q-80 54 -80 112q0 38 -68 108q-20 28 -20 52v32l-16 136q0 34 76 160q0 52 40 96q76 45 84 64v36q0 25 -64 112q-24 31 -24 88q17 104 40 104h4q55 0 120 -92q77 -80 144 -80h64l88 -12h32q46 0 108 56q100 72 116 92q28 47 28 84q-41 176 -60 176
q-9 17 -68 48q-21 48 -120 48h-24l-120 -4q-64 20 -115 3l-77 -91q-78 -32 -58 -92l-28 -100h-16q-80 29 -80 60v16q16 128 52 160q13 6 44 60q44 44 114 24q36 68 56 80q23 16 124 28zM145 260q0 -22 80 -64q61 -88 100 -88q130 -64 204 -64h44q46 0 160 60q31 7 132 96
q84 84 84 156q0 164 -44 164q-64 50 -84 112q-113 108 -172 108l-108 20q-88 -16 -200 -24q-116 -58 -156 -156l-36 -184z" />
    <glyph glyph-name="nine" unicode="9" horiz-adv-x="1170" 
d="M224 -218l-40 -4q-160 0 -160 72q0 66 136 84q78 28 268 70q76 28 252 172q105 134 112 204q0 59 -64 76h-24q-21 0 -160 -44l-84 -16q-155 20 -264 72q-40 6 -136 128q-52 132 -52 284q-5 0 -8 76q0 74 48 156q10 142 108 180q93 15 116 48q34 56 144 56l88 8
q17 0 212 -64q41 0 72 -100q80 -29 104 -44q40 -73 40 -108l-4 -36q0 -31 56 -136v-16l-8 -88l12 -112v-56l-20 -96l4 -20v-12l-20 -212q-12 -32 -124 -188q-37 -86 -104 -124q-128 -78 -180 -101.5t-153 -70.5zM468 1292h-32q-80 0 -144 -68q-14 -47 -64 -72
q-56 -23 -56 -96q-36 -91 -36 -132v-8q0 -30 24 -108q0 -85 56 -128q45 -76 148 -108q22 -24 176 -28q72 0 176 92q80 80 96 144q20 72 24 192q16 27 16 64l-68 136q0 49 -136 120l-20 4z" />
    <glyph glyph-name="colon" unicode=":" horiz-adv-x="696" 
d="M248 1312q79 -7 164 -92l24 -48l-4 -84l4 -36q0 -56 -116 -128q-16 -8 -44 -8h-28l-96 -4q-25 0 -132 128q-20 30 -20 52v4q0 22 48 96q0 39 72 80q87 40 128 40zM256 568h8q100 0 160 -136q32 -37 32 -68v-20q-11 -70 -64 -124q-115 -80 -136 -80h-20q-115 27 -152 56
q-80 93 -80 160v4q0 88 92 156q17 37 160 52z" />
    <glyph glyph-name="semicolon" unicode=";" horiz-adv-x="642" 
d="M251 1094h8q100 0 160 -136q32 -37 32 -68v-20q-11 -70 -64 -124q-115 -80 -136 -80h-20q-115 27 -152 56q-80 93 -80 160v4q0 88 92 156q17 37 160 52zM176 350h11q104 0 190 -152q10 -36 21 -130q0 -18 -46 -110q-11 -119 -24 -134q-24 -79 -99 -137
q-72 -114 -137 -114l-4 -4h-3q-67 18 -67 72v8q23 74 63 114q53 42 53 73v23q0 71 -102 171q-32 46 -32 99q37 175 81 175q69 46 95 46z" />
    <glyph glyph-name="semicolon" unicode="&#x37e;" horiz-adv-x="642" 
d="M251 1094h8q100 0 160 -136q32 -37 32 -68v-20q-11 -70 -64 -124q-115 -80 -136 -80h-20q-115 27 -152 56q-80 93 -80 160v4q0 88 92 156q17 37 160 52zM176 350h11q104 0 190 -152q10 -36 21 -130q0 -18 -46 -110q-11 -119 -24 -134q-24 -79 -99 -137
q-72 -114 -137 -114l-4 -4h-3q-67 18 -67 72v8q23 74 63 114q53 42 53 73v23q0 71 -102 171q-32 46 -32 99q37 175 81 175q69 46 95 46z" />
    <glyph glyph-name="less" unicode="&#x3c;" horiz-adv-x="1468" 
d="M1153 1006l-28 -8q-65 -48 -80 -48h-28l-84 -4q-22 0 -52 -16q-46 -32 -80 -52q-118 5 -184 -48q-123 -3 -152 -44q-128 -11 -28 -50l220 -80q226 -50 290 -86l100 -16l84 -28h12q26 0 76 -8.5t75 -46t-10.5 -82.5t-72.5 -29t-108 28q-15 0 -148 64q-134 0 -216 40
q-85 3 -142 30q-45 52 -196 52q-44 0 -88 54h-12l-144 32h-28q-136 51 -136 98v4q0 23 32 48l256 88q179 20 212 56q0 23 184 48q100 44 192 44q145 64 164 64q89 12 180 58q15 11 51 -15t24.5 -83.5t-44.5 -64.5t-91 1z" />
    <glyph glyph-name="equal" unicode="=" horiz-adv-x="1267" 
d="M280 663l88 -9h6l81 9h6q19 0 91 -23h3q22 0 91 23h13l97 -23l29 -3q34 0 120 17q149 -12 149 -34q12 0 26 -43q-24 -92 -84 -92l-36 2l-65 -5l-87 3l-155 -12h-26l-111 9h-48l-130 -6l-152 3h-13q-145 -7 -159 48q-34 56 26 101l49 16l159 19h32zM815 1026
q88 -11 188 -16q65 -17 65 -55q6 -86 -52 -93l-84 -11l-87 -5l-44 3l-204 -9l-160 -5l-117 14l-9 2l-51 -5l-47 7l-62 -2l-55 7l-47 4q-27 14 -45 49l-5 18q-7 60 51 90l30 10h6l59 -14l14 -2l65 13l85 -14h16l74 13h8l35 -4q57 10 131 10l16 3q81 0 139 -11h19l62 3h6z" />
    <glyph glyph-name="greater" unicode="&#x3e;" horiz-adv-x="1468" 
d="M84 1168q91 -46 180 -58q19 0 164 -64q92 0 192 -44q184 -25 184 -48q33 -36 212 -56l256 -88q32 -25 32 -48v-4q0 -47 -136 -98h-28l-144 -32h-12q-44 -54 -88 -54q-151 0 -196 -52q-57 -27 -142 -30q-82 -40 -216 -40q-133 -64 -148 -64q-71 -12 -108 -28t-72.5 29
t-10.5 82.5t75 46t76 8.5h12l84 28l100 16q64 36 290 86l220 80q100 39 -28 50q-29 41 -152 44q-66 53 -184 48q-34 20 -80 52q-30 16 -52 16l-84 4h-28q-15 0 -80 48l-28 8q-58 -8 -91.5 -1t-44.5 64.5t25 83.5t51 15z" />
    <glyph glyph-name="question" unicode="?" horiz-adv-x="1102" 
d="M390 1477q264 -2 264 -24l188 -120q64 -84 72 -140q10 -97 -11 -162.5t-53 -65.5l-20 4v24q12 17 12 40l-20 72q-88 132 -96 132q-7 22 -192 96l-156 -4q-180 -58 -180 -140q0 -12 52 -72l12 -48q-17 -108 -124 -108h-4q-78 0 -124 68q-36 104 -24 180q24 69 92 132
l128 72q137 64 184 64zM461 275q137 -34 165 -137l5 -19q0 -137 -165 -137q-131 0 -165 152q19 103 132 141h28zM521 527q2 -102 -32 -142q-3 -8 -26 -16q-43 -5 -54 40l-13 74q-8 30 -8 66l-2 8l3 3q0 11 1 23q11 138 28 138q54 72 124 72q28 0 68 -12v-12q0 -36 -60 -92
q-16 -16 -22.5 -66.5t-6.5 -83.5zM774 973l36 -8v-8l8 -8q0 -50 -40 -92q-53 -40 -104 -40h-8q-20 0 -28 20v4q0 40 64 80q38 52 72 52z" />
    <glyph glyph-name="at" unicode="@" horiz-adv-x="1974" 
d="M959 886q-78 -9 -140 -28q-117 -44 -172 -115l-39 -138q-45 -55 -54 -247q0 -52 159 -154h26q26 0 113 59q38 0 96 51q116 71 116 173l79 278v12q0 21 -46 96l-13 7q-21 -1 -125 6zM172 732q-7 -37 -7 -92l-56 -100v-29l28 -101l-28 -82q0 -43 67 -160q84 -113 116 -171
q35 -88 104 -112q19 0 138 -65q200 -82 270 -82q38 0 228 18l84 23h14q67 18 152 60h7q122 40 123 -25q-6 -71 -158 -127q-114 -49 -221 -67l-132 -18q-339 0 -408 53q-173 77 -388 313q-51 0 -124 319q-11 0 -21 130q35 129 42 277q34 41 55 136l28 17h1q139 180 166 170.5
t8.5 -51t-88.5 -234.5zM1315 1305q98 -17 128 -63q51 -19 117 -88q49 -81 125 -136l81 -182v-18l9 -108l5 -116l-33 -166q-43 -146 -92 -194q-88 -140 -124 -166q-78 -60 -133 -73t-138 2q-32 0 -166 114l-62 10l-298 -64h-62q-221 29 -221 123q-36 81 -56 183v6l35 201
q24 18 55 148q125 85 125 139q159 107 214 113q0 10 49 12l176 -2l125 -4q24 -8 36 -1q23 0 68 10q41 -12 41 -24v-23l-28 -85l-7 -23l1 -65v-18l-32 -124l-13 -77q-21 -58 -21 -82l7 -101q-27 -71 -12 -130q14 -67 136 -82q91 0 146 112q125 123 125 159l19 77l22 71v17
q0 50 -2 106l-2 69q-26 91 -66 185q-64 84 -110 136q-160 118 -211 147q-43 19 -60 36t-18.5 31t15.5 19.5t107 -11.5zM1036 1270l-89 -15q-90 -1 -106 -1.5t-63 -9t-161 -45.5q-158 -72 -203 -86q-29 -38 -74.5 -58.5t-42 17t31.5 85.5q217 194 421 206l194 11
q25 1 106 -26t82.5 -44t-28 -25.5t-68.5 -8.5z" />
    <glyph glyph-name="A" unicode="A" horiz-adv-x="1529" 
d="M640 1410h14q8 0 68 -31q51 -146 51 -168l5 -16l31 -53q0 -18 51 -158l14 -81l19 -24v-33q23 -59 56 -121l14 -49l5 -65q0 -30 61 -138l4 -36l24 -65q0 -110 117 -278l124 -44q33 -18 33 -31q0 -54 -96 -77l-33 -4l-122 8l-126 -4q-94 24 -124 56q-21 42 75 79
q65 23 79 130q-51 161 -86 170l-305 -7q-199 18 -237 -82q-31 -30 -35 -103l-9 -51q47 -61 150 -97q34 -22 24.5 -52.5t-62.5 -30.5l-206 -4q-58 -12 -103 -12q-84 0 -117 73v11q25 39 139 66q91 109 91 166l14 81v17q0 13 46 97q15 48 19 113q38 56 52 98v4l-5 44
q0 38 53 98l-1 43l21 50l33 86q30 191 67 247q32 22 57 133q28 45 56 45zM505 753q-32 -55 -52 -157l8 -67q21 -32 78 -37h25q127 -7 167 -7q47 0 115 18q33 15 34 80v8q-27 50 -60 137q-5 106 -10 106l-33 49l-9 78q-69 156 -102 148l-11 -7l-13 -24q-72 -61 -93 -133
q17 -41 -49 -136z" />
    <glyph glyph-name="B" unicode="B" horiz-adv-x="1432" 
d="M340 1442l284 -36l92 -8q61 16 92 16q264 -65 264 -116q84 -84 84 -112v-8q0 -15 -32 -88l24 -80l-56 -184v-64q0 -54 72 -128q64 -78 64 -192q16 -37 16 -80q0 -32 -64 -140q-15 -75 -116 -144q-19 -26 -88 -40l-132 -24l-116 -16l-72 12q-78 -16 -220 -20
q-95 20 -168 20q-76 -4 -100 -12l-4 4v-4q-156 24 -156 40q-8 0 -8 20q0 41 100 56q164 13 164 44q21 0 60 208v100l-4 44l12 88l-24 120v4l12 100l-16 100l12 112l-16 112v4l8 80q0 61 -112 72q-42 0 -164 60v24q19 36 56 36l96 -8zM408 1014q0 -74 44 -152q62 -60 148 -60
h20q26 0 144 32q45 0 152 44q104 16 104 128q44 74 44 88q-11 52 -68 128l-124 64q-60 52 -120 52l-124 -40q-148 0 -180 -88q0 -35 -40 -176v-20zM420 518l12 -116l-16 -72v-8q0 -103 112 -192q89 -32 132 -32l200 64h8l64 -8q63 0 156 92q52 126 52 220q0 90 -164 220
l-120 24q-25 16 -168 32q-76 -20 -160 -24q-27 0 -100 -148z" />
    <glyph glyph-name="C" unicode="C" horiz-adv-x="1227" 
d="M614 1472h16q29 0 104 -56q60 -28 96 -28h28l88 32q60 -11 60 -52l-16 -80l12 -92l-4 -52q0 -66 48 -236q-16 -80 -64 -80q-44 0 -128 176q-26 0 -56 144l-116 156q-110 60 -136 60h-4q-29 0 -104 -60q-98 -20 -136 -72l-60 -72q-41 -87 -76 -124q-31 -24 -44 -120
l-40 -148h4l-4 -4v-4l12 -80v-68l-4 -4q0 -47 76 -128q20 -48 28 -108l-4 -44q0 -10 60 -40q66 -67 108 -80q24 -25 35 -61l10 -2q16 -24 40 -24h16q18 0 191 9l101 59q79 78 129 165q26 44 48 108q19 70 78 70h4q36 0 36 -32v-8l-13 -76q-11 -124 -107 -248
q-22 -75 -200 -156l-160 -32q-75 20 -164 24q-76 60 -84 60q-62 8 -120 72q-50 64 -60 104v24l4 28q-96 79 -96 148q-8 136 -32 136q-24 43 -24 64l24 100l-12 88v4q0 58 40 188q0 75 80 180q38 114 92 140q111 72 152 72q74 52 176 52q20 8 72 8z" />
    <glyph glyph-name="D" unicode="D" horiz-adv-x="1414" 
d="M72 1410l134 2l140 16l132 -16l120 16q112 -24 180 -24q115 0 160 -72q128 -51 128 -100q6 0 24 -76l32 -64q28 -36 28 -136q64 -83 64 -148v-20q0 -64 -20 -116l4 -100q-36 -98 -48 -204l-84 -136q-14 -60 -84 -116q-33 -13 -112 -92q0 -13 -176 -32l-100 16
q-98 0 -196 -28h-8l-168 20l-108 -12q-132 21 -132 48v12q0 57 148 68q128 26 128 60q17 17 36 124q8 3 20 40q-40 69 -40 184l-4 28l28 108q-6 184 -12 184l4 64v60q0 28 32 96v4l-16 60q0 53 -80 148q-61 32 -104 32l-88 -8h-4q-50 0 -80 48v16q18 30 122 46zM334 1116v-4
q1 -8 40 -32q28 -62 28 -120v-12l4 -4l-4 -4v-4l4 -4l-4 -4v-28l-16 -124v-16l12 -116l-12 -80l4 -4h-4l16 -100q0 -48 -56 -120v-8q0 -14 60 -108q0 -41 68 -84l172 -52q52 0 216 108q69 83 104 164q65 85 68 136l-4 60q0 17 40 88l4 20l-28 108l4 84v76q0 25 -72 132
l-48 116q-50 60 -120 72q-78 9 -168 44l-36 4q-166 0 -196 -92q-10 -34 -68 -84z" />
    <glyph glyph-name="E" unicode="E" 
d="M898 1379q196 -26 196 -64q14 0 24 -76l-4 -24q32 -141 32 -176l-8 -60v-4l16 -84q-6 -24 -28 -24h-8q-48 0 -48 104l-72 176q-96 96 -144 96h-16l-76 -8h-12l-44 8h-96l-148 24h-4q-86 0 -102 -135l-3 -25l-1 -31v-16l-8 -150l-9 -36q-28 -50 -47 -32l-13 17
q-9 31 -9 90l4 114v36q0 137 -52 140q-16 8 -68 12l-99 -6q-55 18 -55 46q0 42 174 64q0 8 80 16l120 -20l104 16l72 -4h16l36 4l40 -4h12zM430 -47q-19 1 -41 2h-15q-51 8 -212 16q-156 0 -156 52t128 72q79 23 100 68q7 0 20 52l-8 76l28 180l-4 168l4 116q14 56 28 60h4
q150 -64 164 -64h4q176 16 200 84l28 68l20 12q44 0 64 -128l24 -112q-28 -81 -28 -104l16 -88q-17 -60 -56 -60q-45 0 -72 124q-54 84 -148 84l-96 44q-84 -54 -84 -112v-4l8 -76q0 -108 -16 -208l4 -36l-8 -76q0 -39 99 -91q31 -9 58 -14l212 -1l84 16h60q52 0 88 52
q101 77 116 172v12l-4 32q10 100 32 100h12q35 -25 64 -104v-28l-12 -96v-8l4 -80q-14 -148 -100 -148q-52 0 -168 -32h-4l-132 24h-36l-108 -24l-120 8l-21 -4z" />
    <glyph glyph-name="F" unicode="F" horiz-adv-x="1324" 
d="M794 1434q58 0 104 -72l28 -4q18 0 68 36l16 4h28q73 0 104 -236l-8 -84v-16q24 -80 24 -132q0 -139 -44 -160h-16q-27 0 -76 144q-24 117 -24 156v36q0 40 -72 108q-61 84 -144 84q-17 11 -64 12h-4l-84 -20l-88 24q-52 0 -132 -44q-32 -30 -32 -88v-8l5 -130l-4 -32
q11 -182 111 -214q63 -16 112 -16h16q60 0 100 124v4l-4 84q0 37 56 44h4q48 -11 48 -36l-8 -104l20 -96l-28 -124l12 -128q-24 -148 -72 -148q-44 0 -68 176q0 22 -124 76l-32 4q-138 -48 -138 -132v-176l-4 -20l4 -24v-96l4 -4l-4 -4q-10 -108 78 -90l108 -14
q132 -15 132 -40v-20q0 -15 -112 -28q0 -8 -40 -8l-64 4l-172 -16q-92 24 -208 24q-92 9 -92 32q-12 4 -12 24v4q0 37 60 44h16l108 1q76 -25 76 151q22 92 22 136v44l-12 72l12 88l-32 116l-4 24l16 88v244l4 28q0 111 -38 144q0 10 -172 20q-88 26 -88 64q0 49 108 56h20
l92 -16l76 12l76 -4l104 20h28q88 -24 120 -24q93 0 164 44z" />
    <glyph glyph-name="G" unicode="G" horiz-adv-x="1313" 
d="M508 1437h28q46 0 184 -68h12q54 0 132 44h16q48 0 57 -57q-24 -89 -37 -155l8 -80v-24l16 -56l4 -52v-8q-13 -76 -60 -76q-19 0 -76 64q-52 31 -52 108q-96 164 -124 196q-76 44 -128 44h-12q-81 0 -192 -120q-104 -55 -104 -120q0 -73 -52 -120q-28 -39 -28 -136
q-30 -68 -56 -68q-29 0 -36 68l24 132v88q0 66 68 168q69 53 108 116q60 72 136 72l84 32zM852 669l96 -24q59 0 128 -2q44 -7 43 -46q11 8 1 -24q0 -48 -104 -48q-103 0 -132 -176v-16l8 -88v-4l-16 -92l4 -44q0 -71 -56 -88q-31 0 -64 48l-20 8q-18 0 -108 -48
q-62 -24 -200 -24l-52 -12q-24 0 -160 84q-27 23 -108 140q-20 55 -80 164q-11 57 -24 224q14 64 44 64q27 0 36 -112q56 -159 84 -276q36 -61 104 -88q72 -17 136 -80l52 -8q67 8 156 56q61 59 112 180q9 0 16 64v8q0 88 -168 128q-64 13 -64 44q0 48 100 80h16l120 -16z
" />
    <glyph glyph-name="H" unicode="H" horiz-adv-x="1461" 
d="M246 1440q98 -24 260 -44q27 -11 36 -28v-12q0 -45 -128 -60q-108 -33 -108 -124v-20l16 -84v-16l-20 -76q0 -77 100 -176q27 -8 152 -16l4 -4h4q78 24 304 24q100 28 100 84l-12 76q28 105 28 148q11 145 -94 167q-118 1 -118 49v8q0 44 64 60q44 0 132 24l112 -4l44 8
l43 -22q73 -3 109 -34l4 -16q-29 -54 -59 -62h-32l-6 -4h-4l-23 -6q-51 -18 -80 -80l-8 -80l12 -100l-20 -136l20 -88q0 -89 -8 -116l4 -56v-48l-8 -96v-24l12 -96l-8 -104q0 -94 160 -162q38 -14 38 -34q32 -67 -51 -60l-131 -12l-200 4q-116 32 -116 44v8q0 38 120 84
q84 60 84 96v28q-14 73 -14 100l12 88v24l-16 72l8 60q-10 82 -130 96l-52 -4l-88 8q-137 -13 -224 -36q-74 -1 -124 -21l-40 -103v-20l20 -132l-16 -48v-8q32 -182 66 -196q94 -25 158 -84v-12q0 -48 -100 -39l-68 -11h-8l-52 -4q-92 10 -128 10l-140 -4q-56 19 -56 64
q32 35 96 60q57 0 112 84l28 120q16 25 16 48v12q-36 96 -36 112l24 144l-12 92l16 88v4l-24 100v16l28 88v12l-40 168q-17 48 -120 92q-48 19 -48 48v4q12 56 96 56q17 0 128 40z" />
    <glyph glyph-name="I" unicode="I" horiz-adv-x="1130" 
d="M155 1403q118 -32 152 -32l124 36h24l100 -32l80 24h12l76 -36l68 21l104 -17q36 -12 36 -40q0 -25 -80 -64l-20 -4h-68l-116 -24q-98 0 -116 -64v-24l24 -108v-4l-32 -88v-32l16 -128l-8 -108q16 -72 16 -140v-52l12 -108v-172q0 -86 144 -108h20l40 -10l56 -8
q77 -14 131 -56v-4q7 -73 -151 -62l-40 4q-179 -4 -264 -16l-136 12l-120 -2q-258 -20 -258 54v12q36 47 152 72l80 14l82 10q118 0 144 200l-16 108v16l16 104v32l4 100q-24 108 -24 156v12l16 120l-28 104l12 88v24q0 55 -88 66h-8l-108 2q-200 0 -212 84q0 19 144 68h8z
" />
    <glyph glyph-name="J" unicode="J" horiz-adv-x="1335" 
d="M1103 1431q38 -2 45 -53q-40 -53 -104 -67l-65 2q-166 -41 -124 -182l-11 -66v-112l-20 -84l8 -104l-24 -104v-4l32 -88v-32q-16 -64 -16 -104l16 -96v-8q0 -15 -48 -116q0 -154 -168 -236q-58 -56 -148 -56q-24 -12 -80 -12q-184 18 -184 40q-79 23 -152 124
q-64 55 -64 152q-20 186 56 272q65 72 136 72q90 0 128 -56q20 -51 20 -76q0 -94 -156 -134q-78 -87 -13 -174q61 -56 102 -77l69 -22q151 8 217 46q47 30 107 137q19 24 40 108q19 72 22 108l-24 92v16l16 116l-28 68l-4 20l40 96v12q0 18 -36 96l-4 12l20 92l-4 4h4
q12 211 -121 217q-62 22 -129 9l-74 37q-20 24 -34 37l-11 18q0 13 37 38q75 9 108 20l60 -13l36 -15q61 24 92 24q38 -7 80 4l24 4l93 -16l26 -6q18 7 65 18h20q25 0 56 4q15 12 71 -2z" />
    <glyph glyph-name="K" unicode="K" horiz-adv-x="1540" 
d="M214 1412l140 -4l32 -4l52 4q10 0 96 -27l28 -41q-4 -39 -116 -52q-44 -23 -64 -80q-16 -36 -24 -84l28 -96l-4 -108q12 -41 12 -76l-16 -84q18 -36 40 -52q94 0 164 135q83 95 132 189q128 116 128 172v4q0 39 -68 84q-63 23 -63 71q66 35 127 35l40 -4l116 16
q27 0 48 -4l32 -8q20 0 28 8q43 14 97 -1q91 -3 66 -46t-161 -70q-40 -30 -146 -177l-124 -128l-84 -132q-60 -50 -60 -84v-8q41 -106 98 -172q31 -31 76 -108q108 -89 108 -132l52 -98q11 -22 116 -110q105 -45 184 -56q24 0 32 -36q-5 -54 -156 -54l-88 8
q-91 -20 -248 -20q-56 14 -56 28v8q0 29 108 70q33 32 36 68q0 69 -90 144q-59 108 -104 132q-32 28 -68 125q-76 133 -128 94q-106 -35 -132 -114q-36 -83 -36 -193l-16 -108v-4q0 -99 64 -120l4 4h60q112 -12 112 -64q-15 -50 -52 -50h-64l-96 8l-84 -12h-64l-80 -12h-4
q-135 13 -148 28l-8 16q0 59 152 66q80 13 80 80q0 44 28 136v12l-20 104q24 118 24 236q0 58 -32 184v16l20 128l-28 220q-25 60 -120 60q-27 0 -94 27q-44 15 -73 37q4 21 23 36q45 16 144 32q54 2 92 8z" />
    <glyph glyph-name="L" unicode="L" horiz-adv-x="1428" 
d="M309 1405h16l120 4l96 16l72 -12l96 4l92 -20l34 -7l12 -7v-4l-2 -47q-32 -43 -68 -43l-74 -10q-154 -20 -183 -69l-43 -77v-12q12 -48 20 -284q-44 -114 -44 -132l56 -152v-4q0 -34 -44 -88q10 -46 56 -148l-4 -96q32 -64 72 -64q8 -10 100 -32l88 8l60 -8l112 44
q74 0 140 84l8 28v44l-8 148q15 152 68 152q37 0 68 -148v-32l-12 -72l4 -28v-156q0 -146 -96 -180q-129 -32 -244 -32l-192 16h-20l-108 -12h-140l-112 -20l-80 4l-60 -4q-172 33 -172 76v20q0 64 156 64h4l96 -16q62 0 152 124l8 40l-20 128v16q0 19 24 64v4l-48 116v44
l12 64l-12 92v16l12 104l-20 140l28 80q0 61 -96 108q-54 0 -188 28q-76 0 -100 44l-8 24q3 38 25 54l35 6h52h8q38 -20 108 0z" />
    <glyph glyph-name="M" unicode="M" horiz-adv-x="1651" 
d="M157 1416l101 7l44 4q25 0 76 -44q96 -19 96 -78l48 -120q0 -37 -28 -60q-27 0 -76 68l-28 8h-4q-32 0 -36 -40l4 -52q-32 -106 -32 -148l24 -88v-16q-20 -71 -20 -100q0 -25 32 -124l-20 -92v-24l16 -84q-32 -79 -32 -108v-24q0 -24 24 -105q37 -95 92 -95l64 -30
q24 0 36 -28q0 -52 -132 -46q-15 -12 -32 -12l-63 18l-93 -5q-155 -10 -192 -3q-27 9 -44 34l12 48h4q17 0 100 56q124 53 124 112q10 10 16 60l-16 104l4 92l-16 108l20 112l-20 116l12 88v44q0 42 -24 148v4l12 72q0 58 -72 88q-108 38 -108 111q71 35 127 24zM1148 587
q-7 26 -11 130l15 104l-24 116v36l8 60l-4 88l12 48q0 84 -58 84h-8q-52 0 -52 -96q-10 -32 -28 -63l-8 -12q-4 -59 -4 -81q0 -24 -32 -101q-10 -13 -12 -36l-20 -71q-30 -109 -30 -128l-6 -64q-25 -52 -36 -180h4l-4 -4v-4q0 -108 -34 -192l-4 -32v-8l-12 -89
q0 -34 -34 -55h-16q-57 0 -90 81q-18 26 -32 44v16l2 95q0 23 -40 148q0 64 -40 116l-4 24l8 104q0 20 -36 108l-4 24l-12 106q20 45 -32 134l-4 24v16l20 20h8q40 0 80 -96l4 -24l-8 -84q36 -87 36 -124l-4 -24v-8q0 -49 52 -120l24 -116q22 -26 32 -79h20q21 50 56 135
q31 72 38 106l14 50l24 148l25 115q7 62 24 109l16 20l-4 4l11 96q0 59 60 168q81 60 116 60q159 0 236 -32q36 0 72 -36v-16q0 -20 -120 -52q-57 -118 -57 -149v-4l24 -172l4 -28q0 -29 -28 -116v-4l19 -107q0 -84 -1 -111q1 -20 -1 -40l-3 -20v-24l4 -132l2 -76
q-1 -147 73 -197l72 -18h8q63 -22 20 -74q-92 -20 -208 -43l-88 19l-80 -8q-89 0 -116 20l-4 20v4q0 60 164 88q56 34 56 180l-12 64l4 108l-8 64q0 24 6 46z" />
    <glyph glyph-name="N" unicode="N" horiz-adv-x="1439" 
d="M261 465q-9 62 -13 177l4 104q-24 92 -32 160l16 108v8q-24 146 -24 200q-15 58 -140 80q-52 31 -52 60q0 33 100 64q8 10 52 12h8q33 0 84 -20l12 -4q61 4 92 0q47 -4 96 -72q0 -18 80 -100l4 -20v-36q0 -39 64 -112q0 -87 64 -204q0 -53 116 -296l4 -32v-4l24 -38
q32 -46 105 -161q28 4 15 203q-6 88 -12 88q2 25 16 96l4 20v12q0 14 -20 76l-4 16v20l32 96q-11 44 -44 104q3 114 -6 169q-72 63 -138 63q-72 0 -72 40t72 72l136 32l120 -36h12l112 24q72 -25 112 -60q0 -24 -148 -100q-36 -29 -36 -184l-12 -64l4 -80v-44
q0 -26 -24 -112l-4 -24q20 -84 20 -116l-8 -196l20 -152l-8 -92l8 -100l-4 -4h4q0 -67 -80 -110h-16q-27 0 -96 90q-44 17 -44 100q-2 36 -44 112q-28 51 -28 160l-21 10q-12 39 -51 94q-80 83 -80 148q0 18 -60 116q-49 137 -80 184q-32 36 -74 84q-18 14 -31 9
q-19 -88 -19 -249v-136q0 -11 4 -48q16 -21 4 -76h-4l4 -4v-4l-4 -4l4 -4v-36q0 -62 -15 -131q19 -163 43 -201q11 -64 56 -64l120 -28q44 -24 44 -68q-24 -48 -72 -48l-144 -8l-44 4l-96 -8q-82 24 -220 24l-28 24v20q0 47 176 112l72 96z" />
    <glyph glyph-name="O" unicode="O" horiz-adv-x="1303" 
d="M486 1462h20l192 -40q78 -54 144 -80q27 -25 48 -88q92 -46 92 -100q76 -143 76 -180q-7 -68 -44 -68q-60 38 -60 104q-15 11 -40 132l-84 112q-45 25 -80 32l-24 -4q-54 0 -96 48q-27 16 -56 16q-38 0 -136 -60q-136 -29 -136 -72l-88 -116l-4 -28v-4l8 -76l-60 -72
q-44 -75 -44 -136l24 -112q-40 -64 -40 -80q0 -21 64 -68l8 -24l-4 -56v-4q0 -54 108 -132l72 -96l116 -76q0 -13 180 -24h24q60 0 144 80q77 71 132 208q52 57 52 180q32 78 32 96q0 19 -24 80l-4 24v4q0 67 22 90h16q42 0 74 -78v-36l-12 -76l16 -84q0 -18 -40 -124
q0 -93 -80 -228q-24 -96 -104 -160q-78 -88 -164 -104q-88 -32 -156 -32q-190 20 -248 60q-98 44 -136 128l-64 68q-52 75 -52 208q-48 72 -48 156q0 29 -32 132v4q0 31 36 116v8l-4 72q26 165 76 228q0 31 72 120q51 120 88 120l136 56q40 36 92 36z" />
    <glyph glyph-name="P" unicode="P" horiz-adv-x="1346" 
d="M452 1434q116 0 340 -28l64 4q37 0 140 -76q42 0 76 -116q72 -45 72 -96l-8 -40q0 -30 20 -108v-4q0 -100 -68 -164q-64 -107 -196 -152q-104 -28 -276 -28q-148 -46 -148 -80q-13 0 -36 -108l32 -232q10 -73 108 -80q41 -12 168 -12q60 -9 60 -28v-8q-61 -88 -188 -88
q-73 0 -192 -20h-108l-116 4l-44 -4q-136 16 -136 60q71 50 160 72q156 25 156 160l-8 68l16 96v4l-28 128l20 84v12l-28 148l16 104q-12 227 -48 352q-35 36 -76 36l-80 -4q-136 16 -136 48v8q0 36 84 52q17 7 64 14h20l84 -14h8zM596 1298l-88 12q-92 0 -92 -160l-20 -80
l24 -116l-8 -104v-36q0 -76 60 -76h12l92 16q85 -20 184 -28q149 30 192 60q83 74 116 152q24 39 24 88q-48 70 -48 160q0 17 -104 72q-122 56 -180 56z" />
    <glyph glyph-name="Q" unicode="Q" horiz-adv-x="1303" 
d="M496 1458l96 -4h28q25 0 124 -32q46 0 124 -96q47 -50 116 -104q31 -36 44 -120q29 -87 68 -172q8 -16 8 -44l-8 -60l16 -100q0 -81 -40 -184q0 -88 -64 -200q-25 -117 -72 -160q-96 -95 -112 -180v-8q10 -100 84 -100q71 0 88 64q29 60 88 60q36 -12 36 -40
q0 -103 -36 -160q-94 -92 -132 -92h-16q-147 42 -160 76q-36 32 -76 120q-52 64 -104 64h-92q-77 0 -188 64q-46 52 -124 96q-30 34 -72 136q-76 106 -80 180q-20 43 -28 100l12 92l-24 152q0 20 36 108v28l-4 56q2 41 76 112q21 20 52 132q60 100 116 100q18 7 88 88
q0 13 132 28zM132 822l-20 -132q32 -206 60 -260q7 -5 32 -96q53 -53 64 -88l20 -4q35 0 60 68q111 92 140 92h24q141 -30 172 -76q36 -56 76 -56h24q81 30 136 112q0 21 52 124q36 102 36 156l-4 60v4q1 68 8 68l-4 4v4l4 4l-40 84l-4 32l8 72v4q0 24 -76 92
q-25 61 -100 144q-38 92 -124 92q-96 32 -136 32q-95 0 -176 -68q-17 -39 -140 -152q-57 -65 -60 -84q0 -78 -32 -160v-72zM420 206v-12q14 -64 128 -64h12q66 0 92 48v20q-67 88 -120 88q-112 -26 -112 -80z" />
    <glyph glyph-name="R" unicode="R" horiz-adv-x="1458" 
d="M764 1426q160 -44 260 -92q51 0 116 -160q14 -18 24 -72q0 -82 -56 -256q-24 -54 -116 -100q-52 -32 -52 -128l-8 -40q0 -33 40 -88l4 -20l-4 -72l40 -148q47 -90 96 -104q172 -15 172 -68v-8q0 -68 -184 -68h-64q-112 0 -160 152v8l28 188q-44 196 -72 196q0 14 -84 80
q-49 28 -168 40q-37 12 -72 12h-4q-143 0 -156 -55q-7 -22 -17 -47l-16 -12q-55 -12 -61 62l4 84l-12 64v8l24 96l-20 72l-4 36v12q0 52 12 92q6 174 -53 180q-73 14 -85 14q-124 13 -124 74v4q10 28 48 28h4q18 0 108 6l20 -4h4q17 0 76 10l16 4q126 0 168 2l40 -8
q11 0 96 10l52 8l52 -4zM360 938v-8q0 -52 100 -84q75 -42 124 -42q27 0 136 38l52 8l28 -4q77 0 192 84q20 24 20 52v4q-23 200 -44 200q-78 84 -288 84l-48 -4h-24l-112 10h-4q-37 0 -84 -50q-48 -189 -48 -288zM308 551q17 0 24 -103q-3 -90 -40 -90q-48 34 -48 85v9
q29 99 64 99zM292 344h4q20 0 48 -68q19 -126 68 -126l172 -40q44 -27 44 -56q0 -36 -64 -52l-80 8l-152 -20l-4 4h-8l-4 -4l-96 20l-96 -4q-120 19 -120 48v16q0 21 100 36q10 13 120 52q18 0 32 146q26 40 36 40z" />
    <glyph glyph-name="S" unicode="S" horiz-adv-x="1217" 
d="M575 -9l-31 7q-41 0 -84 9q-43 27 -80 27l-136 76q-19 25 -60 60l-33 6q-63 11 -122 -23l-19 4q-41 7 -45 89v4l60 111l-3 5l2 11l-13 79l-3 50v8l20 20h28q69 0 104 -72q3 -11 7 -22q53 -60 48 -84q42 -77 78 -134l18 -22q30 -16 54 -36l22 -5l13 -9l100 -16l70 -4l26 2
h32q140 10 164 69v1q56 94 66 140q0 44 14 140v16q0 62 -84 128q-83 84 -172 84l-28 -4l-124 40q-84 32 -128 32q-62 0 -104 40q-146 54 -168 112q-52 57 -52 172q-12 29 -12 60v4q0 31 56 76q22 20 40 96q41 55 156 96l176 44l128 -40q58 0 208 -72l36 -4l88 56l32 4
q41 0 56 -60l4 -24q-8 -55 -36 -132l-4 -28l20 -116q-15 -52 -52 -52h-4q-81 0 -200 204q-47 61 -124 80l-108 48l-48 8q-212 -19 -212 -44l-88 -112l-12 -92v-16q0 -44 88 -104q95 -90 196 -124q93 -28 240 -44l60 8q139 -47 196 -108q130 -147 140 -252l-3 -104
q-50 -190 -135 -244q-16 -12 -30 -22l-42 -37q-42 -21 -69 -28q-48 -25 -79 -28q-22 -9 -34 -9h-24q-15 0 -41 1z" />
    <glyph glyph-name="T" unicode="T" horiz-adv-x="1249" 
d="M434 1139l4 76l-34 45q0 13 -76 24q-180 -28 -180 -52q-23 0 -52 -152q-20 -45 -20 -108v-80q-18 -96 -56 -96q-32 15 -32 56v28q0 46 36 176v4l-16 76l4 84v36q0 116 168 164h8l88 -4l212 16q128 -16 200 -16l92 16h4q168 -14 168 -40q100 -93 100 -192l-16 -104
l20 -120l-8 -88q16 -61 16 -88q-10 -60 -48 -60h-4q-49 0 -60 96l4 64l-32 152l16 72v8q0 72 -148 104q-12 0 -64 40q-20 12 -40 12h-12q-47 0 -84 -71l12 -61q-18 -35 -28 -156v-4l16 -72v-4q0 -19 -56 -148v-8l8 -92l-8 -112l16 -84l-20 -120q28 -184 56 -184
q29 -36 165 -57l88 -29q47 -16 73 -50q14 -46 -54 -64l-20 4l-136 -4l-124 12l-116 -8q-97 28 -216 28l-96 -4h-8q-76 14 -76 60q0 40 80 52l4 -4q112 32 204 44q56 38 56 92q28 74 28 92v24l-16 92l20 88v16l-16 116q7 37 32 96v4l-20 92v12l28 108z" />
    <glyph glyph-name="U" unicode="U" horiz-adv-x="1489" 
d="M1092 1430q31 0 136 -44q92 0 92 -56q0 -52 -128 -52q-33 0 -64 -56q-11 -23 -20 -96q-36 -71 -36 -92q0 -17 36 -80l4 -16l-16 -92v-84l-4 -24l4 -20v-24l4 -4v-4h-4l4 -4l-8 -72l24 -84v-16l-32 -116l28 -108q0 -46 -52 -124q-20 -61 -100 -112l-72 -52
q-62 -40 -148 -40h-68l-76 -8h-12q-15 0 -92 36q-65 2 -180 100q-16 15 -26 41l-9 34q-8 85 51 53l30 -16q61 -43 194 -108q66 -18 88 -18h20l115 19q138 65 169 119q21 78 60 156v36l-20 88v20q24 73 24 96q-28 87 -28 228q0 37 -20 92q0 48 60 92v4q-44 49 -44 160
q0 57 -172 116q-36 25 -36 56v4q0 45 68 56h36l68 -12h8l124 28h20zM72 1394q34 0 76 -28h12l68 24q16 0 96 -44l12 -4l80 32l24 4q86 0 112 -40v-20q-13 -64 -108 -64q-97 0 -140 -72l-4 -24l4 -64v-12l-16 -84q0 -16 36 -92l4 -20v-32l-20 -116l20 -100l-24 -108l28 -84
v-12q-12 -168 -31 -171q-9 -20 -37 -15l-8 2q-48 50 -48 152l20 100v20l-24 84l28 116v8q-17 61 -28 196l8 56v16l-28 172q-36 80 -140 80q-44 22 -44 48v20q41 76 72 76z" />
    <glyph glyph-name="V" unicode="V" horiz-adv-x="1457" 
d="M981 1433l92 -4l52 4q71 -19 144 -56l4 -12q0 -36 -204 -112q-73 -52 -124 -216q-28 -124 -52 -192q-40 -50 -40 -188q-24 -38 -40 -136q-76 -134 -76 -204q-68 -162 -68 -256q-27 -64 -68 -64h-4q-83 0 -100 168q-77 206 -100 332q-16 45 -28 156q-48 60 -48 152
q-32 85 -32 188q-12 68 -84 160q-47 136 -84 136q-128 37 -128 72l-8 20q6 52 52 52l100 12q91 -4 116 -4q56 0 116 -22q33 -15 120 -46l4 -4v-12q-40 -52 -92 -52l-52 4q-40 -12 -40 -44v-20q18 -164 44 -164l72 -152l32 -116q17 -36 28 -184q46 -63 68 -184q23 -32 44 -32
h4q60 0 60 116l48 72l8 36v24l-12 68q0 17 40 84q11 25 24 100q76 109 76 164v12l-12 108v40q0 39 -100 108q-18 20 -24 48q0 44 107 33l44 -4z" />
    <glyph glyph-name="W" unicode="W" horiz-adv-x="1547" 
d="M1276 1277q5 2 -31 -74q-16 -26 -21 -68l-12 -89q0 -15 -43 -158v-16l-23 -57q0 -27 -21 -61q-15 -49 -21 -91l-8 -70l-23 -156l-17 -64q-14 -41 -55 -221q-19 -55 -87 -158l-29 -4q-22 -2 -32 15l-14 28l-8 30q0 22 -37 121q0 93 -25 194l-4 33l4 113q0 12 -46 81v4
l9 89l-42 174l-8 77q7 44 -15 75l-15 1q-23 -32 -38 -93l4 -32l-38 -117l5 -45v-12q0 -39 -46 -174v-16l-4 -69q-29 -133 -29 -166l8 -40q-44 -166 -72 -239l-34 -16l-13 5q-62 33 -86 110q-32 73 -36 154l-9 95l-33 122l4 36q0 24 -46 117q-11 17 -16 109l-46 199l-10 81v4
l-69 242l-68 57v20q0 45 77 53h8q56 0 91 -8l104 12q51 -13 51 -53v-4q-76 -75 -76 -93l-4 -20v-4l-5 -117l5 -81v-12l24 -102l-4 -68q62 -151 62 -215v-4l6 -78q21 -55 61 -67h4q39 18 54 44q2 49 5 86q0 20 28 112l12 45v44q0 34 42 130l16 101q0 49 31 150v12
q0 51 -43 125v16q0 11 182 69q29 0 116 -77l41 -24q-2 -15 -70 -45q-41 -33 -41 -81l16 -80v-25l6 -117q0 -21 15 -89q20 -29 20 -125v-4q0 -47 87 -255l34 -8q66 146 66 202l16 65q19 104 19 137v8l25 81q5 45 31 113l8 29q0 66 -54 149q-40 29 -45 41v4q0 16 74 50
q13 8 133 13l130 -13l19 -10q-10 -67 -52 -72z" />
    <glyph glyph-name="X" unicode="X" horiz-adv-x="1500" 
d="M256 1411q98 -20 188 -20l76 4q48 -6 48 -36v-4q0 -27 -52 -72q-36 -40 -36 -60v-4q0 -18 64 -96q35 -144 56 -160q22 -20 48 -20q80 0 144 184q72 65 72 96q0 48 -72 108l-4 20v12q0 15 48 28h12q37 0 84 -16l56 4h12q31 0 60 -12l12 4q115 0 164 16q48 -9 48 -36
q0 -54 -96 -64q-55 0 -176 -76l-124 -172q-45 -60 -72 -168l-76 -116l-4 -28q0 -36 56 -112l44 -108q85 -73 124 -216q96 -167 152 -172l112 -20l68 4q34 0 44 -48q0 -57 -84 -68l-56 -8l-40 4l-156 -4l-28 4l-80 -8q-132 31 -132 60v8q0 33 80 52q52 32 52 60v28l-32 104
q-23 91 -80 152q-48 24 -88 88q-17 16 -32 16q-61 0 -104 -100q0 -12 -64 -128q0 -11 -76 -140l-4 -32q0 -26 88 -44q32 -17 32 -44q0 -52 -132 -52q-32 -16 -72 -16l-100 8l-44 -4q-204 25 -204 56v4q0 29 176 44q144 36 144 88q0 110 40 132q55 53 80 124l112 140
q0 99 44 144l4 20v36q0 14 -64 108q-27 99 -196 336q-30 24 -132 72q-60 35 -60 60q51 56 128 56z" />
    <glyph glyph-name="Y" unicode="Y" horiz-adv-x="1457" 
d="M1100 1377q174 -7 174 -35q-11 -42 -43 -67q-43 -13 -93 -37q-102 -22 -136 -76q-42 -39 -92 -132q-80 -43 -80 -136q0 -29 -96 -152q-78 -105 -100 -228q-11 -24 -6 -188l-4 -12q-14 -87 26 -176q22 -22 152 -48q29 -11 74 -41q16 0 54 -31q-24 -78 -80 -56
q-94 -2 -200 10q-119 -24 -220 -24l-88 8h-32q-44 0 -80 54v8q22 44 171 72q101 33 101 108q0 71 16 176l8 24q-9 228 -19 228q0 17 -36 76q-29 45 -137 244q-3 51 -148 224q-53 96 -182 122q-33 17 -40 46q19 47 166 48l48 4q84 -14 104 -22l64 14h36q51 0 72 -48
q0 -49 -100 -116q-12 -14 -16 -36q3 -34 92 -216q60 -56 108 -132q22 -20 48 -20h8q75 0 112 168q6 19 104 112q32 50 32 64v12q0 53 -80 88q-12 15 -12 28q0 39 84 84q106 0 201 -7z" />
    <glyph glyph-name="Z" unicode="Z" horiz-adv-x="1231" 
d="M785 1448q161 -18 161 -44q29 -24 29 -84v-24q0 -42 -126 -172l-152 -252q-70 -39 -106 -120q-76 -79 -110 -156q-139 -170 -185 -212q-55 -42 -55 -92v-36q-76 -126 101 -114h9l54 4q57 -8 89 -24l152 4q35 0 113 13q131 48 161 189v4l-12 88v4q21 67 65 122
q14 20 30 32l24 -2q20 -9 20 -42v-4l-8 -110v-4l4 -4v-4h-4l4 -4v-40l-26 -124v-4l9 -96q-21 -130 -177 -120l-64 -4l-118 8l-93 -12l-76 8l-101 -12l-72 4l-194 -12q-110 9 -125 59l-9 30l3 35q0 12 59 108q68 70 97 108q25 0 64 120q122 168 122 196q37 50 122 140l60 108
q88 75 88 84q12 62 110 172q38 49 73 161q7 60 -166 35q-13 0 -76 6q-51 -10 -143 -10l-81 -2q-90 0 -126 -96q-18 -194 -85 -212h-4q-44 14 -39 119q-6 21 22 73l4 20v16l-12 108v4q0 58 110 70q37 0 114 -14q49 16 101 16q195 -3 272 -22l49 4q27 12 50 12z" />
    <glyph glyph-name="bracketleft" unicode="[" horiz-adv-x="499" 
d="M273 -143q-88 0 -225 389q-29 95 -43 533q0 457 228 851q35 24 55.5 27.5t38.5 -16.5t18 -40t-108 -242q-102 -424 -102 -548v-40q0 -210 138 -668q58 -130 58 -174v-16q0 -56 -58 -56z" />
    <glyph glyph-name="backslash" unicode="\" horiz-adv-x="1611" 
d="M129 1612q111 -111 140 -132q64 -84 116 -180q35 -81 80 -128q103 -88 128 -128q26 -88 76 -140q69 -65 88 -92q9 -45 112 -116q31 -70 76 -116q38 -35 124 -200q112 -96 116 -116q34 -99 88 -144q143 -179 144 -236v-24q0 -72 -40 -72l-48 8q-75 21 -100 68
q-83 93 -96 128l-144 208q-24 67 -132 160q-59 111 -100 156l-128 200q-24 75 -116 156q-64 89 -108 132q-45 110 -76 132q-77 41 -100 92l-108 148q-116 122 -116 172v24q16 60 56 60h8q18 0 60 -20z" />
    <glyph glyph-name="bracketright" unicode="]" horiz-adv-x="484" 
d="M73 1662q88 0 225 -389q29 -95 43 -533q0 -457 -228 -851q-35 -24 -55.5 -27.5t-38.5 16.5t-18 40t108 242q102 424 102 548v40q0 210 -138 668q-58 130 -58 174v16q0 56 58 56z" />
    <glyph glyph-name="underscore" unicode="_" horiz-adv-x="1062" 
d="M180 17l88 -9h6l81 9h6q19 0 91 -23h3q22 0 91 23h13l97 -23l29 -3q34 0 120 17q149 -12 149 -34q12 0 26 -43q-24 -92 -84 -92l-36 2l-65 -5l-87 3l-155 -12h-26l-111 9h-48l-130 -6l-152 3h-13q-145 -7 -159 48q-34 56 26 101l49 16l159 19h32z" />
    <glyph glyph-name="grave" unicode="`" horiz-adv-x="596" 
d="M208 1535q65 -10 202 -172q94 -80 110 -130q0 -30 -34 -32h-4q-29 0 -144 51l-233 84q-74 47 -102 134q0 84 89 99h13q24 0 103 -34z" />
    <glyph glyph-name="a" unicode="a" horiz-adv-x="1403" 
d="M673 980l107 -40q70 -42 91 -128l6 -68q23 -54 34 -124v-20l12 -120l21 -116l-4 -112q9 -122 63 -122h9q20 5 98 72l34 8h12q38 -13 73 -74l4 -16q0 -45 -102 -136q-17 -16 -157 -40q-54 0 -124 88q-43 32 -80 32q-36 0 -107 -60q-168 -56 -195 -56q-306 0 -306 24
q-133 82 -138 119l-4 16l-17 45l-3 108v12q0 25 64 136q8 46 72 84q195 88 289 88l81 8l98 -12q117 31 144 76q18 54 18 92q0 32 -84 100q-33 40 -138 40l-81 20v-4l-4 4h-4q-196 -39 -196 -82l-4 -20l17 -84v-4q0 -63 -68 -88h-8q-70 14 -103 52q-34 49 -34 92q0 56 89 140
q88 58 226 98q81 23 143 17l62 -6q62 -13 94 -39zM475 455h-87l-5 4q-68 0 -227 -97q-23 -40 -23 -59v-10q0 -29 54 -157q40 -49 137 -49q31 -15 78 -20q111 0 250 54q70 23 138 201v35q0 59 -91 132l-47 5h-26q-27 0 -151 -39z" />
    <glyph glyph-name="b" unicode="b" horiz-adv-x="1173" 
d="M60 1446q51 0 120 -92l4 -24l-24 -76q64 -73 64 -144l-8 -76v-4q3 -32 28 -32q44 0 268 64l44 8q184 -27 184 -76q25 -60 64 -76q91 0 148 -112l32 -216v-4q-20 -92 -24 -192q-20 -48 -40 -140q0 -39 -184 -196q-44 -24 -192 -68q-118 36 -144 36q-30 14 -68 72l-40 12
q-45 0 -112 -72l-32 -4q-39 0 -56 68l8 64l-12 84q0 26 76 156l12 8h8q47 0 92 -80q74 -61 96 -88q36 -84 116 -84l56 4l68 -8q23 0 80 72q116 45 116 92q28 83 44 184l-40 176q0 142 -84 196q-26 28 -108 68q-42 48 -56 48q-10 0 -72 -60q-82 -36 -184 -120
q-31 -15 -48 -92q-72 -97 -72 -208q-21 -60 -32 -60h-16q-44 9 -44 40v16l24 72v4q0 23 -28 108l-4 24q0 90 44 176l-4 44l4 76q-32 73 -32 128l8 104q0 23 -64 64q0 15 -152 24q-32 16 -32 40v8q29 56 128 56z" />
    <glyph glyph-name="c" unicode="c" horiz-adv-x="1199" 
d="M380 1076q113 -8 164 -20l84 16q31 -2 88 -32q125 -36 160 -100q92 -64 92 -144l4 -48q0 -70 -92 -108l-28 -4q-116 13 -116 112q0 26 56 108v24q0 16 -108 56q-79 56 -112 56h-20l-88 -44q-17 -12 -124 -36q-28 -3 -148 -120l-28 -116q-9 0 -24 -68v-40
q-9 -144 -44 -160q-96 35 -96 92v24q0 50 32 160q0 85 80 156l72 116q127 120 196 120zM920 384h4q88 -15 88 -76q0 -66 -232 -240q-26 -22 -156 -68h-8l-84 12l-112 -8h-12l-16 -4q-42 0 -120 52q-92 35 -116 80q0 9 -88 132l-4 24v12q0 44 44 76h16q84 -53 140 -140
l124 -48q0 -10 48 -20l80 8l68 -4q111 0 200 140q96 72 136 72z" />
    <glyph glyph-name="d" unicode="d" horiz-adv-x="1224" 
d="M568 1422h8l64 -8l116 8h20q88 0 88 -136l8 -68l-4 -116l4 -88l-12 -72q0 -58 8 -88h-4l4 -4v-4q0 -90 12 -204q-12 -94 -12 -228q12 -68 16 -152q69 -100 132 -100h68q48 -10 48 -48q0 -81 -76 -92h-72l-84 -20q-30 0 -156 56l-32 4l-116 -32q-57 0 -212 -48h-20
q-31 6 -112 60q-96 48 -96 108q0 41 60 52q37 0 168 -80q16 -8 44 -8q43 0 100 72q45 10 128 100q43 33 88 204v28l-40 168q0 77 -88 164q-101 116 -144 116q-159 -46 -220 -92q-80 -50 -80 -116l-56 -148l-12 -156q0 -46 68 -132l4 -24q0 -52 -52 -64h-24q-57 0 -72 88
q0 64 -24 144l-4 24l16 88l-8 80v4q0 24 40 120q9 27 96 108q23 72 72 100q101 56 208 56q44 0 136 -52q108 -36 144 -36q60 0 60 96v96q0 137 -56 156q-52 48 -184 48q-48 19 -48 28v4q31 36 92 36z" />
    <glyph glyph-name="e" unicode="e" horiz-adv-x="1213" 
d="M524 1000h20l164 -28q69 0 220 -132q40 -58 68 -192q24 -43 24 -68v-4q0 -56 -56 -116q-43 -24 -64 -24h-16q-87 16 -180 16l-104 -20q-95 24 -136 24l-104 -24h-64q-148 -37 -148 -124v-28q0 -42 44 -56q56 -9 144 -100q38 -28 156 -40l72 -4q63 0 160 56l112 36
q59 52 92 52q44 -19 44 -52v-12q0 -102 -272 -200q-65 -20 -88 -20h-4q-152 12 -260 32q-19 6 -84 80l-108 60q-28 35 -40 100q-72 75 -72 148q-44 92 -44 184v8q0 55 48 140q14 56 76 124q33 88 56 88l172 32q105 64 172 64zM180 668q0 -65 112 -104l40 4h60l148 -8
q280 35 280 52q20 33 20 60q0 84 -172 168l-140 36l-168 -20q-24 0 -172 -152z" />
    <glyph glyph-name="f" unicode="f" horiz-adv-x="1310" 
d="M877 1490q101 -40 156 -52q112 -68 112 -152q-23 -168 -108 -168h-24q-72 0 -72 124q-37 73 -132 120l-48 8q-63 0 -156 -48q-92 -78 -92 -120v-16q0 -48 132 -120l232 -44l4 -4l16 -24q0 -39 -68 -52h-52q-73 0 -196 -44q-60 -47 -60 -132l12 -80l-12 -172l-4 -4h4
l-4 -4v-52q12 -201 48 -224q73 -72 244 -72q152 -33 152 -60l8 -24v-4q0 -49 -136 -64l-64 -20l-64 4l-60 -4l-144 4q-86 40 -104 40h-8q-85 0 -172 -28l-96 4h-56q-76 14 -76 76q36 64 116 64l116 -20q184 87 184 172l8 104l-8 196l16 96l-12 88l4 92q0 19 -36 40
q-28 11 -152 24q0 6 -64 12l-68 -8q-60 12 -60 52q0 43 64 68l136 -4q184 0 184 112q0 69 132 248q38 34 108 40l20 4l76 -8l116 36h8z" />
    <glyph glyph-name="g" unicode="g" horiz-adv-x="1328" 
d="M481 1029l80 -20l60 8q129 -40 196 -52l152 52l56 4q42 0 132 -72l12 -44q-27 -88 -84 -88q-16 0 -92 40l-16 4h-24q-76 -17 -76 -56q32 -84 32 -100v-44q0 -67 -140 -228q-20 -20 -116 -44q-57 -44 -88 -44h-60l-64 -8h-8q-24 0 -76 40l-24 4h-16q-65 0 -184 -56
l-96 -28q-12 15 -12 28q0 50 124 128q56 10 56 56v4l-8 88q0 16 16 24h4q47 0 108 -108q29 -88 92 -88l24 -4h28q196 33 196 56q140 87 140 168l8 96q0 58 -104 136q-63 12 -136 84h-24q-172 -44 -172 -68q-93 -72 -148 -132l-16 -4l-8 12v12q0 31 112 180q57 49 164 64z
M61 209l44 -8l92 4l148 -12l84 16l52 -4l104 4q52 -20 80 -20h52q167 -10 180 -32q141 -56 172 -128q56 -47 56 -164q-8 -66 -100 -168q-99 -87 -216 -108q-47 -20 -108 -20h-40l-76 8l-96 -4q-120 20 -196 20h-40q-49 0 -128 64q-128 55 -128 148q-32 80 -32 104
q0 55 84 156l4 28v4l-16 92q3 20 24 20zM61 -115v-20q0 -57 236 -148q36 0 164 -32h12q50 0 184 28l56 -4q45 0 100 52q15 14 96 32q100 77 100 120v4q0 42 -108 100q-34 0 -144 48q-124 32 -248 32q-188 -11 -224 -36q-104 -24 -148 -76q-76 -72 -76 -100z" />
    <glyph glyph-name="h" unicode="h" horiz-adv-x="1496" 
d="M168 1386h108q47 0 56 -60v-4q0 -54 -60 -80q-60 20 -140 32q-40 24 -40 52v4q14 56 76 56zM268 1206q80 -28 80 -188q5 0 8 -56l-28 -92v-12q0 -40 32 -40h16q25 3 56 92q30 32 132 32q37 18 80 56q102 72 128 72h28q208 -48 208 -88q20 -10 92 -180l4 -44v-16l-12 -104
l4 -128l-20 -108l16 -88l-4 -60q0 -67 84 -92l92 -68q60 -26 60 -64q0 -25 -52 -40l-104 12l-120 -8l-88 8l-72 -8q-144 26 -144 84v4q0 30 60 60q72 52 140 52q32 22 32 60l-20 120l16 96l-4 4h4l-4 4v20l-20 104q28 89 28 112v8q0 69 -88 164q-52 44 -132 44h-28
q-63 0 -124 -68l-176 -148q-92 -119 -92 -188v-44q0 -61 -40 -152l72 -152q18 -16 96 -40q96 -67 96 -96v-8q0 -20 -112 -32l-52 -12l-220 8l-52 -4q-124 26 -124 76v4q0 60 140 60q56 14 56 56q0 61 72 144v8l-40 84l-4 32l12 92l-20 108v64l24 92l-24 92v36l20 96v4
q0 18 -32 96q0 33 64 68z" />
    <glyph glyph-name="i" unicode="i" horiz-adv-x="1077" 
d="M430 1402q55 0 100 -76l8 -32v-20q-23 -124 -112 -124q-100 0 -136 128v12q0 49 108 108zM258 1063q206 -6 206 -41q40 -39 40 -108l-4 -72v-4q0 -38 32 -124l4 -16q0 -19 -32 -108v-12q0 -12 40 -64l4 -28q-28 -82 -28 -120q0 -59 48 -202q56 -36 144 -36
q50 -27 135 -41q61 -15 61 -45v-12q0 -57 -104 -76h-48l-145 -2h-26q-51 3 -177 -10q-105 0 -155 10l-85 -6l-68 -8q-104 8 -97 63q-13 54 85 81h4l76 22l73 22q84 3 105 62q20 67 20 86v60l8 64v20l4 176l-16 108l20 100q0 85 -102 100l-72 4l-91 13q-57 0 -86 57
q10 55 47 62l65 14z" />
    <glyph glyph-name="j" unicode="j" horiz-adv-x="944" 
d="M600 1461q88 0 88 -116v-32q0 -71 -140 -92q-116 40 -116 128q0 73 168 112zM492 1065h8q51 0 100 -40q92 -22 92 -64q32 -72 32 -100l-12 -96l20 -120v-4l-36 -140q44 -94 44 -128q0 -23 -36 -116l32 -160v-8l-4 -52l4 -56v-36q0 -34 -36 -144q0 -77 -160 -196
q-51 -24 -164 -36l-96 8l-24 -4h-4q-67 0 -120 64q-112 61 -112 116l-20 120v20q0 159 116 204h20q144 -34 144 -108q0 -21 -44 -104q-12 -19 -12 -52q10 -128 64 -128l24 -4q84 10 172 68q108 79 108 140l-16 68v24l28 80v64l-4 16l20 148l-24 96l24 100v4q0 18 -32 92
l-20 152q-20 111 -56 136q-60 44 -108 44l-92 -36h-16q-164 42 -164 68l-4 16v4q0 31 44 40q46 -16 80 -16h44q33 0 160 52z" />
    <glyph glyph-name="k" unicode="k" horiz-adv-x="1374" 
d="M128 1416q100 0 172 -88l8 -52v-4q0 -123 -24 -204v-8q33 -110 40 -164l-28 -92v-8l12 -80l-4 -84q0 -72 72 -72q64 0 132 124q18 28 80 28q64 0 72 84l4 36v24q0 34 -44 72l-4 16q36 76 120 76l80 -4h44q72 20 100 20q94 -12 124 -40l8 -16v-16q0 -44 -84 -44
q-83 -20 -168 -100q-76 -57 -164 -152q-24 -53 -24 -84q0 -46 56 -96q25 -64 100 -136l44 -100q74 -82 124 -100l192 -44q32 -24 32 -44q0 -47 -152 -84q-72 16 -128 16q-46 0 -120 -16h-16q-53 0 -96 60v4q52 70 52 100l-28 172q0 7 -80 68q-42 100 -120 100
q-68 0 -136 -96q-44 -47 -44 -88h4l-4 -4v-20q6 -61 76 -140q94 -39 96 -52l4 -16q0 -58 -176 -76l-92 8l-176 -8q-64 9 -64 52q0 80 88 108q108 15 108 80l4 20l-8 104q12 45 12 88v132l-12 116v8q0 41 40 120l-40 112v40q0 29 64 108l4 12q-40 21 -72 132q0 55 -132 84
q-44 27 -44 52q0 56 116 56z" />
    <glyph glyph-name="l" unicode="l" horiz-adv-x="1270" 
d="M260 1464l276 -32q56 -37 56 -88q0 -118 -28 -172l-4 -12v-4q32 -71 32 -160q-11 -68 -48 -120q-20 -15 -20 -52l56 -56l12 -56l-8 -76l24 -120v-4l-12 -100v-8q36 -134 36 -168q21 -68 152 -68l104 -20l76 4q140 -24 140 -72q0 -67 -172 -84l-100 4l-220 -16l-100 16h-4
l-132 -20l-116 8h-108q-113 0 -148 88l-4 16q0 25 44 36q41 -20 64 -20q22 0 88 56q32 24 72 24h56q121 0 148 224l-8 124l12 108l-20 104l36 112v12q0 36 -24 112v20l12 80v20l-40 156q-21 52 -100 52h-40l-192 8h-24q-68 16 -68 56v8q0 48 88 68h36z" />
    <glyph glyph-name="m" unicode="m" horiz-adv-x="1543" 
d="M1019 1053q63 0 120 -96q60 -25 60 -128l8 -32v-8q0 -29 -40 -80q12 -99 32 -184v-20q0 -37 -66 -80l74 -96l4 -24q0 -16 -16 -96v-8q14 -52 120 -84q36 -14 36 -40q0 -36 -164 -72l-212 20l-96 -4h-36l-64 -8h-20q-59 0 -200 24l-136 12h-4q-67 -28 -212 -44l-36 -8
l-52 4h-12l-4 4l-4 -4h-4l-4 4l-4 -4h-20q-35 0 -108 24q6 32 16 32q47 0 148 96q24 63 36 148q24 39 24 64l-24 84v12l8 76l-12 104l12 84q-32 106 -32 136t-32 128v12q12 24 36 24h4q23 0 108 -44l28 -4q114 32 160 32q48 40 76 40q112 -21 140 -36q43 -40 88 -40h48
q63 0 136 56q61 24 92 24zM723 685v-4l12 -64l-8 -92q0 -30 24 -144l-20 -100q0 -45 52 -80l92 -76q19 -12 60 -12h56q36 0 72 96q20 27 20 64l-4 84q0 29 48 68q-48 96 -48 144l40 128l4 24l-28 64l4 4v4l-4 4l20 60v8q0 60 -100 76h-8q-70 0 -140 -44l-60 -104
q-84 -56 -84 -108zM251 509l8 -52l-24 -92l48 -108l4 -40v-4l-8 -88q0 -44 56 -44q256 25 256 40l20 148l-4 88l36 144l4 36l-20 108l4 4v80q0 90 -84 180q-37 20 -56 20h-16q-38 0 -108 -116q-84 -55 -84 -184l-32 -108v-12z" />
    <glyph glyph-name="n" unicode="n" horiz-adv-x="1468" 
d="M824 1050q168 -35 195 -88q19 -11 31 -43q26 -52 46 -141l8 -60l-24 -100l24 -108l-12 -76l16 -88l-4 -104q0 -55 80 -100q60 -25 99 -55q24 -9 22 -44q-15 -37 -105 -37q-59 0 -144 14l-184 -6q-128 11 -128 76q0 43 108 68q88 27 88 80l16 136l16 64v72q0 44 24 164
l-17 108q-26 54 -83 106q-47 32 -96 32q-93 0 -176 -62l-68 -56l-80 -36q-23 -37 -92 -88q-44 -142 -44 -188l24 -124l-4 -40l-4 -128q0 -39 144 -88q36 -28 36 -48v-8q0 -33 -52 -36l-103 -14q-57 18 -177 -10q-92 24 -164 32q-40 24 -40 52q0 51 79 55q46 13 72 11
t43.5 11t17.5 75q16 76 16 120l-16 120l16 92l-4 20v36l16 92q-9 196 -44 204q-70 0 -84 56v8q0 44 64 52h8q156 -13 156 -88q27 -84 80 -84h8q21 0 84 56q67 56 156 96q0 10 96 32z" />
    <glyph glyph-name="o" unicode="o" horiz-adv-x="1191" 
d="M403 -49q-118 8 -247 127q-80 44 -124 204q-32 98 -32 132l16 112l-8 80q0 49 84 176q8 59 175 177q98 22 133 43q32 22 68 22l37 -3q76 -10 163 -27q82 -20 124 -80q56 -41 56 -80v-20q0 -7 -19 -25h-20l-17 5q-46 34 -120 60q-109 36 -192 36q-40 0 -126 -37
q-114 -68 -146 -127q-121 -182 -56 -388q0 -68 96 -136q62 -120 205 -156l130 -26l26 -19v-28q-15 -39 -117 -35zM690 -22q-56 0 -37 42q91 66 125 120q46 32 106 134q11 15 16 108q16 30 16 68v20q-6 134 -42 197l-18 31q-30 76 14 76h16q80 0 116 -148l4 -40v-8l11 -86
l-7 -58h-4l4 -4v-4l4 -80q0 -35 -72 -136q0 -72 -52 -136q-153 -96 -200 -96z" />
    <glyph glyph-name="p" unicode="p" horiz-adv-x="1148" 
d="M534 1077h44q69 0 180 -84q61 -20 92 -72q20 -29 40 -136q0 -16 -16 -24h-4q-39 0 -116 100q-39 33 -64 80q-74 56 -108 56h-104q-34 0 -72 -56q-90 -61 -120 -136q-62 -75 -88 -208q-20 -38 -20 -52q0 -11 56 -104q55 -138 120 -168q55 -72 136 -72q21 -12 56 -12h24
l88 36q64 0 164 160q32 39 32 80l-4 76q29 136 60 136q41 0 52 -116v-8l-40 -108v-64q0 -31 -64 -124q0 -72 -128 -176q-56 -28 -144 -28h-28q-29 0 -244 76h-28q-48 0 -60 -92q0 -101 44 -168q30 -51 144 -76q112 0 112 -44q-11 -46 -108 -96q-27 -8 -176 -16l-4 -4h-4
l-72 8l-216 -32q-68 12 -68 64q0 84 124 136q96 65 96 100v20l-16 88v8l20 92v12l-12 84l16 108q0 25 -36 152v20l28 120v16l-16 92l12 92q-12 136 -64 136q-148 7 -148 52v8q9 52 72 52l160 -20q98 -52 132 -52q51 0 208 64q23 24 80 24z" />
    <glyph glyph-name="q" unicode="q" horiz-adv-x="1104" 
d="M390 1055h12q187 -32 256 -88q0 -10 32 -16q31 0 76 48l20 4h16q31 0 56 -140v-172l8 -64v-12l-28 -116q16 -35 16 -76v-8l-20 -116q24 -96 36 -244q8 0 12 -64l-12 -96v-16q0 -42 60 -84q220 -35 220 -88q0 -47 -124 -88l-28 -4l-88 12l-72 -4l-124 4v4l-4 -4l-20 4h-72
l-36 -4q-92 29 -92 52v4q0 50 152 80q104 59 104 108v4q0 29 -28 92v84q0 47 -68 52q-37 0 -92 -60q-23 -24 -156 -48h-4q-159 42 -204 84q-25 11 -80 124q-48 43 -48 88q5 20 12 20h4q16 0 100 -64q118 -94 200 -112h28q66 0 196 116q88 78 88 168l48 92l-4 4h4
q-20 165 -116 300q-28 47 -144 96q-52 52 -96 52q-37 0 -176 -96q-29 -13 -60 -72q-49 -30 -56 -44v-76q0 -42 -44 -68q-44 24 -44 68v12q0 42 52 88q28 88 64 88q32 21 44 100q63 84 184 84q0 7 40 8zM54 547q36 -22 36 -56v-8q0 -46 -40 -108q-36 0 -56 96v8q16 68 60 68z
" />
    <glyph glyph-name="r" unicode="r" horiz-adv-x="1411" 
d="M850 1102l204 -24q148 -54 148 -176l16 -80q0 -47 -100 -96l-40 -8q-79 0 -116 108v12l4 40q-14 84 -72 84h-24q-64 -5 -176 -56q-56 -36 -132 -136q-72 -59 -72 -112q-32 -122 -32 -164v-12l28 -144q0 -100 60 -100l184 -64l16 -4l60 8q41 0 64 -84v-12q0 -62 -128 -72
l-120 -16q-69 16 -188 20q0 9 -60 12h-24q-28 0 -128 -36h-8q-28 0 -112 36q-112 20 -112 72v12q0 69 152 88q175 80 176 108q11 0 24 136q16 33 16 76l-8 152q12 50 12 100q-26 152 -72 152q-116 56 -204 56q-32 21 -32 44q0 49 104 56q33 0 96 16h20q172 0 208 -108v-72
q0 -56 44 -56q34 0 76 112q46 72 84 72l144 60h20z" />
    <glyph glyph-name="s" unicode="s" horiz-adv-x="1166" 
d="M892 538q26 -25 58 -84q28 -52 28 -94v-8q-24 -153 -76 -236q-33 -33 -148 -93q-12 -18 -68 -33q-65 16 -124 20l-144 -20l-152 49l-84 8l-112 -16q-68 13 -68 69l18 59q-20 54 -30 135v20q17 61 60 61h12l68 -69q48 -65 116 -102l168 -63l64 -13h16q57 0 186 49l77 56
q47 75 47 91q0 33 -48 126q-50 36 -108 36q-97 33 -126 33l-84 -4q-161 40 -272 40q-113 75 -124 111l-29 118l13 56q0 100 72 139q63 77 180 77q0 5 56 12q53 -12 160 -16q27 -15 156 -33q39 -20 60 -20h36q18 0 88 37h20q56 0 56 -98q-15 -54 -12 -88q43 -98 -1 -155
l-30 -5q-19 3 -36 21q-29 29 -36 47q-9 12 -22 22l-12 15q-25 43 -91 77q-49 49 -172 62q-57 20 -88 20h-16q-52 0 -194 -48q-52 -72 -58 -98q0 -26 24 -79q77 -88 328 -88l80 12l80 -8q52 0 127 -39l71 -42q11 -7 40 -26z" />
    <glyph glyph-name="t" unicode="t" horiz-adv-x="1145" 
d="M330 1246q-13 54 -22 94v16q21 62 80 86h8q39 -10 48 -70v-24q-7 -60 -5 -102q1 -76 26 -132q78 -46 187 -46q50 -16 84 -16l80 12q79 0 90 -56q0 -56 -78 -70h-20l-84 18h-12l-4 -4v4q-17 -8 -64 -8h-60q-132 20 -166 -144l28 -140l-28 -96l24 -108v-8l-8 -96v-28
q0 -94 65 -156l84 -61q93 -18 207 128q42 69 62 182t94 15l14 -86l-18 -96v-2q0 -137 -128 -208q-70 -30 -134 -44h-32l-140 20q-72 28 -140 100q-48 47 -80 188l24 104l-16 92v4l16 96l-12 80l20 80v20q0 126 -88 160l-68 12l-72 -4q-62 0 -92 44q35 72 96 72l56 -4
q90 -3 143 68z" />
    <glyph glyph-name="u" unicode="u" horiz-adv-x="1353" 
d="M10 1008q126 -25 156 -68q23 -32 28 -60l-4 -80l12 -80l-28 -136l12 -72v-28l-36 -88v-16l36 -108q10 -132 64 -132q97 -48 148 -48q71 0 220 136q36 59 104 140q44 99 44 132v48q32 105 32 192v12q0 68 -136 84q-124 8 -124 44q-11 0 -16 40q0 34 56 52l56 -8l4 4v-4
l88 20h92q98 0 116 -144v-8l-16 -140l20 -96l-12 -92l4 -92l-8 -100q0 -128 104 -176q114 -27 128 -52q12 -15 12 -36v-12q0 -69 -100 -84l-140 16l-60 16q-25 16 -36 40l-20 24q0 38 -56 44q-108 0 -172 -92q-43 -29 -184 -60h-4q-184 17 -184 48q-140 92 -140 240v12
l20 128l-32 124v12l20 104l-20 164q-10 32 -64 60q-59 32 -68 64v16q23 96 84 96z" />
    <glyph glyph-name="v" unicode="v" horiz-adv-x="1306" 
d="M1056 1068q64 -19 64 -64v-24q0 -43 -96 -66q-49 -1 -144 -286q-31 -60 -60 -160q-20 -28 -48 -152q-76 -134 -76 -164q-72 -152 -140 -152q-63 0 -108 160q0 68 -84 180l-12 60v52l4 4q0 40 -68 116q-16 30 -16 48q0 36 88 36q63 0 84 -88l-4 -36v-36q0 -36 104 -124
l20 -4h20q73 0 114 120q20 92 90 152l8 16v32q13 185 -16 202q0 13 -64 42l-12 44q24 56 124 56q72 36 228 36zM380 1056q116 -22 116 -72q-6 -27 -132 -80q-20 -19 -20 -44v-44l4 -36q0 -16 -56 -56h-20q-9 1 -88 96q-45 52 -136 52q-48 16 -48 88v12q0 76 48 76h4l60 -28
h4l88 28h104q52 0 72 8z" />
    <glyph glyph-name="w" unicode="w" horiz-adv-x="1375" 
d="M180 1032q64 -14 64 -60v-20l-48 -128v-32q20 -126 20 -180q38 -40 60 -160q33 -68 60 -96h8q27 6 60 92q0 38 104 344l4 28v16q0 23 -36 124q0 20 112 68l24 4q149 -23 160 -36q24 -16 24 -40q0 -13 -60 -92l-4 -24v-16q0 -25 44 -84q16 -25 36 -104l-8 -84
q7 -45 56 -96l12 -4q62 22 112 132l4 32v64l48 112q0 51 -68 100q-28 20 -28 44q0 43 56 84l44 8q92 0 120 -48q28 -57 28 -104q0 -36 -52 -112q-12 -118 -40 -180q-8 0 -20 -56l4 -72q0 -18 -48 -112l-8 -44h4l-4 -4v-52q0 -61 -56 -132q-30 -104 -88 -104h-8
q-69 0 -88 148q0 20 -32 120l20 64q0 44 -72 120q-7 159 -48 172l-32 8h-8q-72 -14 -72 -108q0 -41 -36 -152q0 -91 -48 -152q-24 -27 -40 -160q-35 -68 -76 -68h-12q-47 0 -68 76l-4 24v24l4 104q-39 64 -68 144q-20 22 -52 164v8l4 64q-52 106 -52 160q0 74 -76 164
q-16 14 -16 32q31 64 168 64z" />
    <glyph glyph-name="x" unicode="x" horiz-adv-x="1328" 
d="M981 1035q78 0 124 -64l8 -24q0 -30 -140 -72q-92 0 -148 -64q-39 -87 -148 -228l-12 -36v-32q0 -63 124 -258q63 -34 132 -100q50 -48 144 -48q72 -20 72 -68q-27 -58 -92 -58q0 -8 -32 -8l-144 20l-148 -4q-76 11 -76 52q0 22 68 84l8 36q0 56 -112 160q0 12 -64 16
q-83 0 -136 -124q-80 -46 -80 -52l-8 -24q0 -33 32 -88v-8q-46 -28 -92 -28l-64 4h-88q-156 18 -156 76q0 25 96 32l96 16l28 8h12l64 32h4q60 0 60 16l-20 88q64 65 140 180l16 40q-10 77 -100 176q-77 167 -128 208q0 45 -180 52q-47 10 -43 55l7 25q0 22 116 36
q21 0 124 -32l68 12q55 0 76 -28v-16l-40 -80v-8q0 -29 64 -116q74 -130 96 -136h24q57 0 116 92q104 76 104 112q0 33 -76 68q-24 24 -24 52q12 32 44 32l84 -8l144 32h56z" />
    <glyph glyph-name="y" unicode="y" horiz-adv-x="1288" 
d="M536 328q9 -24 32 -24q54 20 96 120q10 62 34 104q20 20 24 48l2 48q28 92 60 180q8 12 12 64q0 77 -76 112q-12 15 -12 28q0 32 100 48l121 11l175 -15q24 0 24 -28q-3 -18 -84 -60q-69 -57 -88 -120l-56 -100q-18 -104 -56 -160q-30 -34 -56 -124q-38 -104 -60 -172
l-7 -26q-16 -50 -53 -146q-24 -95 -84 -264q-13 -49 -88 -132q-49 -27 -96 -104q-38 -20 -176 -44h-8q-47 0 -184 52q-54 33 -92 172l-8 60v4q0 57 44 100q58 32 92 34h12q41 0 100 -74l8 -24v-32q-20 -77 -20 -108q0 -48 80 -48h4q95 0 121 71q47 58 79 125q24 34 24 184
q-66 184 -109 324q-30 45 -49 124q-48 84 -92 184q-66 192 -194 264l-20 20v4q0 52 116 52l122 4q18 0 88 -16h44q44 -8 44 -40v-4q0 -26 -92 -84l-16 -52v-4q10 -87 94 -200q17 -34 26 -59l6 -25l20 -104l49 -87z" />
    <glyph glyph-name="z" unicode="z" horiz-adv-x="1192" 
d="M812 1068q67 -3 148 -52q24 -25 24 -56q0 -44 -148 -184q-18 0 -112 -112q-85 -54 -112 -88q-30 -73 -156 -160q-28 -55 -112 -124q-28 -29 -28 -56v-16q0 -54 172 -76h36l128 16l68 -8q43 0 128 108q64 116 64 180q14 28 36 28h20q17 0 28 -40v-56l-4 -24q20 -60 20 -96
q0 -48 -52 -192q-62 -60 -160 -60q-169 32 -212 32h-4l-132 -16l-116 8l-116 -20q-163 12 -176 40q-44 31 -44 68q34 88 100 124q56 15 112 124l116 92q103 137 160 156q33 47 124 120q25 52 108 124l4 16v16q-18 60 -100 60l-88 -12q-81 24 -104 24q-40 0 -180 -72
q-84 -90 -84 -148v-72q0 -22 -20 -32h-12q-44 0 -48 108q20 229 32 256q55 52 128 52l88 -4q58 12 112 12h24q47 0 144 -16l192 28h4z" />
    <glyph glyph-name="braceleft" unicode="{" horiz-adv-x="499" 
d="M273 -143q-88 0 -225 389q-29 95 -43 533q0 457 228 851q35 24 55.5 27.5t38.5 -16.5t18 -40t-108 -242q-102 -424 -102 -548v-40q0 -210 138 -668q58 -130 58 -174v-16q0 -56 -58 -56z" />
    <glyph glyph-name="bar" unicode="|" horiz-adv-x="319" 
d="M26 -103q-19 118 -28 144q0 80 14 163q18 65 11 114q-25 101 -21 136q27 66 20 120q-14 71 -13 97q17 31 -17 121q15 57 8 106q-8 38 18 178q-27 110 -19 124q28 75 14 127q-6 175 23 210l13 14q37 44 63 -1q31 -47 24 -87q9 -95 0 -122l-9 -192q-18 -52 8 -158
q-17 -94 -12 -141l-6 -180q-22 -56 -1 -148q-2 -83 6 -129q-26 -88 -16 -115q31 -61 21 -102l-3 -140q17 -127 -9 -157q-32 -30 -51 -22t-38 40z" />
    <glyph glyph-name="braceright" unicode="}" horiz-adv-x="484" 
d="M73 1662q88 0 225 -389q29 -95 43 -533q0 -457 -228 -851q-35 -24 -55.5 -27.5t-38.5 16.5t-18 40t108 242q102 424 102 548v40q0 210 -138 668q-58 130 -58 174v16q0 56 58 56z" />
    <glyph glyph-name="asciitilde" unicode="~" horiz-adv-x="1116" 
d="M872 1601q-14 -20 -55 -36q-75 -73 -190 -83l-61 21q-133 143 -202 137l-63 -7q-41 -4 -146 -67q-64 -50 -112 -55l-36 30q-7 26 -1 60q48 75 112 96q89 73 121 76.5t76 9.5q88 -9 160 -66q70 -65 144 -93l91 27l76 68l90 40q64 -1 60 -73q-29 -72 -64 -85z" />
    <glyph glyph-name="exclamdown" unicode="&#xa1;" horiz-adv-x="632" 
d="M100 138v43l24 128l-4 65q20 101 24 194q32 66 35 194l17 143v5q36 212 97.5 177t65.5 -268l9 -199l-4 -65l40 -152l16 -170l-8 -104q0 -55 -84 -114l-57 -28l-61 6q-110 62 -110 145zM305 1505q115 -30 129 -107l-1 -75q-32 -101 -138 -116l-18 5q-148 27 -148 145v5
l5 29q33 106 138 114h33z" />
    <glyph glyph-name="cent" unicode="&#xa2;" horiz-adv-x="1184" 
d="M684 936q-79 56 -112 56h-20l-88 -44q-17 -12 -124 -36q-28 -3 -148 -120l-28 -116q-9 0 -24 -68v-40q-9 -144 -44 -160q-96 35 -96 92v24q0 50 32 160q0 85 80 156l72 116q127 120 196 120q113 -8 164 -20l84 16q31 -2 98 -32q31 -9 42.5 -14.5t38.5 24.5q20 13 98 83
q30 13 43 13h5q49 -10 60 -48v-15q0 -32 -82 -109q-37 -45 0 -92t41 -70q3 -24 1.5 -59t-54.5 -45t-81 31q-23 34 -42 50t-32 7t-33 -57q-32 -27 -77 -83q-65 -51 -82 -99l-90 -126q-29 -28 -71 -99q-76 -58 -89 -85.5t66 -58.5q0 -10 48 -20l80 8l68 -4q111 0 200 140
q96 72 136 72h4q98 -15 88 -76q0 -66 -232 -240q-26 -22 -156 -68h-8l-84 12l-112 -8h-12l-16 -4q-42 0 -120 52q-39 15 -65 31q-18 -23 -58 -64q-18 -30 -71 -43l-34 -5q-28 0 -28 45l-20 26q1 36 102 149q7 5 13 12q-18 26 -43 61l-4 24v12q0 44 44 76h16q39 -25 56 -41
t62 20q60 104 87 126q32 29 54 74q73 45 79 73q13 17 62 58q35 33 54 89q17 25 90 80q28 26 31.5 50t-15.5 31z" />
    <glyph glyph-name="section" unicode="&#xa7;" horiz-adv-x="994" 
d="M434 1848q35 0 200 -68q53 -34 76 -128l4 -32q-36 -132 -100 -132h-16q-81 0 -100 116q0 99 -72 132h-32q-48 0 -104 -104q-28 -66 -28 -192q0 -43 72 -92l40 -108q27 -19 60 -100q72 -38 92 -96q27 -27 96 -64q44 -52 44 -104q21 -60 56 -60q80 -53 80 -108q8 0 20 -64
l-4 -64l4 -68q0 -74 -100 -164q-52 -91 -52 -192l40 -144l-8 -68v-44q0 -71 -76 -152q-50 -22 -116 -76q-19 -11 -52 -16q-132 4 -132 24q-37 40 -120 56q-93 35 -132 112l-4 28v8q0 86 124 136l32 8h12q60 -2 176 -108l36 -8q42 0 60 64v12q0 16 -44 112q0 89 -112 236
q-43 23 -104 128q-119 111 -132 172q-22 44 -80 112q-40 44 -40 184l-4 28l-4 32h-4q0 61 88 100q16 10 48 112q68 83 72 120q0 13 -48 104l-8 32l8 76l-4 64q0 74 92 160q51 88 144 88h56zM90 920v-12q0 -95 136 -216q36 -72 160 -152l120 -120l36 -12q88 0 144 120l16 96
q0 45 -64 160q-72 62 -84 120q-19 57 -88 92q-48 13 -48 116q0 24 -104 44h-36q-48 -17 -120 -64q-68 -21 -68 -172z" />
    <glyph glyph-name="dieresis" unicode="&#xa8;" horiz-adv-x="1238" 
d="M190 1537h8q39 0 84 -80q52 -51 56 -84q0 -57 -112 -132l-28 -4h-20q-176 38 -176 152v4q0 72 112 92l4 -4h4l-4 -28v-24q11 -44 44 -44q68 18 68 68q0 35 -72 48l-4 4v8q12 24 36 24zM902 1513q136 -52 136 -142v-16q-45 -126 -168 -126h-6q-84 0 -130 169
q34 78 141 115h27z" />
    <glyph glyph-name="copyright" unicode="&#xa9;" horiz-adv-x="1342" 
d="M575 1441q368 0 549 -325q22 -81 22 -256v-14q0 -167 -163 -339q-243 -159 -408 -159q-207 0 -370 125q-76 0 -193 249l-22 117v21q0 418 371 546q34 21 214 35zM123 998q0 -253 45 -304q150 -235 326 -235h104q113 0 222 103q207 121 207 346q0 201 -185 346
q0 65 -259 97q-241 -34 -356 -124q-104 -126 -104 -229zM598 1240q167 0 237 -131l7 -42v-34q-32 -55 -81 -55q-54 0 -97 124q-44 42 -96 42h-22q-148 0 -185 -208q44 -221 125 -221q0 -14 38 -14h81q89 0 178 76h37l22 -21v-28q0 -113 -274 -159h-22q-213 0 -289 298v21
q0 251 222 339z" />
    <glyph glyph-name="macron" unicode="&#xaf;" horiz-adv-x="1037" 
d="M180 1587l88 -9h6l81 9h6q19 0 91 -23h3q22 0 91 23h13l97 -23l29 -3q34 0 120 17q149 -12 149 -34q12 0 26 -43q-24 -92 -84 -92l-36 2l-65 -5l-87 3l-155 -12h-26l-111 9h-48l-130 -6l-152 3h-13q-145 -7 -159 48q-34 56 26 101l49 16l159 19h32z" />
    <glyph glyph-name="plusminus" unicode="&#xb1;" horiz-adv-x="1274" 
d="M517 1446q45 0 76 -72l4 -20l-4 -96q0 -33 32 -92l4 -32v-44q28 -88 172 -88h48l92 20q182 14 164 -72v-8q0 -46 -112 -64q-108 0 -176 -40q-116 -16 -116 -44q-44 -25 -44 -84l4 -16q-32 -54 -32 -108q5 -37 44 -88v-12q0 -51 -104 -84h-8q-72 0 -104 116q0 230 -36 272
q-96 56 -156 56l-172 -20q-85 0 -96 56q25 84 56 84q26 12 296 56q100 34 100 156l4 32l-8 88q12 148 72 148zM837 298q87 -11 188 -16q65 -17 65 -55q6 -86 -52 -93l-84 -11l-87 -5l-44 3l-204 -9l-160 -5l-117 14l-9 2l-51 -5l-47 7l-62 -2l-55 7l-47 4q-27 14 -45 49
l-5 18q-7 60 51 90l30 10h5l60 -14l14 -2l65 13l85 -14h16l73 13h9l35 -4q57 10 131 10l16 3q81 0 139 -11h19l62 3h6z" />
    <glyph glyph-name="acute" unicode="&#xb4;" horiz-adv-x="596" 
d="M418 1569h13q89 -15 89 -99q-28 -87 -102 -134l-233 -84q-115 -51 -144 -51h-4q-34 2 -34 32q16 50 110 130q137 162 202 172q79 34 103 34z" />
    <glyph glyph-name="periodcentered" unicode="&#xb7;" horiz-adv-x="653" 
d="M251 927h8q100 0 160 -136q32 -37 32 -68v-20q-11 -70 -64 -124q-115 -80 -136 -80h-20q-115 27 -152 56q-80 93 -80 160v4q0 88 92 156q17 37 160 52z" />
    <glyph glyph-name="periodcentered" unicode="&#x2219;" horiz-adv-x="653" 
d="M251 927h8q100 0 160 -136q32 -37 32 -68v-20q-11 -70 -64 -124q-115 -80 -136 -80h-20q-115 27 -152 56q-80 93 -80 160v4q0 88 92 156q17 37 160 52z" />
    <glyph glyph-name="cedilla" unicode="&#xb8;" horiz-adv-x="768" 
d="M456 34v-17q0 -41 56 -88q52 -84 52 -120v-56q0 -70 -52 -96q-48 -60 -88 -60l-52 4l-116 -32q-86 0 -224 128q-28 34 -28 56q16 48 72 48q35 0 132 -52l52 -12q92 12 92 72v4q0 46 -108 100q-29 33 -56 104q-9 9 -20 17h288z" />
    <glyph glyph-name="onequarter" unicode="&#xbc;" horiz-adv-x="1550" 
d="M690 1846h8q56 -8 56 -100l20 -148l-16 -116v-8l16 -108v-24l-16 -72v-28q24 -168 68 -168q43 -36 108 -36h60q68 -12 68 -44q0 -36 -96 -56h-20q-77 0 -252 -16l-112 16l-76 -8q-148 0 -148 28q-10 0 -16 32q0 56 112 56l36 4h60q93 0 112 160q8 0 8 48h4l-12 92l8 96
q0 99 -80 156l-56 12h-40l-92 -16q-32 10 -32 36q0 21 68 56q22 50 152 100q80 56 100 56zM488 862q123 -40 160 -40l84 8l112 -20l80 20h12l76 -16h8l172 20l136 -27l48 -31l5 -21l-7 -19q-26 -22 -126 -10l-88 -8l-52 8q-31 0 -184 -24h-8l-72 24l-88 -32h-4l-64 12h-44
q-72 0 -216 20l-80 -8l-64 4l-72 -4l-112 4l-36 -4q-45 0 -76 48v16q0 17 60 28l56 -8q105 36 136 36h36l120 -20zM731 623q20 0 54 -63q4 0 8 -127l-6 -57l11 -79l-8 -57v-8l16 -57v-18l-19 -65q14 -106 49 -120q0 -6 37 -13l30 2h13q46 -11 46 -54q0 -42 -91 -47
q-57 -5 -57 -52l6 -91q-16 -99 -46 -99l-8 -3h-3q-42 0 -48 52l-11 57l11 55v16q0 40 -94 80q-102 3 -210 19l-75 -13q-37 0 -43 52v39q0 27 70 109q54 32 54 60q0 56 64 133q14 0 27 76q17 26 59 41q18 15 27 63q0 50 86 135q34 34 51 34zM438 11q0 -26 137 -50l110 21
q33 17 33 60q4 0 10 50l-21 67v16q19 53 19 68l-25 86q-4 9 -8 57l-8 10l-2 3h-8q-62 -24 -62 -55q-11 -28 -41 -70q-29 -30 -29 -68q-5 -20 -40 -54l-38 -79q-27 -36 -27 -62z" />
    <glyph glyph-name="onehalf" unicode="&#xbd;" horiz-adv-x="1529" 
d="M690 1846h8q56 -8 56 -100l20 -148l-16 -116v-8l16 -108v-24l-16 -72v-28q24 -168 68 -168q43 -36 108 -36h60q68 -12 68 -44q0 -36 -96 -56h-20q-77 0 -252 -16l-112 16l-76 -8q-148 0 -148 28q-10 0 -16 32q0 56 112 56l36 4h60q93 0 112 160q8 0 8 48h4l-12 92l8 96
q0 99 -80 156l-56 12h-40l-92 -16q-32 10 -32 36q0 21 68 56q22 50 152 100q80 56 100 56zM488 862q123 -40 160 -40l84 8l112 -20l80 20h12l76 -16h8l172 20l136 -27l48 -31l5 -21l-7 -19q-26 -22 -126 -10l-88 -8l-52 8q-31 0 -184 -24h-8l-72 24l-88 -32h-4l-64 12h-44
q-72 0 -216 20l-80 -8l-64 4l-72 -4l-112 4l-36 -4q-45 0 -76 48v16q0 17 60 28l56 -8q105 36 136 36h36l120 -20zM764 634l64 -16h12l68 12h8l108 -64q48 -69 48 -148l-12 -88l4 -44q0 -64 -148 -140q0 -7 -28 -12l-88 4q-128 -72 -240 -108q-20 -20 -28 -52q0 -51 76 -60
l132 12q31 0 100 -48l24 -4h12q43 0 160 96l16 4h8q32 0 32 -60v-20q0 -70 -60 -100q-114 -60 -136 -60h-56q-35 0 -116 60l-36 8l-52 -8h-8q-18 0 -80 52l-28 4q-56 0 -140 -88l-40 -8q-52 0 -52 104q0 40 52 100q38 90 108 160q95 52 220 52q64 0 160 52q35 52 108 52
q68 27 68 72q0 64 -96 116q-60 60 -96 60h-20l-216 -36q-76 0 -76 -48q-4 -122 -32 -132q0 -19 -76 -36q-60 0 -80 72l4 36v20l4 4v4h-4l4 4v8l-4 16q13 72 40 72q4 8 92 44q32 40 120 68l36 4l92 -8z" />
    <glyph glyph-name="questiondown" unicode="&#xbf;" horiz-adv-x="1102" 
d="M206 46l-128 72q-68 63 -92 132q-12 76 24 180q46 68 124 68h4q107 0 124 -108l-12 -48q-52 -60 -52 -72q0 -82 180 -140l156 -4q185 74 192 96q8 0 96 132l20 72q0 23 -12 40v24l20 4q32 0 53 -65.5t11 -162.5q-8 -56 -72 -140l-188 -120q0 -22 -264 -24q-47 0 -184 64z
M433 1184q-113 38 -132 141q34 152 165 152q165 0 165 -137l-5 -19q-28 -103 -165 -137h-28zM550 782q60 -56 60 -92v-12q-40 -12 -68 -12q-70 0 -124 72q-17 0 -28 138q-1 12 -1 23l-3 3l2 8q0 36 8 66l13 74q11 45 54 40q23 -8 26 -16q34 -40 32 -142q0 -33 6.5 -83.5
t22.5 -66.5zM702 538q-64 40 -64 80v4q8 20 28 20h8q51 0 104 -40q40 -42 40 -92l-8 -8v-8l-36 -8q-34 0 -72 52z" />
    <glyph glyph-name="Agrave" unicode="&#xc0;" horiz-adv-x="1500" 
d="M640 1380h14q8 0 68 -31q51 -146 51 -168l5 -16l31 -53q0 -18 51 -158l14 -81l19 -24v-33q23 -59 56 -121l14 -49l5 -65q0 -30 61 -138l4 -36l24 -65q0 -110 117 -278l124 -44q33 -18 33 -31q0 -54 -96 -77l-33 -4l-122 8l-126 -4q-94 24 -124 56q-21 42 75 79
q65 23 79 130q-51 161 -86 170l-305 -7q-199 18 -237 -82q-31 -30 -35 -103l-9 -51q47 -61 150 -97q34 -22 24.5 -52.5t-62.5 -30.5l-206 -4q-58 -12 -103 -12q-84 0 -117 73v11q25 39 139 66q91 109 91 166l14 81v17q0 13 46 97q15 48 19 113q38 56 52 98v4l-5 44
q0 38 53 98l-1 43l21 50l33 86q30 191 67 247q32 22 57 133q28 45 56 45zM505 723q-32 -55 -52 -157l8 -67q21 -32 78 -37h25q127 -7 167 -7q47 0 115 18q33 15 34 80v8q-27 50 -60 137q-5 106 -10 106l-33 49l-9 78q-69 156 -102 148l-11 -7l-13 -24q-72 -61 -93 -133
q17 -41 -49 -136zM380 1804q65 -10 202 -172q94 -80 110 -130q0 -30 -34 -32h-4q-29 0 -144 51l-233 84q-74 47 -102 134q0 84 89 99h13q24 0 103 -34z" />
    <glyph glyph-name="Aacute" unicode="&#xc1;" horiz-adv-x="1504" 
d="M640 1380h14q8 0 68 -31q51 -146 51 -168l5 -16l31 -53q0 -18 51 -158l14 -81l19 -24v-33q23 -59 56 -121l14 -49l5 -65q0 -30 61 -138l4 -36l24 -65q0 -110 117 -278l124 -44q33 -18 33 -31q0 -54 -96 -77l-33 -4l-122 8l-126 -4q-94 24 -124 56q-21 42 75 79
q65 23 79 130q-51 161 -86 170l-305 -7q-199 18 -237 -82q-31 -30 -35 -103l-9 -51q47 -61 150 -97q34 -22 24.5 -52.5t-62.5 -30.5l-206 -4q-58 -12 -103 -12q-84 0 -117 73v11q25 39 139 66q91 109 91 166l14 81v17q0 13 46 97q15 48 19 113q38 56 52 98v4l-5 44
q0 38 53 98l-1 43l21 50l33 86q30 191 67 247q32 22 57 133q28 45 56 45zM505 723q-32 -55 -52 -157l8 -67q21 -32 78 -37h25q127 -7 167 -7q47 0 115 18q33 15 34 80v8q-27 50 -60 137q-5 106 -10 106l-33 49l-9 78q-69 156 -102 148l-11 -7l-13 -24q-72 -61 -93 -133
q17 -41 -49 -136zM1064 1838h13q89 -15 89 -99q-28 -87 -102 -134l-233 -84q-115 -51 -144 -51h-4q-34 2 -34 32q16 50 110 130q137 162 202 172q79 34 103 34z" />
    <glyph glyph-name="Acircumflex" unicode="&#xc2;" horiz-adv-x="1500" 
d="M640 1410h14q8 0 68 -31q51 -146 51 -168l5 -16l31 -53q0 -18 51 -158l14 -81l19 -24v-33q23 -59 56 -121l14 -49l5 -65q0 -30 61 -138l4 -36l24 -65q0 -110 117 -278l124 -44q33 -18 33 -31q0 -54 -96 -77l-33 -4l-122 8l-126 -4q-94 24 -124 56q-21 42 75 79
q65 23 79 130q-51 161 -86 170l-305 -7q-199 18 -237 -82q-31 -30 -35 -103l-9 -51q47 -61 150 -97q34 -22 24.5 -52.5t-62.5 -30.5l-206 -4q-58 -12 -103 -12q-84 0 -117 73v11q25 39 139 66q91 109 91 166l14 81v17q0 13 46 97q15 48 19 113q38 56 52 98v4l-5 44
q0 38 53 98l-1 43l21 50l33 86q30 191 67 247q32 22 57 133q28 45 56 45zM505 753q-32 -55 -52 -157l8 -67q21 -32 78 -37h25q127 -7 167 -7q47 0 115 18q33 15 34 80v8q-27 50 -60 137q-5 106 -10 106l-33 49l-9 78q-69 156 -102 148l-11 -7l-13 -24q-72 -61 -93 -133
q17 -41 -49 -136zM404 1505q-68 -12 -68 40q22 67 203 188q58 51 110 57h10q39 0 129 -66q36 -14 153 -118q45 -35 45 -61q-10 -22 -20 -24h-25q-117 32 -188 71l-82 18q-87 -29 -199 -85z" />
    <glyph glyph-name="Adieresis" unicode="&#xc4;" horiz-adv-x="1496" 
d="M640 1410h14q8 0 68 -31q51 -146 51 -168l5 -16l31 -53q0 -18 51 -158l14 -81l19 -24v-33q23 -59 56 -121l14 -49l5 -65q0 -30 61 -138l4 -36l24 -65q0 -110 117 -278l124 -44q33 -18 33 -31q0 -54 -96 -77l-33 -4l-122 8l-126 -4q-94 24 -124 56q-21 42 75 79
q65 23 79 130q-51 161 -86 170l-305 -7q-199 18 -237 -82q-31 -30 -35 -103l-9 -51q47 -61 150 -97q34 -22 24.5 -52.5t-62.5 -30.5l-206 -4q-58 -12 -103 -12q-84 0 -117 73v11q25 39 139 66q91 109 91 166l14 81v17q0 13 46 97q15 48 19 113q38 56 52 98v4l-5 44
q0 38 53 98l-1 43l21 50l33 86q30 191 67 247q32 22 57 133q28 45 56 45zM505 753q-32 -55 -52 -157l8 -67q21 -32 78 -37h25q127 -7 167 -7q47 0 115 18q33 15 34 80v8q-27 50 -60 137q-5 106 -10 106l-33 49l-9 78q-69 156 -102 148l-11 -7l-13 -24q-72 -61 -93 -133
q17 -41 -49 -136zM326 1842h8q39 0 84 -80q52 -51 56 -84q0 -57 -112 -132l-28 -4h-20q-176 38 -176 152v4q0 72 112 92l4 -4h4l-4 -28v-24q11 -44 44 -44q68 18 68 68q0 35 -72 48l-4 4v8q12 24 36 24zM1038 1818q136 -52 136 -142v-16q-45 -126 -168 -126h-6
q-84 0 -130 169q34 78 141 115h27z" />
    <glyph glyph-name="Aring" unicode="&#xc5;" horiz-adv-x="1504" 
d="M505 763q-32 -55 -52 -157l8 -67q21 -32 78 -37h25q127 -7 167 -7q47 0 115 18q33 15 34 80v8q-27 50 -60 137q-5 106 -10 106l-33 49l-9 78q-69 156 -102 148l-11 -7l-13 -24q-72 -61 -93 -133q17 -41 -49 -136zM535 1593q49 -120 147 -120q122 0 122 120q0 87 -106 110
h-32q-100 0 -131 -110zM732 1360q41 -119 41 -139l5 -16l31 -53q0 -18 51 -158l14 -81l19 -24v-33q23 -59 56 -121l14 -49l5 -65q0 -30 61 -138l4 -36l24 -65q0 -110 117 -278l124 -44q33 -18 33 -31q0 -54 -96 -77l-33 -4l-122 8l-126 -4q-94 24 -124 56q-21 42 75 79
q65 23 79 130q-51 161 -86 170l-305 -7q-199 18 -237 -82q-31 -30 -35 -103l-9 -51q47 -61 150 -97q34 -22 24.5 -52.5t-62.5 -30.5l-206 -4q-58 -12 -103 -12q-84 0 -117 73v11q25 39 139 66q91 109 91 166l14 81v17q0 13 46 97q15 48 19 113q38 56 52 98v4l-5 44
q0 38 53 98l-1 43l21 50l33 86q30 191 67 247q30 21 54 119q-49 34 -125 111q-16 29 -36 174q0 66 92 127q118 31 148 31h5q230 -32 230 -87q13 0 26 -97v-112q0 -106 -143 -123q-24 -14 -46 -25z" />
    <glyph glyph-name="AE" unicode="&#xc6;" horiz-adv-x="1802" 
d="M1053 -39h-15q-44 7 -118 10.5t-73 79.5q18 74 23 96t10 150q18 118 -50 149l-61 -4l-100 27l-149 -24q-71 -10 -72 -57q-80 -78 -123 -158l-53 -117q89 -41 125 -88q28 -29 12 -56.5t-68 -16.5l-202 3q-59 1 -103 11q-82 -1 -97 78l2 11q77 39 150 53q59 111 167 231
l31 76l4 16q35 27 67 84q25 44 44 106q49 46 72 84l1 4l5 44q9 37 74 83l9 43l31 44l52 76q72 179 121 226q36 14 85 116q37 27 63 22l117 16q169 2 338 6l98 -13q98 -13 105 -32t17 -95l-4 -24q2 -91 2 -126l-8 -30v-4l6 -44q-6 -24 -36 -24q-48 0 -49 93l-38 135
q-89 28 -137 28h-16l-76 -8h-12l-44 8q-144 24 -139 -68l-24 -68l-1 -31v-16l-8 -150l-9 -36q-28 -50 -77 -32l-13 17q-9 31 -9 90l4 114v36q-4 63 -41 36l-44 -38q-57 -98 -82 -159q-4 -48 -90 -126l-7 -55q-44 -47 -77 -139q-18 -42 18.5 -52.5t102.5 -2.5l99 -19l38 7
q71 -14 83 88l4 116q14 56 58 60h4q133 -57 144 -51.5t34 71.5l28 68l20 12q44 0 64 -128l24 -112q-28 -81 -28 -104l16 -88q-17 -60 -56 -60q-45 0 -72 124q-14 59 -8 84l-46 44q-84 -54 -84 -112v-4l8 -76q0 -108 -16 -208l4 -36l-8 -76q0 -39 99 -91q31 -9 80 -15l84 16
h60q52 0 149 52q40 77 55 134l6 32q0 70 34 70q43 -11 54 -74v-28l-2 -54l4 -80q-14 -148 -100 -148q-52 0 -168 -32h-4l-132 24h-36q-104 -15 -124 -14z" />
    <glyph glyph-name="Ccedilla" unicode="&#xc7;" horiz-adv-x="1227" 
d="M403 34h-1q-76 60 -84 60q-62 8 -120 72q-50 64 -60 104v24l4 28q-96 79 -96 148q-8 136 -32 136q-24 43 -24 64l24 100l-12 88v4q0 58 40 188q0 75 80 180q38 114 92 140q111 72 152 72q74 52 176 52q20 8 72 8h16q29 0 104 -56q60 -28 96 -28h28l88 32q60 -11 60 -52
l-16 -80l12 -92l-4 -52q0 -66 48 -236q-16 -80 -64 -80q-44 0 -128 176q-26 0 -56 144l-116 156q-110 60 -136 60h-4q-29 0 -104 -60q-98 -20 -136 -72l-60 -72q-41 -87 -76 -124q-31 -24 -44 -120l-40 -148h4l-4 -4v-4l12 -80v-68l-4 -4q0 -47 76 -128q20 -48 28 -108
l-4 -44q0 -10 60 -40q66 -67 108 -80q24 -25 35 -61l10 -2q16 -24 40 -24h16q82 -23 191 9l101 59q79 78 129 165q26 44 48 108q19 70 78 70h4q36 0 36 -32v-8l-13 -76q-11 -124 -107 -248q-22 -75 -200 -156l-21 -11l-14 -20q-9 -30 47 -77q52 -84 52 -120v-56
q0 -70 -52 -96q-48 -60 -88 -60l-52 4l-116 -32q-86 0 -224 128q-28 34 -28 56q16 48 72 48q35 0 132 -52l52 -12q92 12 92 72v4q0 46 -108 100q-24 27 -60 108q-4 4 -7 8z" />
    <glyph glyph-name="Egrave" unicode="&#xc8;" 
d="M898 1339q196 -26 196 -64q14 0 24 -76l-4 -24q32 -141 32 -176l-8 -60v-4l16 -84q-6 -24 -28 -24h-8q-48 0 -48 104l-72 176q-96 96 -144 96h-16l-76 -8h-12l-44 8h-96l-148 24h-4q-86 0 -102 -135l-3 -25l-1 -31v-16l-8 -150l-9 -36q-28 -50 -47 -32l-13 17
q-9 31 -9 90l4 114v36q0 137 -52 140q-16 8 -68 12l-99 -6q-55 18 -55 46q0 42 174 64q0 8 80 16l120 -20l104 16l72 -4h16l36 4l40 -4h12zM430 -87q-19 1 -41 2h-15q-51 8 -212 16q-156 0 -156 52t128 72q79 23 100 68q7 0 20 52l-8 76l28 180l-4 168l4 116q14 56 28 60h4
q150 -64 164 -64h4q176 16 200 84l28 68l20 12q44 0 64 -128l24 -112q-28 -81 -28 -104l16 -88q-17 -60 -56 -60q-45 0 -72 124q-54 84 -148 84l-96 44q-84 -54 -84 -112v-4l8 -76q0 -108 -16 -208l4 -36l-8 -76q0 -39 99 -91q31 -9 58 -14l212 -1l84 16h60q52 0 88 52
q101 77 116 172v12l-4 32q10 100 32 100h12q35 -25 64 -104v-28l-12 -96v-8l4 -80q-14 -148 -100 -148q-52 0 -168 -32h-4l-132 24h-36l-108 -24l-120 8l-21 -4zM355 1798q65 -10 202 -172q94 -80 110 -130q0 -30 -34 -32h-4q-29 0 -144 51l-233 84q-74 47 -102 134
q0 84 89 99h13q24 0 103 -34z" />
    <glyph glyph-name="Eacute" unicode="&#xc9;" 
d="M898 1339q196 -26 196 -64q14 0 24 -76l-4 -24q32 -141 32 -176l-8 -60v-4l16 -84q-6 -24 -28 -24h-8q-48 0 -48 104l-72 176q-96 96 -144 96h-16l-76 -8h-12l-44 8h-96l-148 24h-4q-86 0 -102 -135l-3 -25l-1 -31v-16l-8 -150l-9 -36q-28 -50 -47 -32l-13 17
q-9 31 -9 90l4 114v36q0 137 -52 140q-16 8 -68 12l-99 -6q-55 18 -55 46q0 42 174 64q0 8 80 16l120 -20l104 16l72 -4h16l36 4l40 -4h12zM430 -87q-19 1 -41 2h-15q-51 8 -212 16q-156 0 -156 52t128 72q79 23 100 68q7 0 20 52l-8 76l28 180l-4 168l4 116q14 56 28 60h4
q150 -64 164 -64h4q176 16 200 84l28 68l20 12q44 0 64 -128l24 -112q-28 -81 -28 -104l16 -88q-17 -60 -56 -60q-45 0 -72 124q-54 84 -148 84l-96 44q-84 -54 -84 -112v-4l8 -76q0 -108 -16 -208l4 -36l-8 -76q0 -39 99 -91q31 -9 58 -14l212 -1l84 16h60q52 0 88 52
q101 77 116 172v12l-4 32q10 100 32 100h12q35 -25 64 -104v-28l-12 -96v-8l4 -80q-14 -148 -100 -148q-52 0 -168 -32h-4l-132 24h-36l-108 -24l-120 8l-21 -4zM1071 1824h13q89 -15 89 -99q-28 -87 -102 -134l-233 -84q-115 -51 -144 -51h-4q-34 2 -34 32q16 50 110 130
q137 162 202 172q79 34 103 34z" />
    <glyph glyph-name="Ecircumflex" unicode="&#xca;" 
d="M898 1379q196 -26 196 -64q14 0 24 -76l-4 -24q32 -141 32 -176l-8 -60v-4l16 -84q-6 -24 -28 -24h-8q-48 0 -48 104l-72 176q-96 96 -144 96h-16l-76 -8h-12l-44 8h-96l-148 24h-4q-86 0 -102 -135l-3 -25l-1 -31v-16l-8 -150l-9 -36q-28 -50 -47 -32l-13 17
q-9 31 -9 90l4 114v36q0 137 -52 140q-16 8 -68 12l-99 -6q-55 18 -55 46q0 42 174 64q0 8 80 16l120 -20l104 16l72 -4h16l36 4l40 -4h12zM430 -47q-19 1 -41 2h-15q-51 8 -212 16q-156 0 -156 52t128 72q79 23 100 68q7 0 20 52l-8 76l28 180l-4 168l4 116q14 56 28 60h4
q150 -64 164 -64h4q176 16 200 84l28 68l20 12q44 0 64 -128l24 -112q-28 -81 -28 -104l16 -88q-17 -60 -56 -60q-45 0 -72 124q-54 84 -148 84l-96 44q-84 -54 -84 -112v-4l8 -76q0 -108 -16 -208l4 -36l-8 -76q0 -39 99 -91q31 -9 58 -14l212 -1l84 16h60q52 0 88 52
q101 77 116 172v12l-4 32q10 100 32 100h12q35 -25 64 -104v-28l-12 -96v-8l4 -80q-14 -148 -100 -148q-52 0 -168 -32h-4l-132 24h-36l-108 -24l-120 8l-21 -4zM383 1513q-68 -12 -68 40q22 67 203 188q58 51 110 57h10q39 0 129 -66q36 -14 153 -118q45 -35 45 -61
q-10 -22 -20 -24h-25q-117 32 -188 71l-82 18q-87 -29 -199 -85z" />
    <glyph glyph-name="Edieresis" unicode="&#xcb;" 
d="M898 1379q196 -26 196 -64q14 0 24 -76l-4 -24q32 -141 32 -176l-8 -60v-4l16 -84q-6 -24 -28 -24h-8q-48 0 -48 104l-72 176q-96 96 -144 96h-16l-76 -8h-12l-44 8h-96l-148 24h-4q-86 0 -102 -135l-3 -25l-1 -31v-16l-8 -150l-9 -36q-28 -50 -47 -32l-13 17
q-9 31 -9 90l4 114v36q0 137 -52 140q-16 8 -68 12l-99 -6q-55 18 -55 46q0 42 174 64q0 8 80 16l120 -20l104 16l72 -4h16l36 4l40 -4h12zM430 -47q-19 1 -41 2h-15q-51 8 -212 16q-156 0 -156 52t128 72q79 23 100 68q7 0 20 52l-8 76l28 180l-4 168l4 116q14 56 28 60h4
q150 -64 164 -64h4q176 16 200 84l28 68l20 12q44 0 64 -128l24 -112q-28 -81 -28 -104l16 -88q-17 -60 -56 -60q-45 0 -72 124q-54 84 -148 84l-96 44q-84 -54 -84 -112v-4l8 -76q0 -108 -16 -208l4 -36l-8 -76q0 -39 99 -91q31 -9 58 -14l212 -1l84 16h60q52 0 88 52
q101 77 116 172v12l-4 32q10 100 32 100h12q35 -25 64 -104v-28l-12 -96v-8l4 -80q-14 -148 -100 -148q-52 0 -168 -32h-4l-132 24h-36l-108 -24l-120 8l-21 -4zM310 1826h8q39 0 84 -80q52 -51 56 -84q0 -57 -112 -132l-28 -4h-20q-176 38 -176 152v4q0 72 112 92l4 -4h4
l-4 -28v-24q11 -44 44 -44q68 18 68 68q0 35 -72 48l-4 4v8q12 24 36 24zM1022 1802q136 -52 136 -142v-16q-45 -126 -168 -126h-6q-84 0 -130 169q34 78 141 115h27z" />
    <glyph glyph-name="Igrave" unicode="&#xcc;" horiz-adv-x="1130" 
d="M155 1363q118 -32 152 -32l124 36h24l100 -32l80 24h12l76 -36l68 21l104 -17q36 -12 36 -40q0 -25 -80 -64l-20 -4h-68l-116 -24q-98 0 -116 -64v-24l24 -108v-4l-32 -88v-32l16 -128l-8 -108q16 -72 16 -140v-52l12 -108v-172q0 -86 144 -108h20l40 -10l56 -8
q77 -14 131 -56v-4q7 -73 -151 -62l-40 4q-179 -4 -264 -16l-136 12l-120 -2q-258 -20 -258 54v12q36 47 152 72l80 14l82 10q118 0 144 200l-16 108v16l16 104v32l4 100q-24 108 -24 156v12l16 120l-28 104l12 88v24q0 55 -88 66h-8l-108 2q-200 0 -212 84q0 19 144 68h8z
M146 1811q65 -10 202 -172q94 -80 110 -130q0 -30 -34 -32h-4q-29 0 -144 51l-233 84q-74 47 -102 134q0 84 89 99h13q24 0 103 -34z" />
    <glyph glyph-name="Iacute" unicode="&#xcd;" horiz-adv-x="1130" 
d="M155 1363q118 -32 152 -32l124 36h24l100 -32l80 24h12l76 -36l68 21l104 -17q36 -12 36 -40q0 -25 -80 -64l-20 -4h-68l-116 -24q-98 0 -116 -64v-24l24 -108v-4l-32 -88v-32l16 -128l-8 -108q16 -72 16 -140v-52l12 -108v-172q0 -86 144 -108h20l40 -10l56 -8
q77 -14 131 -56v-4q7 -73 -151 -62l-40 4q-179 -4 -264 -16l-136 12l-120 -2q-258 -20 -258 54v12q36 47 152 72l80 14l82 10q118 0 144 200l-16 108v16l16 104v32l4 100q-24 108 -24 156v12l16 120l-28 104l12 88v24q0 55 -88 66h-8l-108 2q-200 0 -212 84q0 19 144 68h8z
M866 1841h13q89 -15 89 -99q-28 -87 -102 -134l-233 -84q-115 -51 -144 -51h-4q-34 2 -34 32q16 50 110 130q137 162 202 172q79 34 103 34z" />
    <glyph glyph-name="Idieresis" unicode="&#xcf;" horiz-adv-x="1130" 
d="M155 1383q118 -32 152 -32l124 36h24l100 -32l80 24h12l76 -36l68 21l104 -17q36 -12 36 -40q0 -25 -80 -64l-20 -4h-68l-116 -24q-98 0 -116 -64v-24l24 -108v-4l-32 -88v-32l16 -128l-8 -108q16 -72 16 -140v-52l12 -108v-172q0 -86 144 -108h20l40 -10l56 -8
q77 -14 131 -56v-4q7 -73 -151 -62l-40 4q-179 -4 -264 -16l-136 12l-120 -2q-258 -20 -258 54v12q36 47 152 72l80 14l82 10q118 0 144 200l-16 108v16l16 104v32l4 100q-24 108 -24 156v12l16 120l-28 104l12 88v24q0 55 -88 66h-8l-108 2q-200 0 -212 84q0 19 144 68h8z
M135 1816h8q39 0 84 -80q52 -51 56 -84q0 -57 -112 -132l-28 -4h-20q-176 38 -176 152v4q0 72 112 92l4 -4h4l-4 -28v-24q11 -44 44 -44q68 18 68 68q0 35 -72 48l-4 4v8q12 24 36 24zM847 1792q136 -52 136 -142v-16q-45 -126 -168 -126h-6q-84 0 -130 169q34 78 141 115
h27z" />
    <glyph glyph-name="Ntilde" unicode="&#xd1;" horiz-adv-x="1409" 
d="M241 402q-9 62 -13 177l4 104q-24 92 -32 160l16 108v8q-24 146 -24 200q-15 58 -140 80q-52 31 -52 60q0 33 100 64q8 10 52 12h8q33 0 84 -20l12 -4q61 4 92 0q47 -4 96 -72q0 -18 80 -100l4 -20v-36q0 -39 64 -112q0 -87 64 -204q0 -53 116 -296l4 -32v-4l24 -38
q32 -46 105 -161q28 4 15 203q-6 88 -12 88q2 25 16 96l4 20v12q0 14 -20 76l-4 16v20l32 96q-11 44 -44 104q3 114 -6 169q-72 63 -138 63q-72 0 -72 40t72 72l136 32l120 -36h12l112 24q72 -25 112 -60q0 -24 -148 -100q-36 -29 -36 -184l-12 -64l4 -80v-44
q0 -26 -24 -112l-4 -24q20 -84 20 -116l-8 -196l20 -152l-8 -92l8 -100l-4 -4h4q0 -67 -80 -110h-16q-27 0 -96 90q-44 17 -44 100q-2 36 -44 112q-28 51 -28 160l-21 10q-12 39 -51 94q-80 83 -80 148q0 18 -60 116q-49 137 -80 184q-32 36 -74 84q-18 14 -31 9
q-19 -88 -19 -249v-136q0 -11 4 -48q16 -21 4 -76h-4l4 -4v-4l-4 -4l4 -4v-36q0 -62 -15 -131q19 -163 43 -201q11 -64 56 -64l120 -28q44 -24 44 -68q-24 -48 -72 -48l-144 -8l-44 4l-96 -8q-82 24 -220 24l-28 24v20q0 47 176 112l72 96zM1032 1601q-14 -20 -55 -36
q-75 -73 -190 -83l-61 21q-133 143 -202 137l-63 -7q-41 -4 -146 -67q-64 -50 -112 -55l-36 30q-7 26 -1 60q48 75 112 96q89 73 121 76.5t76 9.5q88 -9 160 -66q70 -65 144 -93l91 27l76 68l90 40q64 -1 60 -73q-29 -72 -64 -85z" />
    <glyph glyph-name="Ograve" unicode="&#xd2;" horiz-adv-x="1280" 
d="M486 1412h20l192 -40q78 -54 144 -80q27 -25 48 -88q92 -46 92 -100q76 -143 76 -180q-7 -68 -44 -68q-60 38 -60 104q-15 11 -40 132l-84 112q-45 25 -80 32l-24 -4q-54 0 -96 48q-27 16 -56 16q-38 0 -136 -60q-136 -29 -136 -72l-88 -116l-4 -28v-4l8 -76l-60 -72
q-44 -75 -44 -136l24 -112q-40 -64 -40 -80q0 -21 64 -68l8 -24l-4 -56v-4q0 -54 108 -132l72 -96l116 -76q0 -13 180 -24h24q60 0 144 80q77 71 132 208q52 57 52 180q32 78 32 96q0 19 -24 80l-4 24v4q0 67 22 90h16q42 0 74 -78v-36l-12 -76l16 -84q0 -18 -40 -124
q0 -93 -80 -228q-24 -96 -104 -160q-78 -88 -164 -104q-88 -32 -156 -32q-190 20 -248 60q-98 44 -136 128l-64 68q-52 75 -52 208q-48 72 -48 156q0 29 -32 132v4q0 31 36 116v8l-4 72q26 165 76 228q0 31 72 120q51 120 88 120l136 56q40 36 92 36zM251 1804
q65 -10 202 -172q94 -80 110 -130q0 -30 -34 -32h-4q-29 0 -144 51l-233 84q-74 47 -102 134q0 84 89 99h13q24 0 103 -34z" />
    <glyph glyph-name="Oacute" unicode="&#xd3;" horiz-adv-x="1280" 
d="M486 1412h20l192 -40q78 -54 144 -80q27 -25 48 -88q92 -46 92 -100q76 -143 76 -180q-7 -68 -44 -68q-60 38 -60 104q-15 11 -40 132l-84 112q-45 25 -80 32l-24 -4q-54 0 -96 48q-27 16 -56 16q-38 0 -136 -60q-136 -29 -136 -72l-88 -116l-4 -28v-4l8 -76l-60 -72
q-44 -75 -44 -136l24 -112q-40 -64 -40 -80q0 -21 64 -68l8 -24l-4 -56v-4q0 -54 108 -132l72 -96l116 -76q0 -13 180 -24h24q60 0 144 80q77 71 132 208q52 57 52 180q32 78 32 96q0 19 -24 80l-4 24v4q0 67 22 90h16q42 0 74 -78v-36l-12 -76l16 -84q0 -18 -40 -124
q0 -93 -80 -228q-24 -96 -104 -160q-78 -88 -164 -104q-88 -32 -156 -32q-190 20 -248 60q-98 44 -136 128l-64 68q-52 75 -52 208q-48 72 -48 156q0 29 -32 132v4q0 31 36 116v8l-4 72q26 165 76 228q0 31 72 120q51 120 88 120l136 56q40 36 92 36zM963 1844h13
q89 -15 89 -99q-28 -87 -102 -134l-233 -84q-115 -51 -144 -51h-4q-34 2 -34 32q16 50 110 130q137 162 202 172q79 34 103 34z" />
    <glyph glyph-name="Ocircumflex" unicode="&#xd4;" horiz-adv-x="1280" 
d="M493 1458h20l192 -40q78 -54 144 -80q27 -25 48 -88q92 -46 92 -100q76 -143 76 -180q-7 -68 -44 -68q-60 38 -60 104q-15 11 -40 132l-84 112q-45 25 -80 32l-24 -4q-54 0 -96 48q-27 16 -56 16q-38 0 -136 -60q-136 -29 -136 -72l-88 -116l-4 -28v-4l8 -76l-60 -72
q-44 -75 -44 -136l24 -112q-40 -64 -40 -80q0 -21 64 -68l8 -24l-4 -56v-4q0 -54 108 -132l72 -96l116 -76q0 -13 180 -24h24q60 0 144 80q77 71 132 208q52 57 52 180q32 78 32 96q0 19 -24 80l-4 24v4q0 67 22 90h16q42 0 74 -78v-36l-12 -76l16 -84q0 -18 -40 -124
q0 -93 -80 -228q-24 -96 -104 -160q-78 -88 -164 -104q-88 -32 -156 -32q-190 20 -248 60q-98 44 -136 128l-64 68q-52 75 -52 208q-48 72 -48 156q0 29 -32 132v4q0 31 36 116v8l-4 72q26 165 76 228q0 31 72 120q51 120 88 120l136 56q40 36 92 36zM283 1515
q-68 -12 -68 40q22 67 203 188q58 51 110 57h10q39 0 129 -66q36 -14 153 -118q45 -35 45 -61q-10 -22 -20 -24h-25q-117 32 -188 71l-82 18q-87 -29 -199 -85z" />
    <glyph glyph-name="Odieresis" unicode="&#xd6;" horiz-adv-x="1280" 
d="M486 1452h20l192 -40q78 -54 144 -80q27 -25 48 -88q92 -46 92 -100q76 -143 76 -180q-7 -68 -44 -68q-60 38 -60 104q-15 11 -40 132l-84 112q-45 25 -80 32l-24 -4q-54 0 -96 48q-27 16 -56 16q-38 0 -136 -60q-136 -29 -136 -72l-88 -116l-4 -28v-4l8 -76l-60 -72
q-44 -75 -44 -136l24 -112q-40 -64 -40 -80q0 -21 64 -68l8 -24l-4 -56v-4q0 -54 108 -132l72 -96l116 -76q0 -13 180 -24h24q60 0 144 80q77 71 132 208q52 57 52 180q32 78 32 96q0 19 -24 80l-4 24v4q0 67 22 90h16q42 0 74 -78v-36l-12 -76l16 -84q0 -18 -40 -124
q0 -93 -80 -228q-24 -96 -104 -160q-78 -88 -164 -104q-88 -32 -156 -32q-190 20 -248 60q-98 44 -136 128l-64 68q-52 75 -52 208q-48 72 -48 156q0 29 -32 132v4q0 31 36 116v8l-4 72q26 165 76 228q0 31 72 120q51 120 88 120l136 56q40 36 92 36zM199 1822h8
q39 0 84 -80q52 -51 56 -84q0 -57 -112 -132l-28 -4h-20q-176 38 -176 152v4q0 72 112 92l4 -4h4l-4 -28v-24q11 -44 44 -44q68 18 68 68q0 35 -72 48l-4 4v8q12 24 36 24zM911 1798q136 -52 136 -142v-16q-45 -126 -168 -126h-6q-84 0 -130 169q34 78 141 115h27z" />
    <glyph glyph-name="Oslash" unicode="&#xd8;" horiz-adv-x="1296" 
d="M115 198l2 16q-47 62 -47 190q-48 72 -48 156q0 29 -32 132v4q0 31 36 116v8l-4 72q26 165 76 228q0 31 72 120q51 120 88 120l136 56q40 36 92 36h20l192 -40q78 -54 144 -80q22 -21 48 -36q8 -10 19 7q23 16 109 106q33 16 47 16h6q32 0 44 -48v-20q0 -39 -91 -138
l-36 -51q-7 -14 -3 -28q73 -139 73 -176q-7 -68 -44 -68q-60 38 -60 104q-11 8 -25 53q-18 17 -67 -27q-24 -17 -59 -106q-35 -34 -84 -106q-72 -65 -91 -125l-100 -161q-32 -36 -78 -125q-84 -75 -103 -129l-11 -45l10 -29l116 -76q0 -13 180 -24h24q60 0 144 80
q77 71 132 208q52 57 52 180q32 78 32 96q0 19 -24 80l-4 24v4q0 67 22 90h16q42 0 74 -78v-36l-12 -76l16 -84q0 -18 -40 -124q0 -93 -80 -228q-24 -96 -104 -160q-78 -88 -164 -104q-88 -32 -156 -32q-190 20 -248 60q-65 29 -86 50q-23 26 -76 -46q-20 -37 -78 -55
l-38 -6q-31 0 -31 58v19q1 45 102 178zM834 1208l-4 18q-45 43 -80 50l-24 -4q-54 0 -96 48q-27 16 -56 16q-38 0 -136 -60q-136 -29 -136 -72l-88 -116l-4 -28v-4l8 -76l-60 -72q-44 -75 -44 -136l24 -112q-40 -64 -40 -80q0 -21 64 -68l8 -24l-4 -56v-4q38 -81 57 -58
q10 3 62 49q67 132 96 161q35 36 60 93q80 57 87 93q15 22 69 74q39 42 59 112q20 33 100 103q35 38 62 103q16 30 16 50z" />
    <glyph glyph-name="Ugrave" unicode="&#xd9;" horiz-adv-x="1489" 
d="M1092 1390q31 0 136 -44q92 0 92 -56q0 -52 -128 -52q-33 0 -64 -56q-11 -23 -20 -96q-36 -71 -36 -92q0 -17 36 -80l4 -16l-16 -92v-84l-4 -24l4 -20v-24l4 -4v-4h-4l4 -4l-8 -72l24 -84v-16l-32 -116l28 -108q0 -46 -52 -124q-20 -61 -100 -112l-72 -52
q-62 -40 -148 -40h-68l-76 -8h-12q-15 0 -92 36q-65 2 -180 100q-16 15 -26 41l-9 34q-8 85 51 53l30 -16q61 -43 194 -108q66 -18 88 -18h20l115 19q138 65 169 119q21 78 60 156v36l-20 88v20q24 73 24 96q-28 87 -28 228q0 37 -20 92q0 48 60 92v4q-44 49 -44 160
q0 57 -172 116q-36 25 -36 56v4q0 45 68 56h36l68 -12h8l124 28h20zM72 1354q34 0 76 -28h12l68 24q16 0 96 -44l12 -4l80 32l24 4q86 0 112 -40v-20q-13 -64 -108 -64q-97 0 -140 -72l-4 -24l4 -64v-12l-16 -84q0 -16 36 -92l4 -20v-32l-20 -116l20 -100l-24 -108l28 -84
v-12q-12 -168 -31 -171q-9 -20 -37 -15l-8 2q-48 50 -48 152l20 100v20l-24 84l28 116v8q-17 61 -28 196l8 56v16l-28 172q-36 80 -140 80q-44 22 -44 48v20q41 76 72 76zM371 1804q65 -10 202 -172q94 -80 110 -130q0 -30 -34 -32h-4q-29 0 -144 51l-233 84
q-74 47 -102 134q0 84 89 99h13q24 0 103 -34z" />
    <glyph glyph-name="Uacute" unicode="&#xda;" horiz-adv-x="1489" 
d="M1092 1390q31 0 136 -44q92 0 92 -56q0 -52 -128 -52q-33 0 -64 -56q-11 -23 -20 -96q-36 -71 -36 -92q0 -17 36 -80l4 -16l-16 -92v-84l-4 -24l4 -20v-24l4 -4v-4h-4l4 -4l-8 -72l24 -84v-16l-32 -116l28 -108q0 -46 -52 -124q-20 -61 -100 -112l-72 -52
q-62 -40 -148 -40h-68l-76 -8h-12q-15 0 -92 36q-65 2 -180 100q-16 15 -26 41l-9 34q-8 85 51 53l30 -16q61 -43 194 -108q66 -18 88 -18h20l115 19q138 65 169 119q21 78 60 156v36l-20 88v20q24 73 24 96q-28 87 -28 228q0 37 -20 92q0 48 60 92v4q-44 49 -44 160
q0 57 -172 116q-36 25 -36 56v4q0 45 68 56h36l68 -12h8l124 28h20zM72 1354q34 0 76 -28h12l68 24q16 0 96 -44l12 -4l80 32l24 4q86 0 112 -40v-20q-13 -64 -108 -64q-97 0 -140 -72l-4 -24l4 -64v-12l-16 -84q0 -16 36 -92l4 -20v-32l-20 -116l20 -100l-24 -108l28 -84
v-12q-12 -168 -31 -171q-9 -20 -37 -15l-8 2q-48 50 -48 152l20 100v20l-24 84l28 116v8q-17 61 -28 196l8 56v16l-28 172q-36 80 -140 80q-44 22 -44 48v20q41 76 72 76zM1058 1841h13q89 -15 89 -99q-28 -87 -102 -134l-233 -84q-115 -51 -144 -51h-4q-34 2 -34 32
q16 50 110 130q137 162 202 172q79 34 103 34z" />
    <glyph glyph-name="Udieresis" unicode="&#xdc;" horiz-adv-x="1489" 
d="M1092 1423q31 0 136 -44q92 0 92 -56q0 -52 -128 -52q-33 0 -64 -56q-11 -23 -20 -96q-36 -71 -36 -92q0 -17 36 -80l4 -16l-16 -92v-84l-4 -24l4 -20v-24l4 -4v-4h-4l4 -4l-8 -72l24 -84v-16l-32 -116l28 -108q0 -46 -52 -124q-20 -61 -100 -112l-72 -52
q-62 -40 -148 -40h-68l-76 -8h-12q-15 0 -92 36q-65 2 -180 100q-16 15 -26 41l-9 34q-8 85 51 53l30 -16q61 -43 194 -108q66 -18 88 -18h20l115 19q138 65 169 119q21 78 60 156v36l-20 88v20q24 73 24 96q-28 87 -28 228q0 37 -20 92q0 48 60 92v4q-44 49 -44 160
q0 57 -172 116q-36 25 -36 56v4q0 45 68 56h36l68 -12h8l124 28h20zM72 1387q34 0 76 -28h12l68 24q16 0 96 -44l12 -4l80 32l24 4q86 0 112 -40v-20q-13 -64 -108 -64q-97 0 -140 -72l-4 -24l4 -64v-12l-16 -84q0 -16 36 -92l4 -20v-32l-20 -116l20 -100l-24 -108l28 -84
v-12q-12 -168 -31 -171q-9 -20 -37 -15l-8 2q-48 50 -48 152l20 100v20l-24 84l28 116v8q-17 61 -28 196l8 56v16l-28 172q-36 80 -140 80q-44 22 -44 48v20q41 76 72 76zM312 1821h8q39 0 84 -80q52 -51 56 -84q0 -57 -112 -132l-28 -4h-20q-176 38 -176 152v4q0 72 112 92
l4 -4h4l-4 -28v-24q11 -44 44 -44q68 18 68 68q0 35 -72 48l-4 4v8q12 24 36 24zM1060 1797q100 -38 100 -104v-12q-33 -92 -124 -92h-4q-62 0 -96 124q25 57 104 84h20z" />
    <glyph glyph-name="Yacute" unicode="&#xdd;" horiz-adv-x="1457" 
d="M1100 1337q174 -7 174 -35q-11 -42 -43 -67q-43 -13 -93 -37q-102 -22 -136 -76q-42 -39 -92 -132q-80 -43 -80 -136q0 -29 -96 -152q-78 -105 -100 -228q-11 -24 -6 -188l-4 -12q-14 -87 26 -176q22 -22 152 -48q29 -11 74 -41q16 0 54 -31q-24 -78 -80 -56
q-94 -2 -200 10q-119 -24 -220 -24l-88 8h-32q-44 0 -80 54v8q22 44 171 72q101 33 101 108q0 71 16 176l8 24q-9 228 -19 228q0 17 -36 76q-29 45 -137 244q-3 51 -148 224q-53 96 -182 122q-33 17 -40 46q19 47 166 48l48 4q84 -14 104 -22l64 14h36q51 0 72 -48
q0 -49 -100 -116q-12 -14 -16 -36q3 -34 92 -216q60 -56 108 -132q22 -20 48 -20h8q75 0 112 168q6 19 104 112q32 50 32 64v12q0 53 -80 88q-12 15 -12 28q0 39 84 84q106 0 201 -7zM1029 1833h13q89 -15 89 -99q-28 -87 -102 -134l-233 -84q-115 -51 -144 -51h-4
q-34 2 -34 32q16 50 110 130q137 162 202 172q79 34 103 34z" />
    <glyph glyph-name="germandbls" unicode="&#xdf;" horiz-adv-x="1292" 
d="M273 580l-8 -53l12 -119l-16 -74v-8q0 -50 22 -185q-18 -134 -67.5 -141.5t-107.5 -14.5q-85 9 -109 49t64 113q47 51 68 162l26 164l-5 45l13 91l6 181l2 48l39 58l12 115l25 115v4l6 66l83 112l105 95l136 25q63 16 84 16q203 -33 257 -129q56 -45 72.5 -95t-19.5 -118
l25 -82l-54 -178v-66q0 -55 84 -131q66 -79 66 -196q16 -38 16 -82q0 -33 -65 -143q-16 -77 -119 -148q-20 -26 -101 -62l-118 -15l-136 -5q-150 38 -162.5 64.5t5.5 55t43 28.5l144 -13l89 22l70 3q65 0 160 94q54 129 54 225q0 93 -149 226l-103 24q-25 17 -162 33
q-30 2 -86.5 3t-70.5 22q12 40 64.5 45.5t160.5 23.5q46 0 126 1q147 61 92 165q35 76 35 90q-1 53 -59 131l-32 55q-123 54 -174 54l-97 -21q-34 -44 -108 -134q-53 -80 -82 -180v-21q-11 -57 -11 -111q-12 -137 -9 -187l-27 -55q4 -32 -9 -57z" />
    <glyph glyph-name="agrave" unicode="&#xe0;" horiz-adv-x="1400" 
d="M208 1485q65 -10 202 -172q94 -80 110 -130q0 -30 -34 -32h-4q-29 0 -144 51l-233 84q-74 47 -102 134q0 84 89 99h13q24 0 103 -34zM673 980l107 -40q70 -42 91 -128l6 -68q23 -54 34 -124v-20l12 -120l21 -116l-4 -112q9 -122 63 -122h9q20 5 98 72l34 8h12
q38 -13 73 -74l4 -16q0 -45 -102 -136q-17 -16 -157 -40q-54 0 -124 88q-43 32 -80 32q-36 0 -107 -60q-168 -56 -195 -56q-306 0 -306 24q-133 82 -138 119l-4 16l-17 45l-3 108v12q0 25 64 136q8 46 72 84q195 88 289 88l81 8l98 -12q117 31 144 76q18 54 18 92
q0 32 -84 100q-33 40 -138 40l-81 20v-4l-4 4h-4q-196 -39 -196 -82l-4 -20l17 -84v-4q0 -63 -68 -88h-8q-70 14 -103 52q-34 49 -34 92q0 56 89 140q88 58 226 98q81 23 143 17l62 -6q62 -13 94 -39zM475 455h-87l-5 4q-68 0 -227 -97q-23 -40 -23 -59v-10q0 -29 54 -157
q40 -49 137 -49q31 -15 78 -20q111 0 250 54q70 23 138 201v35q0 59 -91 132l-47 5h-26q-27 0 -151 -39z" />
    <glyph glyph-name="aacute" unicode="&#xe1;" horiz-adv-x="1400" 
d="M928 1519h13q89 -15 89 -99q-28 -87 -102 -134l-233 -84q-115 -51 -144 -51h-4q-34 2 -34 32q16 50 110 130q137 162 202 172q79 34 103 34zM673 980l107 -40q70 -42 91 -128l6 -68q23 -54 34 -124v-20l12 -120l21 -116l-4 -112q9 -122 63 -122h9q20 5 98 72l34 8h12
q38 -13 73 -74l4 -16q0 -45 -102 -136q-17 -16 -157 -40q-54 0 -124 88q-43 32 -80 32q-36 0 -107 -60q-168 -56 -195 -56q-306 0 -306 24q-133 82 -138 119l-4 16l-17 45l-3 108v12q0 25 64 136q8 46 72 84q195 88 289 88l81 8l98 -12q117 31 144 76q18 54 18 92
q0 32 -84 100q-33 40 -138 40l-81 20v-4l-4 4h-4q-196 -39 -196 -82l-4 -20l17 -84v-4q0 -63 -68 -88h-8q-70 14 -103 52q-34 49 -34 92q0 56 89 140q88 58 226 98q81 23 143 17l62 -6q62 -13 94 -39zM475 455h-87l-5 4q-68 0 -227 -97q-23 -40 -23 -59v-10q0 -29 54 -157
q40 -49 137 -49q31 -15 78 -20q111 0 250 54q70 23 138 201v35q0 59 -91 132l-47 5h-26q-27 0 -151 -39z" />
    <glyph glyph-name="acircumflex" unicode="&#xe2;" horiz-adv-x="1403" 
d="M233 1128q-68 -12 -68 40q22 67 203 188q58 51 110 57h10q39 0 129 -66q36 -14 153 -118q45 -35 45 -61q-10 -22 -20 -24h-25q-117 32 -188 71l-82 18q-87 -29 -199 -85zM673 980l107 -40q70 -42 91 -128l6 -68q23 -54 34 -124v-20l12 -120l21 -116l-4 -112
q9 -122 63 -122h9q20 5 98 72l34 8h12q38 -13 73 -74l4 -16q0 -45 -102 -136q-17 -16 -157 -40q-54 0 -124 88q-43 32 -80 32q-36 0 -107 -60q-168 -56 -195 -56q-306 0 -306 24q-133 82 -138 119l-4 16l-17 45l-3 108v12q0 25 64 136q8 46 72 84q195 88 289 88l81 8l98 -12
q117 31 144 76q18 54 18 92q0 32 -84 100q-33 40 -138 40l-81 20v-4l-4 4h-4q-196 -39 -196 -82l-4 -20l17 -84v-4q0 -63 -68 -88h-8q-70 14 -103 52q-34 49 -34 92q0 56 89 140q88 58 226 98q81 23 143 17l62 -6q62 -13 94 -39zM475 455h-87l-5 4q-68 0 -227 -97
q-23 -40 -23 -59v-10q0 -29 54 -157q40 -49 137 -49q31 -15 78 -20q111 0 250 54q70 23 138 201v35q0 59 -91 132l-47 5h-26q-27 0 -151 -39z" />
    <glyph glyph-name="adieresis" unicode="&#xe4;" horiz-adv-x="1403" 
d="M120 1487h8q39 0 84 -80q52 -51 56 -84q0 -57 -112 -132l-28 -4h-20q-176 38 -176 152v4q0 72 112 92l4 -4h4l-4 -28v-24q11 -44 44 -44q68 18 68 68q0 35 -72 48l-4 4v8q12 24 36 24zM832 1463q136 -52 136 -142v-16q-45 -126 -168 -126h-6q-84 0 -130 169
q34 78 141 115h27zM673 980l107 -40q70 -42 91 -128l6 -68q23 -54 34 -124v-20l12 -120l21 -116l-4 -112q9 -122 63 -122h9q20 5 98 72l34 8h12q38 -13 73 -74l4 -16q0 -45 -102 -136q-17 -16 -157 -40q-54 0 -124 88q-43 32 -80 32q-36 0 -107 -60q-168 -56 -195 -56
q-306 0 -306 24q-133 82 -138 119l-4 16l-17 45l-3 108v12q0 25 64 136q8 46 72 84q195 88 289 88l81 8l98 -12q117 31 144 76q18 54 18 92q0 32 -84 100q-33 40 -138 40l-81 20v-4l-4 4h-4q-196 -39 -196 -82l-4 -20l17 -84v-4q0 -63 -68 -88h-8q-70 14 -103 52
q-34 49 -34 92q0 56 89 140q88 58 226 98q81 23 143 17l62 -6q62 -13 94 -39zM475 455h-87l-5 4q-68 0 -227 -97q-23 -40 -23 -59v-10q0 -29 54 -157q40 -49 137 -49q31 -15 78 -20q111 0 250 54q70 23 138 201v35q0 59 -91 132l-47 5h-26q-27 0 -151 -39z" />
    <glyph glyph-name="aring" unicode="&#xe5;" horiz-adv-x="1400" 
d="M475 455h-87l-5 4q-68 0 -227 -97q-23 -40 -23 -59v-10q0 -29 54 -157q40 -49 137 -49q31 -15 78 -20q111 0 250 54q70 23 138 201v35q0 59 -91 132l-47 5h-26q-27 0 -151 -39zM366 1254q49 -120 147 -120q122 0 122 120q0 87 -106 110h-32q-100 0 -131 -110zM579 1019
q62 -13 94 -39l107 -40q70 -42 91 -128l6 -68q23 -54 34 -124v-20l12 -120l21 -116l-4 -112q9 -122 63 -122h9q20 5 98 72l34 8h12q38 -13 73 -74l4 -16q0 -45 -102 -136q-17 -16 -157 -40q-54 0 -124 88q-43 32 -80 32q-36 0 -107 -60q-168 -56 -195 -56q-306 0 -306 24
q-133 82 -138 119l-4 16l-17 45l-3 108v12q0 25 64 136q8 46 72 84q195 88 289 88l81 8l98 -12q117 31 144 76q18 54 18 92q0 32 -84 100q-33 40 -138 40l-81 20h-4h-4q-196 -39 -196 -82l-4 -20l17 -84v-4q0 -63 -68 -88h-8q-70 14 -103 52q-34 49 -34 92q0 56 89 140
q88 58 226 98q22 6 28.5 9.5t-14 19t-101.5 96.5q-16 29 -36 174q0 66 92 127q118 31 148 31h5q230 -32 230 -87q13 0 26 -97v-112q0 -106 -143 -123q-25 -15 -31 -18.5t1 -8.5z" />
    <glyph glyph-name="ae" unicode="&#xe6;" horiz-adv-x="2002" 
d="M475 455h-87l-5 4q-68 0 -227 -97q-23 -40 -23 -59v-10q0 -29 54 -157q40 -49 137 -49q31 -15 78 -20q111 0 250 54q70 23 138 201v35q0 59 -91 132l-47 5h-26q-27 0 -151 -39zM984 671q0 -65 112 -104l40 4h60l148 -8q280 35 280 52q20 33 20 60q0 84 -172 168l-140 36
l-168 -20q-24 0 -172 -152zM781 85l-29 -21q-18 0 -89 -60q-168 -56 -195 -56q-306 0 -306 24q-133 82 -138 119l-4 16l-17 45l-3 108v12q0 25 64 136q8 46 72 84q195 88 289 88l81 8l98 -12q117 31 144 76q18 54 18 92q0 32 -84 100q-33 40 -138 40l-81 20v-4l-4 4h-4
q-196 -39 -196 -82l-4 -20l17 -84v-4q0 -63 -68 -88h-8q-70 14 -103 52q-34 49 -34 92q0 56 89 140q88 58 226 98q81 23 143 17l62 -6q62 -13 94 -39l107 -40q70 -42 91 -128q10 -19 23.5 -22.5t33.5 29.5q63 88 86 88l142 32q105 64 172 64h20l164 -28q69 0 220 -132
q40 -58 68 -192q24 -43 24 -68v-4q0 -56 -56 -116q-43 -24 -64 -24h-16q-87 16 -180 16l-104 -20q-95 24 -136 24l-104 -24h-64q-148 -37 -148 -124v-28q0 -42 44 -56q56 -9 144 -100q38 -28 156 -40l72 -4q63 0 160 56l112 36q59 52 92 52q44 -19 44 -52v-12
q0 -102 -272 -200q-65 -20 -88 -20h-4q-152 12 -260 32q-19 6 -84 80l-108 60q-28 35 -40 60q-12 13 -22.5 13t-19 -5t-97.5 -98z" />
    <glyph glyph-name="ccedilla" unicode="&#xe7;" horiz-adv-x="1166" 
d="M570 1121q127 -13 240 -88q112 -80 112 -156q11 -17 24 -100q0 -76 -124 -96h-4q-52 0 -72 96l32 112v20q0 93 -160 116h-40l-64 -8h-32q-128 0 -196 -76q-51 -21 -76 -68q-28 -69 -84 -124l-12 -32l4 -4v-36l-8 -76v-20q0 -21 76 -176q30 -75 64 -96q62 -69 108 -84
q74 -52 148 -52h20l116 36q64 0 136 84q68 44 116 96q23 16 36 16q31 0 36 -48q-5 -43 -116 -208q-48 -28 -128 -60q-36 -31 -36 -56v-16q0 -41 56 -88q52 -84 52 -120v-56q0 -70 -52 -96q-48 -60 -88 -60l-52 4l-116 -32q-86 0 -224 128q-28 34 -28 56q16 48 72 48
q35 0 132 -52l52 -12q92 12 92 72v4q0 46 -108 100q-29 33 -56 104q-65 61 -156 84q-67 25 -96 76q-144 157 -144 236v56q0 32 -28 116v16q0 55 48 156q0 82 76 160q75 36 104 104q33 52 108 52q81 48 240 48z" />
    <glyph glyph-name="egrave" unicode="&#xe8;" horiz-adv-x="1195" 
d="M524 1010h20l164 -28q69 0 220 -132q40 -58 68 -192q24 -43 24 -68v-4q0 -56 -56 -116q-43 -24 -64 -24h-16q-87 16 -180 16l-104 -20q-95 24 -136 24l-104 -24h-64q-148 -37 -148 -124v-28q0 -42 44 -56q56 -9 144 -100q38 -28 156 -40l72 -4q63 0 160 56l112 36
q59 52 92 52q44 -19 44 -52v-12q0 -102 -272 -200q-65 -20 -88 -20h-4q-152 12 -260 32q-19 6 -84 80l-108 60q-28 35 -40 100q-72 75 -72 148q-44 92 -44 184v8q0 55 48 140q14 56 76 124q33 88 56 88l172 32q105 64 172 64zM180 678q0 -65 112 -104l40 4h60l148 -8
q280 35 280 52q20 33 20 60q0 84 -172 168l-140 36l-168 -20q-24 0 -172 -152zM263 1482q65 -10 202 -172q94 -80 110 -130q0 -30 -34 -32h-4q-29 0 -144 51l-233 84q-74 47 -102 134q0 84 89 99h13q24 0 103 -34z" />
    <glyph glyph-name="eacute" unicode="&#xe9;" horiz-adv-x="1209" 
d="M524 1010h20l164 -28q69 0 220 -132q40 -58 68 -192q24 -43 24 -68v-4q0 -56 -56 -116q-43 -24 -64 -24h-16q-87 16 -180 16l-104 -20q-95 24 -136 24l-104 -24h-64q-148 -37 -148 -124v-28q0 -42 44 -56q56 -9 144 -100q38 -28 156 -40l72 -4q63 0 160 56l112 36
q59 52 92 52q44 -19 44 -52v-12q0 -102 -272 -200q-65 -20 -88 -20h-4q-152 12 -260 32q-19 6 -84 80l-108 60q-28 35 -40 100q-72 75 -72 148q-44 92 -44 184v8q0 55 48 140q14 56 76 124q33 88 56 88l172 32q105 64 172 64zM180 678q0 -65 112 -104l40 4h60l148 -8
q280 35 280 52q20 33 20 60q0 84 -172 168l-140 36l-168 -20q-24 0 -172 -152zM928 1519h13q89 -15 89 -99q-28 -87 -102 -134l-233 -84q-115 -51 -144 -51h-4q-34 2 -34 32q16 50 110 130q137 162 202 172q79 34 103 34z" />
    <glyph glyph-name="ecircumflex" unicode="&#xea;" horiz-adv-x="1206" 
d="M233 1128q-68 -12 -68 40q22 67 203 188q58 51 110 57h10q39 0 129 -66q36 -14 153 -118q45 -35 45 -61q-10 -22 -20 -24h-25q-117 32 -188 71l-82 18q-87 -29 -199 -85zM524 1010h20l164 -28q69 0 220 -132q40 -58 68 -192q24 -43 24 -68v-4q0 -56 -56 -116
q-43 -24 -64 -24h-16q-87 16 -180 16l-104 -20q-95 24 -136 24l-104 -24h-64q-148 -37 -148 -124v-28q0 -42 44 -56q56 -9 144 -100q38 -28 156 -40l72 -4q63 0 160 56l112 36q59 52 92 52q44 -19 44 -52v-12q0 -102 -272 -200q-65 -20 -88 -20h-4q-152 12 -260 32
q-19 6 -84 80l-108 60q-28 35 -40 100q-72 75 -72 148q-44 92 -44 184v8q0 55 48 140q14 56 76 124q33 88 56 88l172 32q105 64 172 64zM180 678q0 -65 112 -104l40 4h60l148 -8q280 35 280 52q20 33 20 60q0 84 -172 168l-140 36l-168 -20q-24 0 -172 -152z" />
    <glyph glyph-name="edieresis" unicode="&#xeb;" horiz-adv-x="1217" 
d="M120 1477h8q39 0 84 -80q52 -51 56 -84q0 -57 -112 -132l-28 -4h-20q-176 38 -176 152v4q0 72 112 92l4 -4h4l-4 -28v-24q11 -44 44 -44q68 18 68 68q0 35 -72 48l-4 4v8q12 24 36 24zM832 1453q136 -52 136 -142v-16q-45 -126 -168 -126h-6q-84 0 -130 169
q34 78 141 115h27zM524 1000h20l164 -28q69 0 220 -132q40 -58 68 -192q24 -43 24 -68v-4q0 -56 -56 -116q-43 -24 -64 -24h-16q-87 16 -180 16l-104 -20q-95 24 -136 24l-104 -24h-64q-148 -37 -148 -124v-28q0 -42 44 -56q56 -9 144 -100q38 -28 156 -40l72 -4
q63 0 160 56l112 36q59 52 92 52q44 -19 44 -52v-12q0 -102 -272 -200q-65 -20 -88 -20h-4q-152 12 -260 32q-19 6 -84 80l-108 60q-28 35 -40 100q-72 75 -72 148q-44 92 -44 184v8q0 55 48 140q14 56 76 124q33 88 56 88l172 32q105 64 172 64zM180 668q0 -65 112 -104
l40 4h60l148 -8q280 35 280 52q20 33 20 60q0 84 -172 168l-140 36l-168 -20q-24 0 -172 -152z" />
    <glyph glyph-name="igrave" unicode="&#xec;" horiz-adv-x="1077" 
d="M258 1073q206 -6 206 -41q40 -39 40 -108l-4 -72v-4q0 -38 32 -124l4 -16q0 -19 -32 -108v-12q0 -12 40 -64l4 -28q-28 -82 -28 -120q0 -59 48 -202q56 -36 144 -36q50 -27 135 -41q61 -15 61 -45v-12q0 -57 -104 -76h-48l-145 -2h-26q-51 3 -177 -10q-105 0 -155 10
l-85 -6l-68 -8q-104 8 -97 63q-13 54 85 81h4l76 22l73 22q84 3 105 62q20 67 20 86v60l8 64v20l4 176l-16 108l20 100q0 85 -102 100l-72 4l-91 13q-57 0 -86 57q10 55 47 62l65 14zM96 1491q65 -10 202 -172q94 -80 110 -130q0 -30 -34 -32h-4q-29 0 -144 51l-233 84
q-74 47 -102 134q0 84 89 99h13q24 0 103 -34z" />
    <glyph glyph-name="iacute" unicode="&#xed;" horiz-adv-x="1080" 
d="M258 1073q206 -6 206 -41q40 -39 40 -108l-4 -72v-4q0 -38 32 -124l4 -16q0 -19 -32 -108v-12q0 -12 40 -64l4 -28q-28 -82 -28 -120q0 -59 48 -202q56 -36 144 -36q50 -27 135 -41q61 -15 61 -45v-12q0 -57 -104 -76h-48l-145 -2h-26q-51 3 -177 -10q-105 0 -155 10
l-85 -6l-68 -8q-104 8 -97 63q-13 54 85 81h4l76 22l73 22q84 3 105 62q20 67 20 86v60l8 64v20l4 176l-16 108l20 100q0 85 -102 100l-72 4l-91 13q-57 0 -86 57q10 55 47 62l65 14zM809 1525h13q89 -15 89 -99q-28 -87 -102 -134l-233 -84q-115 -51 -144 -51h-4
q-34 2 -34 32q16 50 110 130q137 162 202 172q79 34 103 34z" />
    <glyph glyph-name="idieresis" unicode="&#xef;" horiz-adv-x="1073" 
d="M40 1497h8q39 0 84 -80q52 -51 56 -84q0 -57 -112 -132l-28 -4h-20q-176 38 -176 152v4q0 72 112 92l4 -4h4l-4 -28v-24q11 -44 44 -44q68 18 68 68q0 35 -72 48l-4 4v8q12 24 36 24zM752 1473q136 -52 136 -142v-16q-45 -126 -168 -126h-6q-84 0 -130 169q34 78 141 115
h27zM258 1073q206 -6 206 -41q40 -39 40 -108l-4 -72v-4q0 -38 32 -124l4 -16q0 -19 -32 -108v-12q0 -12 40 -64l4 -28q-28 -82 -28 -120q0 -59 48 -202q56 -36 144 -36q50 -27 135 -41q61 -15 61 -45v-12q0 -57 -104 -76h-48l-145 -2h-26q-51 3 -177 -10q-105 0 -155 10
l-85 -6l-68 -8q-104 8 -97 63q-13 54 85 81h4l76 22l73 22q84 3 105 62q20 67 20 86v60l8 64v20l4 176l-16 108l20 100q0 85 -102 100l-72 4l-91 13q-57 0 -86 57q10 55 47 62l65 14z" />
    <glyph glyph-name="ntilde" unicode="&#xf1;" horiz-adv-x="1317" 
d="M824 1040q168 -35 195 -88q19 -11 31 -43q26 -52 46 -141l8 -60l-24 -100l24 -108l-12 -76l16 -88l-4 -104q0 -55 80 -100q60 -25 99 -55q24 -9 22 -44q-15 -37 -105 -37q-59 0 -144 14l-184 -6q-128 11 -128 76q0 43 108 68q88 27 88 80l16 136l16 64v72q0 44 24 164
l-17 108q-26 54 -83 106q-47 32 -96 32q-93 0 -176 -62l-68 -56l-80 -36q-23 -37 -92 -88q-44 -142 -44 -188l24 -124l-4 -40l-4 -128q0 -39 144 -88q36 -28 36 -48v-8q0 -33 -52 -36l-103 -14q-57 18 -177 -10q-92 24 -164 32q-40 24 -40 52q0 51 79 55q46 13 72 11
t43.5 11t17.5 75q16 76 16 120l-16 120l16 92l-4 20v36l16 92q-9 196 -44 204q-70 0 -84 56v8q0 44 64 52h8q156 -13 156 -88q27 -84 80 -84h8q21 0 84 56q67 56 156 96q0 10 96 32zM1105 1292q-14 -20 -55 -36q-75 -73 -190 -83l-61 21q-133 143 -202 137l-63 -7
q-41 -4 -146 -67q-64 -50 -112 -55l-36 30q-7 26 -1 60q48 75 112 96q89 73 121 76.5t76 9.5q88 -9 160 -66q70 -65 144 -93l91 27l76 68l90 40q64 -1 60 -73q-29 -72 -64 -85z" />
    <glyph glyph-name="ograve" unicode="&#xf2;" horiz-adv-x="1199" 
d="M403 -49q-118 8 -247 127q-80 44 -124 204q-32 98 -32 132l16 112l-8 80q0 49 84 176q8 59 175 177q98 22 133 43q32 22 68 22l37 -3q76 -10 163 -27q82 -20 124 -80q56 -41 56 -80v-20q0 -7 -19 -25h-20l-17 5q-46 34 -120 60q-109 36 -192 36q-40 0 -126 -37
q-114 -68 -146 -127q-121 -182 -56 -388q0 -68 96 -136q62 -120 205 -156l130 -26l26 -19v-28q-15 -39 -117 -35zM690 -22q-56 0 -37 42q91 66 125 120q46 32 106 134q11 15 16 108q16 30 16 68v20q-6 134 -42 197l-18 31q-30 76 14 76h16q80 0 116 -148l4 -40v-8l11 -86
l-7 -58h-4l4 -4v-4l4 -80q0 -35 -72 -136q0 -72 -52 -136q-153 -96 -200 -96zM229 1516q65 -10 202 -172q94 -80 110 -130q0 -30 -34 -32h-4q-29 0 -144 51l-233 84q-74 47 -102 134q0 84 89 99h13q24 0 103 -34z" />
    <glyph glyph-name="oacute" unicode="&#xf3;" horiz-adv-x="1217" 
d="M933 1541h13q89 -15 89 -99q-28 -87 -102 -134l-233 -84q-115 -51 -144 -51h-4q-34 2 -34 32q16 50 110 130q137 162 202 172q79 34 103 34zM403 -49q-118 8 -247 127q-80 44 -124 204q-32 98 -32 132l16 112l-8 80q0 49 84 176q8 59 175 177q98 22 133 43q32 22 68 22
l37 -3q76 -10 163 -27q82 -20 124 -80q56 -41 56 -80v-20q0 -7 -19 -25h-20l-17 5q-46 34 -120 60q-109 36 -192 36q-40 0 -126 -37q-114 -68 -146 -127q-121 -182 -56 -388q0 -68 96 -136q62 -120 205 -156l130 -26l26 -19v-28q-15 -39 -117 -35zM690 -22q-56 0 -37 42
q91 66 125 120q46 32 106 134q11 15 16 108q16 30 16 68v20q-6 134 -42 197l-18 31q-30 76 14 76h16q80 0 116 -148l4 -40v-8l11 -86l-7 -58h-4l4 -4v-4l4 -80q0 -35 -72 -136q0 -72 -52 -136q-153 -96 -200 -96z" />
    <glyph glyph-name="ocircumflex" unicode="&#xf4;" horiz-adv-x="1199" 
d="M403 -39q-118 8 -247 127q-80 44 -124 204q-32 98 -32 132l16 112l-8 80q0 49 84 176q8 59 175 177q98 22 133 43q32 22 68 22l37 -3q76 -10 163 -27q82 -20 124 -80q56 -41 56 -80v-20q0 -7 -19 -25h-20l-17 5q-46 34 -120 60q-109 36 -192 36q-40 0 -126 -37
q-114 -68 -146 -127q-121 -182 -56 -388q0 -68 96 -136q62 -120 205 -156l130 -26l26 -19v-28q-15 -39 -117 -35zM690 -12q-56 0 -37 42q91 66 125 120q46 32 106 134q11 15 16 108q16 30 16 68v20q-6 134 -42 197l-18 31q-30 76 14 76h16q80 0 116 -148l4 -40v-8l11 -86
l-7 -58h-4l4 -4v-4l4 -80q0 -35 -72 -136q0 -72 -52 -136q-153 -96 -200 -96zM716 1145q-112 56 -199 85l-82 -18q-71 -39 -188 -71h-25q-10 2 -20 24q0 26 45 61q117 104 153 118q90 66 129 66h10q52 -6 110 -57q181 -121 203 -188q0 -52 -68 -40z" />
    <glyph glyph-name="odieresis" unicode="&#xf6;" horiz-adv-x="1199" 
d="M150 1407h8q39 0 84 -80q52 -51 56 -84q0 -57 -112 -132l-28 -4h-20q-176 38 -176 152v4q0 72 112 92l4 -4h4l-4 -28v-24q11 -44 44 -44q68 18 68 68q0 35 -72 48l-4 4v8q12 24 36 24zM898 1383q100 -38 100 -104v-12q-33 -92 -124 -92h-4q-62 0 -96 124q25 57 104 84h20
zM403 -39q-118 8 -247 127q-80 44 -124 204q-32 98 -32 132l16 112l-8 80q0 49 84 176q8 59 175 177q98 22 133 43q32 22 68 22l37 -3q76 -10 163 -27q82 -20 124 -80q56 -41 56 -80v-20q0 -7 -19 -25h-20l-17 5q-46 34 -120 60q-109 36 -192 36q-40 0 -126 -37
q-114 -68 -146 -127q-121 -182 -56 -388q0 -68 96 -136q62 -120 205 -156l130 -26l26 -19v-28q-15 -39 -117 -35zM690 -12q-56 0 -37 42q91 66 125 120q46 32 106 134q11 15 16 108q16 30 16 68v20q-6 134 -42 197l-18 31q-30 76 14 76h16q80 0 116 -148l4 -40v-8l11 -86
l-7 -58h-4l4 -4v-4l4 -80q0 -35 -72 -136q0 -72 -52 -136q-153 -96 -200 -96z" />
    <glyph glyph-name="oslash" unicode="&#xf8;" horiz-adv-x="1191" 
d="M728 841q-26 12 -56 23q-109 36 -192 36q-40 0 -126 -37q-114 -68 -146 -127q-121 -182 -56 -388q0 -57 33 -83t48.5 -22.5t39.5 22.5q60 104 87 126q32 29 54 74q73 45 79 73q13 17 62 58q35 33 54 89q17 25 90 80q28 26 32 50q2 15 -5 24zM453 56l130 -26l26 -19v-28
q-15 -39 -117 -35l-89 13q-71 5 -108.5 27.5t-56.5 4.5q-18 -23 -58 -64q-18 -30 -71 -43l-34 -5q-28 0 -28 45l-20 26q1 36 57 93.5t18.5 98t-70.5 148.5q-32 98 -32 132l16 112l-8 80q0 49 84 176q8 59 175 177q98 22 133 43q32 22 68 22l37 -3q76 -10 163 -27
q80 -19 111.5 -46.5t58.5 2.5q20 13 98 83q30 13 43 13h5q49 -10 60 -48v-15q0 -32 -82 -109q-43 -54 -19.5 -77t59.5 -171l4 -40v-8l11 -86l-7 -58h-4l4 -4v-4l4 -80q0 -35 -72 -136q0 -72 -52 -136q-153 -96 -200 -96q-56 0 -37 42q91 66 125 120q46 32 106 134
q11 15 16 108q16 30 16 68v20q-6 134 -42 197l-18 31q-9 23 -44 0q-10 3 -17 -2q-13 -9 -33 -57q-32 -27 -77 -83q-65 -51 -82 -99l-90 -126q-29 -28 -71 -99q-76 -58 -89 -85q-3 -7 -1 -14q-22 -30 4 -49.5t97 -37.5z" />
    <glyph glyph-name="ugrave" unicode="&#xf9;" horiz-adv-x="1342" 
d="M10 1008q126 -25 156 -68q23 -32 28 -60l-4 -80l12 -80l-28 -136l12 -72v-28l-36 -88v-16l36 -108q10 -132 64 -132q97 -48 148 -48q71 0 220 136q36 59 104 140q44 99 44 132v48q32 105 32 192v12q0 68 -136 84q-124 8 -124 44q-11 0 -16 40q0 34 56 52l56 -8l4 4v-4
l88 20h92q98 0 116 -144v-8l-16 -140l20 -96l-12 -92l4 -92l-8 -100q0 -128 104 -176q114 -27 128 -52q12 -15 12 -36v-12q0 -69 -100 -84l-140 16l-60 16q-25 16 -36 40l-20 24q0 38 -56 44q-108 0 -172 -92q-43 -29 -184 -60h-4q-184 17 -184 48q-140 92 -140 240v12
l20 128l-32 124v12l20 104l-20 164q-10 32 -64 60q-59 32 -68 64v16q23 96 84 96zM144 1474q65 -10 202 -172q94 -80 110 -130q0 -30 -34 -32h-4q-29 0 -144 51l-233 84q-74 47 -102 134q0 84 89 99h13q24 0 103 -34z" />
    <glyph glyph-name="uacute" unicode="&#xfa;" horiz-adv-x="1342" 
d="M814 1518h13q89 -15 89 -99q-28 -87 -102 -134l-233 -84q-115 -51 -144 -51h-4q-34 2 -34 32q16 50 110 130q137 162 202 172q79 34 103 34zM10 1008q126 -25 156 -68q23 -32 28 -60l-4 -80l12 -80l-28 -136l12 -72v-28l-36 -88v-16l36 -108q10 -132 64 -132
q97 -48 148 -48q71 0 220 136q36 59 104 140q44 99 44 132v48q32 105 32 192v12q0 68 -136 84q-124 8 -124 44q-11 0 -16 40q0 34 56 52l56 -8l4 4v-4l88 20h92q98 0 116 -144v-8l-16 -140l20 -96l-12 -92l4 -92l-8 -100q0 -128 104 -176q114 -27 128 -52q12 -15 12 -36v-12
q0 -69 -100 -84l-140 16l-60 16q-25 16 -36 40l-20 24q0 38 -56 44q-108 0 -172 -92q-43 -29 -184 -60h-4q-184 17 -184 48q-140 92 -140 240v12l20 128l-32 124v12l20 104l-20 164q-10 32 -64 60q-59 32 -68 64v16q23 96 84 96z" />
    <glyph glyph-name="udieresis" unicode="&#xfc;" horiz-adv-x="1306" 
d="M79 1083q73 0 116 -104l4 -44l-12 -104v-8l16 -80v-4q0 -20 -36 -88l-4 -32v-16l24 -88l-4 -96q0 -228 116 -276l44 -8q37 0 152 48q110 30 268 164q56 125 56 236q7 0 20 144v44q0 77 -100 164q-40 44 -40 64v8q0 23 112 36q148 -38 148 -92l28 -108q-48 -114 -48 -140
v-12l28 -116v-20l-12 -88l16 -96l-8 -52q0 -53 48 -140q17 -44 112 -104l12 -36l-4 -4h4q-18 -96 -140 -96h-24q-128 0 -152 104q-37 60 -92 60q-164 -18 -164 -36q-34 -47 -228 -96q-56 0 -144 -16q-56 0 -164 104l-4 24l8 68l-32 116v20q0 25 28 104v20l-12 68v8l24 56
q22 31 24 64l-28 100l12 108q0 47 -64 124l-8 36v16q0 59 80 88zM120 1497h8q39 0 84 -80q52 -51 56 -84q0 -57 -112 -132l-28 -4h-20q-176 38 -176 152v4q0 72 112 92l4 -4h4l-4 -28v-24q11 -44 44 -44q68 18 68 68q0 35 -72 48l-4 4v8q12 24 36 24zM832 1473
q136 -52 136 -142v-16q-45 -126 -168 -126h-6q-84 0 -130 169q34 78 141 115h27z" />
    <glyph glyph-name="yacute" unicode="&#xfd;" horiz-adv-x="1299" 
d="M938 1549h13q89 -15 89 -99q-28 -87 -102 -134l-233 -84q-115 -51 -144 -51h-4q-34 2 -34 32q16 50 110 130q137 162 202 172q79 34 103 34zM536 338q9 -24 32 -24q54 20 96 120q10 62 34 104q20 20 24 48l2 48q28 92 60 180q8 12 12 64q0 77 -76 112q-12 15 -12 28
q0 32 100 48l121 11l175 -15q24 0 24 -28q-3 -18 -84 -60q-69 -57 -88 -120l-56 -100q-18 -104 -56 -160q-30 -34 -56 -124q-38 -104 -60 -172l-7 -26q-16 -50 -53 -146q-24 -95 -84 -264q-13 -49 -88 -132q-49 -27 -96 -104q-38 -20 -176 -44h-8q-47 0 -184 52
q-54 33 -92 172l-8 60v4q0 57 44 100q58 32 92 34h12q41 0 100 -74l8 -24v-32q-20 -77 -20 -108q0 -48 80 -48h4q95 0 121 71q47 58 79 125q24 34 24 184q-66 184 -109 324q-30 45 -49 124q-48 84 -92 184q-66 192 -194 264l-20 20v4q0 52 116 52l122 4q18 0 88 -16h44
q44 -8 44 -40v-4q0 -26 -92 -84l-16 -52v-4q10 -87 94 -200q17 -34 26 -59l6 -25l20 -104l49 -87z" />
    <glyph glyph-name="ydieresis" unicode="&#xff;" horiz-adv-x="1296" 
d="M240 1517h8q39 0 84 -80q52 -51 56 -84q0 -57 -112 -132l-28 -4h-20q-176 38 -176 152v4q0 72 112 92l4 -4h4l-4 -28v-24q11 -44 44 -44q68 18 68 68q0 35 -72 48l-4 4v8q12 24 36 24zM952 1493q136 -52 136 -142v-16q-45 -126 -168 -126h-6q-84 0 -130 169
q34 78 141 115h27zM536 338q9 -24 32 -24q54 20 96 120q10 62 34 104q20 20 24 48l2 48q28 92 60 180q8 12 12 64q0 77 -76 112q-12 15 -12 28q0 32 100 48l121 11l175 -15q24 0 24 -28q-3 -18 -84 -60q-69 -57 -88 -120l-56 -100q-18 -104 -56 -160q-30 -34 -56 -124
q-38 -104 -60 -172l-7 -26q-16 -50 -53 -146q-24 -95 -84 -264q-13 -49 -88 -132q-49 -27 -96 -104q-38 -20 -176 -44h-8q-47 0 -184 52q-54 33 -92 172l-8 60v4q0 57 44 100q58 32 92 34h12q41 0 100 -74l8 -24v-32q-20 -77 -20 -108q0 -48 80 -48h4q95 0 121 71
q47 58 79 125q24 34 24 184q-66 184 -109 324q-30 45 -49 124q-48 84 -92 184q-66 192 -194 264l-20 20v4q0 52 116 52l122 4q18 0 88 -16h44q44 -8 44 -40v-4q0 -26 -92 -84l-16 -52v-4q10 -87 94 -200q17 -34 26 -59l6 -25l20 -104l49 -87z" />
    <glyph glyph-name="Ccaron" unicode="&#x10c;" horiz-adv-x="1227" 
d="M614 1442h16q29 0 104 -56q60 -28 96 -28h28l88 32q60 -11 60 -52l-16 -80l12 -92l-4 -52q0 -66 48 -236q-16 -80 -64 -80q-44 0 -128 176q-26 0 -56 144l-116 156q-110 60 -136 60h-4q-29 0 -104 -60q-98 -20 -136 -72l-60 -72q-41 -87 -76 -124q-31 -24 -44 -120
l-40 -148h4l-4 -4v-4l12 -80v-68l-4 -4q0 -47 76 -128q20 -48 28 -108l-4 -44q0 -10 60 -40q66 -67 108 -80q24 -25 35 -61l10 -2q16 -24 40 -24h16q18 0 191 9l101 59q79 78 129 165q26 44 48 108q19 70 78 70h4q36 0 36 -32v-8l-13 -76q-11 -124 -107 -248
q-22 -75 -200 -156l-160 -32q-75 20 -164 24q-76 60 -84 60q-62 8 -120 72q-50 64 -60 104v24l4 28q-96 79 -96 148q-8 136 -32 136q-24 43 -24 64l24 100l-12 88v4q0 58 40 188q0 75 80 180q38 114 92 140q111 72 152 72q74 52 176 52q20 8 72 8zM813 1841q68 12 68 -40
q-22 -67 -203 -188q-58 -51 -110 -57h-10q-39 0 -129 66q-36 14 -153 118q-45 35 -45 61q10 22 20 24h25q117 -32 188 -71l82 -18q87 29 199 85z" />
    <glyph glyph-name="ccaron" unicode="&#x10d;" horiz-adv-x="1206" 
d="M747 1511q68 12 68 -40q-22 -67 -203 -188q-58 -51 -110 -57h-10q-39 0 -129 66q-36 14 -153 118q-45 35 -45 61q10 22 20 24h25q117 -32 188 -71l82 -18q87 29 199 85zM380 1076q113 -8 164 -20l84 16q31 -2 88 -32q125 -36 160 -100q92 -64 92 -144l4 -48
q0 -70 -92 -108l-28 -4q-116 13 -116 112q0 26 56 108v24q0 16 -108 56q-79 56 -112 56h-20l-88 -44q-17 -12 -124 -36q-28 -3 -148 -120l-28 -116q-9 0 -24 -68v-40q-9 -144 -44 -160q-96 35 -96 92v24q0 50 32 160q0 85 80 156l72 116q127 120 196 120zM920 384h4
q88 -15 88 -76q0 -66 -232 -240q-26 -22 -156 -68h-8l-84 12l-112 -8h-12l-16 -4q-42 0 -120 52q-92 35 -116 80q0 9 -88 132l-4 24v12q0 44 44 76h16q84 -53 140 -140l124 -48q0 -10 48 -20l80 8l68 -4q111 0 200 140q96 72 136 72z" />
    <glyph glyph-name="Dcaron" unicode="&#x10e;" horiz-adv-x="1432" 
d="M102 1410l134 2l140 16l132 -16l120 16q112 -24 180 -24q115 0 160 -72q128 -51 128 -100q6 0 24 -76l32 -64q28 -36 28 -136q64 -83 64 -148v-20q0 -64 -20 -116l4 -100q-36 -98 -48 -204l-84 -136q-14 -60 -84 -116q-33 -13 -112 -92q0 -13 -176 -32l-100 16
q-98 0 -196 -28h-8l-168 20l-108 -12q-132 21 -132 48v12q0 57 148 68q128 26 128 60q17 17 36 124q8 3 20 40q-40 69 -40 184l-4 28l28 108q-6 184 -12 184l4 64v60q0 28 32 96v4l-16 60q0 53 -80 148q-61 32 -104 32l-88 -8h-4q-50 0 -80 48v16q18 30 122 46zM364 1116v-4
q1 -8 40 -32q28 -62 28 -120v-12l4 -4l-4 -4v-4l4 -4l-4 -4v-28l-16 -124v-16l12 -116l-12 -80l4 -4h-4l16 -100q0 -48 -56 -120v-8q0 -14 60 -108q0 -41 68 -84l172 -52q52 0 216 108q69 83 104 164q65 85 68 136l-4 60q0 17 40 88l4 20l-28 108l4 84v76q0 25 -72 132
l-48 116q-50 60 -120 72q-78 9 -168 44l-36 4q-166 0 -196 -92q-10 -34 -68 -84zM903 1791q68 12 68 -40q-22 -67 -203 -188q-58 -51 -110 -57h-10q-39 0 -129 66q-36 14 -153 118q-45 35 -45 61q10 22 20 24h25q117 -32 188 -71l82 -18q87 29 199 85z" />
    <glyph glyph-name="dcaron" unicode="&#x10f;" horiz-adv-x="1331" 
d="M1074 1547h6q66 0 120 -88q6 -21 13 -76q0 -10 -29 -64q-7 -69 -15 -77q-15 -46 -62 -79q-46 -67 -86 -67l-3 -2h-2q-42 11 -42 42v4q15 44 40 67q33 24 33 42v13q0 41 -64 99q-20 27 -20 58q23 101 51 101q43 27 60 27zM568 1422h8l64 -8l116 8h20q88 0 88 -136l8 -68
l-4 -116l4 -88l-12 -72q0 -58 8 -88h-4l4 -4v-4q0 -90 12 -204q-12 -94 -12 -228q12 -68 16 -152q69 -100 132 -100h68q48 -10 48 -48q0 -81 -76 -92h-72l-84 -20q-30 0 -156 56l-32 4l-116 -32q-57 0 -212 -48h-20q-31 6 -112 60q-96 48 -96 108q0 41 60 52q37 0 168 -80
q16 -8 44 -8q43 0 100 72q45 10 128 100q43 33 88 204v28l-40 168q0 77 -88 164q-101 116 -144 116q-159 -46 -220 -92q-80 -50 -80 -116l-56 -148l-12 -156q0 -46 68 -132l4 -24q0 -52 -52 -64h-24q-57 0 -72 88q0 64 -24 144l-4 24l16 88l-8 80v4q0 24 40 120q9 27 96 108
q23 72 72 100q101 56 208 56q44 0 136 -52q108 -36 144 -36q60 0 60 96v96q0 137 -56 156q-52 48 -184 48q-48 19 -48 28v4q31 36 92 36z" />
    <glyph glyph-name="Ecaron" unicode="&#x11a;" 
d="M898 1369q196 -26 196 -64q14 0 24 -76l-4 -24q32 -141 32 -176l-8 -60v-4l16 -84q-6 -24 -28 -24h-8q-48 0 -48 104l-72 176q-96 96 -144 96h-16l-76 -8h-12l-44 8h-96l-148 24h-4q-86 0 -102 -135l-3 -25l-1 -31v-16l-8 -150l-9 -36q-28 -50 -47 -32l-13 17
q-9 31 -9 90l4 114v36q0 137 -52 140q-16 8 -68 12l-99 -6q-55 18 -55 46q0 42 174 64q0 8 80 16l120 -20l104 16l72 -4h16l36 4l40 -4h12zM430 -57q-19 1 -41 2h-15q-51 8 -212 16q-156 0 -156 52t128 72q79 23 100 68q7 0 20 52l-8 76l28 180l-4 168l4 116q14 56 28 60h4
q150 -64 164 -64h4q176 16 200 84l28 68l20 12q44 0 64 -128l24 -112q-28 -81 -28 -104l16 -88q-17 -60 -56 -60q-45 0 -72 124q-54 84 -148 84l-96 44q-84 -54 -84 -112v-4l8 -76q0 -108 -16 -208l4 -36l-8 -76q0 -39 99 -91q31 -9 58 -14l212 -1l84 16h60q52 0 88 52
q101 77 116 172v12l-4 32q10 100 32 100h12q35 -25 64 -104v-28l-12 -96v-8l4 -80q-14 -148 -100 -148q-52 0 -168 -32h-4l-132 24h-36l-108 -24l-120 8l-21 -4zM916 1800q68 12 68 -40q-22 -67 -203 -188q-58 -51 -110 -57h-10q-39 0 -129 66q-36 14 -153 118
q-45 35 -45 61q10 22 20 24h25q117 -32 188 -71l82 -18q87 29 199 85z" />
    <glyph glyph-name="ecaron" unicode="&#x11b;" horiz-adv-x="1217" 
d="M747 1461q68 12 68 -40q-22 -67 -203 -188q-58 -51 -110 -57h-10q-39 0 -129 66q-36 14 -153 118q-45 35 -45 61q10 22 20 24h25q117 -32 188 -71l82 -18q87 29 199 85zM524 1010h20l164 -28q69 0 220 -132q40 -58 68 -192q24 -43 24 -68v-4q0 -56 -56 -116
q-43 -24 -64 -24h-16q-87 16 -180 16l-104 -20q-95 24 -136 24l-104 -24h-64q-148 -37 -148 -124v-28q0 -42 44 -56q56 -9 144 -100q38 -28 156 -40l72 -4q63 0 160 56l112 36q59 52 92 52q44 -19 44 -52v-12q0 -102 -272 -200q-65 -20 -88 -20h-4q-152 12 -260 32
q-19 6 -84 80l-108 60q-28 35 -40 100q-72 75 -72 148q-44 92 -44 184v8q0 55 48 140q14 56 76 124q33 88 56 88l172 32q105 64 172 64zM180 678q0 -65 112 -104l40 4h60l148 -8q280 35 280 52q20 33 20 60q0 84 -172 168l-140 36l-168 -20q-24 0 -172 -152z" />
    <glyph glyph-name="dotlessi" unicode="&#x131;" horiz-adv-x="1080" 
d="M258 1113q206 -6 206 -41q40 -39 40 -108l-4 -72v-4q0 -38 32 -124l4 -16q0 -19 -32 -108v-12q0 -12 40 -64l4 -28q-28 -82 -28 -120q0 -59 48 -202q56 -36 144 -36q50 -27 135 -41q61 -15 61 -45v-12q0 -57 -104 -76h-48l-145 -2h-26q-51 3 -177 -10q-105 0 -155 10
l-85 -6l-68 -8q-104 8 -97 63q-13 54 85 81h4l76 22l73 22q84 3 105 62q20 67 20 86v60l8 64v20l4 176l-16 108l20 100q0 85 -102 100l-72 4l-91 13q-57 0 -86 57q10 55 47 62l65 14z" />
    <glyph glyph-name="Lacute" unicode="&#x139;" horiz-adv-x="1425" 
d="M868 1841h13q89 -15 89 -99q-28 -87 -102 -134l-233 -84q-115 -51 -144 -51h-4q-34 2 -34 32q16 50 110 130q137 162 202 172q79 34 103 34zM309 1405h16l120 4l96 16l72 -12l96 4l92 -20l34 -7l12 -7v-4l-2 -47q-32 -43 -68 -43l-74 -10q-154 -20 -183 -69l-43 -77v-12
q12 -48 20 -284q-44 -114 -44 -132l56 -152v-4q0 -34 -44 -88q10 -46 56 -148l-4 -96q32 -64 72 -64q8 -10 100 -32l88 8l60 -8l112 44q74 0 140 84l8 28v44l-8 148q15 152 68 152q37 0 68 -148v-32l-12 -72l4 -28v-156q0 -146 -96 -180q-129 -32 -244 -32l-192 16h-20
l-108 -12h-140l-112 -20l-80 4l-60 -4q-172 33 -172 76v20q0 64 156 64h4l96 -16q62 0 152 124l8 40l-20 128v16q0 19 24 64v4l-48 116v44l12 64l-12 92v16l12 104l-20 140l28 80q0 61 -96 108q-54 0 -188 28q-76 0 -100 44l-8 24q3 38 25 54l35 6h52h8q38 -20 108 0z" />
    <glyph glyph-name="lacute" unicode="&#x13a;" horiz-adv-x="1267" 
d="M908 1841h13q89 -15 89 -99q-28 -87 -102 -134l-233 -84q-115 -51 -144 -51h-4q-34 2 -34 32q16 50 110 130q137 162 202 172q79 34 103 34zM260 1464l276 -32q56 -37 56 -88q0 -118 -28 -172l-4 -12v-4q32 -71 32 -160q-11 -68 -48 -120q-20 -15 -20 -52l56 -56l12 -56
l-8 -76l24 -120v-4l-12 -100v-8q36 -134 36 -168q21 -68 152 -68l104 -20l76 4q140 -24 140 -72q0 -67 -172 -84l-100 4l-220 -16l-100 16h-4l-132 -20l-116 8h-108q-113 0 -148 88l-4 16q0 25 44 36q41 -20 64 -20q22 0 88 56q32 24 72 24h56q121 0 148 224l-8 124l12 108
l-20 104l36 112v12q0 36 -24 112v20l12 80v20l-40 156q-21 52 -100 52h-40l-192 8h-24q-68 16 -68 56v8q0 48 88 68h36z" />
    <glyph glyph-name="Lcaron" unicode="&#x13d;" horiz-adv-x="1407" 
d="M309 1405h16l120 4l96 16l72 -12l96 4l92 -20l34 -7l12 -7v-4l-2 -47q-32 -43 -68 -43l-74 -10q-154 -20 -183 -69l-43 -77v-12q12 -48 20 -284q-44 -114 -44 -132l56 -152v-4q0 -34 -44 -88q10 -46 56 -148l-4 -96q32 -64 72 -64q8 -10 100 -32l88 8l60 -8l112 44
q74 0 140 84l8 28v44l-8 148q15 152 68 152q37 0 68 -148v-32l-12 -72l4 -28v-156q0 -146 -96 -180q-129 -32 -244 -32l-192 16h-20l-108 -12h-140l-112 -20l-80 4l-60 -4q-172 33 -172 76v20q0 64 156 64h4l96 -16q62 0 152 124l8 40l-20 128v16q0 19 24 64v4l-48 116v44
l12 64l-12 92v16l12 104l-20 140l28 80q0 61 -96 108q-54 0 -188 28q-76 0 -100 44l-8 24q3 38 25 54l35 6h52h8q38 -20 108 0zM1020 1611h6q66 0 120 -88q6 -21 13 -76q0 -10 -29 -64q-7 -69 -15 -77q-15 -46 -62 -79q-46 -67 -86 -67l-3 -2h-2q-42 11 -42 42v4
q15 44 40 67q33 24 33 42v13q0 41 -64 99q-20 27 -20 58q23 101 51 101q43 27 60 27z" />
    <glyph glyph-name="lcaron" unicode="&#x13e;" horiz-adv-x="1288" 
d="M260 1464l276 -32q56 -37 56 -88q0 -118 -28 -172l-4 -12v-4q32 -71 32 -160q-11 -68 -48 -120q-20 -15 -20 -52l56 -56l12 -56l-8 -76l24 -120v-4l-12 -100v-8q36 -134 36 -168q21 -68 152 -68l104 -20l76 4q140 -24 140 -72q0 -67 -172 -84l-100 4l-220 -16l-100 16h-4
l-132 -20l-116 8h-108q-113 0 -148 88l-4 16q0 25 44 36q41 -20 64 -20q22 0 88 56q32 24 72 24h56q121 0 148 224l-8 124l12 108l-20 104l36 112v12q0 36 -24 112v20l12 80v20l-40 156q-21 52 -100 52h-40l-192 8h-24q-68 16 -68 56v8q0 48 88 68h36zM766 1590h6
q66 0 120 -88q6 -21 13 -76q0 -10 -29 -64q-7 -69 -15 -77q-15 -46 -62 -79q-46 -67 -86 -67l-3 -2h-2q-42 11 -42 42v4q15 44 40 67q33 24 33 42v13q0 41 -64 99q-20 27 -20 58q23 101 51 101q43 27 60 27z" />
    <glyph glyph-name="Ncaron" unicode="&#x147;" horiz-adv-x="1396" 
d="M903 1791q68 12 68 -40q-22 -67 -203 -188q-58 -51 -110 -57h-10q-39 0 -129 66q-36 14 -153 118q-45 35 -45 61q10 22 20 24h25q117 -32 188 -71l82 -18q87 29 199 85zM261 465q-9 62 -13 177l4 104q-24 92 -32 160l16 108v8q-24 146 -24 200q-15 58 -140 80
q-52 31 -52 60q0 33 100 64q8 10 52 12h8q33 0 84 -20l12 -4q61 4 92 0q47 -4 96 -72q0 -18 80 -100l4 -20v-36q0 -39 64 -112q0 -87 64 -204q0 -53 116 -296l4 -32v-4l24 -38q32 -46 105 -161q28 4 15 203q-6 88 -12 88q2 25 16 96l4 20v12q0 14 -20 76l-4 16v20l32 96
q-11 44 -44 104q3 114 -6 169q-72 63 -138 63q-72 0 -72 40t72 72l136 32l120 -36h12l112 24q72 -25 112 -60q0 -24 -148 -100q-36 -29 -36 -184l-12 -64l4 -80v-44q0 -26 -24 -112l-4 -24q20 -84 20 -116l-8 -196l20 -152l-8 -92l8 -100l-4 -4h4q0 -67 -80 -110h-16
q-27 0 -96 90q-44 17 -44 100q-2 36 -44 112q-28 51 -28 160l-21 10q-12 39 -51 94q-80 83 -80 148q0 18 -60 116q-49 137 -80 184q-32 36 -74 84q-18 14 -31 9q-19 -88 -19 -249v-136q0 -11 4 -48q16 -21 4 -76h-4l4 -4v-4l-4 -4l4 -4v-36q0 -62 -15 -131q19 -163 43 -201
q11 -64 56 -64l120 -28q44 -24 44 -68q-24 -48 -72 -48l-144 -8l-44 4l-96 -8q-82 24 -220 24l-28 24v20q0 47 176 112l72 96z" />
    <glyph glyph-name="ncaron" unicode="&#x148;" horiz-adv-x="1493" 
d="M957 1511q68 12 68 -40q-22 -67 -203 -188q-58 -51 -110 -57h-10q-39 0 -129 66q-36 14 -153 118q-45 35 -45 61q10 22 20 24h25q117 -32 188 -71l82 -18q87 29 199 85zM814 1040q168 -35 195 -88q19 -11 31 -43q26 -52 46 -141l8 -60l-24 -100l24 -108l-12 -76l16 -88
l-4 -104q0 -55 80 -100q60 -25 99 -55q24 -9 22 -44q-15 -37 -105 -37q-59 0 -144 14l-184 -6q-128 11 -128 76q0 43 108 68q88 27 88 80l16 136l16 64v72q0 44 24 164l-17 108q-26 54 -83 106q-47 32 -96 32q-93 0 -176 -62l-68 -56l-80 -36q-23 -37 -92 -88
q-44 -142 -44 -188l24 -124l-4 -40l-4 -128q0 -39 144 -88q36 -28 36 -48v-8q0 -33 -52 -36l-103 -14q-57 18 -177 -10q-92 24 -164 32q-40 24 -40 52q0 51 79 55q46 13 72 11t43.5 11t17.5 75q16 76 16 120l-16 120l16 92l-4 20v36l16 92q-9 196 -44 204q-70 0 -84 56v8
q0 44 64 52h8q156 -13 156 -88q27 -84 80 -84h8q21 0 84 56q67 56 156 96q0 10 96 32z" />
    <glyph glyph-name="Racute" unicode="&#x154;" horiz-adv-x="1458" 
d="M764 1426q160 -44 260 -92q51 0 116 -160q14 -18 24 -72q0 -82 -56 -256q-24 -54 -116 -100q-52 -32 -52 -128l-8 -40q0 -33 40 -88l4 -20l-4 -72l40 -148q47 -90 96 -104q172 -15 172 -68v-8q0 -68 -184 -68h-64q-112 0 -160 152v8l28 188q-44 196 -72 196q0 14 -84 80
q-49 28 -168 40q-37 12 -72 12h-4q-143 0 -156 -55q-7 -22 -17 -47l-16 -12q-55 -12 -61 62l4 84l-12 64v8l24 96l-20 72l-4 36v12q0 52 12 92q6 174 -53 180q-73 14 -85 14q-124 13 -124 74v4q10 28 48 28h4q18 0 108 6l20 -4h4q17 0 76 10l16 4q126 0 168 2l40 -8
q11 0 96 10l52 8l52 -4zM360 938v-8q0 -52 100 -84q75 -42 124 -42q27 0 136 38l52 8l28 -4q77 0 192 84q20 24 20 52v4q-23 200 -44 200q-78 84 -288 84l-48 -4h-24l-112 10h-4q-37 0 -84 -50q-48 -189 -48 -288zM308 551q17 0 24 -103q-3 -90 -40 -90q-48 34 -48 85v9
q29 99 64 99zM292 344h4q20 0 48 -68q19 -126 68 -126l172 -40q44 -27 44 -56q0 -36 -64 -52l-80 8l-152 -20l-4 4h-8l-4 -4l-96 20l-96 -4q-120 19 -120 48v16q0 21 100 36q10 13 120 52q18 0 32 146q26 40 36 40zM1047 1828h13q89 -15 89 -99q-28 -87 -102 -134l-233 -84
q-115 -51 -144 -51h-4q-34 2 -34 32q16 50 110 130q137 162 202 172q79 34 103 34z" />
    <glyph glyph-name="racute" unicode="&#x155;" horiz-adv-x="1392" 
d="M982 1605h13q89 -15 89 -99q-28 -87 -102 -134l-233 -84q-115 -51 -144 -51h-4q-34 2 -34 32q16 50 110 130q137 162 202 172q79 34 103 34zM850 1102l204 -24q148 -54 148 -176l16 -80q0 -47 -100 -96l-40 -8q-79 0 -116 108v12l4 40q-14 84 -72 84h-24q-64 -5 -176 -56
q-56 -36 -132 -136q-72 -59 -72 -112q-32 -122 -32 -164v-12l28 -144q0 -100 60 -100l184 -64l16 -4l60 8q41 0 64 -84v-12q0 -62 -128 -72l-120 -16q-69 16 -188 20q0 9 -60 12h-24q-28 0 -128 -36h-8q-28 0 -112 36q-112 20 -112 72v12q0 69 152 88q175 80 176 108
q11 0 24 136q16 33 16 76l-8 152q12 50 12 100q-26 152 -72 152q-116 56 -204 56q-32 21 -32 44q0 49 104 56q33 0 96 16h20q172 0 208 -108v-72q0 -56 44 -56q34 0 76 112q46 72 84 72l144 60h20z" />
    <glyph glyph-name="Rcaron" unicode="&#x158;" horiz-adv-x="1421" 
d="M903 1791q68 12 68 -40q-22 -67 -203 -188q-58 -51 -110 -57h-10q-39 0 -129 66q-36 14 -153 118q-45 35 -45 61q10 22 20 24h25q117 -32 188 -71l82 -18q87 29 199 85zM764 1426q160 -44 260 -92q51 0 116 -160q14 -18 24 -72q0 -82 -56 -256q-24 -54 -116 -100
q-52 -32 -52 -128l-8 -40q0 -33 40 -88l4 -20l-4 -72l40 -148q47 -90 96 -104q172 -15 172 -68v-8q0 -68 -184 -68h-64q-112 0 -160 152v8l28 188q-44 196 -72 196q0 14 -84 80q-49 28 -168 40q-37 12 -72 12h-4q-143 0 -156 -55q-7 -22 -17 -47l-16 -12q-55 -12 -61 62
l4 84l-12 64v8l24 96l-20 72l-4 36v12q0 52 12 92q6 174 -53 180q-73 14 -85 14q-124 13 -124 74v4q10 28 48 28h4q18 0 108 6l20 -4h4q17 0 76 10l16 4q126 0 168 2l40 -8q11 0 96 10l52 8l52 -4zM360 938v-8q0 -52 100 -84q75 -42 124 -42q27 0 136 38l52 8l28 -4
q77 0 192 84q20 24 20 52v4q-23 200 -44 200q-78 84 -288 84l-48 -4h-24l-112 10h-4q-37 0 -84 -50q-48 -189 -48 -288zM308 551q17 0 24 -103q-3 -90 -40 -90q-48 34 -48 85v9q29 99 64 99zM292 344h4q20 0 48 -68q19 -126 68 -126l172 -40q44 -27 44 -56q0 -36 -64 -52
l-80 8l-152 -20l-4 4h-8l-4 -4l-96 20l-96 -4q-120 19 -120 48v16q0 21 100 36q10 13 120 52q18 0 32 146q26 40 36 40z" />
    <glyph glyph-name="rcaron" unicode="&#x159;" horiz-adv-x="1199" 
d="M196 1088q76 0 124 -124q22 -24 48 -24h8q42 0 140 88q136 60 208 60l112 -16l24 4q102 0 148 -136l4 -28q0 -77 -88 -136h-20q-29 0 -100 80q-42 28 -100 28q-91 0 -196 -92q-109 -47 -144 -148l-24 -132l4 -80v-12l-12 -100q16 -130 84 -152q80 -20 164 -60
q35 0 48 -24v-12q0 -47 -120 -64h-16l-76 8h-32l-88 -16q-120 0 -212 32q-68 0 -68 20v16l84 68l108 144v20l-16 104l8 116l-12 100l4 152q-21 128 -64 128l-12 4h-56q-60 8 -60 56v4q0 85 80 104zM747 1511q68 12 68 -40q-22 -67 -203 -188q-58 -51 -110 -57h-10
q-39 0 -129 66q-36 14 -153 118q-45 35 -45 61q10 22 20 24h25q117 -32 188 -71l82 -18q87 29 199 85z" />
    <glyph glyph-name="Scaron" unicode="&#x160;" horiz-adv-x="1217" 
d="M575 -59l-31 7q-41 0 -84 9q-43 27 -80 27l-136 76q-19 25 -60 60l-33 6q-63 11 -122 -23l-19 4q-41 7 -45 89v4l60 111l-3 5l2 11l-13 79l-3 50v8l20 20h28q69 0 104 -72q3 -11 7 -22q53 -60 48 -84q42 -77 78 -134l18 -22q30 -16 54 -36l22 -5l13 -9l100 -16l70 -4
l26 2h32q140 10 164 69v1q56 94 66 140q0 44 14 140v16q0 62 -84 128q-83 84 -172 84l-28 -4l-124 40q-84 32 -128 32q-62 0 -104 40q-146 54 -168 112q-52 57 -52 172q-12 29 -12 60v4q0 31 56 76q22 20 40 96q41 55 156 96l176 44l128 -40q58 0 208 -72l36 -4l88 56l32 4
q41 0 56 -60l4 -24q-8 -55 -36 -132l-4 -28l20 -116q-15 -52 -52 -52h-4q-81 0 -200 204q-47 61 -124 80l-108 48l-48 8q-212 -19 -212 -44l-88 -112l-12 -92v-16q0 -44 88 -104q95 -90 196 -124q93 -28 240 -44l60 8q139 -47 196 -108q130 -147 140 -252l-3 -104
q-50 -190 -135 -244q-16 -12 -30 -22l-42 -37q-42 -21 -69 -28q-48 -25 -79 -28q-22 -9 -34 -9h-24q-15 0 -41 1zM745 1836q68 12 68 -40q-22 -67 -203 -188q-58 -51 -110 -57h-10q-39 0 -129 66q-36 14 -153 118q-45 35 -45 61q10 22 20 24h25q117 -32 188 -71l82 -18
q87 29 199 85z" />
    <glyph glyph-name="scaron" unicode="&#x161;" horiz-adv-x="1159" 
d="M747 1481q68 12 68 -40q-22 -67 -203 -188q-58 -51 -110 -57h-10q-39 0 -129 66q-36 14 -153 118q-45 35 -45 61q10 22 20 24h25q117 -32 188 -71l82 -18q87 29 199 85zM892 538q26 -25 58 -84q28 -52 28 -94v-8q-24 -153 -76 -236q-33 -33 -148 -93q-12 -18 -68 -33
q-65 16 -124 20l-144 -20l-152 49l-84 8l-112 -16q-68 13 -68 69l18 59q-20 54 -30 135v20q17 61 60 61h12l68 -69q48 -65 116 -102l168 -63l64 -13h16q57 0 186 49l77 56q47 75 47 91q0 33 -48 126q-50 36 -108 36q-97 33 -126 33l-84 -4q-161 40 -272 40q-113 75 -124 111
l-29 118l13 56q0 100 72 139q63 77 180 77q0 5 56 12q53 -12 160 -16q27 -15 156 -33q39 -20 60 -20h36q18 0 88 37h20q56 0 56 -98q-15 -54 -12 -88q43 -98 -1 -155l-30 -5q-19 3 -36 21q-29 29 -36 47q-9 12 -22 22l-12 15q-25 43 -91 77q-49 49 -172 62q-57 20 -88 20
h-16q-52 0 -194 -48q-52 -72 -58 -98q0 -26 24 -79q77 -88 328 -88l80 12l80 -8q52 0 127 -39l71 -42q11 -7 40 -26z" />
    <glyph glyph-name="Tcaron" unicode="&#x164;" horiz-adv-x="1227" 
d="M793 1791q68 12 68 -40q-22 -67 -203 -188q-58 -51 -110 -57h-10q-39 0 -129 66q-36 14 -153 118q-45 35 -45 61q10 22 20 24h25q117 -32 188 -71l82 -18q87 29 199 85zM434 1139l4 76l-34 45q0 13 -76 24q-180 -28 -180 -52q-23 0 -52 -152q-20 -45 -20 -108v-80
q-18 -96 -56 -96q-32 15 -32 56v28q0 46 36 176v4l-16 76l4 84v36q0 116 168 164h8l88 -4l212 16q128 -16 200 -16l92 16h4q168 -14 168 -40q100 -93 100 -192l-16 -104l20 -120l-8 -88q16 -61 16 -88q-10 -60 -48 -60h-4q-49 0 -60 96l4 64l-32 152l16 72v8q0 72 -148 104
q-12 0 -64 40q-20 12 -40 12h-12q-47 0 -84 -71l12 -61q-18 -35 -28 -156v-4l16 -72v-4q0 -19 -56 -148v-8l8 -92l-8 -112l16 -84l-20 -120q28 -184 56 -184q29 -36 165 -57l88 -29q47 -16 73 -50q14 -46 -54 -64l-20 4l-136 -4l-124 12l-116 -8q-97 28 -216 28l-96 -4h-8
q-76 14 -76 60q0 40 80 52l4 -4q112 32 204 44q56 38 56 92q28 74 28 92v24l-16 92l20 88v16l-16 116q7 37 32 96v4l-20 92v12l28 108z" />
    <glyph glyph-name="tcaron" unicode="&#x165;" horiz-adv-x="1141" 
d="M654 1633h6q66 0 120 -88q6 -21 13 -76q0 -10 -29 -64q-7 -69 -15 -77q-15 -46 -62 -79q-46 -67 -86 -67l-3 -2h-2q-42 11 -42 42v4q15 44 40 67q33 24 33 42v13q0 41 -64 99q-20 27 -20 58q23 101 51 101q43 27 60 27zM330 1246q-13 54 -22 94v16q21 62 80 86h8
q39 -10 48 -70v-24q-7 -60 -5 -102q1 -76 26 -132q78 -46 187 -46q50 -16 84 -16l80 12q79 0 90 -56q0 -56 -78 -70h-20l-84 18h-12l-4 -4v4q-17 -8 -64 -8h-60q-132 20 -166 -144l28 -140l-28 -96l24 -108v-8l-8 -96v-28q0 -94 65 -156l84 -61q93 -18 207 128q42 69 62 182
t94 15l14 -86l-18 -96v-2q0 -137 -128 -208q-70 -30 -134 -44h-32l-140 20q-72 28 -140 100q-48 47 -80 188l24 104l-16 92v4l16 96l-12 80l20 80v20q0 126 -88 160l-68 12l-72 -4q-62 0 -92 44q35 72 96 72l56 -4q90 -3 143 68z" />
    <glyph glyph-name="Uring" unicode="&#x16e;" horiz-adv-x="1507" 
d="M1092 1380q31 0 136 -44q92 0 92 -56q0 -52 -128 -52q-33 0 -64 -56q-11 -23 -20 -96q-36 -71 -36 -92q0 -17 36 -80l4 -16l-16 -92v-84l-4 -24l4 -20v-24l4 -4v-4h-4l4 -4l-8 -72l24 -84v-16l-32 -116l28 -108q0 -46 -52 -124q-20 -61 -100 -112l-72 -52
q-62 -40 -148 -40h-68l-76 -8h-12q-15 0 -92 36q-65 2 -180 100q-24 19 -24 48v12q0 41 72 60h4q63 -3 188 -116q66 -28 88 -28h20l108 44q145 50 176 104q21 78 60 156v36l-20 88v20q24 73 24 96q-28 87 -28 228q0 37 -20 92q0 48 60 92v4q-44 49 -44 160q0 57 -172 116
q-36 25 -36 56v4q0 45 68 56h36l68 -12h8l124 28h20zM72 1344q34 0 76 -28h12l68 24q16 0 96 -44l12 -4l80 32l24 4q86 0 112 -40v-20q-13 -64 -108 -64q-97 0 -140 -72l-4 -24l4 -64v-12l-16 -84q0 -16 36 -92l4 -20v-32l-20 -116l20 -100l-24 -108l28 -84v-12
q-12 -148 -36 -148q0 -10 -32 -16h-8q-48 50 -48 132l20 100v20l-24 84l28 116v8q-17 61 -28 196l8 56v16l-28 172q-36 80 -140 80q-44 22 -44 48v20q41 76 72 76zM643 1844h5q230 -32 230 -87q13 0 26 -97v-102v-10q0 -106 -143 -123q-86 -51 -138 -51q-47 0 -184 138
q-16 29 -36 174q0 66 92 127q118 31 148 31zM518 1633q49 -120 147 -120q122 0 122 120q0 87 -106 110h-32q-100 0 -131 -110z" />
    <glyph glyph-name="uring" unicode="&#x16f;" horiz-adv-x="1418" 
d="M476 1582h5q230 -32 230 -87q13 0 26 -97v-102v-10q0 -106 -143 -123q-86 -51 -138 -51q-47 0 -184 138q-16 29 -36 174q0 66 92 127q118 31 148 31zM351 1371q49 -120 147 -120q122 0 122 120q0 87 -106 110h-32q-100 0 -131 -110zM70 1008q126 -25 156 -68
q23 -32 28 -60l-4 -80l12 -80l-28 -136l12 -72v-28l-36 -88v-16l36 -108q10 -132 64 -132q97 -48 148 -48q71 0 220 136q36 59 104 140q44 99 44 132v48q32 105 32 192v12q0 68 -136 84q-124 8 -124 44q-11 0 -16 40q0 34 56 52l56 -8l4 4v-4l88 20h92q98 0 116 -144v-8
l-16 -140l20 -96l-12 -92l4 -92l-8 -100q0 -128 104 -176q114 -27 128 -52q12 -15 12 -36v-12q0 -69 -100 -84l-140 16l-60 16q-25 16 -36 40l-20 24q0 38 -56 44q-108 0 -172 -92q-43 -29 -184 -60h-4q-184 17 -184 48q-140 92 -140 240v12l20 128l-32 124v12l20 104
l-20 164q-10 32 -64 60q-59 32 -68 64v16q23 96 84 96z" />
    <glyph glyph-name="Ydieresis" unicode="&#x178;" horiz-adv-x="1457" 
d="M1100 1347q174 -7 174 -35q-11 -42 -43 -67q-43 -13 -93 -37q-102 -22 -136 -76q-42 -39 -92 -132q-80 -43 -80 -136q0 -29 -96 -152q-78 -105 -100 -228q-11 -24 -6 -188l-4 -12q-14 -87 26 -176q22 -22 152 -48q29 -11 74 -41q16 0 54 -31q-24 -78 -80 -56
q-94 -2 -200 10q-119 -24 -220 -24l-88 8h-32q-44 0 -80 54v8q22 44 171 72q101 33 101 108q0 71 16 176l8 24q-9 228 -19 228q0 17 -36 76q-29 45 -137 244q-3 51 -148 224q-53 96 -182 122q-33 17 -40 46q19 47 166 48l48 4q84 -14 104 -22l64 14h36q51 0 72 -48
q0 -49 -100 -116q-12 -14 -16 -36q3 -34 92 -216q60 -56 108 -132q22 -20 48 -20h8q75 0 112 168q6 19 104 112q32 50 32 64v12q0 53 -80 88q-12 15 -12 28q0 39 84 84q106 0 201 -7zM261 1840h8q39 0 84 -80q52 -51 56 -84q0 -57 -112 -132l-28 -4h-20q-176 38 -176 152v4
q0 72 112 92l4 -4h4l-4 -28v-24q11 -44 44 -44q68 18 68 68q0 35 -72 48l-4 4v8q12 24 36 24zM1009 1816q100 -38 100 -104v-12q-33 -92 -124 -92h-4q-62 0 -96 124q25 57 104 84h20z" />
    <glyph glyph-name="Zcaron" unicode="&#x17d;" horiz-adv-x="1235" 
d="M785 1438q161 -18 161 -44q29 -24 29 -84v-24q0 -42 -126 -172l-152 -252q-70 -39 -106 -120q-76 -79 -110 -156q-139 -170 -185 -212q-55 -42 -55 -92v-36q-76 -126 101 -114h9l54 4q57 -8 89 -24l152 4q35 0 113 13q131 48 161 189v4l-12 88v4q21 67 65 122
q14 20 30 32l24 -2q20 -9 20 -42v-4l-8 -110v-4l4 -4v-4h-4l4 -4v-40l-26 -124v-4l9 -96q-21 -130 -177 -120l-64 -4l-118 8l-93 -12l-76 8l-101 -12l-72 4l-194 -12q-110 9 -125 59l-9 30l3 35q0 12 59 108q68 70 97 108q25 0 64 120q122 168 122 196q37 50 122 140l60 108
q88 75 88 84q12 62 110 172q38 49 73 161q7 60 -166 35q-13 0 -76 6q-51 -10 -143 -10l-81 -2q-90 0 -126 -96q-18 -194 -85 -212h-4q-44 14 -39 119q-6 21 22 73l4 20v16l-12 108v4q0 58 110 70q37 0 114 -14q49 16 101 16q195 -3 272 -22l49 4q27 12 50 12zM783 1811
q68 12 68 -40q-22 -67 -203 -188q-58 -51 -110 -57h-10q-39 0 -129 66q-36 14 -153 118q-45 35 -45 61q10 22 20 24h25q117 -32 188 -71l82 -18q87 29 199 85z" />
    <glyph glyph-name="zcaron" unicode="&#x17e;" horiz-adv-x="1184" 
d="M817 1471q68 12 68 -40q-22 -67 -203 -188q-58 -51 -110 -57h-10q-39 0 -129 66q-36 14 -153 118q-45 35 -45 61q10 22 20 24h25q117 -32 188 -71l82 -18q87 29 199 85zM812 1068q67 -3 148 -52q24 -25 24 -56q0 -44 -148 -184q-18 0 -112 -112q-85 -54 -112 -88
q-30 -73 -156 -160q-28 -55 -112 -124q-28 -29 -28 -56v-16q0 -54 172 -76h36l128 16l68 -8q43 0 128 108q64 116 64 180q14 28 36 28h20q17 0 28 -40v-56l-4 -24q10 -60 10 -96q0 -48 -42 -192q-62 -60 -160 -60q-169 32 -212 32h-4l-132 -16l-116 8l-116 -20
q-163 12 -176 40q-44 31 -44 68q34 88 100 124q56 15 112 124l116 92q103 137 160 156q33 47 124 120q25 52 108 124l4 16v16q-18 60 -100 60l-88 -12q-81 24 -104 24q-40 0 -180 -72q-84 -90 -84 -148v-72q0 -22 -20 -32h-12q-44 0 -48 108q20 229 32 256q55 52 128 52
l88 -4q58 12 112 12h24q47 0 144 -16l192 28h4z" />
    <glyph glyph-name="circumflex" unicode="&#x2c6;" horiz-adv-x="825" 
d="M515 1528q-112 56 -199 85l-82 -18q-71 -39 -188 -71h-25q-10 2 -20 24q0 26 45 61q117 104 153 118q90 66 129 66h10q52 -6 110 -57q181 -121 203 -188q0 -52 -68 -40z" />
    <glyph glyph-name="caron" unicode="&#x2c7;" horiz-adv-x="825" 
d="M583 1791q68 12 68 -40q-22 -67 -203 -188q-58 -51 -110 -57h-10q-39 0 -129 66q-36 14 -153 118q-45 35 -45 61q10 22 20 24h25q117 -32 188 -71l82 -18q87 29 199 85z" />
    <glyph glyph-name="ring" unicode="&#x2da;" horiz-adv-x="678" 
d="M243 1844h5q230 -32 230 -87q13 0 26 -97v-102v-10q0 -106 -143 -123q-86 -51 -138 -51q-47 0 -184 138q-16 29 -36 174q0 66 92 127q118 31 148 31zM118 1633q49 -120 147 -120q122 0 122 120q0 87 -106 110h-32q-100 0 -131 -110z" />
    <glyph glyph-name="endash" unicode="&#x2013;" horiz-adv-x="1260" 
d="M270 777l88 -9h6l81 9h6q19 0 91 -23h3q22 0 91 23h13l97 -23l29 -3q34 0 120 17q149 -12 149 -34q12 0 26 -43q-24 -92 -84 -92l-36 2l-65 -5l-87 3l-155 -12h-26l-111 9h-48l-130 -6l-152 3h-13q-145 -7 -159 48q-34 56 26 101l49 16l159 19h32z" />
    <glyph glyph-name="emdash" unicode="&#x2014;" horiz-adv-x="1769" 
d="M451 587h-6l-81 9h-6l-88 -9h-32l-159 19l-49 16q-60 45 -26 101q14 55 159 48h13l152 3l130 -6h48l111 9h26l102 -8l22 2l62 -3h19q58 11 139 11l16 -3q74 0 131 -10l43 4l90 -13l85 14l65 -13l14 2l59 14h6l30 -10q58 -30 51 -90l-5 -18q-18 -35 -45 -49l-47 -4l-55 -7
l-62 2l-47 -7l-60 3l-117 -14l-160 5l-204 9l-44 -3l-52 3l-43 -7q-36 12 -59.5 16.5t-65 -6t-60.5 -10.5z" />
    <glyph glyph-name="quoteleft" unicode="&#x2018;" horiz-adv-x="398" 
d="M118 1563q54 -20 95 -121q14 -13 14 -41l-21 -85l24 -101v-8l-28 -69l-29 -105q-12 -13 -31 -93q-11 -20 -28 -20h-6q-36 0 -66 77l-14 129q-17 18 -20 170q-16 62 -16 97v12q9 72 71 136q29 22 55 22z" />
    <glyph glyph-name="quoteright" unicode="&#x2019;" horiz-adv-x="398" 
d="M100 1556h3q62 0 121 -144l7 -48l-33 -152q0 -137 -52 -264q-27 -24 -49 -24h-4q-49 0 -49 100l-19 96v8l6 64v16q0 18 -29 100l-7 88q0 47 82 148q12 12 23 12z" />
    <glyph glyph-name="quotesinglbase" unicode="&#x201a;" horiz-adv-x="402" 
d="M118 443q54 -20 95 -121q14 -13 14 -41l-21 -85l24 -101v-8l-28 -69l-29 -105q-12 -13 -31 -93q-11 -20 -28 -20h-6q-36 0 -66 77l-14 129q-17 18 -20 170q-16 62 -16 97v12q9 72 71 136q29 22 55 22z" />
    <glyph glyph-name="quotedblleft" unicode="&#x201c;" horiz-adv-x="714" 
d="M118 1563q54 -20 95 -121q14 -13 14 -41l-21 -85l24 -101v-8l-28 -69l-29 -105q-12 -13 -31 -93q-11 -20 -28 -20h-6q-36 0 -66 77l-14 129q-17 18 -20 170q-16 62 -16 97v12q9 72 71 136q29 22 55 22zM410 1556h3q62 0 121 -144l7 -48l-33 -152q0 -137 -52 -264
q-27 -24 -49 -24h-4q-49 0 -49 100l-19 96v8l6 64v16q0 18 -29 100l-7 88q0 47 82 148q12 12 23 12z" />
    <glyph glyph-name="quotedblright" unicode="&#x201d;" horiz-adv-x="714" 
d="M118 1563q54 -20 95 -121q14 -13 14 -41l-21 -85l24 -101v-8l-28 -69l-29 -105q-12 -13 -31 -93q-11 -20 -28 -20h-6q-36 0 -66 77l-14 129q-17 18 -20 170q-16 62 -16 97v12q9 72 71 136q29 22 55 22zM410 1556h3q62 0 121 -144l7 -48l-33 -152q0 -137 -52 -264
q-27 -24 -49 -24h-4q-49 0 -49 100l-19 96v8l6 64v16q0 18 -29 100l-7 88q0 47 82 148q12 12 23 12z" />
    <glyph glyph-name="quotedblbase" unicode="&#x201e;" horiz-adv-x="714" 
d="M118 443q54 -20 95 -121q14 -13 14 -41l-21 -85l24 -101v-8l-28 -69l-29 -105q-12 -13 -31 -93q-11 -20 -28 -20h-6q-36 0 -66 77l-14 129q-17 18 -20 170q-16 62 -16 97v12q9 72 71 136q29 22 55 22zM410 436h3q62 0 121 -144l7 -48l-33 -152q0 -137 -52 -264
q-27 -24 -49 -24h-4q-49 0 -49 100l-19 96v8l6 64v16q0 18 -29 100l-7 88q0 47 82 148q12 12 23 12z" />
    <glyph glyph-name="bullet" unicode="&#x2022;" horiz-adv-x="657" 
d="M255 945h8q100 0 160 -136q32 -37 32 -68v-20q-11 -70 -64 -124q-115 -80 -136 -80h-20q-115 27 -152 56q-80 93 -80 160v4q0 88 92 156q17 37 160 52z" />
    <glyph glyph-name="ellipsis" unicode="&#x2026;" horiz-adv-x="1959" 
d="M316 357q72 -41 72 -80q48 -74 48 -96v-4q0 -22 -20 -52q-107 -128 -132 -128l-96 4h-28q-28 0 -44 8q-116 72 -116 128l4 36l-4 84l24 48q85 85 164 92q41 0 128 -40zM891 417h8q100 0 160 -136q32 -37 32 -68v-20q-11 -70 -64 -124q-115 -80 -136 -80h-20
q-115 27 -152 56q-80 93 -80 160v4q0 88 92 156q17 37 160 52zM1577 389q16 0 69 -39q63 -24 102 -85q14 -32 14 -48q0 -121 -38 -147q-87 -62 -170 -81q-115 0 -147 59q-79 65 -79 120l3 3h-3l3 3v23q0 68 65 117q0 21 158 75h23z" />
    <glyph glyph-name="fraction" unicode="&#x2044;" horiz-adv-x="1611" 
d="M1353 1632h8q40 0 56 -60v-24q0 -50 -116 -172l-108 -148q-23 -51 -100 -92q-31 -22 -76 -132q-44 -43 -108 -132q-92 -81 -116 -156l-128 -200q-41 -45 -100 -156q-108 -93 -132 -160l-144 -208q-13 -35 -96 -128q-25 -47 -100 -68l-48 -8q-40 0 -40 72v24q1 57 144 236
q54 45 88 144q4 20 116 116q86 165 124 200q45 46 76 116q103 71 112 116q19 27 88 92q50 52 76 140q25 40 128 128q45 47 80 128q52 96 116 180q29 21 140 132q42 20 60 20z" />
    <glyph glyph-name="fraction" unicode="&#x2215;" horiz-adv-x="1611" 
d="M1353 1632h8q40 0 56 -60v-24q0 -50 -116 -172l-108 -148q-23 -51 -100 -92q-31 -22 -76 -132q-44 -43 -108 -132q-92 -81 -116 -156l-128 -200q-41 -45 -100 -156q-108 -93 -132 -160l-144 -208q-13 -35 -96 -128q-25 -47 -100 -68l-48 -8q-40 0 -40 72v24q1 57 144 236
q54 45 88 144q4 20 116 116q86 165 124 200q45 46 76 116q103 71 112 116q19 27 88 92q50 52 76 140q25 40 128 128q45 47 80 128q52 96 116 180q29 21 140 132q42 20 60 20z" />
    <glyph glyph-name="Euro" unicode="&#x20ac;" horiz-adv-x="1225" 
d="M54 740q-5 36 -63 39q-27 10 -45 36l-5 13q-7 43 51 64l30 7h6q21 -4 26 21.5t28 99.5q0 75 80 170q38 114 92 140q111 72 152 72q74 52 166 52q20 8 72 8h16q29 0 145 -41q69 -26 133 -94q13 -13 25 -28q23 -38 38.5 -64.5t0.5 -61.5t-77 3q-53 34 -83 66l-50 55
q-190 57 -216 57h-4q-29 0 -94 -60q-98 -20 -136 -72l-60 -72q-41 -77 -76 -114q-31 -24 -40 -82t85 -67h16l74 10h8l35 -3q57 7 131 7l16 2q81 0 139 -8h19l62 2h6q88 -8 188 -11q65 -12 65 -40q6 -62 -52 -67l-84 -8l-87 -3l-44 2l-204 -6l-160 -4l-117 10l-9 1l-31 -3
l-38 -6q-31 -14 -29 -29q-7 -14 -2 -33.5t54 -21.5h32l68 -6h6l81 6h6q19 0 91 -15h3q22 0 91 15h13l97 -15l29 -2q34 0 120 11q149 -8 149 -23q12 0 26 -28q-24 -61 -84 -61l-36 1l-65 -3l-87 2l-155 -8h-26l-111 6h-48l-130 -4q-130 2 -120.5 -14.5t49.5 -59.5
q20 -48 28 -118l-4 -44q0 -10 60 -40q66 -67 108 -80q24 -25 35 -61q26 -26 50 -26h16q18 0 191 9l101 59q79 78 132 118q49 46 62 48.5t37.5 -22.5t11 -60t-67.5 -105q-22 -75 -200 -156l-160 -32q-75 20 -164 24q-76 60 -84 60q-62 8 -120 72q-50 64 -60 104v24l4 28
q-96 79 -96 158q-5 83 -10.5 99t-58 17t-64.5 32q-34 37 26 67q45 9 66 56q5 13 9 29z" />
    <glyph glyph-name="minus" unicode="&#x2212;" horiz-adv-x="1249" 
d="M815 826q87 -11 188 -16q65 -17 65 -55q6 -86 -52 -93l-84 -11l-87 -5l-44 3l-204 -9l-160 -5l-117 14l-9 2l-51 -5l-47 7l-62 -2l-55 7l-47 4q-27 14 -45 49l-5 18q-7 60 51 90l30 10h5l60 -14l14 -2l65 13l85 -14h16l73 13h9l35 -4q57 10 131 10l16 3q81 0 139 -11h19
l62 3h6z" />
    <glyph glyph-name="infinity" unicode="&#x221e;" horiz-adv-x="1870" 
d="M1680 579v-28q-16 -171 -48 -200q-12 -19 -48 -36v-20l8 -28q0 -40 -84 -92q-61 -108 -172 -108l-112 16l-24 -4q-93 0 -176 84q-45 36 -64 36h-24q-49 0 -116 -96q-33 -30 -184 -104l-176 -12q-40 0 -244 68q-131 128 -152 188q-64 93 -64 212l-4 32q8 138 28 220v52
q0 44 92 116q54 80 112 80q38 0 108 68q28 20 52 20h32l136 16q34 0 160 -76q52 0 96 -40q45 -76 64 -84h36q25 0 112 64q31 24 88 24q104 -17 104 -40v-4q0 -55 -92 -120q-80 -77 -80 -144v-64l-12 -88v-32q0 -46 56 -108q72 -100 92 -116q47 -28 84 -28q176 41 176 60
q17 9 48 68q48 21 48 120v24l-4 120q20 64 3 115l-91 77q-32 78 -92 58l-100 28v16q29 80 60 80h16q128 -16 160 -52q6 -13 60 -44q44 -44 24 -114q68 -36 80 -56q16 -23 28 -124zM360 911q-22 0 -64 -80q-88 -61 -88 -100q-64 -130 -64 -204v-44q0 -46 60 -160
q7 -31 96 -132q84 -84 156 -84q164 0 164 44q50 64 112 84q108 113 108 172l20 108q-16 88 -24 200q-58 116 -156 156l-184 36z" />
    <glyph glyph-name="smileface" unicode="&#x263a;" horiz-adv-x="1737" 
d="M990 1100h47q53 0 109 -16q207 -89 214 -187l4 -26v-52q0 -52 -41 -166l-31 -57q-53 -124 -178 -124h-46q-111 0 -224 103q-67 36 -191 327h-5v-5l1 -7q19 -104 190 -382q103 -154 224 -234q135 -51 270 -119q208 -124 218 -187v-5l-5 -47q-25 -62 -68 -62q-94 13 -94 37
v15q-1 5 -4 47q-49 134 -209 222q-239 96 -378 307l-79 130v-31q0 -70 -20 -145q-45 -125 -117.5 -160.5t-106.5 -32.5q-94 0 -169 41.5t-90 56.5q-88 66 -88 172v26q0 88 62 182q47 104 338 203l26 9v6h-6l-15 -6q-132 -51 -239 -51h-32q-92 0 -165 46q-94 75 -96 143
q0 62 19 120t29.5 83t26.5 54q42 104 151 104q90 -7 156 -52q107 -66 160 -254h5v10l-10 98v52q0 95 67 187q68 82 146 94l47 5q61 0 117 -21t87 -37t55.5 -58.5t25 -97t-77.5 -139.5q-39 -67 -301 -192l-51 -31v-6l46 26q175 84 296 84z" />
  </font>
</defs>
</svg>
